<?xml version="1.0" encoding="utf-8"?>
<!-- Generator: Adobe Illustrator 23.0.1, SVG Export Plug-In . SVG Version: 6.00 Build 0)  -->
<svg version="1.1" xmlns="http://www.w3.org/2000/svg" xmlns:xlink="http://www.w3.org/1999/xlink" x="0px" y="0px"
	 viewBox="0 0 500 400" style="enable-background:new 0 0 500 400;" xml:space="preserve">
<g id="Layer_1">
	<g style="display:none;">
		<g style="display:inline;">
			<path style="fill:#EEEEEE;" d="M227.969,373.435v0.018c0,3.613-1.332,6.543-2.974,6.552l-123.368,0.559
				c-1.646,0.009-2.986-2.921-2.99-6.543l-0.165-179.816c-0.004-3.613,1.328-6.561,2.974-6.57l123.368-0.559
				c1.646-0.009,2.986,2.921,2.99,6.543l0.008,7.005L227.969,373.435z"/>
			<linearGradient id="SVGID_1_" gradientUnits="userSpaceOnUse" x1="163.2021" y1="190.638" x2="163.2021" y2="201.3372">
				<stop  offset="0" style="stop-color:#90CAF9"/>
				<stop  offset="1" style="stop-color:#1976D2"/>
			</linearGradient>
			<path style="opacity:0.66;fill:url(#SVGID_1_);" d="M224.614,188.641l-122.844,0.558c-1.792,0.008-3.241,3.21-3.238,7.152
				l0.006,6.206l129.332-0.587l-0.006-6.206C227.862,191.821,226.406,188.632,224.614,188.641z"/>
		</g>
		<g style="display:inline;">
			<g style="opacity:0.57;">
				<polygon style="fill:#BDBDBD;" points="148.436,215.795 214.507,215.795 214.507,218.398 149.985,218.398 				"/>
				<polygon style="fill:#BDBDBD;" points="151.082,220.243 214.507,220.243 214.507,222.846 152.63,222.846 				"/>
				<polygon style="fill:#BDBDBD;" points="153.747,224.724 214.507,224.724 214.507,227.327 155.295,227.327 				"/>
				<polygon style="fill:#BDBDBD;" points="156.393,229.173 214.507,229.173 214.507,231.776 157.941,231.776 				"/>
				<polygon style="fill:#BDBDBD;" points="159.032,233.609 214.507,233.609 214.507,236.212 160.58,236.212 				"/>
				<polygon style="fill:#BDBDBD;" points="161.677,238.057 198.687,238.057 198.687,240.66 163.225,240.66 				"/>
			</g>
			<g style="opacity:0.57;">
				<polygon style="fill:#BDBDBD;" points="166.241,245.731 214.507,245.731 214.507,248.334 167.789,248.334 				"/>
				<polygon style="fill:#BDBDBD;" points="168.88,250.167 214.507,250.167 214.507,252.77 170.428,252.77 				"/>
				<polygon style="fill:#BDBDBD;" points="171.525,254.616 198.687,254.616 198.687,257.219 173.073,257.219 				"/>
			</g>
		</g>
		<g style="display:inline;">
			<g style="opacity:0.57;">
				<rect x="106.974" y="271.816" style="fill:#BDBDBD;" width="107.869" height="2.603"/>
				<rect x="106.974" y="276.264" style="fill:#BDBDBD;" width="107.869" height="2.603"/>
				<rect x="106.974" y="280.701" style="fill:#BDBDBD;" width="107.869" height="2.603"/>
				<rect x="106.974" y="285.149" style="fill:#BDBDBD;" width="69.605" height="2.603"/>
			</g>
			<g style="opacity:0.57;">
				<rect x="106.974" y="292.822" style="fill:#BDBDBD;" width="107.869" height="2.603"/>
				<rect x="106.974" y="297.259" style="fill:#BDBDBD;" width="107.869" height="2.603"/>
				<rect x="106.974" y="301.707" style="fill:#BDBDBD;" width="69.605" height="2.603"/>
			</g>
		</g>
		<g style="display:inline;opacity:0.7;">
			<polygon style="opacity:0.85;fill:#F48F31;" points="126.302,227.234 120.963,235.776 146.321,235.776 140.984,227.234 			"/>
			<polygon style="opacity:0.85;fill:#A1205D;" points="139.648,225.099 133.642,215.49 127.637,225.099 			"/>
			<polygon style="opacity:0.85;fill:#C72D96;" points="152.994,246.454 147.656,237.911 119.629,237.911 114.291,246.454 			"/>
			<polygon style="opacity:0.85;fill:#762E8E;" points="112.955,248.588 106.95,258.198 160.335,258.198 154.329,248.588 			"/>
		</g>
		<g style="display:inline;opacity:0.85;">
			<polygon style="fill:#CE93D8;" points="216.314,361.794 107.008,361.794 107.008,320.131 108.248,320.131 108.248,360.77 
				216.314,360.77 			"/>
			<polygon style="fill:#CE93D8;" points="111.805,349.586 136.275,332.905 158.562,340.962 178.397,326.221 195.752,331.719 
				215.937,320.778 215.937,357.833 111.805,357.833 			"/>
			<linearGradient id="SVGID_2_" gradientUnits="userSpaceOnUse" x1="111.8054" y1="343.6573" x2="215.9366" y2="343.6573">
				<stop  offset="0" style="stop-color:#813A97"/>
				<stop  offset="1" style="stop-color:#C72F97"/>
			</linearGradient>
			<polygon style="fill:url(#SVGID_2_);" points="111.805,349.586 136.275,340.989 158.562,345.786 178.397,336.192 
				195.752,339.858 215.937,329.482 215.937,357.833 111.805,357.833 			"/>
		</g>
	</g>
</g>
<g id="Layer_2">
	<g>
		
			<linearGradient id="SVGID_3_" gradientUnits="userSpaceOnUse" x1="433.4474" y1="227.623" x2="379.4578" y2="422.3403" gradientTransform="matrix(0.9678 0.2517 -0.2517 0.9678 73.3545 -96.6311)">
			<stop  offset="0" style="stop-color:#F58792"/>
			<stop  offset="1" style="stop-color:#B43661"/>
		</linearGradient>
		<path style="fill:url(#SVGID_3_);" d="M412.867,288.445c-2.676-3.908-5.093-7.489-8.095-11.158
			c-5.01-6.123-7.905-14.367-10.876-21.642c-4.131-10.116-11.067-24.606-9.336-35.606c4.042,1.723,7.58,8.261,9.94,11.69
			c4.305,6.256,7.632,12.654,10.8,19.55c3.365,7.325,5.278,15.28,8.49,22.62c2.109-3.184-0.313-9.711-0.763-13.281
			c-0.973-7.715-0.401-15.295,0.511-22.996c0.769-6.492,1.577-13.263,3.212-19.594c1.034-4.003,2.084-11.215,4.793-14.381
			c2.512,6.111,3.159,12.964,3.335,19.537c0.197,7.354,0.59,15.175-0.429,22.486c-0.584,4.188-4.557,19.276,0.422,21.62
			c8.273-11.875,10.768-27.985,17.353-40.897c5.29-10.372,11.917-21.505,21.363-28.652c0.093,7.162-4.787,16.486-7.324,23.07
			c-3.717,9.648-7.466,19.356-11.891,28.699c-3.819,8.063-5.715,16.866-9.391,24.93c6.1-11.293,13.551-22.6,23.197-31.091
			c4.22-3.715,8.416-7.129,12.798-10.627c1.942-1.55,3.958-3.637,6.273-4.216c-0.436,5.239-6.02,11.584-8.659,16.093
			c-3.976,6.793-7.734,13.846-12.917,19.82c-5.702,6.573-11.205,13.898-17.362,20.056c3.559-6.862,14.66-13.9,21.333-17.526
			c4.752-2.582,12.652-7.323,18.152-6.608c-3.12,7.288-13.046,14.321-18.748,19.433c-6.257,5.609-15.169,12.502-23.105,15.52
			c-4.741,1.803-11.177,2.654-16.09,0.943C417.353,295.365,413.711,289.679,412.867,288.445z"/>
		
			<linearGradient id="SVGID_4_" gradientUnits="userSpaceOnUse" x1="430.9227" y1="164.2141" x2="430.9227" y2="318.2685" gradientTransform="matrix(0.8705 0.4922 -0.4922 0.8705 169.354 -165.7382)">
			<stop  offset="0" style="stop-color:#774BE0"/>
			<stop  offset="1" style="stop-color:#45278E"/>
		</linearGradient>
		<path style="fill:url(#SVGID_4_);" d="M483.407,181.185c-5.342-0.71-12.278,3.243-16.364,8.101
			c0.678-2.147,1.329-4.301,1.92-6.468c0.097-0.356,0.192-0.718,0.288-1.076c4.71-2.866,17.655-7.429,16.349-15.136
			c-6.1-1.1-10.777,3.65-13.567,7.911c-0.354,0.541-0.907,1.292-1.473,2.128c0.829-3.382,1.585-6.83,2.224-10.311
			c1.971-0.585,4.896-1.811,7.229-3.372c1.642-1.1,8.193-6.413,2.391-7.409c-2.214-0.38-6.566,3.679-8.987,7.092
			c0.389-2.48,0.706-4.97,0.941-7.458c5.045-11.216,15.067-24.038,7.935-36.617c-7.258-12.802-13.166,6.818-13.27,12.491
			c-0.089,4.881,0.069,16.185,3.17,23.874c-0.379,2.674-0.797,5.342-1.336,7.993c-0.299,1.469-0.621,2.934-0.952,4.397
			c-0.006-9.204-0.219-27.509-8.753-24.445c-7.57,2.718,4.99,19.651,8.163,26.936c-1.046,4.359-2.225,8.689-3.568,12.963
			c-0.349,1.11-0.724,2.212-1.095,3.315c-0.178-3.97,0.931-8.838-0.53-12.663c-1.295-3.391-6.1-9.232-9.07-5.646
			c-4.23,5.107,2.689,11.768,5.595,15.649c2.088,2.789,2.209,4.852,3.127,5.229c-1.875,5.32-4.01,10.548-6.392,15.671
			c1.336-7.374,1.778-19.152-6.832-22.34c-6.964,9.557,3.875,15.998,6.187,23.718c-2.472,5.196-5.195,10.283-8.201,15.23
			c-0.035,0.058-0.072,0.116-0.108,0.174c1.486-5.515,3.414-10.76,2.325-16.773c-0.988-5.456-6.516-11.666-8.994-3.555
			c-1.805,5.91,1.632,11.17,3.625,16.683c0.887,2.453,1.043,4.835,1.481,6.141c-2.903,4.535-6.061,8.88-9.412,13.091
			c2.134-9.559,5.715-29.568-5.638-29.967c-6.473,9.202,2.394,21.386,4.459,31.438c-3.092,3.806-6.339,7.505-9.694,11.139
			c1.739-3.756,2.504-7.877,3.365-11.904c0.647-3.025-0.204-14.117-6.777-11.674c-6.482,2.41-1.08,13.257,0.3,16.847
			c1.303,3.39,1.311,6.298,0.74,9.275c-0.624,0.661-1.251,1.32-1.881,1.977c-3.253,3.394-6.566,6.798-9.782,10.283
			c3.431-7.704,11.339-20.963,1.046-25.57c-4.151,4.912-5.301,15.687-3.877,21.872c0.463,2.013,0.918,3.777,1.409,5.252
			c-1.844,2.034-3.645,4.102-5.376,6.214c1.401-8.664-1.221-20.546-6.433-18.484c-5.287,2.091-2.948,11.762-1.526,15.428
			c1.241,3.199,2.936,6.183,3.546,8.793c-1.882,2.63-3.628,5.341-5.175,8.165c-1.107,2.021,2.177,3.674,3.413,1.749
			c2.414-3.757,5.042-7.336,7.816-10.8c6.021,0.904,15.034,8.217,19.588,8.222c6.336,0.007,8.475-5.255,3.605-9.505
			c-4.429-3.866-13.702-4.2-20.59-1.879c2.481-2.95,5.054-5.829,7.682-8.676c5.648-0.359,10.493,4.965,16.822,3.73
			c6.659-1.3,6.956-8.553,0.12-10.036c-3.295-0.715-8.484,0.226-12.926,2.008c1.889-2,3.792-3.996,5.695-6.001
			c1.648-1.737,3.266-3.49,4.856-5.261c5.586,0.673,13.401,7.244,19.175,1.778c4.046-3.83,2.177-10.242-4.086-9.508
			c-3.158,0.37-7.57,1.722-11.445,3.57c2.879-3.373,5.638-6.823,8.251-10.372c6.656,0.083,15.228,8.51,21.882,3.944
			c5.43-3.726,0.095-9.901-5.417-10.341c-5.419-0.433-10.659,2.434-15.479,5.041c1.92-2.665,3.759-5.386,5.502-8.176
			c5.587-0.659,13.698,2.386,19.057-1.677c5.215-3.954,5.628-12.602-3.206-11.353c-4.639,0.656-8.953,3.977-12.636,7.587
			c1.794-3.181,3.469-6.424,5.032-9.719c1.945-0.983,4.484-2.148,7.376-2.998c3.29-0.966,7.235-1.276,9.232-4.272
			c3.442-5.163-2.247-5.683-6.456-3.875c-3.042,1.307-5.714,3.856-8.083,6.606c1.637-3.75,3.131-7.559,4.48-11.413
			C471.009,190.529,485.784,192.308,483.407,181.185z"/>
	</g>
	<g>
		<g>
			<path style="fill:#EEEEEE;" d="M431.49,310.739v0.023c0,4.724-4.359,8.554-9.736,8.565l-403.857,0.731
				c-5.39,0.012-9.775-3.818-9.789-8.554L7.568,76.433c-0.013-4.724,4.346-8.577,9.736-8.589l403.857-0.731
				c5.39-0.012,9.775,3.818,9.789,8.554l0.026,9.157L431.49,310.739z"/>
			<linearGradient id="SVGID_5_" gradientUnits="userSpaceOnUse" x1="219.4713" y1="71.7699" x2="219.4713" y2="85.7569">
				<stop  offset="0" style="stop-color:#90CAF9"/>
				<stop  offset="1" style="stop-color:#1976D2"/>
			</linearGradient>
			<path style="opacity:0.66;fill:url(#SVGID_5_);" d="M420.51,69.159L18.37,69.888c-5.865,0.011-10.611,4.197-10.598,9.35
				l0.019,8.114l423.379-0.768l-0.019-8.114C431.14,73.317,426.375,69.148,420.51,69.159z"/>
		</g>
		<g>
			<path style="fill:#B39DDB;" d="M348.505,159.138c-0.293-8.101-3.611-15.519-8.784-21.179l-21.179,21.179H348.505z"/>
			<path style="fill:#CE93D8;" d="M316.394,158.748l19.13-19.13c-5.075-4.685-11.712-7.515-19.13-7.515s-14.055,2.83-19.13,7.515
				L316.394,158.748z"/>
			<path style="fill:#CE93D8;" d="M317.272,160.993v24.693c13.371-0.488,24.107-11.224,24.595-24.693H317.272z"/>
			<path style="fill:#B39DDB;" d="M315.418,160.505l-16.202-16.202c-3.806,4.197-6.149,9.663-6.149,15.811
				c0,12.493,9.955,22.741,22.351,23.229V160.505L315.418,160.505z"/>
		</g>
		<g>
			<path style="opacity:0.35;fill:#B66887;" d="M244.338,232.949H49.517c-12.747,0-23.08-10.333-23.08-23.08v-77.883
				c0-12.747,10.333-23.08,23.08-23.08h194.822c12.747,0,23.08,10.333,23.08,23.08v77.883
				C267.418,222.616,257.085,232.949,244.338,232.949z"/>
			<g style="opacity:0.9;">
				<polygon style="fill:#813A97;" points="165.759,168.257 133.949,186.434 97.389,177.759 58.453,188.809 58.453,185.091 
					97.286,173.834 132.503,182.923 165.862,164.642 201.493,168.774 227.828,122.195 250.859,133.556 250.859,136.344 
					228.655,126.12 202.938,172.078 				"/>
				<polygon style="fill:#C82F97;" points="248.174,140.372 230.41,131.284 205.004,177.655 165.655,172.078 135.395,190.152 
					97.699,180.65 58.35,191.908 58.35,202.752 250.653,202.752 250.653,139.649 				"/>
			</g>
			<g>
				<polygon style="fill:#762E8E;" points="251.182,215.519 42.803,215.519 42.803,123.115 45.902,123.115 45.902,212.421 
					251.182,212.421 				"/>
			</g>
		</g>
		<g>
			<g>
				<g style="opacity:0.57;">
					<rect x="289.484" y="250.497" style="fill:#BDBDBD;" width="123.455" height="3.49"/>
					<rect x="289.484" y="256.461" style="fill:#BDBDBD;" width="123.455" height="3.49"/>
					<rect x="289.484" y="262.469" style="fill:#BDBDBD;" width="123.455" height="3.49"/>
					<rect x="289.484" y="268.433" style="fill:#BDBDBD;" width="123.455" height="3.49"/>
					<rect x="289.484" y="274.382" style="fill:#BDBDBD;" width="123.455" height="3.49"/>
					<rect x="289.484" y="280.345" style="fill:#BDBDBD;" width="79.662" height="3.49"/>
				</g>
				<g style="opacity:0.57;">
					<rect x="289.484" y="290.633" style="fill:#BDBDBD;" width="123.455" height="3.49"/>
					<rect x="289.484" y="296.582" style="fill:#BDBDBD;" width="123.455" height="3.49"/>
					<rect x="289.484" y="302.546" style="fill:#BDBDBD;" width="79.662" height="3.49"/>
				</g>
			</g>
			<g>
				<g style="opacity:0.57;">
					<rect x="291.057" y="207.107" style="fill:#BDBDBD;" width="122.424" height="3.49"/>
					<rect x="291.057" y="213.071" style="fill:#BDBDBD;" width="122.424" height="3.49"/>
					<rect x="291.057" y="219.079" style="fill:#BDBDBD;" width="122.424" height="3.49"/>
					<rect x="291.057" y="225.042" style="fill:#BDBDBD;" width="122.424" height="3.49"/>
					<rect x="291.057" y="230.991" style="fill:#BDBDBD;" width="122.424" height="3.49"/>
					<rect x="291.057" y="236.955" style="fill:#BDBDBD;" width="78.997" height="3.49"/>
				</g>
			</g>
		</g>
		<g>
			<g style="opacity:0.57;">
				<rect x="28.986" y="249.249" style="fill:#BDBDBD;" width="108.887" height="3.49"/>
				<rect x="28.986" y="255.212" style="fill:#BDBDBD;" width="108.887" height="3.49"/>
				<rect x="28.986" y="261.22" style="fill:#BDBDBD;" width="108.887" height="3.49"/>
				<rect x="28.986" y="267.184" style="fill:#BDBDBD;" width="108.887" height="3.49"/>
				<rect x="28.986" y="273.133" style="fill:#BDBDBD;" width="108.887" height="3.49"/>
				<rect x="28.986" y="279.097" style="fill:#BDBDBD;" width="70.262" height="3.49"/>
			</g>
			<g style="opacity:0.57;">
				<rect x="28.986" y="289.384" style="fill:#BDBDBD;" width="108.887" height="3.49"/>
				<rect x="28.986" y="295.333" style="fill:#BDBDBD;" width="108.887" height="3.49"/>
				<rect x="28.986" y="301.297" style="fill:#BDBDBD;" width="70.262" height="3.49"/>
			</g>
		</g>
		<g>
			<g style="opacity:0.57;">
				<rect x="164.353" y="249.249" style="fill:#BDBDBD;" width="98.058" height="3.49"/>
				<rect x="164.353" y="255.212" style="fill:#BDBDBD;" width="98.058" height="3.49"/>
				<rect x="164.353" y="261.22" style="fill:#BDBDBD;" width="98.058" height="3.49"/>
				<rect x="164.353" y="267.184" style="fill:#BDBDBD;" width="98.058" height="3.49"/>
				<rect x="164.353" y="273.133" style="fill:#BDBDBD;" width="98.058" height="3.49"/>
				<rect x="164.353" y="279.097" style="fill:#BDBDBD;" width="63.274" height="3.49"/>
			</g>
			<g style="opacity:0.57;">
				<rect x="164.353" y="289.384" style="fill:#BDBDBD;" width="98.058" height="3.49"/>
				<rect x="164.353" y="295.333" style="fill:#BDBDBD;" width="98.058" height="3.49"/>
				<rect x="164.353" y="301.297" style="fill:#BDBDBD;" width="63.274" height="3.49"/>
			</g>
		</g>
		<g style="opacity:0.47;">
			<g>
				<path style="fill:#B56887;" d="M406.162,158.295c0,1.744-0.24,3.431-0.68,5.035l6.244,2.061c0.65-2.254,1.006-4.633,1.006-7.096
					c0-4.543-1.191-8.806-3.269-12.503l-5.606,3.426C405.326,151.915,406.162,155.008,406.162,158.295z"/>
				<path style="fill:#A1205D;" d="M388.125,139.324c6.12,0.304,11.477,3.505,14.728,8.26l5.611-3.429
					c-4.415-6.636-11.847-11.086-20.339-11.4V139.324z"/>
				<path style="fill:#0277BD;" d="M379.056,175.475c-6.434-3.043-10.885-9.59-10.885-17.18c0-10.17,7.991-18.471,18.036-18.971
					v-6.569c-13.674,0.504-24.606,11.742-24.606,25.54c0,10.332,6.132,19.225,14.952,23.256L379.056,175.475z"/>
				<path style="fill:#772E8E;" d="M404.881,165.151c-2.751,7.101-9.642,12.14-17.714,12.14c-2.223,0-4.355-0.386-6.338-1.088
					l-2.505,6.085c2.757,1.017,5.734,1.573,8.843,1.573c10.982,0,20.344-6.926,23.964-16.648L404.881,165.151z"/>
			</g>
		</g>
		<g style="opacity:0.57;">
			<rect x="109.612" y="130.56" style="fill:#A1205D;" width="26.941" height="3.49"/>
			<rect x="58.045" y="130.56" style="fill:#BD7494;" width="51.567" height="3.49"/>
			<rect x="136.553" y="130.56" style="fill:#F48F31;" width="25.799" height="3.49"/>
			<rect x="162.352" y="130.56" style="fill:#C72D96;" width="21.293" height="3.49"/>
			<rect x="58.045" y="136.524" style="fill:#BD7494;" width="36.014" height="3.49"/>
			<rect x="94.059" y="136.524" style="fill:#A1205D;" width="23.515" height="3.49"/>
			<rect x="151.335" y="136.524" style="fill:#C72D96;" width="32.28" height="3.49"/>
			<rect x="117.574" y="136.524" style="fill:#F48F31;" width="33.761" height="3.49"/>
			<rect x="58.045" y="142.532" style="fill:#BD7494;" width="30.335" height="3.49"/>
			<rect x="88.38" y="142.532" style="fill:#A1205D;" width="37.186" height="3.49"/>
			<rect x="125.536" y="142.532" style="fill:#F48F31;" width="32.989" height="3.49"/>
			<rect x="158.556" y="142.532" style="fill:#C72D96;" width="25.089" height="3.49"/>
			<rect x="58.045" y="148.495" style="fill:#BD7494;" width="46.259" height="3.49"/>
			<rect x="104.304" y="148.495" style="fill:#A1205D;" width="34.532" height="3.49"/>
			<rect x="168.431" y="148.495" style="fill:#C72D96;" width="15.214" height="3.49"/>
			<rect x="138.837" y="148.495" style="fill:#F48F31;" width="29.595" height="3.49"/>
		</g>
	</g>
	
		<linearGradient id="SVGID_6_" gradientUnits="userSpaceOnUse" x1="116.4867" y1="347.8175" x2="39.7513" y2="361.1763" gradientTransform="matrix(0.9825 -0.4689 1.1535 1.1978 -427.0691 -29.539)">
		<stop  offset="0" style="stop-color:#9BABFD"/>
		<stop  offset="1" style="stop-color:#EEA4B6"/>
	</linearGradient>
	<path style="fill:url(#SVGID_6_);" d="M66.767,341.977c3.221-5.952,8.301-10.291,15.046-13.326
		c3.635-1.636,7.874-2.033,12.511-2.367c1.838-0.132,3.738-0.154,5.363-0.591c0.719-0.193,1.363-0.615,2.168-0.584
		c-1.491,2.614-2.263,5.521-4.049,7.984c-2.013,2.777-4.335,5.652-7.129,7.801c-4.766,3.666-8.719,7.986-12.673,12.311
		c-1.958,2.142-5.088,5.134-10.136,3.32c-1.929-0.693-3.944-2.265-5.685-3.594c-0.284-3.461,2.486-5.302,3.395-8.082
		C65.968,343.66,65.333,342.206,66.767,341.977z"/>
	<linearGradient id="SVGID_7_" gradientUnits="userSpaceOnUse" x1="45.4801" y1="269.9807" x2="45.4801" y2="381.2155">
		<stop  offset="0" style="stop-color:#774BE0"/>
		<stop  offset="1" style="stop-color:#45278E"/>
	</linearGradient>
	<path style="fill:url(#SVGID_7_);" d="M46.022,298.931c-1.603,2.159-1.75,5.169-2.05,7.553c-0.032,0.255-0.052,0.811-0.081,1.384
		c-0.414-1.177-0.822-2.357-1.22-3.542c-0.264-0.787-0.52-1.579-0.778-2.372c0.416-0.557,0.911-1.886,1.85-3.245
		c1.11-1.606,2.119-2.059,1.782-4.096c-0.318-1.92-1.933-3.357-3.527-1.205c-1.355,1.829-1.174,4.13-0.874,6.242
		c-0.842-2.437-1.799-4.803-3.177-6.89c0.507-7.248-6.269-13.65-12.585-15.25c-0.607-0.154-1.274-0.273-1.913-0.011
		c-1.386,0.567-1.69,2.465-1.258,3.727c0.605,1.767,2.041,3.044,3.642,3.961c1.601,0.917,3.392,1.531,5.058,2.349
		c1.403,0.689,2.575,1.569,3.687,2.512c0.013,0.026,0.021,0.053,0.043,0.078c1.674,1.874,2.856,4.108,3.805,6.49
		c-1.031-1.165-2.866-2.297-3.593-2.731c-2.03-1.215-4.51-1.896-7.082-1.482c-0.478,0.077-1.015,0.228-1.314,0.641
		c-0.376,0.519-0.185,1.167,0.081,1.651c0.936,1.703,2.616,2.916,4.599,3.318c2.538,0.515,5.36,0.094,7.937,0.501
		c0.016-0.032,0.027-0.064,0.039-0.096c0.501,1.444,0.944,2.919,1.378,4.388c-1.65-1.227-3.943-2.138-5.097-2.363
		c-0.915-0.178-1.915-0.232-2.86,0.148c-0.946,0.38-1.807,1.29-1.856,2.248c-0.029,0.559,0.214,1.06,0.557,1.447
		c1.098,1.239,3.04,1.374,4.822,1.44c1.78,0.066,3.581,0.219,5.379,0.21c0.055,0.175,0.109,0.351,0.165,0.525
		c0.813,2.526,1.66,5.039,2.551,7.532c-0.976-1.079-2.041-2.083-3.195-2.968c-2.337-1.79-5.148-3.086-8.245-3.303
		c-1.243-0.087-2.567,0.012-3.751,0.612c-0.48,0.244-0.976,0.637-1.053,1.147c-0.042,0.273,0.046,0.532,0.157,0.766
		c0.692,1.456,2.254,2.251,3.846,2.677c2.523,0.676,5.267,0.622,7.919,0.879c1.521,0.148,3.253,0.352,4.622,1.028
		c0.933,2.575,1.922,5.123,2.977,7.634c-1.714-2.15-4.507-4.048-6.565-5.272c-2.008-1.194-4.65-2.015-7.02-0.744
		c-0.345,0.185-0.68,0.416-0.929,0.724c-0.779,0.964-0.424,2.292,0.315,3.045c0.944,0.964,2.366,1.367,3.799,1.505
		c1.433,0.138,2.918,0.038,4.361,0.14c2.568,0.182,4.673,1.095,6.744,2.249c0.84,1.934,1.72,3.848,2.645,5.736
		c-1.03-0.827-2.249-1.528-2.888-1.874c-2.083-1.127-4.486-1.779-7.008-1.847c-0.853-0.023-1.862,0.086-2.461,0.798
		c-0.521,0.618-0.518,1.46-0.344,2.15c0.446,1.77,1.852,3.138,3.652,3.552c1.166,0.268,2.442,0.153,3.695,0.038
		c1.296-0.12,2.592-0.239,3.888-0.359c0.99-0.091,1.922-0.034,2.812,0.207c1.069,2.057,2.194,4.079,3.382,6.057
		c-0.735-0.615-1.513-1.184-2.344-1.671c-1.874-1.099-4.105-1.774-6.462-1.515c-0.811,0.089-1.701,0.331-2.281,0.979
		c-0.821,0.917-0.637,2.315,0.139,3.018c0.776,0.703,1.959,0.849,3.099,0.802c1.063-0.044,2.143-0.233,3.202-0.56
		c0.754-0.233,1.511-0.539,2.271-0.592c0.941-0.066,1.795,0.261,2.617,0.582c0.169,0.066,0.34,0.134,0.512,0.201
		c0.943,1.538,1.919,3.08,2.947,4.587c-1.803-0.83-4.092-1.044-6.081-0.743c-1.249,0.189-2.754,0.823-3.094,2.052
		c-0.107,0.388-0.073,0.786,0.063,1.126c0.492,1.23,2.148,1.501,3.57,1.146c1.423-0.355,2.757-1.171,4.166-1.628
		c0.808-0.262,1.8-0.076,2.587-0.23c1.694,2.333,3.539,4.542,5.617,6.473c0.61,0.567,1.553-0.366,1.088-1.022
		c-1.263-1.783-2.555-3.533-3.835-5.29c0.999-0.805,4.083-4.636,4.598-5.209c0.821-0.912,1.4-2.232,0.9-3.158
		c-0.483-0.894-1.829-1.012-2.87-0.479c-1.041,0.532-1.798,1.548-2.322,2.584c-0.294,0.582-1.172,3.304-1.213,5.009
		c-1.306-1.809-2.586-3.639-3.801-5.524c0.325-0.662,0.633-1.366,1.11-1.975c0.757-0.968,1.755-1.746,2.495-2.726
		c0.74-0.98,1.185-2.326,0.603-3.202c-0.694-1.046-2.538-0.785-3.615,0.22s-1.526,2.465-1.728,3.824
		c-0.064,0.43-0.167,1.042-0.221,1.677c-0.094-0.158-0.193-0.311-0.286-0.47c-0.506-0.863-0.997-1.736-1.481-2.612
		c1.037-1.258,1.704-3.372,2.552-4.816c0.798-1.359,1.705-2.754,1.852-4.227c0.148-1.473-0.835-2.995-2.326-2.774
		c-1.352,0.2-2.336,1.643-2.793,2.96c-0.493,1.418-0.921,4.134-0.677,6.268c-0.988-1.891-1.931-3.808-2.837-5.747
		c1.063-2.499,4.5-4.866,5.07-7.789c0.23-1.181-0.087-3.074-1.608-3.072c-1.197,0.001-2.259,1.749-2.857,2.647
		c-1.016,1.527-1.656,3.648-1.769,5.673c-0.345-0.771-0.687-1.544-1.022-2.321c-0.432-0.999-0.851-2.005-1.265-3.013
		c0.454-0.934,1.306-2.527,2.336-3.886c1.338-1.765,3.121-3.452,2.354-5.647c-0.701-2.007-3.416-3.93-4.868-0.957
		c-0.816,1.671-1.293,4.558-1.184,7.088c-0.76-1.956-1.492-3.926-2.198-5.909c0.958-1.361,1.415-2.691,3.202-4.461
		c1.448-1.434,4.024-2.812,3.559-4.898C50.402,296.888,47.616,296.784,46.022,298.931z"/>
	<linearGradient id="SVGID_8_" gradientUnits="userSpaceOnUse" x1="66.0098" y1="272.2526" x2="56.0684" y2="348.0557">
		<stop  offset="0" style="stop-color:#9BABFD"/>
		<stop  offset="1" style="stop-color:#EEA4B6"/>
	</linearGradient>
	<path style="fill:url(#SVGID_8_);" d="M52.009,318.065c-0.894-12.541,0.875-24.639,4.94-36.555c2.19-6.42,5.696-11.61,9.595-17.133
		c1.545-2.189,3.215-4.277,4.38-6.7c0.515-1.072,0.82-2.409,1.553-3.234c0.325,5.591,1.471,10.849,1.439,16.53
		c-0.035,6.404-0.282,13.291-1.404,19.583c-1.915,10.734-2.697,21.583-3.477,32.443c-0.386,5.377-1.275,13.316-6.89,16.016
		c-2.145,1.031-4.921,0.819-7.299,0.679c-2.431-4.96-1.136-10.759-2.08-15.972C52.361,321.491,50.883,319.964,52.009,318.065z"/>
	<linearGradient id="SVGID_9_" gradientUnits="userSpaceOnUse" x1="55.1722" y1="306.9502" x2="55.1722" y2="396.1143">
		<stop  offset="0" style="stop-color:#E35A6B"/>
		<stop  offset="1" style="stop-color:#8F2775"/>
	</linearGradient>
	<path style="fill:url(#SVGID_9_);" d="M57.539,356.368c-1.344-1.514-2.142-3.797-3.072-5.603
		c-2.526-4.901-4.711-10.538-5.56-15.993c-0.76-4.882-1.624-9.778-2.066-14.697c-0.328-3.65-0.953-8.195,0.43-11.686
		c0.889,1.569,1.869,3.138,2.661,4.76c0.552,1.131,0.752,2.481,1.356,3.531c-0.254-4.728-0.088-8.818,0.928-13.504
		c0.835-3.853,1.061-8.925,3.043-12.37c1.7,3.507,2.85,8.082,3.559,11.919c0.995,5.386,1.956,10.797,2.921,16.186
		c1.458,8.144,1.755,16.143,1.839,24.406c0.036,3.537,1.674,11.527-2.398,13.49C59.93,357.409,58.628,357.402,57.539,356.368z"/>
	
		<linearGradient id="SVGID_10_" gradientUnits="userSpaceOnUse" x1="87.7821" y1="273.2105" x2="77.8407" y2="349.0138" gradientTransform="matrix(0.9773 -0.2119 0.2119 0.9773 -69.6207 25.3319)">
		<stop  offset="0" style="stop-color:#9BABFD"/>
		<stop  offset="1" style="stop-color:#EEA4B6"/>
	</linearGradient>
	<path style="fill:url(#SVGID_10_);" d="M60.678,334.37c2.652-12.29,7.735-23.41,14.972-33.712c3.9-5.551,8.717-9.552,14.006-13.764
		c2.096-1.669,4.283-3.206,6.08-5.207c0.794-0.885,1.462-2.083,2.396-2.67c-1.252,5.458-1.624,10.828-3.244,16.273
		c-1.826,6.138-3.99,12.681-6.828,18.408c-4.842,9.77-8.629,19.966-12.417,30.174c-1.876,5.054-4.951,12.427-11.097,13.448
		c-2.348,0.39-4.953-0.59-7.198-1.391c-0.946-5.442,1.92-10.647,2.472-15.916C60.057,337.757,59.065,335.878,60.678,334.37z"/>
	<linearGradient id="SVGID_11_" gradientUnits="userSpaceOnUse" x1="30.5893" y1="336.8471" x2="85.8882" y2="350.2057">
		<stop  offset="0" style="stop-color:#9BABFD"/>
		<stop  offset="1" style="stop-color:#EEA4B6"/>
	</linearGradient>
	<path style="fill:url(#SVGID_11_);" d="M30.836,337.741c-2.728-3.057-4.096-6.65-5.661-10.421c-0.62-1.495-1.149-3.02-2.012-4.396
		c-0.382-0.608-0.966-1.195-1.152-1.835c2.961,1.635,6.016,2.744,8.908,4.59c3.26,2.081,6.699,4.426,9.552,7.026
		c4.867,4.436,10.157,8.331,15.453,12.228c2.623,1.93,6.392,4.941,5.962,8.679c-0.164,1.428-1.167,2.778-2.005,3.948
		C56.564,357.204,43.076,351.456,30.836,337.741z"/>
	<linearGradient id="SVGID_12_" gradientUnits="userSpaceOnUse" x1="38.5786" y1="350.4367" x2="93.8774" y2="363.7954">
		<stop  offset="0" style="stop-color:#9BABFD"/>
		<stop  offset="1" style="stop-color:#EEA4B6"/>
	</linearGradient>
	<path style="fill:url(#SVGID_12_);" d="M37.635,356.553c-3.9-1.256-6.898-3.663-10.156-6.124c-1.291-0.975-2.519-2.023-3.96-2.773
		c-0.637-0.332-1.438-0.542-1.922-1c3.381-0.088,6.578-0.678,10.006-0.549c3.865,0.145,8.017,0.428,11.794,1.227
		c6.443,1.364,12.976,2.046,19.516,2.727c3.238,0.337,8.014,1.028,9.534,4.469c0.581,1.315,0.399,2.986,0.269,4.419
		C69.675,360.321,55.133,362.188,37.635,356.553z"/>
</g>
</svg>
