<?xml version="1.0" encoding="utf-8"?>
<!-- Generator: Adobe Illustrator 23.0.1, SVG Export Plug-In . SVG Version: 6.00 Build 0)  -->
<svg version="1.1" xmlns="http://www.w3.org/2000/svg" xmlns:xlink="http://www.w3.org/1999/xlink" x="0px" y="0px"
	 viewBox="0 0 800 812.4" style="enable-background:new 0 0 800 812.4;" xml:space="preserve">
<style type="text/css">
	.st0{display:none;}
	.st1{display:inline;fill:#EFBC92;}
	.st2{display:inline;fill:url(#SVGID_1_);}
	.st3{display:inline;opacity:0.2224;fill:url(#SVGID_2_);}
	.st4{display:inline;opacity:0.2224;fill:url(#SVGID_3_);}
	.st5{display:inline;fill:#3D76C9;}
	.st6{display:inline;opacity:0.6098;}
	.st7{fill:#325AB2;}
	.st8{display:inline;fill:#321C61;}
	.st9{display:inline;fill:#F2B283;}
	.st10{display:inline;fill:#5B1D1A;}
	.st11{display:inline;fill:#325AB2;}
	.st12{fill:url(#SVGID_4_);}
	.st13{fill:none;stroke:#FFFFFF;stroke-width:0.5;stroke-miterlimit:10;}
	.st14{fill:url(#SVGID_5_);}
	.st15{fill:url(#SVGID_6_);}
	.st16{fill:url(#SVGID_7_);}
	.st17{fill:url(#SVGID_8_);}
	.st18{fill:url(#SVGID_9_);}
	.st19{fill:url(#SVGID_10_);}
	.st20{fill:#BA68C8;}
	.st21{fill:#81D4FA;}
	.st22{fill:#FFCC80;}
	.st23{opacity:0.76;}
	.st24{fill:#80CBC4;}
	.st25{fill:url(#SVGID_11_);}
	.st26{fill:url(#SVGID_12_);}
	.st27{fill:url(#SVGID_13_);}
	.st28{fill:#F5F5F5;}
	.st29{fill:url(#SVGID_14_);}
	.st30{fill:#7986CB;}
	.st31{fill:#0277BD;}
	.st32{fill:#B56887;}
	.st33{fill:#772E8E;}
	.st34{opacity:0.35;fill:#B66887;}
	.st35{opacity:0.9;}
	.st36{fill:#813A97;}
	.st37{fill:url(#SVGID_15_);}
	.st38{fill:#762E8E;}
	.st39{opacity:0.57;}
	.st40{fill:#BDBDBD;}
	.st41{fill:#9FA8DA;}
	.st42{fill:#5C6BC0;}
	.st43{fill:#3949AB;}
	.st44{fill:#FFCDD2;}
	.st45{fill:url(#SVGID_16_);}
	.st46{fill:#3A3735;}
	.st47{fill:url(#SVGID_17_);}
	.st48{fill:url(#SVGID_18_);}
	.st49{fill:#424242;}
	.st50{fill:url(#SVGID_19_);}
	.st51{fill:#F6D3B7;}
	.st52{fill:#222222;}
	.st53{fill:url(#SVGID_20_);}
	.st54{opacity:0.85;fill:#7E57C2;}
	.st55{opacity:0.85;fill:#9575CD;}
	.st56{opacity:0.85;fill:#5E35B1;}
	.st57{opacity:0.85;fill:#512DA8;}
	.st58{opacity:0.62;}
	.st59{fill:#CE93D8;}
	.st60{fill:url(#SVGID_21_);}
</style>
<g id="Layer_1">
	<g class="st0">
		<path class="st1" d="M626.4,354.9c-0.1,2.9,0.4,5.9,2.1,8.2c1.8,2.4,4.8,3.9,7.8,4.2c5.3,0.6,10.8-2.3,13.4-7
			c2.6-4.7,2.1-10.9-1.1-15.1c-3-3.9-9.7-6.7-14.6-5.1C628.9,341.8,626.6,350.3,626.4,354.9z"/>
		<path class="st1" d="M565.7,357.1c-2.5-3.1-5.7-5.8-9.5-7c-0.9-0.3-1.9-0.5-2.8-0.3c-0.9,0.2-1.7,0.9-2.3,1.7
			c-1.8,2.5-2,6-0.8,8.9c1.2,2.9,3.4,5.2,5.9,7c2.5,1.8,5.3,3.2,8,4.8c0.9,0.5,1.9,1.1,3,1.2c1,0,2-0.4,2.9-0.9c1-0.5,2-1.2,2.6-2.2
			c0.6-1,0.4-2.2-0.4-3c-0.9-0.9-1.4-2.1-2-3.2C568.9,361.6,567.5,359.2,565.7,357.1z"/>
		<linearGradient id="SVGID_1_" gradientUnits="userSpaceOnUse" x1="661.126" y1="471.9253" x2="618.0589" y2="602.7368">
			<stop  offset="0" style="stop-color:#363990"/>
			<stop  offset="0.6473" style="stop-color:#6D45A1"/>
		</linearGradient>
		<path class="st2" d="M677.1,618.4c-0.4,0.5-1,0.8-1.7,0.9c-2.5,0.1-5.1-3.5-6.2-5.3c-1.6-2.4-2.5-5.2-3.5-7.9
			c-2.2-6.1-4.4-12.3-6.6-18.4c-8.2-22.9-17-45.6-24-68.9c-2.3-7.9-4.6-15.9-6.8-23.9c-7,6.8-12.3,16.3-16.8,24.9
			c-14.5,27.2-16.8,58.1-23.9,87.6c-0.5,2.2-1.2,9.9-3.2,11.4c-7.9,5.7-6.7-14.3-6.8-17.4c-0.5-20.9,0.8-41.8,3.7-62.4
			c2.4-16.7,5.7-33.3,10.2-49.6c3.9-14.3,8.3-28.9,15.4-42c3.3-6,26.2,7.4,32.7,9.7c4.6,1.6,11.2,2.4,14.5,6.4
			c3.5,4.2,3.4,12.3,4.4,17.6c3,15.3,5.7,30.5,8.4,45.8c4.3,24.7,5.5,49.7,10.5,74.3c0.8,3.8,1.6,7.7,1.3,11.6
			C678.4,614.3,678.3,617.1,677.1,618.4z"/>
		<linearGradient id="SVGID_2_" gradientUnits="userSpaceOnUse" x1="578.5897" y1="555.1037" x2="628.3128" y2="555.1037">
			<stop  offset="0" style="stop-color:#363990"/>
			<stop  offset="0.6473" style="stop-color:#6D45A1"/>
		</linearGradient>
		<path class="st3" d="M627,490.3c0.6,2.1,0.8,2.6,1.3,4.7c-6.9,6.3-13.5,18.7-16.8,24.9c-14.5,27.2-16.8,58.1-23.9,87.6
			c-0.5,2.2-1.2,9.9-3.2,11.4c-3.1,2.2-4.8,0.5-5.7-2.6c0.9-2.9,1.4-7.2,1.8-8.8c7.1-29.5,9.5-60.4,23.9-87.6
			C608.8,511.3,620,497.1,627,490.3z"/>
		<linearGradient id="SVGID_3_" gradientUnits="userSpaceOnUse" x1="607.5533" y1="532.6183" x2="678.647" y2="532.6183">
			<stop  offset="0" style="stop-color:#363990"/>
			<stop  offset="0.6473" style="stop-color:#6D45A1"/>
		</linearGradient>
		<path class="st4" d="M678.6,612.8c-0.1,1.5-0.3,4.2-1.4,5.6c-0.4,0.5-0.9,0.8-1.7,0.9c-1.6,0-3.3-1.5-4.6-3
			c0.3-1.2,0.4-2.6,0.5-3.4c0.3-3.9-0.5-7.8-1.3-11.6c-5-24.6-6.2-49.6-10.5-74.3c-2.6-15.3-5.4-30.6-8.4-45.9
			c-1-5.3-0.9-13.4-4.4-17.6c-3.3-4-9.9-4.7-14.5-6.4c-4.5-1.6-16.5-8.3-24.8-10.5c5.1-3.7,25.8,8.3,32,10.5
			c4.6,1.6,11.3,2.4,14.5,6.4c3.5,4.2,3.4,12.3,4.4,17.6c3,15.2,5.7,30.5,8.4,45.9c4.3,24.7,5.5,49.7,10.5,74.3
			C678.1,605.1,678.9,609,678.6,612.8z"/>
		<path class="st5" d="M663.9,420.5c-0.1,3.1-0.2,6.3-0.5,9.4c-0.2,3.3-0.5,6.6-0.9,9.9c-1.3,10-3.3,19.9-6.1,29.6
			c-10.4-2.5-20.8-5.1-31.2-7.6c-4.1-1-8.3-2-12.4-3c-0.2,0-0.5-0.1-0.8-0.2c-3-0.8-10-2.5-10-2.5s7.6-35,10.5-49
			c1.8-8.4,3.9-17.1,9.2-23.9c4.6-5.9,16.2-14.2,24.4-11.5c6.1,2,10.7,10.7,13.4,17.6c0.7,1.7,1.2,3.4,1.6,4.7
			c0.5,1.9,1,3.7,1.4,5.6C663.8,406.4,664.1,413.5,663.9,420.5z"/>
		<g class="st6">
			<path class="st7" d="M676.8,408.4c0.8,1.8,1.5,3.8,0.9,5.6c-0.6,1.7-2.2,2.8-3.7,3.7c-14.1,9-29.8,15.5-46,19.4
				c-1.3-1.5-1-3.9,0.1-5.6s2.9-2.7,4.6-3.8c9-5.3,18.3-10.2,27.8-14.4c-4.6-8.4-6.3-15.8-10.8-24.2c-1.3-2.4,7.4-8.3,10.8-4.8
				C667.2,391.3,672.8,399.5,676.8,408.4z"/>
			<path class="st7" d="M663.9,420.5c-0.1,3.1-0.2,6.3-0.5,9.4c-11,5.7-22.7,10.1-34.8,12.9c-1.3-1.5-1-3.9,0.1-5.6
				c1.1-1.6,2.9-2.7,4.6-3.8c9-5.3,18.3-10.2,27.8-14.4c5.6-4.5-0.8-14.8-5.4-23.2c-1.1-2.1-0.2-7.8,3.7-6.8
				c0.7,1.7,1.2,3.4,1.6,4.7C663.7,402.5,664.1,411.6,663.9,420.5z"/>
			<path class="st7" d="M618.4,431.9c-1.8,0.6-3.6,1-4.3,2.7c-0.8,1.8-0.3,5,0.3,6.8c0.7,1.8,2.2,3.7,4.1,4.3c2.2,0.7,4.2-0.8,6-2
				c2.4-1.6,4.6-3.6,6.9-5.5c0.8-0.7,1.6-1.3,2-2.3c0.4-0.9,0.3-1.9,0.2-2.9c-0.2-1.1-0.4-2.2-1.1-3c-0.7-0.8-1.8-1.1-2.8-0.6
				c-1.1,0.5-2.3,0.5-3.5,0.7C623.4,430.6,620.9,431,618.4,431.9z"/>
			<path class="st7" d="M618,434c-2,0.7-3.3-1-4.1,0.9c-1.7,3.6-1.1,7.9-0.4,9.9c0.7,2.1,2.3,4.2,4.3,4.8c2.3,0.7,4.6-1,6.5-2.4
				c2.7-1.9,5-4.2,7.5-6.4c0.9-0.8,1.8-1.5,2.2-2.6c0.4-1,0.4-2.2,0.3-3.2c-0.1-1.2-0.4-2.5-1.2-3.4c-0.8-0.9-1.9-1.2-3-0.7
				c-1.2,0.6-2.5,0.7-3.8,0.9C623.5,432.4,620.7,433,618,434z"/>
		</g>
		<path class="st5" d="M603.6,382c-0.7,0.2-1.3,0.3-2,0.2c-0.8,0-1.5-0.4-2.2-0.8l-18.6-10.9c-1.5-0.9-3-1.8-4.5-2.7
			c-0.9-0.5-2.7-2.1-3.8-1.9c-0.2,0-0.4,0.2-0.5,0.3l-5.8,6.3c-0.4,0.4-0.3,1,0.1,1.3c6.2,5.2,12.5,10.4,18.9,15.4
			c5.1,4,11,10.8,17.9,11c6.6,0.1,12.6-3.8,18.2-6.8c5.4-2.9,11.4-4.8,15.7-9.4c2-2.2,6-8.3,3.7-11.4c-1.4-1.9-4.7-1.4-6.7-1.1
			c-2.9,0.5-5.6,1.2-8.4,2.2c-4.1,1-8.2,3.1-12.2,4.6c-2,0.8-4.1,1.5-6.1,2.3C606,381.1,604.8,381.7,603.6,382z"/>
		<path class="st1" d="M646.2,376.4c-0.4,0-0.7,0.4-1,0.5c-0.4,0.2-0.9,0.4-1.4,0.5c-0.9,0.3-1.9,0.4-2.9,0.4
			c-1.4,0-5.1-0.4-5.1-1.8c0-0.7,0-1.5,0-2.2c0-2.6,0-5.2,0-7.9l10.4-2.8c0,1.2,0,5.2,0,6.4C646.2,371.8,646.1,374.1,646.2,376.4z"
			/>
		<path class="st5" d="M679.6,409.4c0.8,1.8,1.5,3.8,0.9,5.6c-0.6,1.7-2.2,2.8-3.7,3.7c-14.1,9-29.8,15.5-46,19.4
			c-1.3-1.5-1-3.9,0.1-5.6c1.1-1.7,2.9-2.7,4.6-3.8c9-5.3,18.3-10.2,27.8-14.4c-4.6-8.4-9.1-16.8-13.7-25.2
			c-1.3-2.4-2.6-4.8-3.2-7.4c-1.3-5.2,0.7-9.5,5.8-5.8c3.9,2.8,7.6,6,11,9.4C670.1,392.3,675.7,400.5,679.6,409.4z"/>
		<path class="st1" d="M619,433.4c-1.8,0.6-3.6,1-4.3,2.7c-0.8,1.8-0.3,5,0.3,6.8c0.7,1.8,2.2,3.7,4.1,4.3c2.2,0.7,4.2-0.8,6-2
			c2.4-1.6,4.6-3.6,6.9-5.5c0.8-0.7,1.6-1.3,2-2.3c0.4-0.9,0.3-1.9,0.2-2.9c-0.2-1.1-0.4-2.2-1.1-3c-0.7-0.8-1.8-1.1-2.8-0.6
			c-1.1,0.5-2.3,0.5-3.5,0.7C624,432.1,621.5,432.6,619,433.4z"/>
		<path class="st8" d="M582,610c2.2,0.2,4.5-0.9,6.1-2.8c0.1,3.3,0.2,6.6,0.2,10c0,1,0,2-0.3,2.8c-0.7,1.8-2.5,2.3-4.1,2.6
			c-7.7,1.3-15.6,0.6-23.4-0.2c-0.4,0-0.8-0.1-1.2-0.3c-0.8-0.6-0.9-2-0.5-3c0.4-1,1.2-1.7,2-2.2c3.5-2.5,7.5-3.9,11.1-6.1
			c1.4-0.9,3.1-2.9,4.7-3c0.9-0.1,1.6,0.7,2.4,1.2C579.9,609.5,580.9,609.9,582,610z"/>
		<path class="st8" d="M672.3,610c2.2,0.2,4.5-0.9,6.1-2.8c0.1,3.3,0.2,6.6,0.2,10c0,1,0,2-0.3,2.8c-0.7,1.8-2.5,2.3-4.1,2.6
			c-7.7,1.3-15.6,0.6-23.4-0.2c-0.4,0-0.8-0.1-1.2-0.3c-0.8-0.6-0.9-2-0.5-3c0.4-1,1.2-1.7,2-2.2c3.5-2.5,7.5-3.9,11.1-6.1
			c1.4-0.9,3.1-2.9,4.7-3c0.9-0.1,1.6,0.7,2.4,1.2C670.3,609.5,671.3,609.9,672.3,610z"/>
		<path class="st9" d="M649.6,360.3c-2.6,4.7-8.1,7.5-13.4,7c-2.7-0.3-5.4-1.5-7.2-3.5c1.3,0.6,2.7,1,4.1,1.2
			c5.3,0.6,10.8-2.3,13.4-7c2.6-4.7,2.1-10.8-1.1-15.1c-0.3-0.4-0.7-0.9-1.1-1.2c1.7,0.9,3.2,2.2,4.2,3.5
			C651.8,349.4,652.2,355.6,649.6,360.3z"/>
		<path class="st10" d="M625.1,335.9c-0.6,3.5,1.9,7.1,5,8.5c3.2,1.4,7.1,0.9,10.1-1c-0.9,3.4,2.5,7.1,5.9,6.5
			c-1.9,2.8-1.1,7,1.7,8.9c-1.7,0.7-1.9,3.3-0.6,4.5c1.3,1.2,3.6,1,4.9-0.2c1.3-1.2,1.8-3.2,1.5-4.9c4.4-0.3,8.2-4.1,8.5-8.5
			c0.4-4.4-2.8-8.7-7.1-9.7c0.7-3.6-1.1-7.5-4.2-9.4c-3.1-1.9-7.5-1.6-10.3,0.7c0.2-0.2-2.2-1.4-2.3-1.5c-1-0.5-2.1-0.8-3.2-0.9
			c-2.1-0.1-4.2,0.5-5.9,1.6c-1.6,1-3,2.4-3.7,4.1C625.3,335,625.2,335.4,625.1,335.9z"/>
		<ellipse class="st1" cx="647" cy="359.1" rx="2.6" ry="3"/>
		<path class="st11" d="M648.1,400.3c-0.4,1.9-0.4,3.8-0.7,5.7c-0.3,1.9-1,3.8-2.4,5.1c-1.4,1.3-3.7,1.8-5.3,0.7c-1.5-1-1.9-3-2-4.8
			c0-1.6,1.3-8.1,1.3-8.1s3.5,1,4.4,1.2C645,400.4,646.6,400.5,648.1,400.3z"/>
	</g>
</g>
<g id="Layer_2">
	<g>
		
			<linearGradient id="SVGID_4_" gradientUnits="userSpaceOnUse" x1="928.242" y1="421.2019" x2="907.7479" y2="595.3129" gradientTransform="matrix(-0.9603 0.2788 -0.2788 -0.9603 1102.5797 394.3989)">
			<stop  offset="0" style="stop-color:#4A148C"/>
			<stop  offset="1" style="stop-color:#AB47BC"/>
		</linearGradient>
		<path class="st12" d="M54,60.9C34.8,62.5,22.1,74.7,21.5,99c-0.8,25.9,23.7,30.7,29.3,45.9c8.2,22-12,21.3-4.9,50.5
			c5.9,24.4,25.3,20.1,33,38.9c4.8,11.6,10.4,23.1,32.9,20.9s31.9-9.9,25.8-28.4c-6.1-18.5-28.6-21.3-37-37.8s8.5-35.7-0.5-49.1
			c-8.9-13.3-28.7-17.5-26.2-32.1C75.8,94.8,75.7,59,54,60.9z"/>
		<path class="st13" d="M51.5,88.2c1.1,11-2.9,21.4,4.3,32.5c17.8,27.8,19.8,45.3,20.3,58c0.9,19.7,22.6,46.5,39.6,52.9"/>
	</g>
	<g>
		
			<linearGradient id="SVGID_5_" gradientUnits="userSpaceOnUse" x1="1995.2197" y1="149.4102" x2="1897.6686" y2="230.9253" gradientTransform="matrix(-0.7815 1.067147e-02 -4.335178e-03 -0.3175 1606.2175 659.2347)">
			<stop  offset="0" style="stop-color:#303F9F"/>
			<stop  offset="1" style="stop-color:#7986CB"/>
		</linearGradient>
		<path class="st14" d="M166.1,628.9c0,0-38-44.7-81-44.7s-52,46.7-52,46.7L166.1,628.9z"/>
		
			<linearGradient id="SVGID_6_" gradientUnits="userSpaceOnUse" x1="174.5247" y1="476.6411" x2="124.4588" y2="296.0745" gradientTransform="matrix(0.8949 -0.4463 -0.4463 -0.8949 145.7549 1081.2466)">
			<stop  offset="0" style="stop-color:#00838F"/>
			<stop  offset="1" style="stop-color:#26C6DA"/>
		</linearGradient>
		<path class="st15" d="M107.1,629.4c-4.4-1.2-8.2-2.2-12.6-2.9c-7.3-1.2-14.3-5.3-20.8-8.5c-8.9-4.6-22.7-10.4-28.3-19.1
			c3.9-1.2,10.4,1.2,14,2.2c6.8,1.7,13.1,4.1,19.6,7c6.8,3.1,13.1,7.5,19.8,10.6c-0.5-3.6-6-6.5-8.7-8.7
			c-5.3-4.8-9.7-10.4-13.5-16.4c-3.4-5.1-7-10.2-9.7-15.7c-1.7-3.4-5.3-9.2-5.3-13.1c5.6,2.7,10.2,7.3,14.3,11.6
			c4.6,5.1,9.7,10.2,13.3,16c2.2,3.4,8.5,16.2,13.5,14.7c-1.5-13.3-9.4-26.1-12.8-39.2c-2.7-10.4-4.8-22.2-2.4-33.1
			c4.4,4.8,6.8,14.5,8.9,20.5c3.4,8.9,6.5,18.1,9.2,27.3c2.2,8,6.3,15.2,8.7,23.2c-2.7-11.6-4.4-23.9-2.7-35.8
			c0.7-5.1,1.5-10.2,2.4-15.2c0.5-2.2,0.5-4.8,1.9-6.8c2.9,3.9,2.9,11.8,3.9,16.4c1.5,7.3,3.1,14.5,3.1,21.8c0,8,0.7,16.4,0,24.7
			c-1.7-7,1.7-18.6,4.1-25.1c1.7-4.6,4.4-12.8,8.7-15.7c2.2,7-0.5,17.9-1.2,24.9c-1,7.7-2.9,17.9-6.8,24.9
			c-2.2,4.1-6.3,8.7-10.6,10.4C114.4,631.6,108.6,629.9,107.1,629.4z"/>
		
			<linearGradient id="SVGID_7_" gradientUnits="userSpaceOnUse" x1="1743.1426" y1="128.4845" x2="1682.1035" y2="179.4896" gradientTransform="matrix(-0.9999 1.365390e-02 -8.031094e-03 -0.5881 1854.3568 694.5036)">
			<stop  offset="0" style="stop-color:#283593"/>
			<stop  offset="1" style="stop-color:#5C6BC0"/>
		</linearGradient>
		<path class="st16" d="M206.2,638.6c0,0-30.7-52.2-65-52.5c-34.3-0.2-41.3,53.9-41.3,53.9L206.2,638.6z"/>
	</g>
	<g>
		
			<linearGradient id="SVGID_8_" gradientUnits="userSpaceOnUse" x1="1518.0602" y1="-336.7921" x2="1465.5654" y2="-292.9268" gradientTransform="matrix(0.7815 1.067147e-02 4.335178e-03 -0.3175 -440.1026 659.2347)">
			<stop  offset="0" style="stop-color:#4A148C"/>
			<stop  offset="1" style="stop-color:#AB47BC"/>
		</linearGradient>
		<path class="st17" d="M680.3,780.1c0,0,20.4-24.1,43.6-24.1c23.2,0,28,25.1,28,25.1L680.3,780.1z"/>
		
			<linearGradient id="SVGID_9_" gradientUnits="userSpaceOnUse" x1="414.1541" y1="161.2789" x2="387.2124" y2="64.1116" gradientTransform="matrix(-0.8949 -0.4463 0.4463 -0.8949 1020.36 1081.2466)">
			<stop  offset="0" style="stop-color:#F58792"/>
			<stop  offset="1" style="stop-color:#B43661"/>
		</linearGradient>
		<path class="st18" d="M712.1,780.4c2.3-0.7,4.4-1.2,6.8-1.6c3.9-0.7,7.7-2.9,11.2-4.6c4.8-2.5,12.2-5.6,15.2-10.3
			c-2.1-0.7-5.6,0.7-7.5,1.2c-3.6,0.9-7,2.2-10.5,3.8c-3.6,1.7-7,4-10.7,5.7c0.3-2,3.3-3.5,4.7-4.7c2.9-2.6,5.2-5.6,7.3-8.8
			c1.8-2.7,3.8-5.5,5.2-8.5c0.9-1.8,2.9-4.9,2.9-7c-3,1.4-5.5,3.9-7.7,6.2c-2.5,2.7-5.2,5.5-7.2,8.6c-1.2,1.8-4.6,8.7-7.3,7.9
			c0.8-7.2,5.1-14.1,6.9-21.1c1.4-5.6,2.6-12,1.3-17.8c-2.3,2.6-3.6,7.8-4.8,11.1c-1.8,4.8-3.5,9.8-4.9,14.7
			c-1.2,4.3-3.4,8.2-4.7,12.5c1.4-6.2,2.3-12.9,1.4-19.3c-0.4-2.7-0.8-5.5-1.3-8.2c-0.3-1.2-0.3-2.6-1-3.6c-1.6,2.1-1.6,6.4-2.1,8.8
			c-0.8,3.9-1.7,7.8-1.7,11.7c0,4.3-0.4,8.8,0,13.3c0.9-3.8-0.9-10-2.2-13.5c-0.9-2.5-2.3-6.9-4.7-8.5c-1.2,3.8,0.3,9.6,0.7,13.4
			c0.5,4.2,1.6,9.6,3.6,13.4c1.2,2.2,3.4,4.7,5.7,5.6C708.2,781.6,711.3,780.7,712.1,780.4z"/>
		
			<linearGradient id="SVGID_10_" gradientUnits="userSpaceOnUse" x1="1399.7256" y1="-125.7366" x2="1366.8789" y2="-98.2894" gradientTransform="matrix(0.9999 1.365390e-02 8.031094e-03 -0.5881 -688.2419 694.5036)">
			<stop  offset="0" style="stop-color:#4A148C"/>
			<stop  offset="1" style="stop-color:#AB47BC"/>
		</linearGradient>
		<path class="st19" d="M658.7,785.3c0,0,16.5-28.1,35-28.2c18.5-0.1,22.2,29,22.2,29L658.7,785.3z"/>
	</g>
	<g>
		<g>
			<g>
				<path class="st20" d="M697.7,691.3c-0.5,0-1-0.2-1.4-0.6c-0.8-0.8-0.8-2.1,0-2.8l2.8-2.8c0.8-0.8,2.1-0.8,2.8,0
					c0.8,0.8,0.8,2.1,0,2.8l-2.8,2.8C698.7,691.1,698.2,691.3,697.7,691.3z"/>
			</g>
			<g>
				<path class="st20" d="M706.7,682.3c-0.5,0-1-0.2-1.4-0.6c-0.8-0.8-0.8-2.1,0-2.8l2.8-2.8c0.8-0.8,2.1-0.8,2.8,0
					c0.8,0.8,0.8,2.1,0,2.8l-2.8,2.8C707.7,682.1,707.2,682.3,706.7,682.3z"/>
			</g>
			<g>
				<path class="st20" d="M709.5,691.3c-0.5,0-1-0.2-1.4-0.6l-2.8-2.8c-0.8-0.8-0.8-2.1,0-2.8c0.8-0.8,2.1-0.8,2.8,0l2.8,2.8
					c0.8,0.8,0.8,2.1,0,2.8C710.5,691.1,710,691.3,709.5,691.3z"/>
			</g>
			<g>
				<path class="st20" d="M700.4,682.2c-0.5,0-1-0.2-1.4-0.6l-2.7-2.7c-0.8-0.8-0.8-2.1,0-2.8c0.8-0.8,2.1-0.8,2.8,0l2.7,2.7
					c0.8,0.8,0.8,2.1,0,2.8C701.4,682,700.9,682.2,700.4,682.2z"/>
			</g>
		</g>
		<g>
			<g>
				<path class="st21" d="M251.4,781c-1.5,0-2.8-1.2-2.8-2.8v-5.6c0-1.5,1.2-2.8,2.8-2.8s2.8,1.2,2.8,2.8v5.6
					C254.1,779.7,252.9,781,251.4,781z"/>
			</g>
			<g>
				<path class="st21" d="M251.4,763.3c-1.5,0-2.8-1.2-2.8-2.8v-5.5c0-1.5,1.2-2.8,2.8-2.8s2.8,1.2,2.8,2.8v5.5
					C254.1,762.1,252.9,763.3,251.4,763.3z"/>
			</g>
			<g>
				<path class="st21" d="M262.9,769.4h-5.5c-1.5,0-2.8-1.2-2.8-2.8c0-1.5,1.2-2.8,2.8-2.8h5.5c1.5,0,2.8,1.2,2.8,2.8
					C265.7,768.2,264.5,769.4,262.9,769.4z"/>
			</g>
			<g>
				<path class="st21" d="M245,769.4h-5.2c-1.5,0-2.8-1.2-2.8-2.8c0-1.5,1.2-2.8,2.8-2.8h5.2c1.5,0,2.8,1.2,2.8,2.8
					C247.8,768.2,246.5,769.4,245,769.4z"/>
			</g>
		</g>
		<g>
			<g>
				<path class="st22" d="M765.9,164.9c-0.5,0-1-0.2-1.3-0.6l-11.1-11.1c-0.7-0.7-0.7-1.9,0-2.7c0.7-0.7,1.9-0.7,2.7,0l11.1,11.1
					c0.7,0.7,0.7,1.9,0,2.7C766.9,164.7,766.4,164.9,765.9,164.9z"/>
			</g>
			<g>
				<path class="st22" d="M754.8,164.9c-0.5,0-1-0.2-1.3-0.6c-0.7-0.7-0.7-1.9,0-2.7l11.1-11.1c0.7-0.7,1.9-0.7,2.7,0
					c0.7,0.7,0.7,1.9,0,2.7l-11.1,11.1C755.8,164.7,755.3,164.9,754.8,164.9z"/>
			</g>
		</g>
		<g>
			<g>
				<path class="st22" d="M141.2,731.9c-0.4,0-0.8-0.2-1.2-0.5l-9.6-9.6c-0.6-0.6-0.6-1.7,0-2.3c0.6-0.6,1.7-0.6,2.3,0l9.6,9.6
					c0.6,0.6,0.6,1.7,0,2.3C142,731.7,141.6,731.9,141.2,731.9z"/>
			</g>
			<g>
				<path class="st22" d="M131.6,731.9c-0.4,0-0.8-0.2-1.2-0.5c-0.6-0.6-0.6-1.7,0-2.3l9.6-9.6c0.6-0.6,1.7-0.6,2.3,0
					c0.6,0.6,0.6,1.7,0,2.3l-9.6,9.6C132.4,731.7,132,731.9,131.6,731.9z"/>
			</g>
		</g>
		<g class="st23">
			<path class="st24" d="M36.9,327.3c-5.9-0.1-10.6-4.9-10.5-10.8c0.1-5.9,4.9-10.6,10.8-10.5c5.9,0.1,10.6,4.9,10.5,10.8
				C47.6,322.7,42.8,327.4,36.9,327.3z M37.1,310.6c-3.3,0-6,2.6-6.1,5.9c0,3.3,2.6,6,5.9,6.1c3.3,0,6-2.6,6.1-5.9
				C43.1,313.4,40.5,310.7,37.1,310.6z"/>
		</g>
	</g>
	<g>
		<g>
			
				<linearGradient id="SVGID_11_" gradientUnits="userSpaceOnUse" x1="424.3231" y1="214.0747" x2="406.2879" y2="367.2945" gradientTransform="matrix(-0.8751 -0.484 0.484 -0.8751 952.1644 754.5134)">
				<stop  offset="0" style="stop-color:#00838F"/>
				<stop  offset="1" style="stop-color:#26C6DA"/>
			</linearGradient>
			<path class="st25" d="M774,218.6c-12.1-11.2-26.7-11.5-41.3,3.4c-15.7,15.9-4.2,34.5-9.8,47.7c-8.1,19.2-19.5,5.9-32.5,28.8
				c-10.9,19.2,3,28.8-3.5,45.6c-4,10.4-7.5,21.2,7,34.1c14.5,12.9,24.5,14,31.8-1.6s-4.2-31.7,0.6-47.4
				c4.8-15.7,25.9-17.2,28.5-31.4c2.6-14.1-6.5-29.3,3.5-37C766.9,253.9,787.9,231.2,774,218.6z"/>
			<path class="st13" d="M756.6,234.3c-5.9,7.7-14.2,11.7-16.6,23.3c-5.9,28.9-15,41.3-22.1,49.6c-11,13-14.1,43.8-7.9,58.7"/>
		</g>
		<g>
			
				<linearGradient id="SVGID_12_" gradientUnits="userSpaceOnUse" x1="1488.2114" y1="348.4582" x2="1439.4763" y2="389.182" gradientTransform="matrix(0.9999 1.365385e-02 1.365385e-02 -0.9999 -755.231 761.0624)">
				<stop  offset="0" style="stop-color:#303F9F"/>
				<stop  offset="1" style="stop-color:#7986CB"/>
			</linearGradient>
			<path class="st26" d="M757.3,416c0,0-6.3-44.7-39.9-44.4c-33.6,0.3-64,43.7-64,43.7L757.3,416z"/>
			
				<linearGradient id="SVGID_13_" gradientUnits="userSpaceOnUse" x1="1490.1278" y1="492.619" x2="1457.4584" y2="519.9181" gradientTransform="matrix(0.9999 1.365390e-02 8.031094e-03 -0.5881 -754.3225 694.5036)">
				<stop  offset="0" style="stop-color:#283593"/>
				<stop  offset="1" style="stop-color:#5C6BC0"/>
			</linearGradient>
			<path class="st27" d="M749.5,420.9c0,0-4.3-23.8-25.3-23.7s-39.7,23-39.7,23L749.5,420.9z"/>
		</g>
	</g>
	<g>
		<g>
			<path class="st28" d="M706.3,381.7L706.3,381.7c0,6.8-6.2,12.3-14,12.3l-578.9,1c-7.7,0-14-5.5-14-12.3l-0.8-337
				c0-6.8,6.2-12.3,14-12.3l578.9-1c7.7,0,14,5.5,14,12.3l0,13.1L706.3,381.7z"/>
			<linearGradient id="SVGID_14_" gradientUnits="userSpaceOnUse" x1="402.3509" y1="39.0933" x2="402.3509" y2="59.1445">
				<stop  offset="0" style="stop-color:#90CAF9"/>
				<stop  offset="1" style="stop-color:#1976D2"/>
			</linearGradient>
			<path class="st29" d="M690.5,35.4l-576.5,1c-8.4,0-15.2,6-15.2,13.4l0,11.6l606.9-1.1l0-11.6C705.8,41.3,699,35.3,690.5,35.4z"/>
		</g>
		<g>
			<path class="st30" d="M587.3,164.3c-0.4-11.6-5.2-22.2-12.6-30.4l-30.4,30.4H587.3z"/>
			<path class="st31" d="M541.3,163.8l27.4-27.4c-7.3-6.7-16.8-10.8-27.4-10.8c-10.6,0-20.1,4.1-27.4,10.8L541.3,163.8z"/>
			<path class="st32" d="M542.6,167v35.4c19.2-0.7,34.6-16.1,35.3-35.4H542.6z"/>
			<path class="st33" d="M539.9,166.3l-23.2-23.2c-5.5,6-8.8,13.9-8.8,22.7c0,17.9,14.3,32.6,32,33.3V166.3L539.9,166.3z"/>
		</g>
		<g>
			<path class="st34" d="M448,270.2H148.7c-12.7,0-23.1-10.3-23.1-23.1V115.4c0-12.7,10.3-23.1,23.1-23.1H448
				c12.7,0,23.1,10.3,23.1,23.1v131.7C471.1,259.8,460.8,270.2,448,270.2z"/>
			<g class="st35">
				<polygon class="st36" points="325.4,177.4 279.8,203.5 227.3,191 171.5,206.9 171.5,201.5 227.2,185.4 277.7,198.4 325.5,172.2 
					376.6,178.2 414.3,111.4 447.3,127.7 447.3,131.7 415.5,117 378.7,182.9 				"/>
				<linearGradient id="SVGID_15_" gradientUnits="userSpaceOnUse" x1="184.2581" y1="232.1928" x2="453.0486" y2="170.9649">
					<stop  offset="0" style="stop-color:#F57F17"/>
					<stop  offset="1" style="stop-color:#FFEE58"/>
				</linearGradient>
				<polygon class="st37" points="443.5,137.4 418,124.4 381.6,190.9 325.2,182.9 281.8,208.8 227.8,195.2 171.4,211.3 171.4,226.9 
					447.1,226.9 447.1,136.4 				"/>
			</g>
			<g>
				<polygon class="st38" points="447.8,245.2 149.1,245.2 149.1,112.7 153.5,112.7 153.5,240.7 447.8,240.7 				"/>
			</g>
		</g>
		<g>
			<g>
				<g class="st39">
					<rect x="502.7" y="295.3" class="st40" width="177" height="5"/>
					<rect x="502.7" y="303.9" class="st40" width="177" height="5"/>
					<rect x="502.7" y="312.5" class="st40" width="177" height="5"/>
					<rect x="502.7" y="321" class="st40" width="177" height="5"/>
					<rect x="502.7" y="329.5" class="st40" width="177" height="5"/>
					<rect x="502.7" y="338.1" class="st40" width="114.2" height="5"/>
				</g>
				<g class="st39">
					<rect x="502.7" y="352.8" class="st40" width="177" height="5"/>
					<rect x="502.7" y="361.4" class="st40" width="177" height="5"/>
					<rect x="502.7" y="369.9" class="st40" width="114.2" height="5"/>
				</g>
			</g>
			<g>
				<g class="st39">
					<rect x="505" y="233.1" class="st40" width="175.5" height="5"/>
					<rect x="505" y="241.7" class="st40" width="175.5" height="5"/>
					<rect x="505" y="250.3" class="st40" width="175.5" height="5"/>
					<rect x="505" y="258.8" class="st40" width="175.5" height="5"/>
					<rect x="505" y="267.3" class="st40" width="175.5" height="5"/>
					<rect x="505" y="275.9" class="st40" width="113.2" height="5"/>
				</g>
			</g>
		</g>
		<g>
			<g class="st39">
				<rect x="129.3" y="293.5" class="st40" width="156.1" height="5"/>
				<rect x="129.3" y="302.1" class="st40" width="156.1" height="5"/>
				<rect x="129.3" y="310.7" class="st40" width="156.1" height="5"/>
				<rect x="129.3" y="319.2" class="st40" width="156.1" height="5"/>
				<rect x="129.3" y="327.8" class="st40" width="156.1" height="5"/>
				<rect x="129.3" y="336.3" class="st40" width="100.7" height="5"/>
			</g>
			<g class="st39">
				<rect x="129.3" y="351.1" class="st40" width="156.1" height="5"/>
				<rect x="129.3" y="359.6" class="st40" width="156.1" height="5"/>
				<rect x="129.3" y="368.1" class="st40" width="100.7" height="5"/>
			</g>
		</g>
		<g>
			<g class="st39">
				<rect x="323.3" y="293.5" class="st40" width="140.6" height="5"/>
				<rect x="323.3" y="302.1" class="st40" width="140.6" height="5"/>
				<rect x="323.3" y="310.7" class="st40" width="140.6" height="5"/>
				<rect x="323.3" y="319.2" class="st40" width="140.6" height="5"/>
				<rect x="323.3" y="327.8" class="st40" width="140.6" height="5"/>
				<rect x="323.3" y="336.3" class="st40" width="90.7" height="5"/>
			</g>
			<g class="st39">
				<rect x="323.3" y="351.1" class="st40" width="140.6" height="5"/>
				<rect x="323.3" y="359.6" class="st40" width="140.6" height="5"/>
				<rect x="323.3" y="368.1" class="st40" width="90.7" height="5"/>
			</g>
		</g>
		<g>
			<g>
				<path class="st32" d="M670,163.1c0,2.5-0.3,4.9-1,7.2l9,3c0.9-3.2,1.4-6.6,1.4-10.2c0-6.5-1.7-12.6-4.7-17.9l-8,4.9
					C668.8,154,670,158.4,670,163.1z"/>
				<path class="st30" d="M644.1,135.9c8.8,0.4,16.5,5,21.1,11.8l8-4.9c-6.3-9.5-17-15.9-29.2-16.3V135.9z"/>
				<path class="st31" d="M631.1,187.8c-9.2-4.4-15.6-13.7-15.6-24.6c0-14.6,11.5-26.5,25.9-27.2v-9.4
					c-19.6,0.7-35.3,16.8-35.3,36.6c0,14.8,8.8,27.6,21.4,33.3L631.1,187.8z"/>
				<path class="st33" d="M668.1,173c-3.9,10.2-13.8,17.4-25.4,17.4c-3.2,0-6.2-0.6-9.1-1.6l-3.6,8.7c4,1.5,8.2,2.3,12.7,2.3
					c15.7,0,29.2-9.9,34.4-23.9L668.1,173z"/>
			</g>
		</g>
		<g>
			<rect x="244.9" y="123.4" class="st30" width="38.6" height="5"/>
			<rect x="170.9" y="123.4" class="st41" width="73.9" height="5"/>
			<rect x="283.5" y="123.4" class="st42" width="37" height="5"/>
			<rect x="320.5" y="123.4" class="st43" width="30.5" height="5"/>
			<rect x="170.9" y="131.9" class="st41" width="51.6" height="5"/>
			<rect x="222.6" y="131.9" class="st30" width="33.7" height="5"/>
			<rect x="304.7" y="131.9" class="st43" width="46.3" height="5"/>
			<rect x="256.3" y="131.9" class="st42" width="48.4" height="5"/>
			<rect x="170.9" y="140.5" class="st41" width="43.5" height="5"/>
			<rect x="214.4" y="140.5" class="st30" width="53.3" height="5"/>
			<rect x="267.7" y="140.5" class="st42" width="47.3" height="5"/>
			<rect x="315" y="140.5" class="st43" width="36" height="5"/>
			<rect x="170.9" y="149.1" class="st41" width="66.3" height="5"/>
			<rect x="237.3" y="149.1" class="st30" width="49.5" height="5"/>
			<rect x="329.2" y="149.1" class="st43" width="21.8" height="5"/>
			<rect x="286.8" y="149.1" class="st42" width="42.4" height="5"/>
		</g>
	</g>
	<g>
		<g id="XMLID_2371_">
			<g id="XMLID_2409_">
				<path class="st44" d="M509,462.1l-6-4.1l-6.4,1l-0.9-1.2l1.5-1.1c-4.4-0.1-9.3-2.9-9.9-7.6c-0.3-1.8,0.5-5.8,2.5-6.6
					c2.2-0.9,7.7,2.2,10.2,2.9l5,4.8l8.4,5.2L509,462.1z"/>
			</g>
			<g id="XMLID_2372_">
				
					<linearGradient id="SVGID_16_" gradientUnits="userSpaceOnUse" x1="519.7053" y1="449.1861" x2="556.1327" y2="464.0269" gradientTransform="matrix(0.9993 3.732619e-02 -3.732619e-02 0.9993 22.9642 -21.0846)">
					<stop  offset="0" style="stop-color:#AB47BC"/>
					<stop  offset="1" style="stop-color:#772E8E"/>
				</linearGradient>
				<polygon class="st45" points="507.5,450.6 565.6,469.2 592.3,446.7 610.9,459.6 579.7,502.2 499.2,461.1 				"/>
			</g>
		</g>
		<g id="XMLID_2370_">
			<polygon class="st46" points="635.2,750.5 635.8,757.2 610.9,767.6 608.7,764.9 620.8,751.6 634.6,743.8 			"/>
		</g>
		<g id="XMLID_2348_">
			
				<linearGradient id="SVGID_17_" gradientUnits="userSpaceOnUse" x1="595.3016" y1="577.9613" x2="593.4922" y2="739.7825" gradientTransform="matrix(0.9993 3.732619e-02 -3.732619e-02 0.9993 22.9642 -21.0846)">
				<stop  offset="0" style="stop-color:#5C6BC0"/>
				<stop  offset="1" style="stop-color:#283593"/>
			</linearGradient>
			<polygon class="st47" points="635.8,748.3 620,657.5 641.1,567.4 639.2,547.1 583.7,542.6 583,548.6 550.1,551.5 545.7,637 
				560.4,748 574.8,748.5 585.8,662.3 621.7,752 			"/>
			<g id="XMLID_2349_">
				<polygon class="st46" points="574.6,753.7 545.7,760.2 543.2,757 559.2,746.4 574.8,747 				"/>
			</g>
		</g>
		<g>
			<g id="XMLID_2347_">
				
					<linearGradient id="SVGID_18_" gradientUnits="userSpaceOnUse" x1="601.7888" y1="451.5585" x2="590.9955" y2="579.0543" gradientTransform="matrix(0.9993 3.732619e-02 -3.732619e-02 0.9993 22.9642 -21.0846)">
					<stop  offset="0" style="stop-color:#AB47BC"/>
					<stop  offset="1" style="stop-color:#772E8E"/>
				</linearGradient>
				<path class="st48" d="M644.4,588.3c-0.8,9.2-2.4,21.6-5.5,21.6c-0.6,0-1.1-0.4-1.6-0.8c-4.9-4-8.2-9.2-13-13.1
					c-5.1-4.1-11.1-6.7-17.1-8.7c-8.9-3.1-18.2-5.5-27.5-6.9c-6.6-1-14.4-2.3-21.1-1.5c-9.9,1.1-6,1.9-12.6,10.4
					c-2.7-1.6-5.4-3.1-8.2-4.7c-1.3-0.7,10.7-58.3,14.2-65.2c8.2-16.1,11.7-32.3,20.2-48.1c3.6-6.7,7.2-16.2,12.3-21
					c5-4.7,20-10.8,26.2-10.5c6,0.2,19.1,5.3,24.2,9.3c7.1,5.7,8.3,13.5,10.8,22.7c2.3,8.4,0.2,31.2,0.5,40
					c0.3,10.6,0.6,21.1,0.5,31.7c-0.1,11.8-0.5,23.6-1.6,35.4C645,580.3,644.8,583.9,644.4,588.3z"/>
			</g>
			<g id="XMLID_2345_">
				<path class="st49" d="M595.1,452.8c0,0-19.4,24.3-30.2,45.8c-5.5,11-14.8,47.8-17.4,52.7c-2.6,4.9-7.8,34.4-7.8,34.4l6.3,3.6
					c0,0,15.7-65.3,20.9-78.1c5.2-12.7,12-21.9,14-32.6c2-10.7,16.6-25.6,16.6-25.6L595.1,452.8z"/>
			</g>
		</g>
		<g id="XMLID_2410_">
			<g id="XMLID_2412_">
				<polygon class="st44" points="522.8,506.9 515.7,508.1 510.3,504.6 508.9,505.3 509.8,506.9 504.5,505.2 500.4,506.7 
					499.1,512.1 501.8,517.5 507.7,518.4 514.2,516 524.1,514.7 				"/>
			</g>
			<g id="XMLID_2411_">
				
					<linearGradient id="SVGID_19_" gradientUnits="userSpaceOnUse" x1="524.4484" y1="522.1913" x2="619.5644" y2="468.2249" gradientTransform="matrix(0.9993 3.732619e-02 -3.732619e-02 0.9993 22.9642 -21.0846)">
					<stop  offset="0" style="stop-color:#AB47BC"/>
					<stop  offset="1" style="stop-color:#772E8E"/>
				</linearGradient>
				<path class="st50" d="M516.9,506.6l53.3-12.4l50.3-52.5c0,0,11.1,4.2,15.8,8.6c6.5,5.9,7.6,14.7,7.6,14.7l-55.7,54.1l-72.1,0.9
					L516.9,506.6z"/>
			</g>
		</g>
		<g id="XMLID_2396_">
			<g id="XMLID_2398_">
				<path class="st51" d="M608.8,443.9c3.4,0.2,11.5-0.7,11.5-0.4c0.3-3,0.3-6.1,0.1-9.1c3.3-0.9,7-2.2,7.9-5.5
					c0.3-1,0.2-2.1,0.1-3.2c-0.4-4.4-0.8-8.7-1.2-13.1c-0.1-1.5-0.3-3.1-1-4.4c-1.2-2.4-3.9-3.6-6.5-4.2c-9.6-2.5-19.2,3.3-28.1,6
					c-0.7,0.2-1.5,0.5-2.1,1c-1,0.9-1.1,2.4-1,3.8c0.1,7,0.9,17.2,8.6,20.1c1.7,0.6,3.5,0.8,5.2,1.5c4.1,1.6,2.3,5.4,5.2,7.4
					C607.7,443.8,608.2,443.8,608.8,443.9z"/>
			</g>
			<g id="XMLID_2397_">
				<path class="st52" d="M573.8,397.7c-0.6-3.5-0.5-7,0.1-9.7c1.5-6.3,7.2-16.9,15-11.4c4.3,3,7.5,5.9,13.2,5.6
					c6.5-0.3,10.2-1.4,16.5,1.4c5.5,2.5,13.1,3.6,18.1,6.9c2.1,1.4,3.6,3.4,4.8,5.6c4.1,7.5,3.3,17.4-1.9,24.2
					c-1.2,1.5-2.5,2.9-3.9,4.2c-2.9,2.7-6.4,6-10.2,6.8c0.2-3.3,4-13.5,1.7-16.4c-3.7-4.6-12.9-3.9-18-3.2
					c-5.5,0.7-10.7,4.2-16.2,4.6c-3.9,0.3-8.8-2-11.9-4.3C577.2,409.2,574.7,403.4,573.8,397.7z"/>
			</g>
		</g>
	</g>
	<g>
		<g>
			<path class="st28" d="M445.3,693.3L445.3,693.3c0,7-2.6,12.6-5.7,12.6L202.4,707c-3.2,0-5.7-5.6-5.7-12.6l-0.3-345.6
				c0-6.9,2.6-12.6,5.7-12.6l237.1-1.1c3.2,0,5.7,5.6,5.7,12.6l0,13.5L445.3,693.3z"/>
			<linearGradient id="SVGID_20_" gradientUnits="userSpaceOnUse" x1="320.7952" y1="341.9351" x2="320.7952" y2="362.4993">
				<stop  offset="0" style="stop-color:#90CAF9"/>
				<stop  offset="1" style="stop-color:#1976D2"/>
			</linearGradient>
			<path class="st53" d="M438.8,338.1l-236.1,1.1c-3.4,0-6.2,6.2-6.2,13.7l0,11.9l248.6-1.1l0-11.9
				C445.1,344.2,442.3,338.1,438.8,338.1z"/>
		</g>
		<g>
			<g class="st39">
				<polygon class="st40" points="292.4,390.3 419.4,390.3 419.4,395.3 295.4,395.3 				"/>
				<polygon class="st40" points="297.5,398.8 419.4,398.8 419.4,403.8 300.5,403.8 				"/>
				<polygon class="st40" points="302.6,407.4 419.4,407.4 419.4,412.5 305.6,412.5 				"/>
				<polygon class="st40" points="307.7,416 419.4,416 419.4,421 310.7,421 				"/>
				<polygon class="st40" points="312.8,424.5 419.4,424.5 419.4,429.5 315.8,429.5 				"/>
				<polygon class="st40" points="317.9,433.1 389,433.1 389,438.1 320.8,438.1 				"/>
			</g>
			<g class="st39">
				<polygon class="st40" points="326.6,447.8 419.4,447.8 419.4,452.8 329.6,452.8 				"/>
				<polygon class="st40" points="331.7,456.4 419.4,456.4 419.4,461.4 334.7,461.4 				"/>
				<polygon class="st40" points="336.8,464.9 389,464.9 389,469.9 339.8,469.9 				"/>
			</g>
		</g>
		<g>
			<g class="st39">
				<rect x="212.7" y="498" class="st40" width="207.3" height="5"/>
				<rect x="212.7" y="506.5" class="st40" width="207.3" height="5"/>
				<rect x="212.7" y="515" class="st40" width="207.3" height="5"/>
				<rect x="212.7" y="523.6" class="st40" width="133.8" height="5"/>
			</g>
			<g class="st39">
				<rect x="212.7" y="538.3" class="st40" width="207.3" height="5"/>
				<rect x="212.7" y="546.9" class="st40" width="207.3" height="5"/>
				<rect x="212.7" y="555.4" class="st40" width="133.8" height="5"/>
			</g>
		</g>
		<g>
			<polygon class="st54" points="249.9,412.3 239.6,428.7 288.4,428.7 278.1,412.3 			"/>
			<polygon class="st55" points="275.5,408.2 264,389.7 252.4,408.2 			"/>
			<polygon class="st56" points="301.2,449.2 290.9,432.8 237,432.8 226.8,449.2 			"/>
			<polygon class="st57" points="224.2,453.3 212.7,471.8 315.3,471.8 303.7,453.3 			"/>
		</g>
		<g class="st58">
			<polygon class="st59" points="422.9,670.9 212.8,670.9 212.8,590.8 215.2,590.8 215.2,668.9 422.9,668.9 			"/>
			<polygon class="st59" points="222,647.4 269,615.4 311.9,630.9 350,602.5 383.4,613.1 422.2,592.1 422.2,663.3 222,663.3 			"/>
			<linearGradient id="SVGID_21_" gradientUnits="userSpaceOnUse" x1="222.01" y1="636.041" x2="422.1519" y2="636.041">
				<stop  offset="0" style="stop-color:#813A97"/>
				<stop  offset="1" style="stop-color:#C72F97"/>
			</linearGradient>
			<polygon class="st60" points="222,647.4 269,630.9 311.9,640.1 350,621.7 383.4,628.7 422.2,608.8 422.2,663.3 222,663.3 			"/>
		</g>
	</g>
</g>
</svg>
