<?xml version="1.0" encoding="utf-8"?>
<!--Generator: Adobe Illustrator 23.0.1, SVG Export Plug-In . SVG Version: 6.00 Build 0)-->
<svg xmlns="http://www.w3.org/2000/svg" xmlns:xlink="http://www.w3.org/1999/xlink" id="Layer_1" x="0px" y="0px" style="enable-background:new 0 0 800 800" version="1.1" viewBox="0 0 800 800" xml:space="preserve">
    <style type="text/css">
        .st0{fill:url(#SVGID_1_);} .st1{fill:url(#SVGID_2_);} .st2{fill:url(#SVGID_3_);} .st3{fill:url(#SVGID_4_);} .st4{opacity:0.6;} .st5{fill:url(#SVGID_5_);} .st6{fill-rule:evenodd;clip-rule:evenodd;fill:#E0E0E0;} .st7{fill-rule:evenodd;clip-rule:evenodd;fill:#FAFAFA;} .st8{fill-rule:evenodd;clip-rule:evenodd;fill:#808281;} .st9{fill:#CE93D8;} .st10{fill:#B39DDB;} .st11{opacity:0.5;} .st12{fill:#BD7494;} .st13{fill:#A1205D;} .st14{fill:#C72D96;} .st15{fill:#F48F31;} .st16{fill:url(#SVGID_6_);} .st17{fill:url(#SVGID_7_);} .st18{fill:url(#SVGID_8_);} .st19{fill:url(#SVGID_9_);} .st20{fill:url(#SVGID_10_);} .st21{opacity:0.75;} .st22{fill:#C82F97;} .st23{fill:#813A97;} .st24{fill:#4A148C;stroke:#E040FB;stroke-width:0.25;stroke-miterlimit:10;} .st25{fill:url(#SVGID_11_);} .st26{fill:#FFCDD2;} .st27{fill:url(#SVGID_12_);} .st28{fill:#222222;}
    </style>
    <linearGradient id="SVGID_1_" x1="786.1446" x2="771.1687" y1="579.7302" y2="452.5004" gradientTransform="matrix(-0.9999 1.308560e-02 1.308560e-02 0.9999 814.8217 -2.563)" gradientUnits="userSpaceOnUse">
        <stop offset="0" style="stop-color:#803997"/>
        <stop offset="0.231" style="stop-color:#863F97"/>
        <stop offset="0.5337" style="stop-color:#964F96"/>
        <stop offset="0.875" style="stop-color:#B16994"/>
        <stop offset="1" style="stop-color:#BD7493"/>
    </linearGradient>
    <path d="M44.9,447.4c-13.8-2.6-25.1,3.5-30.3,20.5C9,486,25.3,494.1,26.3,505.9c1.5,17.1-12.6,12.7-13.3,34.6
	c-0.6,18.3,13.9,19.1,15.7,33.8c1.1,9.1,2.8,18.3,19.1,21.1c16.3,2.8,24.4-0.8,23.7-15s-16-20.6-18.7-33.8
	c-2.7-13.2,12.9-23.5,9.2-34.7c-3.7-11.1-16.8-17.9-12.2-27.7C53.7,475.5,60.6,450.3,44.9,447.4z" class="st0"/>
    <linearGradient id="SVGID_2_" x1="34.1981" x2="22.6793" y1="604.0703" y2="506.2108" gradientTransform="matrix(0.9998 -1.939814e-02 1.939814e-02 0.9998 720.2802 -0.5474)" gradientUnits="userSpaceOnUse">
        <stop offset="0" style="stop-color:#803997"/>
        <stop offset="0.231" style="stop-color:#863F97"/>
        <stop offset="0.5337" style="stop-color:#964F96"/>
        <stop offset="0.875" style="stop-color:#B16994"/>
        <stop offset="1" style="stop-color:#BD7493"/>
    </linearGradient>
    <path d="M756.1,495.3c10.6-2.4,19.4,2.1,23.8,15c4.7,13.8-7.6,20.4-8.1,29.6c-0.7,13.2,10,9.5,11.1,26.2
	c0.9,14.1-10.2,15.1-11.2,26.4c-0.6,7-1.7,14.1-14.1,16.7c-12.5,2.6-18.8,0-18.6-11s11.8-16.2,13.6-26.4
	c1.8-10.2-10.5-17.8-7.9-26.4s12.4-14.2,8.7-21.6C750,517.2,744.1,498,756.1,495.3z" class="st1"/>
    <linearGradient id="SVGID_3_" x1="2.2286" x2="90.7596" y1="584.0332" y2="584.0332" gradientUnits="userSpaceOnUse">
        <stop offset="0" style="stop-color:#8D6B97"/>
        <stop offset="1" style="stop-color:#C77DB0"/>
    </linearGradient>
    <path d="M2.2,620.6c0,0,25.9-73.9,54.5-74.4c28.6-0.5,34,75.6,34,75.6L2.2,620.6z" class="st2"/>
    <linearGradient id="SVGID_4_" x1="66.1427" x2="72.6057" y1="609.1226" y2="568.2863" gradientTransform="matrix(0.9999 1.365388e-02 -1.546014e-02 1.1322 6.4776 -62.6209)" gradientUnits="userSpaceOnUse">
        <stop offset="0" style="stop-color:#AB47BC"/>
        <stop offset="1" style="stop-color:#772E8E"/>
    </linearGradient>
    <path d="M35.3,628.6c0,0,16.3-52.4,34.2-52.8s21.2,53.5,21.2,53.5L35.3,628.6z" class="st3"/>
    <g class="st4">
        <linearGradient id="SVGID_5_" x1="245.3121" x2="151.5047" y1="272.6573" y2="194.2703" gradientUnits="userSpaceOnUse">
            <stop offset="0" style="stop-color:#813A97"/>
            <stop offset="1" style="stop-color:#C72F97"/>
        </linearGradient>
        <path d="M192.3,305.2c-42.4,0-76.8-34.5-76.8-76.8s34.5-76.8,76.8-76.8s76.8,34.5,76.8,76.8S234.7,305.2,192.3,305.2z
		 M192.3,190.6c-20.8,0-37.8,16.9-37.8,37.8s16.9,37.8,37.8,37.8c20.8,0,37.8-16.9,37.8-37.8S213.1,190.6,192.3,190.6z" class="st5"/>
    </g>
    <g>
        <g>
            <path d="M715.4,620h-515c-8.1,0-14.6-6.5-14.6-14.6V250.3c0-8.1,6.5-14.6,14.6-14.6h515c8.1,0,14.6,6.5,14.6,14.6
			v355.1C730,613.5,723.5,620,715.4,620z" class="st6"/>
            <rect width="504.3" height="320.8" x="205.7" y="276.8" class="st7"/>
            <path d="M212.9,252.8c-2,0-3.6,1.6-3.6,3.6c0,2,1.6,3.6,3.6,3.6c2,0,3.6-1.6,3.6-3.6
			C216.5,254.4,214.9,252.8,212.9,252.8z" class="st8"/>
            <path d="M226.9,252.8c-2,0-3.6,1.6-3.6,3.6c0,2,1.6,3.6,3.6,3.6c2,0,3.6-1.6,3.6-3.6
			C230.5,254.4,228.9,252.8,226.9,252.8z" class="st8"/>
            <path d="M241,252.8c-2,0-3.6,1.6-3.6,3.6c0,2,1.6,3.6,3.6,3.6c2,0,3.6-1.6,3.6-3.6C244.6,254.4,243,252.8,241,252.8z" class="st8"/>
        </g>
        <g>
            <polygon points="654.6,464.9 249,464.9 249,310.3 253.6,310.3 253.6,461.1 654.6,461.1 		" class="st9"/>
            <polygon points="266.8,419.6 357.6,357.7 440.3,387.6 513.9,332.9 578.3,353.3 653.2,312.7 653.2,450.2 266.8,450.2 
					" class="st9"/>
            <polygon points="266.8,419.6 357.6,387.7 440.3,405.5 513.9,369.9 578.3,383.5 653.2,345 653.2,450.2 266.8,450.2 		
			" class="st10"/>
        </g>
        <g class="st11">
            <rect width="116.7" height="7.9" x="244.1" y="484.7" class="st12"/>
            <rect width="92.2" height="7.9" x="360.8" y="484.7" class="st13"/>
            <rect width="149.9" height="7.9" x="244.1" y="498.3" class="st12"/>
            <rect width="104.5" height="7.9" x="394" y="498.3" class="st13"/>
            <rect width="69" height="7.9" x="582.1" y="498.3" class="st14"/>
            <rect width="83.6" height="7.9" x="498.5" y="498.3" class="st15"/>
            <rect width="94.7" height="7.9" x="342.4" y="511.8" class="st13"/>
            <rect width="98.3" height="7.9" x="244.1" y="511.8" class="st12"/>
            <rect width="119.4" height="7.9" x="531.7" y="511.8" class="st14"/>
            <rect width="94.6" height="7.9" x="437" y="511.8" class="st15"/>
            <rect width="138.8" height="7.9" x="244.1" y="525.3" class="st12"/>
            <rect width="88.5" height="7.9" x="382.9" y="525.3" class="st13"/>
            <rect width="91.1" height="7.9" x="560" y="525.3" class="st14"/>
            <rect width="88.5" height="7.9" x="471.4" y="525.3" class="st15"/>
            <rect width="87.3" height="7.9" x="411.2" y="538.9" class="st13"/>
            <rect width="167.1" height="7.9" x="244.1" y="538.9" class="st12"/>
            <rect width="83.6" height="7.9" x="498.5" y="538.9" class="st15"/>
            <rect width="69" height="7.9" x="582.1" y="538.9" class="st14"/>
            <rect width="116.7" height="7.9" x="244.1" y="552.4" class="st12"/>
            <rect width="76.2" height="7.9" x="360.8" y="552.4" class="st13"/>
            <rect width="104.6" height="7.9" x="546.4" y="552.4" class="st14"/>
            <rect width="109.4" height="7.9" x="437" y="552.4" class="st15"/>
            <rect width="98.3" height="7.9" x="244.1" y="566" class="st12"/>
            <rect width="120.5" height="7.9" x="342.4" y="566" class="st13"/>
            <rect width="106.9" height="7.9" x="462.8" y="566" class="st15"/>
            <rect width="81.3" height="7.9" x="569.8" y="566" class="st14"/>
            <rect width="149.9" height="7.9" x="244.1" y="579.5" class="st12"/>
            <rect width="111.9" height="7.9" x="394" y="579.5" class="st13"/>
            <rect width="49.3" height="7.9" x="601.8" y="579.5" class="st14"/>
            <rect width="95.9" height="7.9" x="505.9" y="579.5" class="st15"/>
            <g>
                <rect width="106.9" height="7.9" x="453" y="484.7" class="st15"/>
                <rect width="91.1" height="7.9" x="560" y="484.7" class="st14"/>
            </g>
        </g>
    </g>
    <g>
        <linearGradient id="SVGID_6_" x1="839.7861" x2="789.0822" y1="630.4288" y2="588.0598" gradientTransform="matrix(-0.9999 1.365385e-02 1.365385e-02 0.9999 1547.3 -5.7821)" gradientUnits="userSpaceOnUse">
            <stop offset="0" style="stop-color:#8D6B97"/>
            <stop offset="1" style="stop-color:#C77DB0"/>
        </linearGradient>
        <path d="M795.9,630.9c0,0-25.9-73.9-54.5-74.4s-34,75.6-34,75.6L795.9,630.9z" class="st16"/>
        <linearGradient id="SVGID_7_" x1="823.7823" x2="792.0563" y1="771.8384" y2="745.3276" gradientTransform="matrix(-0.9999 1.365390e-02 8.031094e-03 0.5881 1549.6779 168.3461)" gradientUnits="userSpaceOnUse">
            <stop offset="0" style="stop-color:#813A97"/>
            <stop offset="1" style="stop-color:#C72F97"/>
        </linearGradient>
        <path d="M782,631.4c0,0-16-27.1-33.8-27.2s-21.5,28-21.5,28L782,631.4z" class="st17"/>
    </g>
    <g>
        <linearGradient id="SVGID_8_" x1="1285.0663" x2="1244.7147" y1="1046.6147" y2="1012.8964" gradientTransform="matrix(-0.7815 1.067147e-02 4.335178e-03 0.3175 1336.4587 290.7889)" gradientUnits="userSpaceOnUse">
            <stop offset="0" style="stop-color:#8D6B97"/>
            <stop offset="1" style="stop-color:#C77DB0"/>
        </linearGradient>
        <path d="M386.3,635.1c0,0-15.7-18.5-33.5-18.5c-17.8,0-21.5,19.3-21.5,19.3L386.3,635.1z" class="st18"/>
        <linearGradient id="SVGID_9_" x1="297.358" x2="276.6485" y1="491.0974" y2="565.7879" gradientTransform="matrix(0.8949 -0.4463 0.4463 0.8949 -130.8615 306.7788)" gradientUnits="userSpaceOnUse">
            <stop offset="0" style="stop-color:#F58792"/>
            <stop offset="1" style="stop-color:#B43661"/>
        </linearGradient>
        <path d="M361.9,635.3c-1.8-0.5-3.4-0.9-5.2-1.2c-3-0.5-5.9-2.2-8.6-3.5c-3.7-1.9-9.4-4.3-11.7-7.9
		c1.6-0.5,4.3,0.5,5.8,0.9c2.8,0.7,5.4,1.7,8.1,2.9c2.8,1.3,5.4,3.1,8.2,4.4c-0.2-1.5-2.5-2.7-3.6-3.6c-2.2-2-4-4.3-5.6-6.8
		c-1.4-2.1-2.9-4.2-4-6.5c-0.7-1.4-2.2-3.8-2.2-5.4c2.3,1.1,4.2,3,5.9,4.8c1.9,2.1,4,4.2,5.5,6.6c0.9,1.4,3.5,6.7,5.6,6.1
		c-0.6-5.5-3.9-10.8-5.3-16.2c-1.1-4.3-2-9.2-1-13.7c1.8,2,2.8,6,3.7,8.5c1.4,3.7,2.7,7.5,3.8,11.3c0.9,3.3,2.6,6.3,3.6,9.6
		c-1.1-4.8-1.8-9.9-1.1-14.8c0.3-2.1,0.6-4.2,1-6.3c0.2-0.9,0.2-2,0.8-2.8c1.2,1.6,1.2,4.9,1.6,6.8c0.6,3,1.3,6,1.3,9
		c0,3.3,0.3,6.8,0,10.2c-0.7-2.9,0.7-7.7,1.7-10.4c0.7-1.9,1.8-5.3,3.6-6.5c0.9,2.9-0.2,7.4-0.5,10.3c-0.4,3.2-1.2,7.4-2.8,10.3
		c-0.9,1.7-2.6,3.6-4.4,4.3C364.9,636.2,362.5,635.5,361.9,635.3z" class="st19"/>
        <linearGradient id="SVGID_10_" x1="1192.7001" x2="1167.4515" y1="769.0758" y2="747.9778" gradientTransform="matrix(-0.9999 1.365390e-02 8.031094e-03 0.5881 1549.6779 168.3461)" gradientUnits="userSpaceOnUse">
            <stop offset="0" style="stop-color:#813A97"/>
            <stop offset="1" style="stop-color:#C72F97"/>
        </linearGradient>
        <path d="M402.9,635.2c0,0-12.7-21.6-26.9-21.7s-17.1,22.3-17.1,22.3L402.9,635.2z" class="st20"/>
    </g>
    <g>
        <g>
            <path d="M314.4,638.4H82.3c-2.8,0-5.1-2.3-5.1-5.1V487.4c0-2.8,2.3-5.1,5.1-5.1h232.2c2.8,0,5.1,2.3,5.1,5.1v145.9
			C319.5,636.1,317.2,638.4,314.4,638.4z" class="st6"/>
            <rect width="224.6" height="126.4" x="86" y="502" class="st7"/>
            <path d="M89.2,491.5c-0.9,0-1.6,0.7-1.6,1.6s0.7,1.6,1.6,1.6c0.9,0,1.6-0.7,1.6-1.6S90.1,491.5,89.2,491.5z" class="st8"/>
            <path d="M95.4,491.5c-0.9,0-1.6,0.7-1.6,1.6s0.7,1.6,1.6,1.6c0.9,0,1.6-0.7,1.6-1.6S96.3,491.5,95.4,491.5z" class="st8"/>
            <path d="M101.7,491.5c-0.9,0-1.6,0.7-1.6,1.6s0.7,1.6,1.6,1.6c0.9,0,1.6-0.7,1.6-1.6S102.6,491.5,101.7,491.5z" class="st8"/>
        </g>
        <g class="st21">
            <path d="M225.7,543.4c-0.3-8.3-3.7-15.9-9-21.7l-21.7,21.7H225.7z" class="st10"/>
            <path d="M192.8,543l19.6-19.6c-5.2-4.8-12-7.7-19.6-7.7c-7.6,0-14.4,2.9-19.6,7.7L192.8,543z" class="st9"/>
            <path d="M193.7,545.3v25.3c13.7-0.5,24.7-11.5,25.2-25.3H193.7z" class="st9"/>
            <path d="M191.8,544.8l-16.6-16.6c-3.9,4.3-6.3,9.9-6.3,16.2c0,12.8,10.2,23.3,22.9,23.8V544.8z" class="st10"/>
        </g>
        <g class="st11">
            <polygon points="157.5,570.2 103.5,570.2 103.5,516.2 104.7,516.2 104.7,569 157.5,569 		" class="st22"/>
            <path d="M158,520l-1.1-0.5l-6.1,12.6c0,0-0.1,0-0.1,0c-0.5,0-1,0.3-1.3,0.7l-5.8-1.6c-0.1-0.8-0.8-1.5-1.7-1.5
			c-0.9,0-1.7,0.7-1.7,1.7c0,0.2,0,0.3,0.1,0.5l-7.3,5.5c-0.3-0.2-0.6-0.3-0.9-0.3c-0.7,0-1.3,0.4-1.5,1l-7.2-0.5
			c-0.2-0.7-0.8-1.2-1.6-1.2c-0.9,0-1.7,0.7-1.7,1.7c0,0.2,0,0.4,0.1,0.6l-10.9,10.2l0.8,0.9l10.9-10.2c0.2,0.1,0.5,0.2,0.7,0.2
			c0.7,0,1.3-0.4,1.5-1l7.2,0.5c0.2,0.7,0.8,1.2,1.6,1.2c0.9,0,1.7-0.7,1.7-1.7c0-0.2,0-0.3-0.1-0.5l7.3-5.5
			c0.3,0.2,0.6,0.3,0.9,0.3c0.5,0,1-0.3,1.3-0.7l5.8,1.6c0.1,0.8,0.8,1.5,1.7,1.5c0.9,0,1.7-0.7,1.7-1.7c0-0.4-0.2-0.8-0.5-1.1
			L158,520z" class="st15"/>
            <path d="M157.8,547.7l-0.6-1l-5.9,3.7c-0.3-0.2-0.6-0.3-1-0.3c-0.4,0-0.8,0.1-1,0.4l-6.8-4c0-0.1,0-0.2,0-0.3
			c0-0.9-0.7-1.7-1.7-1.7c-0.9,0-1.7,0.7-1.7,1.7c0,0.3,0.1,0.6,0.3,0.9l-6.1,8c-0.2,0-0.3-0.1-0.5-0.1c-0.6,0-1.1,0.3-1.4,0.8
			l-7.4-1.6c-0.1-0.8-0.8-1.4-1.6-1.4c-0.9,0-1.7,0.7-1.7,1.6l-11,4l0.4,1.1l11-4c0.3,0.4,0.8,0.6,1.3,0.6c0.6,0,1.1-0.3,1.4-0.8
			l7.4,1.6c0.1,0.8,0.8,1.4,1.6,1.4c0.9,0,1.7-0.7,1.7-1.7c0-0.3-0.1-0.6-0.3-0.9l6.1-8c0.2,0,0.3,0.1,0.5,0.1c0.4,0,0.8-0.1,1-0.4
			l6.8,4c0,0.1,0,0.2,0,0.3c0,0.9,0.7,1.7,1.7,1.7c0.9,0,1.7-0.7,1.7-1.7c0-0.1,0-0.2,0-0.3L157.8,547.7z" class="st13"/>
        </g>
        <g class="st11">
            <polygon points="206.8,583.4 176,601 140.6,592.6 102.9,603.3 102.9,599.7 140.5,588.8 174.6,597.6 206.9,579.9 
			241.4,583.9 266.9,538.8 289.2,549.8 289.2,552.5 267.7,542.6 242.8,587.1 		" class="st23"/>
            <polygon points="286.6,556.4 269.4,547.6 244.8,592.5 206.7,587.1 177.4,604.6 140.9,595.4 102.8,606.3 102.8,616.8 
			289,616.8 289,555.7 		" class="st22"/>
        </g>
    </g>
    <g>
        <path d="M660.7,637.5c0,0,0.7,5-0.6,7.1c-1.1,1.7-2,3.5,0.1,4c1.8,0.3,9.2,0.7,10.3-0.1c1.1-0.8,4.1-1.8,4.8-1.8
		c0.7,0,2.8-0.4,2.1-1.8c-0.7-1.4-2.4-1.8-4-2.5c-1.6-0.7-4.8-4.7-6.5-4.7S660.7,637.5,660.7,637.5z" class="st24"/>
        <path d="M615.9,637.1c0,0,0.6,5.4,1.8,7.5c1.1,1.7,2,3.5-0.1,4c-1.8,0.3-9.2,0.7-10.3-0.1c-1.1-0.8-4.1-1.8-4.8-1.8
		s-2.8-0.4-2.1-1.8c0.7-1.4,2.4-1.8,4-2.5c1.6-0.7,4.8-4.7,6.5-4.7C612.6,637.5,615.9,637.1,615.9,637.1z" class="st24"/>
        <linearGradient id="SVGID_11_" x1="638.1191" x2="638.1191" y1="530.3202" y2="635.9551" gradientUnits="userSpaceOnUse">
            <stop offset="0" style="stop-color:#5C6BC0"/>
            <stop offset="1" style="stop-color:#283593"/>
        </linearGradient>
        <path d="M609.9,514.7l-3.1,125h10.4c0,0,9.6-52.5,10.4-62.6c0.8-10.2,7.9-42,9-42.9c1.1-0.8,11.3,33.6,12.1,40.1
		s8.5,61.2,9.9,64.3s9.9,0,9.9,0s1.1-66,0.8-79c-0.3-13-3.4-44-3.1-46.3c0.3-2.3-18.6-3.1-26.2-2.3
		C632.5,511.8,613.8,509.3,609.9,514.7z" class="st25"/>
        <path d="M631.3,402.1c0,0-0.3,5.9-2.8,8.7s-30.5,19.8-34.1,21.4s-16.9,5.4-20.6,5.9c-3.7,0.6-11.9-1.1-18.6-2.3
		c-6.8-1.1-18.3-3.4-18.3-3.4s-0.8-4.8-2.3-5.4c-1.4-0.6-2.5,2.5-2.5,4c0,1.4-5.4,2.3-8.5,2.3s-8.5,2.3-3.7,2.8
		c4.8,0.6,9.6,0,15.5,2c5.9,2,24,8.5,27.1,10.2c3.1,1.7,6.5,2.3,10.2,1.1c3.7-1.1,17.8-4.2,22-5.4s23.4-5.4,30.2-6.2
		s34.7,0,39.2,1.4c4.5,1.4,26.5,9,30.8,9.9s8.5,2.3,13.8-0.8c5.4-3.1,22.9-10.2,27.9-10.4c5.1-0.3,14.1-2,15.2-2s2-1.7-4.2-2.8
		c-6.2-1.1-9-2.3-9-2.3s-0.3-4.8-1.7-5.1c-1.4-0.3-1.7,4.8-2.8,5.9c-1.1,1.1-22,5.4-27.1,5.9c-5.1,0.6-7.9,1.7-16.1-1.1
		c-8.2-2.8-42.6-18.6-44-20c-1.4-1.4-2-6.2-2.3-7.3s-1.7-8.7-1.7-8.7S633.3,399.8,631.3,402.1z" class="st26"/>
        <linearGradient id="SVGID_12_" x1="635.933" x2="635.933" y1="417.801" y2="512.4275" gradientUnits="userSpaceOnUse">
            <stop offset="0" style="stop-color:#AB47BC"/>
            <stop offset="1" style="stop-color:#772E8E"/>
        </linearGradient>
        <path d="M683.2,432.2c0,0-20.1-17.9-30.1-18.6s-21.3-4.1-30.5-0.4s-34.1,19-34.1,19l7.5,13.9c0,0,14.3-4.9,15.2-2.4
		c0.9,2.4,1.7,13.7,1.5,16.7c-0.2,3-2.2,38.2-5.4,49.1c-0.7,2.4-1.2,5.9,6,7.1c5.9,1,33.7,1.5,47.1-0.6c10.8-1.7,5.1-7.5,5.7-17.1
		s-3.6-38.2-2.5-50.8c0.3-3.4-0.9-5.5,1.9-5.1c2.8,0.4,13.2,3,13.2,3L683.2,432.2z" class="st27"/>
        <path d="M626.1,374c2.1-1.9,10.7-2.6,15.2-2.6c4.5,0,8.7,6.4,9.2,18.8s-2.8,16.4-2.8,16.4s-9.7-1-15.2-3.7
		c-4.7-2.3-7.6-13.5-8-18.5S624,375.9,626.1,374z" class="st28"/>
    </g>
</svg>
