<?xml version="1.0" encoding="utf-8"?>
<!--Generator: Adobe Illustrator 23.0.1, SVG Export Plug-In . SVG Version: 6.00 Build 0)-->
<svg xmlns="http://www.w3.org/2000/svg" xmlns:xlink="http://www.w3.org/1999/xlink" id="Layer_1" x="0px" y="0px" style="enable-background: new 0 0 440 600" version="1.1" viewBox="0 0 440 600" xml:space="preserve">
    <g style="opacity: 0.55">
        <linearGradient id="SVGID_1_" x1="185.6886" x2="54.2296" y1="428.0823" y2="537.9315" gradientTransform="matrix(1 0 0 -1 0 602)" gradientUnits="userSpaceOnUse">
            <stop offset="0" style="stop-color: #813A97"/>
            <stop offset="1" style="stop-color: #C72F97"/>
        </linearGradient>
        <path d="M 111.4 219.5 c -59.4 0 -107.6 -48.3 -107.6 -107.6 S 52.2 4.2 111.4 4.2 s 107.6 48.3 107.6 107.6 S 170.9 219.5 111.4 219.5 z M 111.4 40.2 c -39.4 0 -71.6 32 -71.6 71.6 s 32 71.6 71.6 71.6 c 39.4 0 71.6 -32 71.6 -71.6 S 150.9 40.2 111.4 40.2 z" style="fill: url(#SVGID_1_)"/>
    </g>
    <g>
        <linearGradient id="SVGID_2_" x1="366.9681" x2="358.0905" y1="183.5202" y2="258.9413" gradientTransform="matrix(-0.8804 -0.4742 0.4742 -0.8804 601.9272 749.8676)" gradientUnits="userSpaceOnUse">
            <stop offset="0" style="stop-color: #803997"/>
            <stop offset="0.2" style="stop-color: #863F97"/>
            <stop offset="0.5" style="stop-color: #964F96"/>
            <stop offset="0.9" style="stop-color: #B16994"/>
            <stop offset="1" style="stop-color: #BD7493"/>
        </linearGradient>
        <path d="M 410.6 344.2 c -6.4 -5.3 -14 -5.4 -21.6 1.9 c -8.1 7.8 -2 16.7 -4.9 23.1 c -4.1 9.3 -10.2 3 -16.9 14.1 c -5.6 9.3 1.7 13.9 -1.6 22 c -2 5 -3.8 10.3 3.8 16.4 s 12.9 6.6 16.6 -0.9 s -2.4 -15.3 0 -22.9 c 2.4 -7.6 13.5 -8.5 14.8 -15.3 c 1.3 -6.8 -3.6 -14.1 1.7 -17.9 C 407.1 361.3 417.9 350.2 410.6 344.2 z" style="fill: url(#SVGID_2_)"/>
        <path d="M 402.3 349.3 c -3.1 3.9 -7.5 6 -8.7 11.8 c -3.1 14.5 -7.9 20.8 -11.6 25.1 c -5.8 6.6 -7.4 22 -4.1 29.4" style="fill: none; stroke: #ffffff; stroke-width: 0.5; stroke-miterlimit: 10"/>
    </g>
    <g>
        <linearGradient id="SVGID_3_" x1="599.5122" x2="588.617" y1="-51.6862" y2="40.8757" gradientTransform="matrix(-0.9814 0.1919 -0.1919 -0.9814 723.3233 353.8241)" gradientUnits="userSpaceOnUse">
            <stop offset="0" style="stop-color: #803997"/>
            <stop offset="0.2" style="stop-color: #863F97"/>
            <stop offset="0.5" style="stop-color: #964F96"/>
            <stop offset="0.9" style="stop-color: #B16994"/>
            <stop offset="1" style="stop-color: #BD7493"/>
        </linearGradient>
        <path d="M 132.8 418.3 c -10.2 -0.1 -17.5 5.8 -19 18.6 c -1.6 13.7 11.1 17.4 13.3 25.7 c 3.3 12 -7.4 10.7 -5 26.5 c 2 13.2 12.4 11.9 15.6 22.1 c 2 6.4 4.4 12.7 16.4 12.6 c 12 -0.1 17.4 -3.8 15 -13.8 c -2.4 -10.1 -14.1 -12.7 -17.8 -21.8 c -3.7 -9.1 6.2 -18.5 2.1 -26 c -4.1 -7.5 -14.4 -10.6 -12.3 -18.2 C 142.7 437.3 144.4 418.3 132.8 418.3 z" style="fill: url(#SVGID_3_)"/>
        <path d="M 130.1 432.6 c 0 5.9 -2.5 11.2 0.7 17.4 c 8.1 15.6 8.3 24.9 8 31.7 c -0.5 10.5 9.7 25.7 18.5 29.9" style="fill: none; stroke: #ffffff; stroke-width: 0.5; stroke-miterlimit: 10"/>
    </g>
    <g>
        <g>
            <g>
                <linearGradient id="SVGID_4_" x1="-235.4083" x2="161.2499" y1="447.8158" y2="447.8158" gradientTransform="matrix(-0.5476 0.601 -0.9459 -0.7879 590.616 621.9739)" gradientUnits="userSpaceOnUse">
                    <stop offset="0" style="stop-color: #A1D1FF"/>
                    <stop offset="0.1" style="stop-color: #A0CBFD"/>
                    <stop offset="1" style="stop-color: #8D6EDB"/>
                </linearGradient>
                <path d="M 167 429.2 c -14.1 1.9 -29.8 -10.7 -29.7 -24.7 l 0.3 -251.4 c 0 -15.5 10 -26.4 26.1 -28.6 l 102.7 -8.7 c 14 -1.9 33.7 10 33.7 22.9" style="fill: url(#SVGID_4_)"/>
                <linearGradient id="SVGID_5_" x1="90.9895" x2="90.9895" y1="499.4308" y2="116.5512" gradientTransform="matrix(-1.093 -0.3819 -0.0013 0.9145 322.8296 28.2714)" gradientUnits="userSpaceOnUse">
                    <stop offset="0" style="stop-color: #772F8E"/>
                    <stop offset="0.8" style="stop-color: #3B8CE2"/>
                    <stop offset="1" style="stop-color: #27ACFF"/>
                </linearGradient>
                <path d="M 167 429.2 l 7.5 -1 l 110.1 -14.7 c 9.3 -1.2 15 -7.5 15 -16.5 l 0.5 -258.2 c 0 -7.5 -8 -15.4 -16 -17.2 c -1.7 -0.4 -3.4 -0.5 -5 -0.3 l -107.3 10.8 c -15.7 2.1 -25.3 12.7 -25.3 27.8 l -0.4 251.9 C 145.9 420.7 157.6 430.4 167 429.2 z" style="fill: url(#SVGID_5_)"/>
                <polygon points="293,153 153.3,168.1 152.9,404.1 292.6,385.4" style="fill: #ffffff"/>
            </g>
            <g>
                <path d="M 234.2 139.8 l -28.8 2.6 c -1.6 0.2 -2.6 1.3 -2.6 2.8 l 0 0 c 0 1.6 2.1 3.3 3.7 3.1 l 28.6 -2.6 c 1.6 -0.2 2.6 -1.3 2.7 -2.9 l 0 0 C 237.8 141.2 235.8 139.6 234.2 139.8 z" style="fill: #ffffff"/>
                <linearGradient id="SVGID_6_" x1="77.6283" x2="108.8998" y1="165.7274" y2="165.7274" gradientTransform="matrix(-1.093 -0.3819 -0.0013 0.9145 322.8296 28.2714)" gradientUnits="userSpaceOnUse">
                    <stop offset="0" style="stop-color: #962FE0"/>
                    <stop offset="0.5" style="stop-color: #5C8CF0"/>
                    <stop offset="1" style="stop-color: #27E1FF"/>
                </linearGradient>
                <path d="M 236.8 141.9 c 0 1.6 -1 2.7 -2.7 2.9 l -28.6 2.6 c -0.6 0.1 -1.3 -0.1 -1.9 -0.5 c 0.8 0.9 1.9 1.5 3 1.3 l 28.6 -2.6 c 1.6 -0.2 2.6 -1.3 2.7 -2.9 c 0 -1 -0.8 -2 -1.8 -2.6 C 236.5 140.7 236.8 141.4 236.8 141.9 z" style="fill: url(#SVGID_6_)"/>
            </g>
            <g>
                <path d="M 213.9 404.9 l 24.7 -3.3 c 2.3 -0.3 5.2 2.1 5.2 4.3 l 0 0 c 0 2.2 -1.4 3.7 -3.6 4 l -24.7 3.3 c -2.3 0.3 -5.2 -2.1 -5.2 -4.3 l 0 0 C 210.3 406.8 211.6 405.2 213.9 404.9 z" style="fill: none; stroke: #ffffff; stroke-width: 0.8; stroke-miterlimit: 10"/>
            </g>
        </g>
        <g>
            <g>
                <path d="M 213.1 202.4 c 0 1.9 -0.3 3.9 -0.8 5.7 l 7.2 1.4 c 0.7 -2.6 1.2 -5.3 1.2 -8.1 c 0 -5.1 -1.4 -9.7 -3.8 -13.5 l -6.4 4.7 C 212.2 195.4 213.1 198.7 213.1 202.4 z" style="fill: #b66888"/>
                <path d="M 192.4 183.9 c 7 -0.6 13.2 2.2 16.9 7.1 l 6.5 -4.7 c -5.1 -6.8 -13.6 -10.6 -23.4 -9.7 V 183.9 z" style="fill: #762e8e"/>
                <path d="M 182 225.6 c -7.4 -2.4 -12.5 -9.1 -12.5 -17.6 c 0 -11.4 9.2 -21.8 20.7 -23.9 v -7.3 c -15.7 2.6 -28.3 16.8 -28.3 32.2 c 0 11.6 7.1 20.6 17.2 23.8 L 182 225.6 z" style="fill: #0071bc"/>
                <path d="M 211.7 210.3 c -3.2 8.3 -11.1 15 -20.4 16.2 c -2.6 0.3 -5 0.2 -7.3 -0.3 l -2.9 7.2 c 3.2 0.7 6.6 0.9 10.2 0.4 c 12.6 -1.6 23.4 -10.8 27.6 -22.2 L 211.7 210.3 z" style="fill: #c3228d"/>
            </g>
            <g>
                <polygon points="190.9,316.5 218.8,313 218.8,320.1 190.9,323.7" style="fill: #a1205d"/>
                <polygon points="161.9,320.3 190.9,316.5 190.9,323.7 161.9,327.4" style="fill: #bd7494"/>
                <polygon points="246.6,309.4 281.8,304.8 281.8,312 246.6,316.5" style="fill: #c72d96"/>
                <polygon points="218.7,313 246.6,309.4 246.6,316.5 218.7,320.1" style="fill: #f48f31"/>
                <polygon points="161.9,332.5 202.8,327.2 202.8,334.4 161.9,339.7" style="fill: #bd7494"/>
                <polygon points="202.8,327.2 228.9,323.9 228.9,331 202.8,334.4" style="fill: #a1205d"/>
                <polygon points="255,320.5 281.8,317.1 281.8,324.2 255,327.7" style="fill: #c72d96"/>
                <polygon points="228.9,323.9 254.9,320.5 254.9,327.7 228.9,331" style="fill: #f48f31"/>
                <polygon points="211.1,338.5 236.8,335.2 236.8,342.3 211.1,345.6" style="fill: #a1205d"/>
                <polygon points="161.9,344.8 211.1,338.5 211.1,345.6 161.9,352" style="fill: #bd7494"/>
                <polygon points="236.8,335.2 261.5,332 261.5,339.2 236.8,342.3" style="fill: #f48f31"/>
                <polygon points="261.5,332 281.8,329.4 281.8,336.5 261.5,339.2" style="fill: #c72d96"/>
                <polygon points="161.9,357.1 196.3,352.6 196.3,359.8 161.9,364.2" style="fill: #bd7494"/>
                <polygon points="196.3,352.6 218.7,349.7 218.7,356.9 196.3,359.8" style="fill: #a1205d"/>
                <polygon points="251,345.6 281.8,341.6 281.8,348.8 251,352.7" style="fill: #c72d96"/>
                <polygon points="218.7,349.7 251,345.6 251,352.7 218.7,356.9" style="fill: #f48f31"/>
                <polygon points="161.9,369.4 190.9,365.6 190.9,372.8 161.9,376.5" style="fill: #bd7494"/>
                <polygon points="190.9,365.6 226.4,361.1 226.4,368.2 190.9,372.8" style="fill: #a1205d"/>
                <polygon points="226.3,361.1 257.8,357 257.8,364.2 226.3,368.2" style="fill: #f48f31"/>
                <polygon points="257.8,357 281.8,353.9 281.8,361.1 257.8,364.2" style="fill: #c72d96"/>
                <polygon points="161.9,381.6 206.1,375.9 206.1,383.1 161.9,388.8" style="fill: #bd7494"/>
                <polygon points="206.1,375.9 239,371.7 239,378.8 206.1,383.1" style="fill: #a1205d"/>
                <polygon points="267.3,368 281.8,366.2 281.8,373.3 267.3,375.2" style="fill: #c72d96"/>
                <polygon points="239,371.7 267.3,368 267.3,375.2 239,378.8" style="fill: #f48f31"/>
            </g>
            <g>
                <path d="M 254.2 170 c -15.7 2 -28.4 16 -28.4 31.3 c 0 15.2 12.7 26 28.4 23.9 c 15.7 -2 28.4 -16 28.4 -31.3 l -28.4 3.7 V 170 z" style="fill: #772e8e"/>
                <path d="M 256.3 167.6 v 27.6 l 28.4 -3.7 C 284.7 176.3 272 165.6 256.3 167.6 z" style="fill: #b66888"/>
            </g>
            <g>
                <polygon points="281.8,297.1 164.1,312.3 164.1,255.4 165.7,255.2 165.7,310.6 281.8,295.6" style="fill: #c82f97"/>
                <g>
                    <path d="M 171.7 282.8 l 1.4 0.6 l 5 -8.8 l 0.1 0 c 0.6 0 1.3 -0.5 1.7 -1 l 7.3 1.6 c 0.1 1 0.9 1.8 2 1.8 s 2.2 -1 2.3 -2.3 c 0 -0.3 0 -0.4 -0.1 -0.6 l 9.9 -7.5 c 0.4 0.2 0.7 0.3 1.1 0.3 c 0.9 -0.1 1.7 -0.6 2 -1.4 l 9.2 0.1 c 0.2 0.9 0.9 1.5 1.9 1.4 c 1.2 -0.1 2.2 -1 2.3 -2.3 c 0 -0.3 0 -0.5 -0.1 -0.7 l 11.5 -10.6 l -0.9 -1.1 l -11.5 10.6 c -0.2 -0.1 -0.6 -0.2 -0.9 -0.2 c -0.9 0.1 -1.7 0.6 -2 1.4 l -9.2 -0.1 c -0.2 -0.9 -0.9 -1.5 -1.9 -1.4 c -1.2 0.1 -2.2 1 -2.3 2.3 c 0 0.3 0 0.4 0.1 0.6 l -9.9 7.5 c -0.4 -0.2 -0.7 -0.3 -1.1 -0.3 c -0.6 0 -1.3 0.5 -1.7 1 l -7.3 -1.6 c -0.1 -1 -0.9 -1.8 -2 -1.8 s -2.2 1 -2.3 2.3 c 0 0.5 0.2 1 0.5 1.4 L 171.7 282.8 z" style="fill: #772f8e"/>
                    <path d="M 273.5 233.5 l -1.4 -0.5 l -5.5 10.1 l -0.1 0 c -0.6 0 -1.3 0.5 -1.7 1 l -7.3 -1.6 c -0.1 -1 -0.9 -1.8 -2 -1.8 c -1.2 0.1 -2.2 1 -2.3 2.3 c 0 0.3 0 0.4 0.1 0.6 l -9.9 7.5 c -0.4 -0.2 -0.7 -0.3 -1.1 -0.3 c -0.9 0.1 -1.7 0.6 -2 1.4 l -9.2 -0.1 c -0.2 -0.9 -0.9 -1.5 -1.9 -1.4 c -1.2 0.1 -2.2 1 -2.3 2.3 c 0 0.3 0 0.5 0.1 0.7 l 0.9 1.1 c 0.2 0.1 0.6 0.2 0.9 0.2 c 0.9 -0.1 1.7 -0.6 2 -1.4 l 9.2 0.1 c 0.2 0.9 0.9 1.5 1.9 1.4 c 1.2 -0.1 2.2 -1 2.3 -2.3 c 0 -0.3 0 -0.4 -0.1 -0.6 l 9.9 -7.5 c 0.4 0.2 0.7 0.3 1.1 0.3 c 0.6 0 1.3 -0.5 1.7 -1 l 7.3 1.6 c 0.1 1 0.9 1.8 2 1.8 c 1.2 -0.1 2.2 -1 2.3 -2.3 c 0 -0.5 -0.2 -1 -0.5 -1.3 L 273.5 233.5 z" style="fill: #772f8e"/>
                </g>
                <g>
                    <path d="M 174.4 301.4 l 0.9 1 l 6.8 -6.5 c 0.4 0.1 0.8 0.2 1.3 0 c 0.5 -0.1 1 -0.4 1.2 -0.8 l 9.4 2.5 c 0 0.1 0 0.2 0.1 0.4 c 0.2 1.1 1.2 1.8 2.5 1.5 c 1.1 -0.3 2 -1.4 1.9 -2.6 c -0.1 -0.4 -0.2 -0.7 -0.5 -1 l 6.3 -11.8 c 0.3 -0.1 0.4 0 0.7 0 c 0.8 -0.2 1.3 -0.7 1.6 -1.4 l 9.7 -0.6 c 0.3 0.9 1.3 1.4 2.3 1.2 c 1.1 -0.3 2 -1.4 1.9 -2.5 l 13.3 -8.6 l -0.7 -1.2 l -13.3 8.6 c -0.5 -0.4 -1.1 -0.5 -1.8 -0.3 c -0.8 0.2 -1.3 0.7 -1.6 1.4 l -9.7 0.6 c -0.3 -0.9 -1.3 -1.4 -2.3 -1.2 c -1.1 0.3 -2 1.4 -1.9 2.6 c 0.1 0.4 0.2 0.7 0.5 1 l -6.3 11.8 c -0.3 0.1 -0.4 0 -0.7 0 c -0.5 0.1 -1 0.4 -1.2 0.8 l -9.4 -2.5 c 0 -0.1 0 -0.2 -0.1 -0.4 c -0.2 -1.1 -1.2 -1.8 -2.5 -1.5 c -1.1 0.3 -2 1.4 -1.9 2.6 c 0 0.1 0 0.2 0.1 0.4 L 174.4 301.4 z" style="fill: #c2218d"/>
                    <path d="M 278.2 253.8 l -0.9 -1.1 l -7.2 6.1 c -0.4 -0.2 -0.8 -0.2 -1.3 -0.1 c -0.5 0.1 -1 0.3 -1.2 0.7 l -9.1 -3.2 c 0 -0.1 0 -0.2 0 -0.4 c -0.1 -1.1 -1 -1.9 -2.3 -1.7 c -1.2 0.2 -2.1 1.3 -2 2.5 c 0 0.4 0.2 0.7 0.5 1 l -7.1 11.4 c -0.3 0.1 -0.4 0 -0.7 0 c -0.8 0.2 -1.4 0.6 -1.7 1.3 l -9.6 -0.1 c -0.2 -1 -1.1 -1.5 -2.2 -1.3 c -1.2 0.2 -2.1 1.3 -2 2.4 l 0.6 1.3 c 0.4 0.4 1.1 0.5 1.7 0.4 c 0.8 -0.2 1.4 -0.6 1.7 -1.3 l 9.6 0.1 c 0.2 1 1.1 1.5 2.2 1.3 c 1.2 -0.2 2.1 -1.3 2 -2.5 c 0 -0.4 -0.2 -0.7 -0.5 -1 l 7.1 -11.4 c 0.3 -0.1 0.4 0 0.7 0 c 0.5 -0.1 1 -0.3 1.2 -0.7 l 9.1 3.2 c 0 0.1 0 0.2 0 0.4 c 0.1 1.1 1 1.9 2.3 1.7 c 1.2 -0.2 2.1 -1.3 2 -2.5 c 0 -0.1 0 -0.2 0 -0.4 L 278.2 253.8 z" style="fill: #c2218d"/>
                </g>
            </g>
        </g>
    </g>
    <g>
        <linearGradient id="SVGID_7_" x1="1175.4059" x2="1125.7939" y1="142.7328" y2="184.1893" gradientTransform="matrix(0.9999 0.0137 0.0137 -0.9999 -754.1095 596.6105)" gradientUnits="userSpaceOnUse">
            <stop offset="0" style="stop-color: #8D6B97"/>
            <stop offset="1" style="stop-color: #C77DB0"/>
        </linearGradient>
        <path d="M 435.9 461.3 c 0 0 -5.8 -66.1 -36.4 -65.7 c -30.6 0.4 -58.4 64.6 -58.4 64.6 L 435.9 461.3 z" style="fill: url(#SVGID_7_)"/>
        <linearGradient id="SVGID_8_" x1="1172.9807" x2="1141.9602" y1="188.9156" y2="214.8369" gradientTransform="matrix(0.9999 0.0137 0.008 -0.5881 -753.6703 564.4269)" gradientUnits="userSpaceOnUse">
            <stop offset="0" style="stop-color: #813A97"/>
            <stop offset="1" style="stop-color: #C72F97"/>
        </linearGradient>
        <path d="M 428.7 466.2 c 0 0 -4 -24.4 -23 -24.3 c -19.1 0.1 -36.2 23.6 -36.2 23.6 L 428.7 466.2 z" style="fill: url(#SVGID_8_)"/>
    </g>
    <g>
        <linearGradient id="SVGID_9_" x1="1443.339" x2="1391.7085" y1="89.0666" y2="132.2098" gradientTransform="matrix(-0.7815 0.0107 -0.0043 -0.3175 1280.873 551.2024)" gradientUnits="userSpaceOnUse">
            <stop offset="0" style="stop-color: #8D6B97"/>
            <stop offset="1" style="stop-color: #C77DB0"/>
        </linearGradient>
        <path d="M 215.9 536.1 c 0 0 -20.1 -23.7 -42.9 -23.7 s -27.5 24.7 -27.5 24.7 L 215.9 536.1 z" style="fill: url(#SVGID_9_)"/>
        <linearGradient id="SVGID_10_" x1="225.5334" x2="199.0352" y1="259.7597" y2="164.1919" gradientTransform="matrix(0.8949 -0.4463 -0.4463 -0.8949 89.3274 841.6543)" gradientUnits="userSpaceOnUse">
            <stop offset="0" style="stop-color: #F58792"/>
            <stop offset="1" style="stop-color: #B43661"/>
        </linearGradient>
        <path d="M 184.7 536.4 c -2.3 -0.6 -4.3 -1.2 -6.7 -1.5 c -3.8 -0.6 -7.5 -2.8 -11 -4.5 c -4.7 -2.4 -12 -5.5 -15 -10.1 c 2 -0.6 5.5 0.6 7.4 1.2 c 3.6 0.9 6.9 2.2 10.4 3.7 c 3.6 1.7 6.9 4 10.5 5.6 c -0.3 -1.9 -3.2 -3.5 -4.6 -4.6 c -2.8 -2.6 -5.1 -5.5 -7.2 -8.7 c -1.8 -2.7 -3.7 -5.4 -5.1 -8.3 c -0.9 -1.8 -2.8 -4.9 -2.8 -6.9 c 2.9 1.4 5.4 3.8 7.5 6.1 c 2.4 2.7 5.1 5.4 7 8.4 c 1.2 1.8 4.5 8.6 7.2 7.8 c -0.8 -7 -5 -13.8 -6.8 -20.7 c -1.4 -5.5 -2.6 -11.8 -1.3 -17.5 c 2.3 2.6 3.6 7.7 4.7 10.9 c 1.8 4.7 3.5 9.6 4.9 14.5 c 1.2 4.2 3.3 8.1 4.6 12.3 c -1.4 -6.1 -2.3 -12.7 -1.4 -18.9 c 0.4 -2.7 0.8 -5.4 1.3 -8.1 c 0.3 -1.2 0.3 -2.6 1 -3.6 c 1.5 2 1.5 6.3 2 8.7 c 0.8 3.8 1.7 7.7 1.7 11.5 c 0 4.2 0.4 8.7 0 13.1 c -0.9 -3.7 0.9 -9.9 2.2 -13.3 c 0.9 -2.4 2.3 -6.8 4.6 -8.3 c 1.2 3.7 -0.3 9.5 -0.6 13.2 c -0.5 4.1 -1.5 9.5 -3.6 13.2 c -1.2 2.2 -3.3 4.6 -5.6 5.5 C 188.5 537.5 185.5 536.6 184.7 536.4 z" style="fill: url(#SVGID_10_)"/>
        <linearGradient id="SVGID_11_" x1="1302.0464" x2="1269.7404" y1="65.9228" y2="92.9181" gradientTransform="matrix(-0.9999 0.0137 -0.008 -0.5881 1488.863 564.4269)" gradientUnits="userSpaceOnUse">
            <stop offset="0" style="stop-color: #813A97"/>
            <stop offset="1" style="stop-color: #C72F97"/>
        </linearGradient>
        <path d="M 237.2 541.3 c 0 0 -16.3 -27.6 -34.4 -27.8 s -21.9 28.5 -21.9 28.5 L 237.2 541.3 z" style="fill: url(#SVGID_11_)"/>
    </g>
    <g>
        <g>
            <g>
                <g>
                    <path d="M 124.6 318 c 0 0 1.5 -2.9 1.6 -3 c 0.6 -1.1 -0.2 -7 -0.4 -8.3 c -0.1 -0.7 -4.1 3.1 -4.3 3.5 c -0.5 0.8 -0.2 3.1 -0.3 4.1 l -1.7 0.9 l 0.5 2.4 L 124.6 318 z" style="fill: #f6c5b0"/>
                </g>
            </g>
        </g>
        <g>
            <g>
                <polygon points="57.3,474.8 56.8,478.4 63.6,482.9 67.7,479.8 64.5,475.7 57.8,471.2" style="fill: #33435a"/>
            </g>
            <g>
                <linearGradient id="SVGID_12_" x1="95.0151" x2="113.9981" y1="331.2398" y2="322.3811" gradientUnits="userSpaceOnUse">
                    <stop offset="0" style="stop-color: #4527A0"/>
                    <stop offset="1" style="stop-color: #7E57C2"/>
                </linearGradient>
                <polygon points="88,313.2 98,315.3 110.8,328.7 119.4,316.8 125.9,317.3 112.4,344.4 95.4,335.7" style="fill: url(#SVGID_12_)"/>
            </g>
            <g>
                <linearGradient id="SVGID_13_" x1="85.0787" x2="79.1703" y1="472.9168" y2="388.0556" gradientUnits="userSpaceOnUse">
                    <stop offset="0" style="stop-color: #4527A0"/>
                    <stop offset="1" style="stop-color: #7E57C2"/>
                </linearGradient>
                <polygon points="105.9,369.3 85.5,366.1 85.4,364.1 57.4,365.2 56,376.1 62.3,427.6 57.1,473.6 64,475.9 81.7,427.7 84,405.7 86.2,420.1 89.9,475.3 96.6,475.4 106,415.7" style="fill: url(#SVGID_13_)"/>
                <g>
                    <polygon points="89.9,478.2 97.2,481.9 100.8,478.3 97.2,474.6 90,474.5" style="fill: #33435a"/>
                </g>
            </g>
            <g>
                <linearGradient id="SVGID_14_" x1="55.2093" x2="37.9137" y1="328.646" y2="306.7101" gradientUnits="userSpaceOnUse">
                    <stop offset="0" style="stop-color: #4527A0"/>
                    <stop offset="1" style="stop-color: #7E57C2"/>
                </linearGradient>
                <polygon points="66.8,317.1 52.2,320.9 34.5,293.4 27,295.4 39.5,335 68.1,338.4" style="fill: url(#SVGID_14_)"/>
            </g>
            <g>
                <g>
                    <linearGradient id="SVGID_15_" x1="85.1748" x2="80.5346" y1="382.8719" y2="337.3128" gradientUnits="userSpaceOnUse">
                        <stop offset="0" style="stop-color: #813A97"/>
                        <stop offset="1" style="stop-color: #C72F97"/>
                    </linearGradient>
                    <path d="M 53.1 385.1 c 0.1 -2 0.2 -3.7 0.2 -4.3 c 0.1 -5.4 0.6 -10.8 1.3 -16.1 c 0.6 -4.8 1.4 -16.7 2.2 -21.5 c 0.7 -3.9 3 -13.8 4.7 -17.4 c 4.2 -9.1 2.9 -9.9 21.6 -12.6 c 8.2 -1.2 10.1 3.9 16.8 9.8 c 0.7 0.6 0.6 4 0.8 4.9 c 0.3 1.6 0.6 3.2 0.9 4.8 c 0.3 1.3 0.5 2.5 0.9 3.7 l 0 0 c 0 0 5.6 25.5 9.3 31 c 3.7 5.4 11.4 13 -1.4 17.6 c -2.3 0.7 -4.6 1.4 -6.9 1.8 c 0 0 -10.5 -1.2 -15.9 -1.1 c -5 0 -10 0.5 -14.8 1.4 c -3.3 0.5 -6.6 1.3 -9.5 2.9 c -2.8 1.5 -4.8 3.6 -7.6 5.1 c -0.3 0.1 -0.6 0.3 -0.9 0.2 C 53.1 395 53 389.3 53.1 385.1 z" style="fill: url(#SVGID_15_)"/>
                </g>
            </g>
            <g>
                <g>
                    <path d="M 81.5 315.4 c -0.8 0.7 -2.8 1.5 -5.3 1.3 c -0.5 0 -0.9 -0.4 -1.1 -0.9 c -0.4 -1.4 -0.7 -2.7 -0.9 -4.1 c -1.8 -0.1 -4 -0.4 -4.9 -2 c -0.3 -0.5 -0.3 -1.1 -0.4 -1.7 c -0.3 -2.4 -0.6 -4.8 -0.9 -7.1 c -0.1 -0.8 -0.2 -1.7 0 -2.5 c 0.4 -1.4 1.7 -2.4 3 -3 c 3.3 -1.7 7.4 -2.1 10.8 -0.6 c 0.9 0.4 1.8 0.9 2.4 1.7 c 0.9 1.2 1 2.8 1.1 4.4 c 0.1 1.4 0.1 2.8 0.2 4.2 c 0.1 1.6 0 3.5 -1.2 4.5 c -0.7 0.5 -1.6 0.7 -2.2 1.4 C 81 312.2 81.7 314 81.5 315.4 z" style="fill: #f6c5b0"/>
                </g>
                <g>
                    <path d="M 94.7 286.7 c 0.2 -0.7 0.4 -1.3 0.6 -2 c 0.6 -1.4 1.4 -2.7 1.7 -4.1 c 0.3 -1.4 0.1 -3.2 -1.1 -4.1 c -0.8 -0.6 -1.8 -0.6 -2.8 -0.6 c -3.2 0 -6.3 0.9 -9 2.6 c -2.6 1.6 -4.7 3.5 -7.9 3.3 c -2.9 -0.2 -4.7 0.8 -7.2 2.6 c -2.7 2 -6.6 3.5 -8.8 5.8 c -0.9 1 -1.5 2.2 -1.9 3.5 c -1.3 4.5 0.3 9.7 3.9 12.7 c 0.8 0.7 1.7 1.3 2.6 1.8 c 1.9 1.1 4.2 2.5 6.3 2.4 c -0.5 -1.8 -3.8 -6.7 -2.9 -8.6 c 1.4 -2.9 6.4 -3.6 9.2 -3.8 c 3 -0.3 6.2 1 9.2 0.5 c 2.1 -0.3 4.4 -2.1 5.9 -3.7 C 94.3 293.3 94.1 289.2 94.7 286.7 z" style="fill: #33435a"/>
                </g>
            </g>
        </g>
        <g>
            <path d="M 28.8 295.2 c 0 0 -2.5 -3 -2.6 -3 c -0.9 -1.1 -0.8 -5.6 -1 -7 c -0.1 -0.8 3.8 0.8 4.2 1.2 c 0.7 0.8 1.2 3.3 1.7 4.4 l 2 0.7 l 0.3 2.7 L 28.8 295.2 z" style="fill: #f6c5b0"/>
        </g>
    </g>
    <g>
        <g>
            <path d="M 370.8 368.4 c 0 0 1.5 -3.2 1.5 -3.3 c 0.6 -1.2 -1.1 -5.4 -1.4 -6.8 c -0.2 -0.8 -3.7 1.4 -3.9 1.9 c -0.5 0.9 -0.1 3.4 -0.1 4.4 l -1.8 1 l 0.7 2.6 L 370.8 368.4 z" style="fill: #ce7361"/>
        </g>
        <g>
            <polygon points="337.7,590.2 347.2,590.2 347.6,587 344.2,584.7 337.4,585.2" style="fill: #33435a"/>
        </g>
        <g>
            <linearGradient id="SVGID_16_" x1="326.0838" x2="323.6015" y1="578.6357" y2="503.224" gradientUnits="userSpaceOnUse">
                <stop offset="0" style="stop-color: #0D47A1"/>
                <stop offset="1" style="stop-color: #64B5F6"/>
            </linearGradient>
            <polygon points="346.5,495.2 327.2,491.9 328.7,482.6 301.7,485.2 300.3,510.5 304.4,585.7 310.8,586 320.3,536.7 324.2,511.5 329.7,534.3 337.4,585.9 343.7,585.5 347.9,528.6" style="fill: url(#SVGID_16_)"/>
            <g>
                <polygon points="310.5,590.4 301.3,590.8 300.3,588.2 303.9,584.9 310.8,585.2" style="fill: #33435a"/>
            </g>
        </g>
        <g>
            <linearGradient id="SVGID_17_" x1="338.7462" x2="383.0538" y1="421.693" y2="365.0053" gradientUnits="userSpaceOnUse">
                <stop offset="0" style="stop-color: #0D47A1"/>
                <stop offset="1" style="stop-color: #64B5F6"/>
            </linearGradient>
            <polygon points="330.9,411.4 349.6,404.5 364.9,367.7 371.4,368.1 364.4,409.4 354.8,418.4 327.4,431.8" style="fill: url(#SVGID_17_)"/>
        </g>
        <g>
            <g>
                <g>
                    <path d="M 266 391.4 c -0.9 -1.3 -1.6 -5.5 -0.7 -7 c 2.1 -3.4 3.3 1.8 4.1 3.4 c 0.5 -0.5 1 -0.9 1.5 -1.3 c 0.5 -0.3 1.4 5.4 1.1 6.1 c -0.7 1.7 -1.9 1.6 -3.6 2.3 C 267.7 393.8 266.9 392.6 266 391.4 z" style="fill: #ce7361"/>
                </g>
            </g>
            <g>
                <linearGradient id="SVGID_18_" x1="303.6333" x2="250.2036" y1="420.4781" y2="385.2927" gradientUnits="userSpaceOnUse">
                    <stop offset="0" style="stop-color: #0D47A1"/>
                    <stop offset="1" style="stop-color: #64B5F6"/>
                </linearGradient>
                <polygon points="310.6,429.2 280.5,423.3 267.3,394.7 273,390.3 287.2,410.3 302.6,410 316.8,411" style="fill: url(#SVGID_18_)"/>
            </g>
        </g>
        <g>
            <g>
                <linearGradient id="SVGID_19_" x1="324.1114" x2="328.0209" y1="490.005" y2="429.4079" gradientUnits="userSpaceOnUse">
                    <stop offset="0" style="stop-color: #4527A0"/>
                    <stop offset="1" style="stop-color: #7E57C2"/>
                </linearGradient>
                <path d="M 338.6 408.8 l -19.8 -2.1 c 0 0 -11 1.2 -18.5 27.3 c -4.2 14.5 -5.4 37.4 -5.7 54.9 c 0.5 2.5 3.2 13.4 14.6 11.5 c 19.7 -3.2 30.2 -6.4 38.8 -4.8 c 7.3 1.6 6.7 -8.5 5.9 -16.1 l -2.9 -23.8 L 338.6 408.8 z" style="fill: url(#SVGID_19_)"/>
            </g>
        </g>
        <g>
            <g>
                <path d="M 334.7 384.2 c -5 -1.1 -10.1 -2.1 -15.1 -1.1 c -1.1 0.2 -2.3 0.6 -2.9 1.5 c -0.2 0.4 -0.4 0.8 -0.5 1.2 c -1.3 4.7 -2.9 11.6 0.2 15.9 c 0.6 0.8 1.4 1.5 2.2 2 c 1.1 0.7 2.4 1.2 3.7 1.4 c -0.3 1.2 -0.6 2.3 -1.1 3.4 c 1.1 1.7 6.5 1.9 7.4 0.3 c 0.1 -1.4 0.1 -2.9 0.2 -4.3 c 0.6 -0.3 1.3 -0.6 1.9 -1 c 2.3 -1.5 3.8 -3.8 4.6 -6.3 c 0.9 -2.8 2.3 -5.4 3.1 -8.2 c 0.3 -1 0.6 -2.2 0 -3.1 c -0.6 -1 -1.8 -1.3 -2.9 -1.6 C 335.4 384.4 335.1 384.3 334.7 384.2 z" style="fill: #ce7361"/>
            </g>
            <g>
                <path d="M 336.9 397.2 c 2.4 -2.5 5.2 -5.9 5.4 -9 c 0.2 -2.6 -0.2 -6.1 -1.6 -8.3 c -1.4 -2.1 -4.8 -3.2 -6.9 -4.4 c -1.9 -1.1 -3.9 -2.3 -5.8 -3.4 c -0.4 -0.2 -0.8 -0.5 -1.3 -0.6 c -0.5 -0.1 -1.1 0 -1.6 0.2 c -4.6 1.2 -9.2 2.4 -13.8 3.6 c -0.9 0.2 -1.9 0.6 -2.2 1.4 c -0.2 0.5 -0.1 1.1 0 1.6 c 0.5 2.4 1.5 4.8 1.8 7.2 c 0.4 1.9 0.3 3.6 1.7 5 c 1.3 1.3 3.1 2 4.1 3.6 c 0.8 1.2 1 2.6 1.6 3.8 c 2.7 5.7 13.6 4.2 17.3 0.5 C 336.1 398.1 336.5 397.6 336.9 397.2 z" style="fill: #33435a"/>
            </g>
        </g>
    </g>
    <g>
        <g>
            <path d="M 28 495.5 c -0.4 0 -0.9 -0.2 -1.2 -0.5 c -0.7 -0.7 -0.7 -1.8 0 -2.5 l 2.5 -2.5 c 0.7 -0.7 1.8 -0.7 2.5 0 c 0.7 0.7 0.7 1.8 0 2.5 l -2.5 2.5 C 28.9 495.3 28.5 495.5 28 495.5 z" style="fill: #ba68c8"/>
        </g>
        <g>
            <path d="M 35.9 487.7 c -0.4 0 -0.9 -0.2 -1.2 -0.5 c -0.7 -0.7 -0.7 -1.8 0 -2.5 l 2.4 -2.4 c 0.7 -0.7 1.8 -0.7 2.5 0 c 0.7 0.7 0.7 1.8 0 2.5 l -2.4 2.4 C 36.8 487.5 36.3 487.7 35.9 487.7 z" style="fill: #ba68c8"/>
        </g>
        <g>
            <path d="M 38.3 495.5 c -0.4 0 -0.9 -0.2 -1.2 -0.5 l -2.4 -2.4 c -0.7 -0.7 -0.7 -1.8 0 -2.5 s 1.8 -0.7 2.5 0 l 2.4 2.4 c 0.7 0.7 0.7 1.8 0 2.5 C 39.2 495.3 38.7 495.5 38.3 495.5 z" style="fill: #ba68c8"/>
        </g>
        <g>
            <path d="M 30.3 487.5 c -0.4 0 -0.9 -0.2 -1.2 -0.5 l -2.3 -2.3 c -0.7 -0.7 -0.7 -1.8 0 -2.5 c 0.7 -0.7 1.8 -0.7 2.5 0 l 2.3 2.3 c 0.7 0.7 0.7 1.8 0 2.5 C 31.2 487.4 30.8 487.5 30.3 487.5 z" style="fill: #ba68c8"/>
        </g>
    </g>
    <g>
        <g>
            <path d="M 81.6 570.6 c -1.3 0 -2.4 -1.1 -2.4 -2.4 v -4.8 c 0 -1.3 1.1 -2.4 2.4 -2.4 c 1.3 0 2.4 1.1 2.4 2.4 v 4.8 C 84 569.5 82.9 570.6 81.6 570.6 z" style="fill: #81d4fa"/>
        </g>
        <g>
            <path d="M 81.6 555.2 c -1.3 0 -2.4 -1.1 -2.4 -2.4 v -4.8 c 0 -1.3 1.1 -2.4 2.4 -2.4 c 1.3 0 2.4 1.1 2.4 2.4 v 4.8 C 84 554.1 82.9 555.2 81.6 555.2 z" style="fill: #81d4fa"/>
        </g>
        <g>
            <path d="M 91.7 560.5 h -4.7 c -1.3 0 -2.4 -1.1 -2.4 -2.4 s 1.1 -2.4 2.4 -2.4 h 4.7 c 1.3 0 2.4 1.1 2.4 2.4 S 93 560.5 91.7 560.5 z" style="fill: #81d4fa"/>
        </g>
        <g>
            <path d="M 76.1 560.5 h -4.5 c -1.3 0 -2.4 -1.1 -2.4 -2.4 s 1.1 -2.4 2.4 -2.4 h 4.5 c 1.3 0 2.4 1.1 2.4 2.4 S 77.4 560.5 76.1 560.5 z" style="fill: #81d4fa"/>
        </g>
    </g>
    <g>
        <g>
            <path d="M 375.1 243.2 c -0.6 0 -1.3 -0.2 -1.7 -0.7 l -14.5 -14.5 c -1 -1 -1 -2.5 0 -3.5 s 2.5 -1 3.5 0 l 14.5 14.5 c 1 1 1 2.5 0 3.5 C 376.3 243 375.7 243.2 375.1 243.2 z" style="fill: #ffcc80"/>
        </g>
        <g>
            <path d="M 360.5 243.2 c -0.6 0 -1.3 -0.2 -1.7 -0.7 c -1 -1 -1 -2.5 0 -3.5 l 14.5 -14.5 c 1 -1 2.5 -1 3.5 0 s 1 2.5 0 3.5 l -14.5 14.5 C 361.8 243 361.2 243.2 360.5 243.2 z" style="fill: #ffcc80"/>
        </g>
    </g>
    <g>
        <path d="M 387.3 97.5 c -5.1 -0.1 -9.2 -4.3 -9.1 -9.4 c 0.1 -5.1 4.3 -9.2 9.4 -9.1 c 5.1 0.1 9.2 4.3 9.1 9.4 C 396.6 93.5 392.4 97.6 387.3 97.5 z M 387.5 83 c -2.9 0 -5.2 2.3 -5.3 5.1 c 0 2.9 2.3 5.2 5.1 5.3 c 2.9 0 5.2 -2.3 5.3 -5.1 C 392.6 85.4 390.3 83.1 387.5 83 z" style="fill: #80cbc4"/>
    </g>
</svg>
