<?xml version="1.0" encoding="utf-8"?>
<!-- Generator: Adobe Illustrator 23.0.1, SVG Export Plug-In . SVG Version: 6.00 Build 0)  -->
<svg version="1.1" id="Layer_1" xmlns="http://www.w3.org/2000/svg" xmlns:xlink="http://www.w3.org/1999/xlink" x="0px" y="0px"
	 viewBox="0 0 800 800" style="enable-background:new 0 0 800 800;" xml:space="preserve">
<linearGradient id="SVGID_1_" gradientUnits="userSpaceOnUse" x1="390.2875" y1="624.4517" x2="390.2875" y2="185.6004" gradientTransform="matrix(0.9395 -0.3425 -0.3425 -0.9395 153.9756 914.3425)">
	<stop  offset="0" style="stop-color:#4FF2FC"/>
	<stop  offset="0.5109" style="stop-color:#76AFFB"/>
	<stop  offset="1" style="stop-color:#9F6AFA"/>
</linearGradient>
<path style="fill:url(#SVGID_1_);" d="M70.936,360.362c122.836-211.262,477.39-260.352,642.751-114.071
	c96.743,85.579,89.367,220.229,27.424,282.889c-61.943,62.66-104.462,4.168-282.853,63.032
	c-178.391,58.865-240.195,180.051-340.746,111.883S-5.517,491.851,70.936,360.362z"/>
<linearGradient id="SVGID_2_" gradientUnits="userSpaceOnUse" x1="508.4095" y1="-167.1787" x2="377.2477" y2="-36.0169" gradientTransform="matrix(0.2596 0.9657 0.9657 -0.2596 159.4075 160.2229)">
	<stop  offset="0" style="stop-color:#1F40C3"/>
	<stop  offset="1" style="stop-color:#101E85"/>
</linearGradient>
<path style="fill:url(#SVGID_2_);" d="M54.015,389.291c0,0-33.057,70.815-26.385,149.916
	c8.395,99.545,56.097,143.151,109.139,176.302c57.568,35.98,148.717-38.379,182.298-58.767
	c33.581-20.389,116.335-55.169,116.335-55.169s-169.928,21.209-155.913-44.375s-20.934-48.465-51.802-38.239
	s-120.262,55.128-84.922-12.133c46.134-88.849-36.747-49.534-62.365-29.983C34.825,511.623,54.015,389.291,54.015,389.291z"/>
<linearGradient id="SVGID_3_" gradientUnits="userSpaceOnUse" x1="117.1625" y1="498.7735" x2="-24.8422" y2="640.7782" gradientTransform="matrix(1 0 0 -1 192.8364 801.5801)">
	<stop  offset="0" style="stop-color:#FFAB00"/>
	<stop  offset="1" style="stop-color:#FFECB3"/>
</linearGradient>
<circle style="fill:url(#SVGID_3_);" cx="239.175" cy="231.988" r="106.72"/>
<g>
	<polygon style="fill-rule:evenodd;clip-rule:evenodd;fill:#6A1B9A;" points="370.946,443.795 435.313,443.795 465.485,505.626 
		340.775,505.626 	"/>
	<linearGradient id="SVGID_4_" gradientUnits="userSpaceOnUse" x1="403.1296" y1="456.2247" x2="403.1296" y2="250.3825">
		<stop  offset="0" style="stop-color:#4527A0"/>
		<stop  offset="1" style="stop-color:#9575CD"/>
	</linearGradient>
	<path style="fill-rule:evenodd;clip-rule:evenodd;fill:url(#SVGID_4_);" d="M251.454,237.613h303.351
		c8.537,0,15.52,7.902,15.52,17.559v186.742c0,9.657-6.984,17.559-15.52,17.559H251.454c-8.537,0-15.52-7.902-15.52-17.559V255.172
		C235.934,245.515,242.917,237.613,251.454,237.613z"/>
	<rect x="246.234" y="247.855" style="fill-rule:evenodd;clip-rule:evenodd;fill:#FFFFFF;" width="313.79" height="180.264"/>
	<path style="fill-rule:evenodd;clip-rule:evenodd;fill:#808281;" d="M551.479,446.235c1.11,0,2.016-1.025,2.016-2.28
		c0-1.255-0.906-2.28-2.016-2.28c-1.11,0-2.016,1.025-2.016,2.28C549.464,445.21,550.37,446.235,551.479,446.235z"/>
	<path style="fill-rule:evenodd;clip-rule:evenodd;fill:#808281;" d="M543.609,446.235c1.111,0,2.015-1.025,2.015-2.28
		c0-1.255-0.904-2.28-2.015-2.28c-1.11,0-2.016,1.025-2.016,2.28C541.594,445.21,542.499,446.235,543.609,446.235z"/>
	<path style="fill-rule:evenodd;clip-rule:evenodd;fill:#808281;" d="M535.74,446.235c1.11,0,2.016-1.025,2.016-2.28
		c0-1.255-0.906-2.28-2.016-2.28c-1.111,0-2.015,1.025-2.015,2.28C533.725,445.21,534.629,446.235,535.74,446.235z"/>
	<path style="fill-rule:evenodd;clip-rule:evenodd;fill:#AB47BC;" d="M218.007,486.94h370.245c4.543,0,8.26,4.203,8.26,9.342l0,0
		c0,5.139-3.717,9.344-8.26,9.344H218.007c-4.543,0-8.26-4.205-8.26-9.344l0,0C209.747,491.143,213.464,486.94,218.007,486.94z"/>
	<path style="fill-rule:evenodd;clip-rule:evenodd;fill:#BA68C8;" d="M596.512,496.282c0,5.139-3.717,9.344-8.26,9.344H218.007
		c-4.544,0-8.26-4.205-8.26-9.344H596.512z"/>
</g>
<g>
	<linearGradient id="SVGID_5_" gradientUnits="userSpaceOnUse" x1="580.34" y1="587.2816" x2="580.34" y2="403.299">
		<stop  offset="0" style="stop-color:#4527A0"/>
		<stop  offset="1" style="stop-color:#9575CD"/>
	</linearGradient>
	<path style="fill-rule:evenodd;clip-rule:evenodd;fill:url(#SVGID_5_);" d="M549.269,392.084h62.142
		c12.035,0,21.881,9.846,21.881,21.881v164.982c0,12.034-9.846,21.881-21.881,21.881h-62.142c-12.034,0-21.88-9.847-21.88-21.881
		V413.965C527.388,401.93,537.234,392.084,549.269,392.084z"/>
	<path style="fill-rule:evenodd;clip-rule:evenodd;fill:#FFFFFF;" d="M537.009,409.589h86.662c0.169,0,0.306,0.138,0.306,0.306
		v171.371c0,0.169-0.138,0.306-0.306,0.306h-86.662c-0.169,0-0.306-0.138-0.306-0.306V409.895
		C536.702,409.726,536.84,409.589,537.009,409.589z"/>
	<path style="fill-rule:evenodd;clip-rule:evenodd;fill:#5085A1;" d="M564.285,397.248h32.109c0.871,0,1.582,0.712,1.582,1.582
		v0.001c0,0.871-0.712,1.582-1.582,1.582h-32.109c-0.871,0-1.582-0.712-1.582-1.582v-0.001
		C562.703,397.96,563.414,397.248,564.285,397.248z"/>
	<path style="fill-rule:evenodd;clip-rule:evenodd;fill:#5085A1;" d="M580.34,596.251c2.947,0,5.35-2.403,5.35-5.35
		c0-2.947-2.404-5.35-5.35-5.35c-2.946,0-5.35,2.403-5.35,5.35C574.99,593.848,577.394,596.251,580.34,596.251z"/>
</g>
<path style="fill:#FFAE00;" d="M309.899,302.001c1.56,0.001,3.129,0.089,4.701,0.267l2.128-6.997l14.758,4.486l-2.128,6.998
	c5.353,2.769,9.934,6.594,13.555,11.133l6.449-3.441l7.265,13.608l-6.45,3.442c1.756,5.534,2.383,11.466,1.707,17.458l6.995,2.127
	l-4.486,14.758l-6.996-2.127c-2.773,5.354-6.595,9.934-11.134,13.554l3.441,6.451l-13.608,7.262l-3.442-6.449
	c-4.08,1.295-8.378,1.977-12.755,1.973v-11.05c13.379,0.005,25.754-8.665,29.847-22.127c5.011-16.486-4.291-33.911-20.774-38.921
	c-3.02-0.918-6.071-1.354-9.073-1.356V302.001z M283.534,311.237l-3.442-6.449l13.606-7.264l3.447,6.45
	c4.079-1.296,8.376-1.977,12.754-1.974v11.048c-13.379-0.005-25.753,8.665-29.846,22.13c-5.011,16.484,4.289,33.908,20.772,38.919
	l0,0c3.021,0.918,6.073,1.354,9.074,1.355v11.05c-1.56-0.001-3.129-0.088-4.702-0.267l-2.128,6.998l-14.758-4.486l2.128-6.999
	c-5.355-2.77-9.932-6.593-13.553-11.133l-6.453,3.441l-7.261-13.608l6.45-3.444c-1.758-5.532-2.384-11.464-1.707-17.456
	l-6.997-2.127l4.487-14.76l6.997,2.127C275.172,319.438,278.994,314.858,283.534,311.237z"/>
<path style="fill:#303F9F;" d="M580.542,430.567c0.979,0.001,1.965,0.056,2.952,0.167l1.336-4.394l9.267,2.817l-1.336,4.394
	c3.361,1.739,6.238,4.141,8.512,6.991l4.049-2.161l4.562,8.545l-4.05,2.161c1.103,3.475,1.496,7.2,1.072,10.962l4.393,1.335
	l-2.817,9.267l-4.393-1.335c-1.741,3.362-4.141,6.238-6.991,8.511l2.161,4.051l-8.545,4.56l-2.161-4.049
	c-2.562,0.813-5.261,1.241-8.009,1.239v-6.939c8.401,0.003,16.172-5.441,18.742-13.895c3.147-10.352-2.694-21.294-13.045-24.44
	c-1.896-0.577-3.812-0.85-5.697-0.851V430.567z M563.987,436.367l-2.161-4.049l8.544-4.561l2.164,4.05
	c2.561-0.814,5.26-1.242,8.009-1.239v6.938c-8.401-0.003-16.172,5.441-18.742,13.896c-3.147,10.351,2.693,21.292,13.044,24.439l0,0
	c1.897,0.577,3.814,0.85,5.698,0.851v6.939c-0.979-0.001-1.965-0.055-2.953-0.167l-1.336,4.394l-9.267-2.817l1.336-4.395
	c-3.362-1.739-6.237-4.14-8.51-6.991l-4.052,2.161l-4.559-8.545l4.05-2.163c-1.104-3.474-1.497-7.199-1.072-10.961l-4.394-1.335
	l2.818-9.269l4.394,1.336C558.736,441.517,561.136,438.641,563.987,436.367z"/>
<path style="fill:#B3D6F5;" d="M428.378,402.767l3.829,3.213l-7.958,9.48l-3.828-3.216c-2.705,2.089-5.714,3.659-8.973,4.675
	l0.433,4.979l-9.05,0.791v-13.954c5.62,0.002,11.063-2.453,14.803-6.908c6.846-8.163,5.782-20.373-2.38-27.224l0,0
	c-2.016-1.69-4.301-2.932-6.79-3.688c-1.859-0.565-3.756-0.839-5.633-0.84v-13.956l3.276-0.285l0.435,4.978
	c3.362,0.437,6.646,1.47,9.652,3.048l3.214-3.831l9.481,7.954l-3.214,3.831c2.087,2.705,3.656,5.715,4.671,8.977l4.981-0.437
	l1.078,12.328l-4.984,0.432C430.987,396.504,429.963,399.742,428.378,402.767z M402.83,422.689l-3.277,0.286l-0.438-4.979
	c-3.362-0.437-6.643-1.47-9.646-3.046l-3.217,3.83l-9.478-7.954l3.214-3.831c-2.09-2.703-3.658-5.716-4.673-8.977l-4.98,0.437
	l-1.078-12.328l4.978-0.434c0.438-3.39,1.463-6.625,3.048-9.651l-3.829-3.215l7.952-9.479l3.831,3.214
	c2.703-2.087,5.718-3.655,8.976-4.671l-0.436-4.981l9.051-0.791v13.956c-5.62-0.001-11.063,2.453-14.801,6.906
	c-6.85,8.164-5.781,20.377,2.379,27.225c2.013,1.689,4.298,2.931,6.79,3.689c1.859,0.565,3.756,0.839,5.632,0.839V422.689z"/>
<g>
	<rect x="478.219" y="329.471" style="fill-rule:evenodd;clip-rule:evenodd;fill:#F06358;" width="61.525" height="3.634"/>
	<rect x="507.448" y="314.868" style="fill-rule:evenodd;clip-rule:evenodd;fill:#FFAE00;" width="32.296" height="3.635"/>
	<rect x="376.725" y="314.868" style="fill-rule:evenodd;clip-rule:evenodd;fill:#FFAE00;" width="45.609" height="3.635"/>
	<rect x="516.021" y="302.297" style="fill-rule:evenodd;clip-rule:evenodd;fill:#4D86B8;" width="23.723" height="3.635"/>
	<rect x="399.73" y="302.297" style="fill-rule:evenodd;clip-rule:evenodd;fill:#4D86B8;" width="107.719" height="3.635"/>
	<rect x="481.391" y="289.726" style="fill-rule:evenodd;clip-rule:evenodd;fill:#F06358;" width="58.352" height="3.635"/>
	<rect x="407.672" y="289.726" style="fill-rule:evenodd;clip-rule:evenodd;fill:#4D86B8;" width="65.147" height="3.635"/>
	<rect x="516.021" y="277.155" style="fill-rule:evenodd;clip-rule:evenodd;fill:#B6A94A;" width="23.723" height="3.635"/>
	<rect x="447.077" y="277.155" style="fill-rule:evenodd;clip-rule:evenodd;fill:#4D86B8;" width="60.372" height="3.635"/>
	<rect x="489.851" y="264.585" style="fill-rule:evenodd;clip-rule:evenodd;fill:#4D86B8;" width="49.893" height="3.635"/>
	<rect x="419.279" y="264.585" style="fill-rule:evenodd;clip-rule:evenodd;fill:#4D86B8;" width="61.999" height="3.635"/>
	<rect x="431.803" y="314.868" style="fill-rule:evenodd;clip-rule:evenodd;fill:#4D86B8;" width="67.071" height="3.635"/>
	<rect x="376.725" y="302.297" style="fill-rule:evenodd;clip-rule:evenodd;fill:#4D86B8;" width="13.536" height="3.635"/>
	<rect x="376.725" y="289.726" style="fill-rule:evenodd;clip-rule:evenodd;fill:#F06358;" width="21.477" height="3.635"/>
	<rect x="376.725" y="277.155" style="fill-rule:evenodd;clip-rule:evenodd;fill:#B6A94A;" width="60.882" height="3.635"/>
	<rect x="376.725" y="264.585" style="fill-rule:evenodd;clip-rule:evenodd;fill:#4D86B8;" width="33.085" height="3.635"/>
</g>
<g>
	<rect x="546.94" y="564.54" style="fill-rule:evenodd;clip-rule:evenodd;fill:#303F9F;" width="25.348" height="3.634"/>
	<rect x="546.94" y="549.937" style="fill-rule:evenodd;clip-rule:evenodd;fill:#303F9F;" width="13.306" height="3.635"/>
	<rect x="595.312" y="549.937" style="fill-rule:evenodd;clip-rule:evenodd;fill:#303F9F;" width="18.791" height="3.635"/>
	<rect x="546.94" y="537.366" style="fill-rule:evenodd;clip-rule:evenodd;fill:#303F9F;" width="9.774" height="3.635"/>
	<rect x="560.245" y="537.366" style="fill-rule:evenodd;clip-rule:evenodd;fill:#303F9F;" width="44.379" height="3.635"/>
	<rect x="546.94" y="524.795" style="fill-rule:evenodd;clip-rule:evenodd;fill:#303F9F;" width="24.041" height="3.635"/>
	<rect x="574.513" y="524.795" style="fill-rule:evenodd;clip-rule:evenodd;fill:#303F9F;" width="26.84" height="3.635"/>
	<rect x="546.94" y="512.225" style="fill-rule:evenodd;clip-rule:evenodd;fill:#303F9F;" width="9.774" height="3.635"/>
	<rect x="560.245" y="512.225" style="fill-rule:evenodd;clip-rule:evenodd;fill:#303F9F;" width="24.873" height="3.635"/>
	<rect x="546.94" y="499.654" style="fill-rule:evenodd;clip-rule:evenodd;fill:#303F9F;" width="20.556" height="3.635"/>
	<rect x="571.027" y="499.654" style="fill-rule:evenodd;clip-rule:evenodd;fill:#303F9F;" width="25.543" height="3.635"/>
	<rect x="563.778" y="549.937" style="fill-rule:evenodd;clip-rule:evenodd;fill:#303F9F;" width="27.633" height="3.635"/>
	<rect x="608.526" y="537.366" style="fill-rule:evenodd;clip-rule:evenodd;fill:#303F9F;" width="5.577" height="3.635"/>
	<rect x="605.254" y="524.795" style="fill-rule:evenodd;clip-rule:evenodd;fill:#303F9F;" width="8.849" height="3.635"/>
	<rect x="589.019" y="512.225" style="fill-rule:evenodd;clip-rule:evenodd;fill:#303F9F;" width="25.083" height="3.635"/>
	<rect x="600.472" y="499.654" style="fill-rule:evenodd;clip-rule:evenodd;fill:#303F9F;" width="13.631" height="3.635"/>
</g>
<path style="fill:#F06358;" d="M495.113,348.837c0.814,0.001,1.633,0.046,2.456,0.14l1.111-3.655l7.708,2.343l-1.111,3.655
	c2.796,1.446,5.189,3.444,7.079,5.815l3.368-1.797l3.794,7.107l-3.369,1.798c0.917,2.89,1.244,5.989,0.892,9.117l3.654,1.111
	l-2.343,7.708l-3.654-1.11c-1.448,2.796-3.444,5.188-5.815,7.079l1.798,3.369l-7.107,3.793l-1.798-3.369
	c-2.131,0.677-4.376,1.033-6.662,1.031V387.2c6.987,0.003,13.451-4.525,15.589-11.556c2.617-8.61-2.241-17.71-10.85-20.328
	c-1.577-0.48-3.171-0.707-4.738-0.708V348.837z M481.344,353.661l-1.798-3.368l7.106-3.794l1.8,3.369
	c2.13-0.676,4.375-1.033,6.661-1.031v5.771c-6.987-0.003-13.45,4.526-15.588,11.558c-2.617,8.609,2.24,17.709,10.849,20.326l0,0
	c1.578,0.48,3.172,0.707,4.739,0.708v5.772c-0.815-0.001-1.634-0.047-2.456-0.14l-1.111,3.655l-7.708-2.343l1.111-3.655
	c-2.797-1.447-5.187-3.444-7.078-5.815l-3.371,1.797l-3.792-7.107l3.369-1.799c-0.918-2.889-1.245-5.988-0.892-9.116l-3.654-1.111
	l2.344-7.709l3.653,1.111C476.977,357.944,478.973,355.552,481.344,353.661z"/>
</svg>
