<?xml version="1.0" encoding="utf-8"?>
<!-- Generator: Adobe Illustrator 23.0.1, SVG Export Plug-In . SVG Version: 6.00 Build 0)  -->
<svg version="1.1" id="Layer_1" xmlns="http://www.w3.org/2000/svg" xmlns:xlink="http://www.w3.org/1999/xlink" x="0px" y="0px"
	 viewBox="0 0 800 800" style="enable-background:new 0 0 800 800;" xml:space="preserve">
<g>
	<path id="XMLID_130_" style="fill:#F9A825;" d="M695.955,114.383H482.379c-12.319,0-22.308,13.257-22.308,29.613V512.61
		c0,14.919,9.11,27.014,20.35,27.014h217.492c11.238,0,20.35-12.094,20.35-27.014V143.995
		C718.262,127.641,708.276,114.383,695.955,114.383z"/>
	<path id="XMLID_129_" style="fill:#F57F17;" d="M718.272,144.002v368.602c0,14.925-9.12,27.033-20.364,27.033h-30.033V114.649
		h31.033C709.826,116.572,718.272,128.977,718.272,144.002z"/>
	<path id="XMLID_128_" style="fill:#283593;" d="M692.571,261.544H487.683c-5.808,0-10.516,6.249-10.516,13.958v77.946
		c0,7.71,4.708,13.959,10.516,13.959h204.888c5.807,0,10.515-6.249,10.515-13.959v-77.946
		C703.086,267.793,698.377,261.544,692.571,261.544z"/>
	<g id="XMLID_108_">
		<g id="XMLID_122_">
			<ellipse id="XMLID_127_" style="fill:#FFFEFF;" cx="591.515" cy="294.229" rx="4.164" ry="5.527"/>
			<ellipse id="XMLID_126_" style="fill:#FFFEFF;" cx="591.515" cy="314.476" rx="4.164" ry="5.527"/>
			<ellipse id="XMLID_125_" style="fill:#FFFEFF;" cx="591.515" cy="273.981" rx="4.164" ry="5.527"/>
			<ellipse id="XMLID_124_" style="fill:#FFFEFF;" cx="591.515" cy="334.721" rx="4.164" ry="5.527"/>
			<ellipse id="XMLID_123_" style="fill:#FFFEFF;" cx="591.515" cy="354.969" rx="4.164" ry="5.527"/>
		</g>
		<g id="XMLID_117_">
			<path id="XMLID_121_" style="fill:#5C6BC0;" d="M684.818,277.023h-67.67c-0.461,0-0.833-0.496-0.833-1.105v-6.356
				c0-0.612,0.374-1.105,0.833-1.105h67.67c0.461,0,0.833,0.496,0.833,1.105v6.356C685.652,276.528,685.278,277.023,684.818,277.023
				z"/>
			<path id="XMLID_120_" style="fill:#5C6BC0;" d="M676.073,335.066h-50.18c-5.29,0-9.578,5.693-9.578,12.714
				c0,7.022,4.289,12.715,9.578,12.715h50.18c5.29,0,9.577-5.692,9.577-12.715C685.652,340.759,681.363,335.066,676.073,335.066z"/>
			<path id="XMLID_119_" style="fill:#5C6BC0;" d="M676.073,301.76h-50.18c-5.29,0-9.578,5.692-9.578,12.714
				s4.289,12.714,9.578,12.714h50.18c5.29,0,9.577-5.692,9.577-12.714C685.652,307.453,681.363,301.76,676.073,301.76z"/>
			<path id="XMLID_118_" style="fill:#5C6BC0;" d="M684.818,291.513h-67.67c-0.461,0-0.833-0.496-0.833-1.105v-6.356
				c0-0.611,0.374-1.105,0.833-1.105h67.67c0.461,0,0.833,0.496,0.833,1.105v6.356C685.652,291.018,685.278,291.513,684.818,291.513
				z"/>
		</g>
		<g id="XMLID_109_">
			<path id="XMLID_116_" style="fill:#5C6BC0;" d="M501.057,269.56v89.829c0,0.612-0.374,1.105-0.833,1.105h-4.788
				c-0.46,0-0.833-0.496-0.833-1.105V269.56c0-0.612,0.374-1.105,0.833-1.105h4.788C500.683,268.454,501.057,268.95,501.057,269.56z
				"/>
			<path id="XMLID_115_" style="fill:#5C6BC0;" d="M512.463,269.56v89.829c0,0.612-0.374,1.105-0.833,1.105h-4.788
				c-0.46,0-0.833-0.496-0.833-1.105V269.56c0-0.612,0.374-1.105,0.833-1.105h4.788C512.09,268.454,512.463,268.95,512.463,269.56z"
				/>
			<path id="XMLID_114_" style="fill:#5C6BC0;" d="M523.868,269.56v89.829c0,0.612-0.374,1.105-0.833,1.105h-4.788
				c-0.461,0-0.833-0.496-0.833-1.105V269.56c0-0.612,0.374-1.105,0.833-1.105h4.788C523.496,268.454,523.868,268.95,523.868,269.56
				z"/>
			<path id="XMLID_113_" style="fill:#5C6BC0;" d="M535.274,269.56v89.829c0,0.612-0.374,1.105-0.833,1.105h-4.788
				c-0.461,0-0.833-0.496-0.833-1.105V269.56c0-0.612,0.374-1.105,0.833-1.105h4.788C534.902,268.454,535.274,268.95,535.274,269.56
				z"/>
			<path id="XMLID_112_" style="fill:#5C6BC0;" d="M546.679,269.56v89.829c0,0.612-0.374,1.105-0.833,1.105h-4.788
				c-0.461,0-0.833-0.496-0.833-1.105V269.56c0-0.612,0.374-1.105,0.833-1.105h4.788C546.307,268.454,546.679,268.95,546.679,269.56
				z"/>
			<path id="XMLID_111_" style="fill:#5C6BC0;" d="M558.086,269.56v89.829c0,0.612-0.374,1.105-0.833,1.105h-4.788
				c-0.46,0-0.833-0.496-0.833-1.105V269.56c0-0.612,0.374-1.105,0.833-1.105h4.788C557.712,268.454,558.086,268.95,558.086,269.56z
				"/>
			<path id="XMLID_110_" style="fill:#5C6BC0;" d="M569.491,269.56v89.829c0,0.612-0.374,1.105-0.833,1.105h-4.788
				c-0.46,0-0.833-0.496-0.833-1.105V269.56c0-0.612,0.374-1.105,0.833-1.105h4.788C569.119,268.454,569.491,268.95,569.491,269.56z
				"/>
		</g>
	</g>
	<path id="XMLID_107_" style="fill:#283593;" d="M692.999,139.487H488.112c-5.807,0-10.515,6.249-10.515,13.958v77.946
		c0,7.71,4.708,13.959,10.515,13.959h204.888c5.807,0,10.516-6.249,10.516-13.959v-77.946
		C703.514,145.735,698.806,139.487,692.999,139.487z"/>
	<g id="XMLID_87_">
		<g id="XMLID_101_">
			<ellipse id="XMLID_106_" style="fill:#FFFEFF;" cx="591.943" cy="172.171" rx="4.164" ry="5.527"/>
			<ellipse id="XMLID_105_" style="fill:#FFFEFF;" cx="591.943" cy="192.418" rx="4.164" ry="5.527"/>
			<ellipse id="XMLID_104_" style="fill:#FFFEFF;" cx="591.943" cy="151.925" rx="4.164" ry="5.527"/>
			<ellipse id="XMLID_103_" style="fill:#FFFEFF;" cx="591.943" cy="212.665" rx="4.164" ry="5.527"/>
			<ellipse id="XMLID_102_" style="fill:#FFFEFF;" cx="591.943" cy="232.912" rx="4.164" ry="5.527"/>
		</g>
		<g id="XMLID_96_">
			<path id="XMLID_100_" style="fill:#5C6BC0;" d="M685.246,154.965h-67.67c-0.461,0-0.833-0.496-0.833-1.105v-6.356
				c0-0.612,0.374-1.105,0.833-1.105h67.67c0.461,0,0.833,0.496,0.833,1.105v6.356C686.08,154.47,685.707,154.965,685.246,154.965z"
				/>
			<path id="XMLID_99_" style="fill:#5C6BC0;" d="M676.502,213.01h-50.18c-5.29,0-9.577,5.692-9.577,12.714
				c0,7.022,4.289,12.714,9.577,12.714h50.18c5.289,0,9.577-5.692,9.577-12.714C686.08,218.703,681.793,213.01,676.502,213.01z"/>
			<path id="XMLID_98_" style="fill:#5C6BC0;" d="M676.502,179.704h-50.18c-5.29,0-9.577,5.693-9.577,12.715
				s4.288,12.714,9.577,12.714h50.18c5.289,0,9.577-5.692,9.577-12.714C686.08,185.397,681.792,179.704,676.502,179.704z"/>
			<path id="XMLID_97_" style="fill:#5C6BC0;" d="M685.246,169.457h-67.67c-0.461,0-0.833-0.496-0.833-1.105v-6.357
				c0-0.612,0.374-1.105,0.833-1.105h67.67c0.461,0,0.833,0.496,0.833,1.105v6.356C686.08,168.962,685.707,169.457,685.246,169.457z
				"/>
		</g>
		<g id="XMLID_88_">
			<path id="XMLID_95_" style="fill:#5C6BC0;" d="M501.486,147.503v89.829c0,0.611-0.374,1.105-0.833,1.105h-4.788
				c-0.461,0-0.833-0.496-0.833-1.105v-89.829c0-0.612,0.374-1.105,0.833-1.105h4.788
				C501.112,146.397,501.486,146.893,501.486,147.503z"/>
			<path id="XMLID_94_" style="fill:#5C6BC0;" d="M512.891,147.503v89.829c0,0.611-0.374,1.105-0.833,1.105h-4.788
				c-0.46,0-0.833-0.496-0.833-1.105v-89.829c0-0.612,0.374-1.105,0.833-1.105h4.788
				C512.518,146.397,512.891,146.893,512.891,147.503z"/>
			<path id="XMLID_93_" style="fill:#5C6BC0;" d="M524.297,147.503v89.829c0,0.611-0.374,1.105-0.833,1.105h-4.788
				c-0.46,0-0.833-0.496-0.833-1.105v-89.829c0-0.612,0.374-1.105,0.833-1.105h4.788
				C523.923,146.397,524.297,146.893,524.297,147.503z"/>
			<path id="XMLID_92_" style="fill:#5C6BC0;" d="M535.703,147.503v89.829c0,0.611-0.374,1.105-0.833,1.105h-4.788
				c-0.461,0-0.833-0.496-0.833-1.105v-89.829c0-0.612,0.374-1.105,0.833-1.105h4.788
				C535.329,146.397,535.703,146.893,535.703,147.503z"/>
			<path id="XMLID_91_" style="fill:#5C6BC0;" d="M547.108,147.503v89.829c0,0.611-0.374,1.105-0.833,1.105h-4.788
				c-0.461,0-0.833-0.496-0.833-1.105v-89.829c0-0.612,0.374-1.105,0.833-1.105h4.788
				C546.736,146.397,547.108,146.893,547.108,147.503z"/>
			<path id="XMLID_90_" style="fill:#5C6BC0;" d="M558.514,147.503v89.829c0,0.611-0.374,1.105-0.833,1.105h-4.788
				c-0.461,0-0.833-0.496-0.833-1.105v-89.829c0-0.612,0.374-1.105,0.833-1.105h4.788
				C558.141,146.397,558.514,146.893,558.514,147.503z"/>
			<path id="XMLID_89_" style="fill:#5C6BC0;" d="M569.92,147.503v89.829c0,0.611-0.374,1.105-0.833,1.105h-4.788
				c-0.46,0-0.833-0.496-0.833-1.105v-89.829c0-0.612,0.374-1.105,0.833-1.105h4.788C569.547,146.397,569.92,146.893,569.92,147.503
				z"/>
		</g>
	</g>
	<path id="XMLID_86_" style="fill:#283593;" d="M690.652,391.226H485.764c-5.808,0-10.516,6.249-10.516,13.958v77.946
		c0,7.709,4.708,13.958,10.516,13.958h204.888c5.807,0,10.516-6.249,10.516-13.958v-77.946
		C701.166,397.476,696.458,391.226,690.652,391.226z"/>
	<g id="XMLID_66_">
		<g id="XMLID_80_">
			<ellipse id="XMLID_85_" style="fill:#FFFEFF;" cx="589.646" cy="423.906" rx="4.165" ry="5.528"/>
			<ellipse id="XMLID_84_" style="fill:#FFFEFF;" cx="589.647" cy="444.154" rx="4.165" ry="5.528"/>
			<path id="XMLID_83_" style="fill:#FFFEFF;" d="M589.595,409.192c-2.3,0-4.164-2.475-4.164-5.528c0-3.053,1.864-5.527,4.164-5.527
				c2.3,0,4.164,2.475,4.164,5.527C593.76,406.717,591.895,409.192,589.595,409.192z"/>
			<ellipse id="XMLID_82_" style="fill:#FFFEFF;" cx="589.648" cy="464.401" rx="4.165" ry="5.528"/>
			<ellipse id="XMLID_81_" style="fill:#FFFEFF;" cx="589.65" cy="484.65" rx="4.165" ry="5.528"/>
		</g>
		<g id="XMLID_75_">
			<path id="XMLID_79_" style="fill:#5C6BC0;" d="M682.898,406.705h-67.67c-0.461,0-0.833-0.496-0.833-1.105v-6.356
				c0-0.612,0.374-1.105,0.833-1.105h67.67c0.461,0,0.833,0.496,0.833,1.105v6.356C683.733,406.209,683.359,406.705,682.898,406.705
				z"/>
			<path id="XMLID_78_" style="fill:#5C6BC0;" d="M674.154,464.75h-50.18c-5.29,0-9.578,5.692-9.578,12.714
				c0,7.022,4.289,12.714,9.578,12.714h50.18c5.29,0,9.577-5.692,9.577-12.714C683.733,470.442,679.443,464.75,674.154,464.75z"/>
			<path id="XMLID_77_" style="fill:#5C6BC0;" d="M674.154,431.444h-50.18c-5.29,0-9.578,5.692-9.578,12.714
				c0,7.022,4.289,12.714,9.578,12.714h50.18c5.29,0,9.577-5.692,9.577-12.714C683.733,437.136,679.443,431.444,674.154,431.444z"/>
			<path id="XMLID_76_" style="fill:#5C6BC0;" d="M682.898,421.195h-67.67c-0.461,0-0.833-0.496-0.833-1.105v-6.356
				c0-0.612,0.374-1.105,0.833-1.105h67.67c0.461,0,0.833,0.496,0.833,1.105v6.356C683.733,420.7,683.359,421.195,682.898,421.195z"
				/>
		</g>
		<g id="XMLID_67_">
			<path id="XMLID_74_" style="fill:#5C6BC0;" d="M499.138,399.243v89.829c0,0.612-0.374,1.105-0.833,1.105h-4.788
				c-0.46,0-0.833-0.496-0.833-1.105v-89.829c0-0.612,0.374-1.105,0.833-1.105h4.788
				C498.763,398.136,499.138,398.632,499.138,399.243z"/>
			<path id="XMLID_73_" style="fill:#5C6BC0;" d="M510.544,399.243v89.829c0,0.612-0.374,1.105-0.833,1.105h-4.788
				c-0.46,0-0.833-0.496-0.833-1.105v-89.829c0-0.612,0.374-1.105,0.833-1.105h4.788
				C510.17,398.136,510.544,398.632,510.544,399.243z"/>
			<path id="XMLID_72_" style="fill:#5C6BC0;" d="M521.948,399.243v89.829c0,0.612-0.374,1.105-0.833,1.105h-4.788
				c-0.461,0-0.833-0.496-0.833-1.105v-89.829c0-0.612,0.374-1.105,0.833-1.105h4.788
				C521.576,398.136,521.948,398.632,521.948,399.243z"/>
			<path id="XMLID_71_" style="fill:#5C6BC0;" d="M533.354,399.243v89.829c0,0.612-0.374,1.105-0.833,1.105h-4.788
				c-0.461,0-0.833-0.496-0.833-1.105v-89.829c0-0.612,0.374-1.105,0.833-1.105h4.788
				C532.981,398.136,533.354,398.632,533.354,399.243z"/>
			<path id="XMLID_70_" style="fill:#5C6BC0;" d="M544.76,399.243v89.829c0,0.612-0.374,1.105-0.833,1.105h-4.788
				c-0.461,0-0.833-0.496-0.833-1.105v-89.829c0-0.612,0.374-1.105,0.833-1.105h4.788
				C544.386,398.136,544.76,398.632,544.76,399.243z"/>
			<path id="XMLID_69_" style="fill:#5C6BC0;" d="M556.167,399.243v89.829c0,0.612-0.374,1.105-0.833,1.105h-4.788
				c-0.46,0-0.833-0.496-0.833-1.105v-89.829c0-0.612,0.374-1.105,0.833-1.105h4.788
				C555.793,398.136,556.167,398.632,556.167,399.243z"/>
			<path id="XMLID_68_" style="fill:#5C6BC0;" d="M567.572,399.243v89.829c0,0.612-0.374,1.105-0.833,1.105h-4.788
				c-0.46,0-0.833-0.496-0.833-1.105v-89.829c0-0.612,0.374-1.105,0.833-1.105h4.788
				C567.199,398.136,567.572,398.632,567.572,399.243z"/>
		</g>
	</g>
</g>
<path style="opacity:0.9;fill:#7E57C2;" d="M569.804,542.471h-9.656c-0.548-22.899-19.408-41.474-42.43-41.474h-4.608
	c-8.902-30.854-37.409-53.612-71.029-53.612l0,0c-33.62,0-62.127,22.755-71.029,53.612h-4.611c-23.024,0-41.885,18.575-42.43,41.474
	h-9.656c-23.643,0-42.99,19.344-42.99,42.99c0,23.643,19.347,42.99,42.99,42.99h255.451c23.643,0,42.988-19.347,42.988-42.99
	C612.791,561.815,593.447,542.471,569.804,542.471z"/>
<g>
	<path id="XMLID_65_" style="fill:#5C6BC0;" d="M318.896,272.625H105.32c-12.319,0-22.308,13.257-22.308,29.613v368.613
		c0,14.919,9.11,27.014,20.35,27.014h217.492c11.238,0,20.35-12.094,20.35-27.014V302.237
		C341.203,285.883,331.217,272.625,318.896,272.625z"/>
	<path id="XMLID_64_" style="fill:#3949AB;" d="M341.213,302.244v368.602c0,14.925-9.12,27.033-20.364,27.033h-30.033V272.89h31.033
		C332.767,274.813,341.213,287.219,341.213,302.244z"/>
	<path id="XMLID_63_" style="fill:#283593;" d="M315.512,419.786H110.624c-5.808,0-10.516,6.249-10.516,13.958v77.946
		c0,7.71,4.708,13.959,10.516,13.959h204.888c5.807,0,10.515-6.249,10.515-13.959v-77.946
		C326.027,426.035,321.318,419.786,315.512,419.786z"/>
	<g id="XMLID_43_">
		<g id="XMLID_57_">
			<ellipse id="XMLID_62_" style="fill:#FFFEFF;" cx="214.456" cy="452.47" rx="4.164" ry="5.527"/>
			<ellipse id="XMLID_61_" style="fill:#FFFEFF;" cx="214.456" cy="472.718" rx="4.164" ry="5.527"/>
			<ellipse id="XMLID_60_" style="fill:#FFFEFF;" cx="214.456" cy="432.223" rx="4.164" ry="5.527"/>
			<ellipse id="XMLID_59_" style="fill:#FFFEFF;" cx="214.456" cy="492.963" rx="4.164" ry="5.527"/>
			<ellipse id="XMLID_58_" style="fill:#FFFEFF;" cx="214.456" cy="513.21" rx="4.164" ry="5.527"/>
		</g>
		<g id="XMLID_52_">
			<path id="XMLID_56_" style="fill:#5C6BC0;" d="M307.759,435.265h-67.67c-0.461,0-0.833-0.496-0.833-1.105v-6.356
				c0-0.612,0.374-1.105,0.833-1.105h67.67c0.461,0,0.833,0.496,0.833,1.105v6.356C308.593,434.769,308.219,435.265,307.759,435.265
				z"/>
			<path id="XMLID_55_" style="fill:#5C6BC0;" d="M299.014,493.308h-50.18c-5.29,0-9.578,5.693-9.578,12.714
				c0,7.022,4.289,12.715,9.578,12.715h50.18c5.29,0,9.577-5.692,9.577-12.715C308.593,499.001,304.304,493.308,299.014,493.308z"/>
			<path id="XMLID_54_" style="fill:#5C6BC0;" d="M299.014,460.002h-50.18c-5.29,0-9.578,5.692-9.578,12.714
				c0,7.022,4.289,12.714,9.578,12.714h50.18c5.29,0,9.577-5.692,9.577-12.714C308.593,465.695,304.304,460.002,299.014,460.002z"/>
			<path id="XMLID_53_" style="fill:#5C6BC0;" d="M307.759,449.755h-67.67c-0.461,0-0.833-0.496-0.833-1.105v-6.356
				c0-0.611,0.374-1.105,0.833-1.105h67.67c0.461,0,0.833,0.496,0.833,1.105v6.356C308.593,449.26,308.219,449.755,307.759,449.755z
				"/>
		</g>
		<g id="XMLID_44_">
			<path id="XMLID_51_" style="fill:#5C6BC0;" d="M123.998,427.802v89.829c0,0.612-0.374,1.105-0.833,1.105h-4.788
				c-0.46,0-0.833-0.496-0.833-1.105v-89.829c0-0.612,0.374-1.105,0.833-1.105h4.788
				C123.624,426.695,123.998,427.191,123.998,427.802z"/>
			<path id="XMLID_50_" style="fill:#5C6BC0;" d="M135.404,427.802v89.829c0,0.612-0.374,1.105-0.833,1.105h-4.788
				c-0.46,0-0.833-0.496-0.833-1.105v-89.829c0-0.612,0.374-1.105,0.833-1.105h4.788
				C135.031,426.695,135.404,427.191,135.404,427.802z"/>
			<path id="XMLID_49_" style="fill:#5C6BC0;" d="M146.809,427.802v89.829c0,0.612-0.374,1.105-0.833,1.105h-4.788
				c-0.461,0-0.833-0.496-0.833-1.105v-89.829c0-0.612,0.374-1.105,0.833-1.105h4.788
				C146.437,426.695,146.809,427.191,146.809,427.802z"/>
			<path id="XMLID_48_" style="fill:#5C6BC0;" d="M158.215,427.802v89.829c0,0.612-0.374,1.105-0.833,1.105h-4.788
				c-0.461,0-0.833-0.496-0.833-1.105v-89.829c0-0.612,0.374-1.105,0.833-1.105h4.788
				C157.843,426.695,158.215,427.191,158.215,427.802z"/>
			<path id="XMLID_47_" style="fill:#5C6BC0;" d="M169.62,427.802v89.829c0,0.612-0.374,1.105-0.833,1.105H164
				c-0.461,0-0.833-0.496-0.833-1.105v-89.829c0-0.612,0.374-1.105,0.833-1.105h4.788
				C169.248,426.695,169.62,427.191,169.62,427.802z"/>
			<path id="XMLID_46_" style="fill:#5C6BC0;" d="M181.027,427.802v89.829c0,0.612-0.374,1.105-0.833,1.105h-4.788
				c-0.46,0-0.833-0.496-0.833-1.105v-89.829c0-0.612,0.374-1.105,0.833-1.105h4.788
				C180.653,426.695,181.027,427.191,181.027,427.802z"/>
			<path id="XMLID_45_" style="fill:#5C6BC0;" d="M192.432,427.802v89.829c0,0.612-0.374,1.105-0.833,1.105h-4.788
				c-0.46,0-0.833-0.496-0.833-1.105v-89.829c0-0.612,0.374-1.105,0.833-1.105h4.788
				C192.06,426.695,192.432,427.191,192.432,427.802z"/>
		</g>
	</g>
	<path id="XMLID_42_" style="fill:#283593;" d="M315.94,297.729H111.053c-5.807,0-10.515,6.249-10.515,13.958v77.946
		c0,7.71,4.708,13.959,10.515,13.959H315.94c5.807,0,10.516-6.249,10.516-13.959v-77.946
		C326.455,303.977,321.747,297.729,315.94,297.729z"/>
	<g id="XMLID_22_">
		<g id="XMLID_36_">
			<ellipse id="XMLID_41_" style="fill:#FFFEFF;" cx="214.884" cy="330.413" rx="4.164" ry="5.527"/>
			<ellipse id="XMLID_40_" style="fill:#FFFEFF;" cx="214.884" cy="350.659" rx="4.164" ry="5.527"/>
			<ellipse id="XMLID_39_" style="fill:#FFFEFF;" cx="214.884" cy="310.167" rx="4.164" ry="5.527"/>
			<ellipse id="XMLID_38_" style="fill:#FFFEFF;" cx="214.884" cy="370.907" rx="4.164" ry="5.527"/>
			<ellipse id="XMLID_37_" style="fill:#FFFEFF;" cx="214.884" cy="391.153" rx="4.164" ry="5.527"/>
		</g>
		<g id="XMLID_31_">
			<path id="XMLID_35_" style="fill:#5C6BC0;" d="M308.187,313.207h-67.67c-0.461,0-0.833-0.496-0.833-1.105v-6.356
				c0-0.612,0.374-1.105,0.833-1.105h67.67c0.461,0,0.833,0.496,0.833,1.105v6.356C309.021,312.712,308.648,313.207,308.187,313.207
				z"/>
			<path id="XMLID_34_" style="fill:#5C6BC0;" d="M299.443,371.252h-50.18c-5.29,0-9.577,5.692-9.577,12.714
				c0,7.022,4.289,12.714,9.577,12.714h50.18c5.289,0,9.577-5.692,9.577-12.714C309.021,376.945,304.734,371.252,299.443,371.252z"
				/>
			<path id="XMLID_33_" style="fill:#5C6BC0;" d="M299.443,337.946h-50.18c-5.29,0-9.577,5.693-9.577,12.715
				s4.288,12.714,9.577,12.714h50.18c5.289,0,9.577-5.692,9.577-12.714C309.021,343.639,304.733,337.946,299.443,337.946z"/>
			<path id="XMLID_32_" style="fill:#5C6BC0;" d="M308.187,327.699h-67.67c-0.461,0-0.833-0.496-0.833-1.105v-6.357
				c0-0.612,0.374-1.105,0.833-1.105h67.67c0.461,0,0.833,0.496,0.833,1.105v6.356C309.021,327.204,308.648,327.699,308.187,327.699
				z"/>
		</g>
		<g id="XMLID_23_">
			<path id="XMLID_30_" style="fill:#5C6BC0;" d="M124.427,305.745v89.829c0,0.611-0.374,1.105-0.833,1.105h-4.788
				c-0.461,0-0.833-0.496-0.833-1.105v-89.829c0-0.612,0.374-1.105,0.833-1.105h4.788
				C124.053,304.638,124.427,305.134,124.427,305.745z"/>
			<path id="XMLID_29_" style="fill:#5C6BC0;" d="M135.832,305.745v89.829c0,0.611-0.374,1.105-0.833,1.105h-4.788
				c-0.46,0-0.833-0.496-0.833-1.105v-89.829c0-0.612,0.374-1.105,0.833-1.105H135C135.459,304.638,135.832,305.134,135.832,305.745
				z"/>
			<path id="XMLID_28_" style="fill:#5C6BC0;" d="M147.238,305.745v89.829c0,0.611-0.374,1.105-0.833,1.105h-4.788
				c-0.46,0-0.833-0.496-0.833-1.105v-89.829c0-0.612,0.374-1.105,0.833-1.105h4.788
				C146.864,304.638,147.238,305.134,147.238,305.745z"/>
			<path id="XMLID_27_" style="fill:#5C6BC0;" d="M158.644,305.745v89.829c0,0.611-0.374,1.105-0.833,1.105h-4.788
				c-0.461,0-0.833-0.496-0.833-1.105v-89.829c0-0.612,0.374-1.105,0.833-1.105h4.788
				C158.27,304.638,158.644,305.134,158.644,305.745z"/>
			<path id="XMLID_26_" style="fill:#5C6BC0;" d="M170.049,305.745v89.829c0,0.611-0.374,1.105-0.833,1.105h-4.788
				c-0.461,0-0.833-0.496-0.833-1.105v-89.829c0-0.612,0.374-1.105,0.833-1.105h4.788
				C169.677,304.638,170.049,305.134,170.049,305.745z"/>
			<path id="XMLID_25_" style="fill:#5C6BC0;" d="M181.455,305.745v89.829c0,0.611-0.374,1.105-0.833,1.105h-4.788
				c-0.461,0-0.833-0.496-0.833-1.105v-89.829c0-0.612,0.374-1.105,0.833-1.105h4.788
				C181.083,304.638,181.455,305.134,181.455,305.745z"/>
			<path id="XMLID_24_" style="fill:#5C6BC0;" d="M192.861,305.745v89.829c0,0.611-0.374,1.105-0.833,1.105h-4.788
				c-0.46,0-0.833-0.496-0.833-1.105v-89.829c0-0.612,0.374-1.105,0.833-1.105h4.788
				C192.488,304.638,192.861,305.134,192.861,305.745z"/>
		</g>
	</g>
	<path id="XMLID_21_" style="fill:#283593;" d="M313.593,549.467H108.705c-5.808,0-10.516,6.249-10.516,13.958v77.946
		c0,7.709,4.708,13.958,10.516,13.958h204.888c5.807,0,10.516-6.249,10.516-13.958v-77.946
		C324.107,555.718,319.399,549.467,313.593,549.467z"/>
	<g id="XMLID_1_">
		<g id="XMLID_15_">
			<ellipse id="XMLID_20_" style="fill:#FFFEFF;" cx="212.587" cy="582.148" rx="4.165" ry="5.528"/>
			<ellipse id="XMLID_19_" style="fill:#FFFEFF;" cx="212.588" cy="602.396" rx="4.165" ry="5.528"/>
			<path id="XMLID_18_" style="fill:#FFFEFF;" d="M212.536,567.434c-2.3,0-4.164-2.475-4.164-5.528c0-3.053,1.864-5.527,4.164-5.527
				s4.164,2.475,4.164,5.527C216.701,564.959,214.836,567.434,212.536,567.434z"/>
			<ellipse id="XMLID_17_" style="fill:#FFFEFF;" cx="212.589" cy="622.643" rx="4.165" ry="5.528"/>
			<ellipse id="XMLID_16_" style="fill:#FFFEFF;" cx="212.591" cy="642.892" rx="4.165" ry="5.528"/>
		</g>
		<g id="XMLID_10_">
			<path id="XMLID_14_" style="fill:#5C6BC0;" d="M305.839,564.946h-67.67c-0.461,0-0.833-0.496-0.833-1.105v-6.356
				c0-0.612,0.374-1.105,0.833-1.105h67.67c0.461,0,0.833,0.496,0.833,1.105v6.356C306.674,564.451,306.3,564.946,305.839,564.946z"
				/>
			<path id="XMLID_13_" style="fill:#5C6BC0;" d="M297.095,622.992h-50.18c-5.29,0-9.578,5.692-9.578,12.714
				c0,7.022,4.289,12.714,9.578,12.714h50.18c5.29,0,9.577-5.692,9.577-12.714C306.674,628.684,302.384,622.992,297.095,622.992z"/>
			<path id="XMLID_12_" style="fill:#5C6BC0;" d="M297.095,589.685h-50.18c-5.29,0-9.578,5.692-9.578,12.714
				s4.289,12.714,9.578,12.714h50.18c5.29,0,9.577-5.692,9.577-12.714C306.674,595.377,302.384,589.685,297.095,589.685z"/>
			<path id="XMLID_11_" style="fill:#5C6BC0;" d="M305.839,579.437h-67.67c-0.461,0-0.833-0.496-0.833-1.105v-6.356
				c0-0.612,0.374-1.105,0.833-1.105h67.67c0.461,0,0.833,0.496,0.833,1.105v6.356C306.674,578.941,306.3,579.437,305.839,579.437z"
				/>
		</g>
		<g id="XMLID_2_">
			<path id="XMLID_9_" style="fill:#5C6BC0;" d="M122.079,557.484v89.829c0,0.612-0.374,1.105-0.833,1.105h-4.788
				c-0.46,0-0.833-0.496-0.833-1.105v-89.829c0-0.612,0.374-1.105,0.833-1.105h4.788
				C121.704,556.378,122.079,556.874,122.079,557.484z"/>
			<path id="XMLID_8_" style="fill:#5C6BC0;" d="M133.485,557.484v89.829c0,0.612-0.374,1.105-0.833,1.105h-4.788
				c-0.46,0-0.833-0.496-0.833-1.105v-89.829c0-0.612,0.374-1.105,0.833-1.105h4.788
				C133.111,556.378,133.485,556.874,133.485,557.484z"/>
			<path id="XMLID_7_" style="fill:#5C6BC0;" d="M144.889,557.484v89.829c0,0.612-0.374,1.105-0.833,1.105h-4.788
				c-0.461,0-0.833-0.496-0.833-1.105v-89.829c0-0.612,0.374-1.105,0.833-1.105h4.788
				C144.517,556.378,144.889,556.874,144.889,557.484z"/>
			<path id="XMLID_6_" style="fill:#5C6BC0;" d="M156.295,557.484v89.829c0,0.612-0.374,1.105-0.833,1.105h-4.788
				c-0.461,0-0.833-0.496-0.833-1.105v-89.829c0-0.612,0.374-1.105,0.833-1.105h4.788
				C155.922,556.378,156.295,556.874,156.295,557.484z"/>
			<path id="XMLID_5_" style="fill:#5C6BC0;" d="M167.701,557.484v89.829c0,0.612-0.374,1.105-0.833,1.105h-4.788
				c-0.461,0-0.833-0.496-0.833-1.105v-89.829c0-0.612,0.374-1.105,0.833-1.105h4.788
				C167.327,556.378,167.701,556.874,167.701,557.484z"/>
			<path id="XMLID_4_" style="fill:#5C6BC0;" d="M179.108,557.484v89.829c0,0.612-0.374,1.105-0.833,1.105h-4.788
				c-0.46,0-0.833-0.496-0.833-1.105v-89.829c0-0.612,0.374-1.105,0.833-1.105h4.788
				C178.734,556.378,179.108,556.874,179.108,557.484z"/>
			<path id="XMLID_3_" style="fill:#5C6BC0;" d="M190.513,557.484v89.829c0,0.612-0.374,1.105-0.833,1.105h-4.788
				c-0.46,0-0.833-0.496-0.833-1.105v-89.829c0-0.612,0.374-1.105,0.833-1.105h4.788
				C190.14,556.378,190.513,556.874,190.513,557.484z"/>
		</g>
	</g>
</g>
<path style="opacity:0.9;fill:#0277BD;" d="M239.605,686.295h-6.646c-0.376-15.759-13.355-28.541-29.201-28.541h-3.171
	c-6.126-21.233-25.744-36.894-48.882-36.894l0,0c-23.136,0-42.754,15.661-48.881,36.894h-3.172
	c-15.845,0-28.823,12.782-29.201,28.541h-6.646c-16.271,0-29.585,13.312-29.585,29.585c0,16.271,13.314,29.585,29.585,29.585
	h175.799c16.271,0,29.584-13.314,29.584-29.585C269.189,699.607,255.877,686.295,239.605,686.295z"/>
<g id="XMLID_1260_">
	<path id="XMLID_1793_" style="fill:#DFE5E1;" d="M647.76,616.961c0,0-17.927,19.662-47.647,23.42v54.358c0,0,0,36.72,47.647,63.321
		c47.646-26.601,47.646-63.321,47.646-63.321v-54.358C665.686,636.623,647.76,616.961,647.76,616.961z"/>
	<path id="XMLID_4079_" style="fill:#C8CCCA;" d="M695.406,640.386v54.356c0,0,0,25.612-27.751,49.527V631.523
		C675.097,635.45,684.449,638.995,695.406,640.386z"/>
	<path id="XMLID_1769_" style="fill:#FC982B;" d="M647.764,743.832c-34.414-21.942-35.425-48.813-35.425-49.093v-44.243
		c15.759-3.958,27.852-11.461,35.421-17.278c7.57,5.817,19.659,13.321,35.421,17.28v44.242
		C683.152,695.761,682.065,722.011,647.764,743.832z"/>
	<path id="XMLID_4080_" style="fill:#ED8B2B;" d="M683.18,650.502v44.24c-0.031,0.917-0.917,22.341-26.223,42.528v-97.786
		C663.926,643.702,672.759,647.889,683.18,650.502z"/>
</g>
<g id="XMLID_4085_">
	<path id="XMLID_3419_" style="fill:#FC982B;" d="M370.544,177.758h-75.129c-3.171,0-5.742-2.571-5.742-5.742v-69.848h86.613v69.848
		C376.286,175.187,373.715,177.758,370.544,177.758z"/>
	<path id="XMLID_4094_" style="fill:#ED8B2B;" d="M376.287,102.169v59.85c0,8.495-6.714,15.401-15.127,15.703
		c-8.413-0.274-15.154-7.207-15.154-15.703v-59.85H376.287z"/>
	<g id="XMLID_3418_">
		<path id="XMLID_4095_" style="fill:#33618E;" d="M367.576,102.169h-16.442v-16.1c0-10.012-8.145-18.155-18.155-18.155
			s-18.155,8.144-18.155,18.155v16.1h-16.442v-16.1c0-19.078,15.52-34.598,34.598-34.598c19.077,0,34.598,15.519,34.598,34.598
			V102.169z"/>
	</g>
	<path id="XMLID_3417_" style="fill:#03204C;" d="M330.181,117.646c-5.108,1.064-9.157,5.313-10.026,10.458
		c-0.909,5.379,1.49,10.277,5.486,13.011v14.118c0,4.053,3.286,7.339,7.339,7.339c4.053,0,7.338-3.285,7.338-7.339v-14.117
		c3.426-2.345,5.679-6.279,5.679-10.744C345.996,122.269,338.593,115.895,330.181,117.646z"/>
</g>
<path style="opacity:0.4;fill:#FFAE00;" d="M154.655,175.938c0.676-5.992,0.049-11.924-1.707-17.458l6.45-3.442l-7.265-13.608
	l-6.449,3.441c-3.621-4.539-8.202-8.364-13.555-11.133l2.128-6.998l-14.758-4.486l-2.128,6.997
	c-1.572-0.178-3.141-0.266-4.701-0.267v-0.001c-4.378-0.003-8.675,0.678-12.754,1.974l-3.447-6.45l-13.606,7.264l3.442,6.449
	c-4.54,3.621-8.362,8.201-11.132,13.551l-6.997-2.127l-4.487,14.76l6.997,2.127c-0.677,5.992-0.051,11.924,1.707,17.456l-6.45,3.444
	l7.261,13.608l6.453-3.441c3.621,4.54,8.198,8.363,13.553,11.133l-2.128,6.999l14.758,4.486l2.128-6.998
	c1.573,0.179,3.142,0.266,4.702,0.267v0.002c4.377,0.004,8.675-0.678,12.755-1.973l3.442,6.449l13.608-7.262l-3.441-6.451
	c4.539-3.62,8.361-8.2,11.134-13.554l6.996,2.127l4.486-14.758L154.655,175.938z M138.879,179.204
	c-3.594,11.821-14.461,19.435-26.21,19.43v-0.002c-2.635-0.001-5.315-0.384-7.968-1.19c-14.474-4.4-22.641-19.701-18.241-34.176
	c3.594-11.824,14.46-19.438,26.209-19.433v0.002c2.636,0.002,5.315,0.385,7.967,1.191
	C135.111,149.426,143.28,164.727,138.879,179.204z"/>
<path style="opacity:0.4;fill:#0277BD;" d="M487.374,53.408c0.337-2.989,0.024-5.948-0.852-8.709l3.218-1.717l-3.624-6.788
	l-3.217,1.717c-1.806-2.264-4.092-4.172-6.762-5.554l1.062-3.491l-7.362-2.238l-1.062,3.49c-0.784-0.089-1.567-0.133-2.345-0.133v0
	c-2.184-0.001-4.328,0.338-6.362,0.985l-1.72-3.218l-6.787,3.624l1.717,3.217c-2.265,1.806-4.171,4.091-5.553,6.76l-3.49-1.061
	l-2.238,7.363l3.49,1.061c-0.338,2.989-0.025,5.948,0.852,8.708l-3.218,1.718l3.622,6.788l3.219-1.717
	c1.806,2.265,4.09,4.172,6.761,5.554l-1.062,3.491l7.362,2.238l1.062-3.491c0.785,0.089,1.567,0.133,2.346,0.133v0.001
	c2.183,0.002,4.328-0.338,6.363-0.984l1.717,3.217l6.788-3.623l-1.717-3.218c2.264-1.806,4.171-4.091,5.554-6.761l3.49,1.061
	l2.238-7.362L487.374,53.408z M479.504,55.037c-1.793,5.897-7.214,9.695-13.075,9.693v-0.001c-1.315,0-2.652-0.191-3.975-0.594
	c-7.221-2.195-11.295-9.828-9.099-17.049c1.793-5.898,7.214-9.696,13.074-9.694v0.001c1.315,0.001,2.652,0.192,3.975,0.594
	C477.624,40.182,481.699,47.815,479.504,55.037z"/>
<g style="opacity:0.4;">
	<path style="fill:#B3D6F5;" d="M406.159,733.499c-1.716,0-3.451-0.251-5.151-0.767c-2.279-0.693-4.369-1.829-6.21-3.374
		c-7.463-6.263-8.44-17.432-2.176-24.898c3.419-4.072,8.396-6.317,13.536-6.316V685.38l-8.277,0.723l0.399,4.555
		c-2.98,0.929-5.737,2.363-8.209,4.272l-3.504-2.939l-7.272,8.669l3.502,2.94c-1.45,2.767-2.387,5.726-2.788,8.826l-4.553,0.397
		l0.986,11.274l4.554-0.4c0.928,2.982,2.362,5.738,4.274,8.21l-2.939,3.504l8.668,7.274l2.942-3.503
		c2.746,1.441,5.747,2.386,8.822,2.786l0.401,4.553l2.997-0.262h-0.002V733.499z"/>
	<path style="fill:#B3D6F5;" d="M432.309,719.214l4.558-0.395l-0.986-11.274l-4.555,0.4c-0.928-2.983-2.363-5.736-4.272-8.21
		l2.939-3.504l-8.671-7.274l-2.939,3.504c-2.749-1.443-5.752-2.388-8.827-2.788l-0.398-4.553l-2.996,0.261v12.763
		c1.717,0.001,3.451,0.251,5.152,0.768c2.276,0.691,4.366,1.827,6.21,3.373c7.465,6.266,8.438,17.432,2.177,24.898
		c-3.42,4.074-8.398,6.319-13.538,6.318v12.762l8.277-0.723l-0.396-4.553c2.981-0.929,5.732-2.365,8.206-4.276l3.501,2.941
		l7.278-8.67l-3.502-2.938C430.975,725.276,431.912,722.314,432.309,719.214z"/>
</g>
<path style="opacity:0.4;fill:#F06358;" d="M745.095,40.472c0.814,0.001,1.633,0.046,2.456,0.14l1.111-3.655l7.708,2.343
	l-1.111,3.655c2.796,1.446,5.189,3.444,7.079,5.815l3.368-1.797l3.794,7.107l-3.369,1.798c0.917,2.89,1.244,5.989,0.892,9.117
	l3.654,1.111l-2.343,7.708l-3.654-1.11c-1.448,2.796-3.444,5.188-5.815,7.079l1.798,3.369l-7.107,3.793l-1.798-3.369
	c-2.131,0.677-4.376,1.033-6.662,1.031v-5.772c6.987,0.003,13.451-4.525,15.589-11.556c2.617-8.61-2.241-17.71-10.85-20.328
	c-1.577-0.48-3.171-0.707-4.738-0.708v-5.771H745.095z M731.326,45.296l-1.798-3.368l7.106-3.794l1.8,3.369
	c2.13-0.676,4.375-1.033,6.661-1.031v5.771c-6.987-0.003-13.45,4.526-15.588,11.558c-2.617,8.609,2.24,17.709,10.849,20.326l0,0
	c1.578,0.48,3.172,0.707,4.739,0.708v5.772c-0.815-0.001-1.634-0.047-2.456-0.14l-1.111,3.655l-7.708-2.343l1.111-3.655
	c-2.797-1.447-5.187-3.444-7.078-5.815l-3.371,1.797l-3.792-7.107l3.369-1.799c-0.918-2.889-1.245-5.988-0.892-9.116l-3.654-1.111
	l2.344-7.709l3.653,1.111C726.959,49.579,728.955,47.187,731.326,45.296z"/>
<g>
	<g id="XMLID_152_">
		<g id="XMLID_191_">
			<path id="XMLID_192_" style="fill:#5E35B1;" d="M371.056,442.497c-0.013-1.967,1.583-3.571,3.565-3.584l18.498-0.122
				c1.982-0.013,3.599,1.57,3.612,3.537c0.013,1.967-1.583,3.571-3.565,3.584l-18.498,0.122
				C372.686,446.046,371.069,444.464,371.056,442.497z"/>
		</g>
	</g>
	<g id="XMLID_145_">
		<g id="XMLID_150_">
			<path id="XMLID_151_" style="fill:#5E35B1;" d="M405.422,145.879c-2.066,0-3.741-1.674-3.741-3.74v-6.234h-6.234
				c-2.066,0-3.74-1.674-3.74-3.74s1.674-3.74,3.74-3.74h9.974c2.066,0,3.74,1.674,3.74,3.74v9.974
				C409.162,144.204,407.488,145.879,405.422,145.879z"/>
		</g>
		<g id="XMLID_148_">
			<path id="XMLID_149_" style="fill:#5E35B1;" d="M405.422,415.805c-2.066,0-3.741-1.675-3.741-3.74v-19.279
				c0-2.065,1.674-3.74,3.741-3.74c2.066,0,3.74,1.675,3.74,3.74v19.279C409.162,414.13,407.488,415.805,405.422,415.805z
				 M405.422,377.245c-2.066,0-3.741-1.674-3.741-3.74v-19.281c0-2.066,1.674-3.74,3.741-3.74c2.066,0,3.74,1.674,3.74,3.74v19.281
				C409.162,375.571,407.488,377.245,405.422,377.245z M405.422,338.684c-2.066,0-3.741-1.674-3.741-3.74v-19.28
				c0-2.066,1.674-3.74,3.741-3.74c2.066,0,3.74,1.674,3.74,3.74v19.28C409.162,337.009,407.488,338.684,405.422,338.684z
				 M405.422,300.123c-2.066,0-3.741-1.674-3.741-3.74v-19.28c0-2.066,1.674-3.74,3.741-3.74c2.066,0,3.74,1.674,3.74,3.74v19.28
				C409.162,298.449,407.488,300.123,405.422,300.123z M405.422,261.562c-2.066,0-3.741-1.674-3.741-3.74v-19.281
				c0-2.066,1.674-3.74,3.741-3.74c2.066,0,3.74,1.674,3.74,3.74v19.281C409.162,259.888,407.488,261.562,405.422,261.562z
				 M405.422,223.001c-2.066,0-3.741-1.674-3.741-3.74V199.98c0-2.066,1.674-3.74,3.741-3.74c2.066,0,3.74,1.674,3.74,3.74v19.281
				C409.162,221.327,407.488,223.001,405.422,223.001z M405.422,184.44c-2.066,0-3.741-1.674-3.741-3.74v-19.281
				c0-2.066,1.674-3.74,3.741-3.74c2.066,0,3.74,1.674,3.74,3.74V180.7C409.162,182.766,407.488,184.44,405.422,184.44z"/>
		</g>
		<g id="XMLID_146_">
			<path id="XMLID_147_" style="fill:#5E35B1;" d="M405.422,445.06c-2.066,0-3.741-1.676-3.741-3.74v-9.974
				c0-2.065,1.674-3.74,3.741-3.74c2.066,0,3.74,1.675,3.74,3.74v9.974C409.162,443.385,407.488,445.06,405.422,445.06z"/>
		</g>
	</g>
</g>
<g>
	<g id="XMLID_206_">
		<g id="XMLID_207_">
			<path id="XMLID_208_" style="fill:#5E35B1;" d="M717.047,689.949c-0.013-1.967,1.583-3.571,3.565-3.584l18.498-0.122
				c1.982-0.013,3.599,1.57,3.612,3.537c0.013,1.967-1.583,3.571-3.565,3.584l-18.498,0.122
				C718.676,693.499,717.06,691.916,717.047,689.949z"/>
		</g>
	</g>
	<g id="XMLID_153_">
		<g id="XMLID_204_">
			<path id="XMLID_205_" style="fill:#5E35B1;" d="M751.412,393.331c-2.066,0-3.74-1.674-3.74-3.74v-6.234h-6.234
				c-2.066,0-3.74-1.674-3.74-3.74s1.674-3.74,3.74-3.74h9.974c2.066,0,3.74,1.674,3.74,3.74v9.974
				C755.152,391.657,753.478,393.331,751.412,393.331z"/>
		</g>
		<g id="XMLID_195_">
			<path id="XMLID_196_" style="fill:#5E35B1;" d="M751.412,663.257c-2.066,0-3.74-1.675-3.74-3.74v-19.279
				c0-2.065,1.674-3.74,3.74-3.74c2.066,0,3.74,1.675,3.74,3.74v19.279C755.152,661.582,753.478,663.257,751.412,663.257z
				 M751.412,624.698c-2.066,0-3.74-1.674-3.74-3.74v-19.281c0-2.066,1.674-3.74,3.74-3.74c2.066,0,3.74,1.674,3.74,3.74v19.281
				C755.152,623.024,753.478,624.698,751.412,624.698z M751.412,586.136c-2.066,0-3.74-1.674-3.74-3.74v-19.28
				c0-2.066,1.674-3.74,3.74-3.74c2.066,0,3.74,1.674,3.74,3.74v19.28C755.152,584.462,753.478,586.136,751.412,586.136z
				 M751.412,547.575c-2.066,0-3.74-1.674-3.74-3.74v-19.28c0-2.066,1.674-3.74,3.74-3.74c2.066,0,3.74,1.674,3.74,3.74v19.28
				C755.152,545.901,753.478,547.575,751.412,547.575z M751.412,509.014c-2.066,0-3.74-1.674-3.74-3.74v-19.281
				c0-2.066,1.674-3.74,3.74-3.74c2.066,0,3.74,1.674,3.74,3.74v19.281C755.152,507.34,753.478,509.014,751.412,509.014z
				 M751.412,470.454c-2.066,0-3.74-1.674-3.74-3.74v-19.281c0-2.066,1.674-3.74,3.74-3.74c2.066,0,3.74,1.674,3.74,3.74v19.281
				C755.152,468.779,753.478,470.454,751.412,470.454z M751.412,431.893c-2.066,0-3.74-1.674-3.74-3.74v-19.281
				c0-2.066,1.674-3.74,3.74-3.74c2.066,0,3.74,1.674,3.74,3.74v19.281C755.152,430.219,753.478,431.893,751.412,431.893z"/>
		</g>
		<g id="XMLID_190_">
			<path id="XMLID_194_" style="fill:#5E35B1;" d="M751.412,692.512c-2.066,0-3.74-1.675-3.74-3.74v-9.974
				c0-2.065,1.674-3.74,3.74-3.74c2.066,0,3.74,1.675,3.74,3.74v9.974C755.152,690.837,753.478,692.512,751.412,692.512z"/>
		</g>
	</g>
</g>
<path style="opacity:0.9;fill:#29B6F6;" d="M763.511,540.31h-5.681c-0.322-13.472-11.42-24.401-24.966-24.401h-2.711
	c-5.237-18.153-22.011-31.542-41.79-31.542l0,0c-19.781,0-36.554,13.389-41.79,31.542h-2.713c-13.547,0-24.643,10.928-24.966,24.401
	h-5.681c-13.911,0-25.294,11.38-25.294,25.294c0,13.912,11.382,25.294,25.294,25.294H763.51c13.912,0,25.292-11.382,25.292-25.294
	C788.805,551.692,777.422,540.31,763.511,540.31z"/>
</svg>
