<?xml version="1.0" encoding="utf-8"?>
<!-- Generator: Adobe Illustrator 23.0.1, SVG Export Plug-In . SVG Version: 6.00 Build 0)  -->
<svg version="1.1" id="Layer_1" xmlns="http://www.w3.org/2000/svg" xmlns:xlink="http://www.w3.org/1999/xlink" x="0px" y="0px"
	 viewBox="0 0 800 800" style="enable-background:new 0 0 800 800;" xml:space="preserve">
<path style="fill:#29B6F6;" d="M693.522,369.232h-4.398c-0.249-10.43-8.84-18.89-19.327-18.89h-2.099
	c-4.054-14.053-17.039-24.418-32.352-24.418l0,0c-15.313,0-28.298,10.365-32.352,24.418h-2.1c-10.487,0-19.077,8.46-19.327,18.89
	h-4.398c-10.769,0-19.581,8.811-19.581,19.581c0,10.769,8.811,19.581,19.581,19.581h116.351c10.769,0,19.58-8.811,19.58-19.581
	C713.103,378.043,704.291,369.232,693.522,369.232z"/>
<path style="fill:#0277BD;" d="M305.958,356.603h-5.816c-0.329-13.793-11.69-24.981-25.558-24.981h-2.776
	c-5.362-18.585-22.533-32.292-42.784-32.292l0,0c-20.25,0-37.422,13.707-42.783,32.292h-2.777
	c-13.869,0-25.228,11.187-25.558,24.981h-5.816c-14.242,0-25.895,11.652-25.895,25.895c0,14.242,11.653,25.895,25.895,25.895h153.87
	c14.242,0,25.894-11.653,25.894-25.895C331.851,368.255,320.2,356.603,305.958,356.603z"/>
<g>
	<g id="XMLID_220_">
		<g id="XMLID_223_">
			<path id="XMLID_224_" style="fill:#FF8F00;" d="M466.143,565.425c-2.026,0-3.667-1.643-3.667-3.667v-18.901
				c0-2.025,1.641-3.667,3.667-3.667c2.026,0,3.667,1.642,3.667,3.667v18.901C469.81,563.783,468.169,565.425,466.143,565.425z
				 M466.143,527.621c-2.026,0-3.667-1.641-3.667-3.667v-18.903c0-2.026,1.641-3.667,3.667-3.667c2.026,0,3.667,1.642,3.667,3.667
				v18.903C469.81,525.98,468.169,527.621,466.143,527.621z M466.143,489.814c-2.026,0-3.667-1.641-3.667-3.667v-18.902
				c0-2.026,1.641-3.667,3.667-3.667c2.026,0,3.667,1.641,3.667,3.667v18.902C469.81,488.173,468.169,489.814,466.143,489.814z
				 M466.143,452.009c-2.026,0-3.667-1.642-3.667-3.667v-18.902c0-2.026,1.641-3.667,3.667-3.667c2.026,0,3.667,1.641,3.667,3.667
				v18.902C469.81,450.367,468.169,452.009,466.143,452.009z M466.143,414.203c-2.026,0-3.667-1.641-3.667-3.667v-18.903
				c0-2.026,1.641-3.667,3.667-3.667c2.026,0,3.667,1.641,3.667,3.667v18.903C469.81,412.562,468.169,414.203,466.143,414.203z
				 M466.143,376.397c-2.026,0-3.667-1.641-3.667-3.667v-18.903c0-2.026,1.641-3.667,3.667-3.667c2.026,0,3.667,1.641,3.667,3.667
				v18.903C469.81,374.756,468.169,376.397,466.143,376.397z M466.143,338.592c-2.026,0-3.667-1.641-3.667-3.667v-18.903
				c0-2.026,1.641-3.667,3.667-3.667c2.026,0,3.667,1.642,3.667,3.667v18.903C469.81,336.95,468.169,338.592,466.143,338.592z"/>
		</g>
		<g id="XMLID_221_">
			<path id="XMLID_222_" style="fill:#FF8F00;" d="M466.143,594.108c-2.026,0-3.667-1.643-3.667-3.667v-9.779
				c0-2.025,1.641-3.667,3.667-3.667c2.026,0,3.667,1.642,3.667,3.667v9.779C469.81,592.465,468.169,594.108,466.143,594.108z"/>
		</g>
	</g>
	<g id="XMLID_203_">
		<g id="XMLID_211_">
			<path id="XMLID_212_" style="fill:#FF8F00;" d="M174.703,638.821c0-2.026,1.642-3.667,3.667-3.667h18.901
				c2.025,0,3.667,1.641,3.667,3.667c0,2.026-1.642,3.667-3.667,3.667H178.37C176.345,642.488,174.703,640.847,174.703,638.821z
				 M212.508,638.821c0-2.026,1.641-3.667,3.667-3.667h18.903c2.026,0,3.667,1.641,3.667,3.667c0,2.026-1.642,3.667-3.667,3.667
				h-18.903C214.149,642.488,212.508,640.847,212.508,638.821z M250.314,638.821c0-2.026,1.641-3.667,3.667-3.667h18.902
				c2.026,0,3.667,1.641,3.667,3.667c0,2.026-1.641,3.667-3.667,3.667h-18.902C251.956,642.488,250.314,640.847,250.314,638.821z
				 M288.12,638.821c0-2.026,1.642-3.667,3.667-3.667h18.902c2.026,0,3.667,1.641,3.667,3.667c0,2.026-1.641,3.667-3.667,3.667
				h-18.902C289.761,642.488,288.12,640.847,288.12,638.821z M325.925,638.821c0-2.026,1.641-3.667,3.667-3.667h18.903
				c2.026,0,3.667,1.641,3.667,3.667c0,2.026-1.641,3.667-3.667,3.667h-18.903C327.567,642.488,325.925,640.847,325.925,638.821z
				 M363.731,638.821c0-2.026,1.641-3.667,3.667-3.667h18.903c2.026,0,3.667,1.641,3.667,3.667c0,2.026-1.641,3.667-3.667,3.667
				h-18.903C365.372,642.488,363.731,640.847,363.731,638.821z M401.537,638.821c0-2.026,1.641-3.667,3.667-3.667h18.903
				c2.026,0,3.667,1.641,3.667,3.667c0,2.026-1.642,3.667-3.667,3.667h-18.903C403.178,642.488,401.537,640.847,401.537,638.821z"/>
		</g>
		<g id="XMLID_209_">
			<path id="XMLID_210_" style="fill:#FF8F00;" d="M146.021,638.821c0-2.026,1.643-3.667,3.667-3.667h9.779
				c2.025,0,3.667,1.641,3.667,3.667c0,2.026-1.642,3.667-3.667,3.667h-9.779C147.663,642.488,146.021,640.847,146.021,638.821z"/>
		</g>
	</g>
	<g id="XMLID_185_">
		<g id="XMLID_188_">
			<path id="XMLID_189_" style="fill:#FF8F00;" d="M493.538,638.821c0-2.026,1.642-3.667,3.667-3.667h18.901
				c2.025,0,3.667,1.641,3.667,3.667c0,2.026-1.642,3.667-3.667,3.667h-18.901C495.18,642.488,493.538,640.847,493.538,638.821z
				 M531.342,638.821c0-2.026,1.641-3.667,3.667-3.667h18.903c2.026,0,3.667,1.641,3.667,3.667c0,2.026-1.642,3.667-3.667,3.667
				h-18.903C532.983,642.488,531.342,640.847,531.342,638.821z M569.149,638.821c0-2.026,1.641-3.667,3.667-3.667h18.902
				c2.026,0,3.667,1.641,3.667,3.667c0,2.026-1.641,3.667-3.667,3.667h-18.902C570.79,642.488,569.149,640.847,569.149,638.821z
				 M606.954,638.821c0-2.026,1.642-3.667,3.667-3.667h18.902c2.026,0,3.667,1.641,3.667,3.667c0,2.026-1.641,3.667-3.667,3.667
				h-18.902C608.596,642.488,606.954,640.847,606.954,638.821z M644.76,638.821c0-2.026,1.641-3.667,3.667-3.667h18.903
				c2.026,0,3.667,1.641,3.667,3.667c0,2.026-1.641,3.667-3.667,3.667h-18.903C646.401,642.488,644.76,640.847,644.76,638.821z
				 M682.565,638.821c0-2.026,1.641-3.667,3.667-3.667h18.903c2.026,0,3.667,1.641,3.667,3.667c0,2.026-1.641,3.667-3.667,3.667
				h-18.903C684.207,642.488,682.565,640.847,682.565,638.821z M720.371,638.821c0-2.026,1.641-3.667,3.667-3.667h18.903
				c2.026,0,3.667,1.641,3.667,3.667c0,2.026-1.642,3.667-3.667,3.667h-18.903C722.013,642.488,720.371,640.847,720.371,638.821z"/>
		</g>
		<g id="XMLID_186_">
			<path id="XMLID_187_" style="fill:#FF8F00;" d="M464.855,638.821c0-2.026,1.643-3.667,3.667-3.667h9.779
				c2.025,0,3.667,1.641,3.667,3.667c0,2.026-1.642,3.667-3.667,3.667h-9.779C466.498,642.488,464.855,640.847,464.855,638.821z"/>
		</g>
	</g>
	<g>
		<g id="XMLID_4411_">
			<g id="XMLID_4417_">
				<path id="XMLID_4439_" style="fill:#FF8F00;" d="M711.861,218.964h-17.869c-2.026,0-3.667-1.641-3.667-3.667
					c0-2.026,1.641-3.667,3.667-3.667h17.869c2.026,0,3.667,1.641,3.667,3.667C715.528,217.323,713.886,218.964,711.861,218.964z
					 M676.124,218.964h-17.869c-2.026,0-3.667-1.641-3.667-3.667c0-2.026,1.641-3.667,3.667-3.667h17.869
					c2.026,0,3.667,1.641,3.667,3.667C679.791,217.323,678.149,218.964,676.124,218.964z M640.387,218.964h-17.869
					c-2.026,0-3.667-1.641-3.667-3.667c0-2.026,1.641-3.667,3.667-3.667h17.869c2.026,0,3.667,1.641,3.667,3.667
					C644.054,217.323,642.412,218.964,640.387,218.964z M604.65,218.964h-17.869c-2.026,0-3.667-1.641-3.667-3.667
					c0-2.026,1.641-3.667,3.667-3.667h17.869c2.026,0,3.667,1.641,3.667,3.667C608.317,217.323,606.676,218.964,604.65,218.964z
					 M568.913,218.964h-17.869c-2.026,0-3.667-1.641-3.667-3.667c0-2.026,1.641-3.667,3.667-3.667h17.869
					c2.026,0,3.667,1.641,3.667,3.667C572.58,217.323,570.939,218.964,568.913,218.964z"/>
			</g>
			<g id="XMLID_4416_">
				<path id="XMLID_4438_" style="fill:#FF8F00;" d="M739.507,228.743c-2.026,0-3.667-1.641-3.667-3.667v-6.112h-6.112
					c-2.026,0-3.667-1.641-3.667-3.667c0-2.026,1.641-3.667,3.667-3.667h9.779c2.026,0,3.667,1.641,3.667,3.667v9.779
					C743.174,227.101,741.532,228.743,739.507,228.743z"/>
			</g>
			<g id="XMLID_4415_">
				<path id="XMLID_4430_" style="fill:#FF8F00;" d="M739.507,493.383c-2.026,0-3.667-1.642-3.667-3.667v-18.901
					c0-2.025,1.641-3.667,3.667-3.667c2.026,0,3.667,1.642,3.667,3.667v18.901C743.174,491.741,741.532,493.383,739.507,493.383z
					 M739.507,455.578c-2.026,0-3.667-1.641-3.667-3.667v-18.903c0-2.026,1.641-3.667,3.667-3.667c2.026,0,3.667,1.642,3.667,3.667
					v18.903C743.174,453.937,741.532,455.578,739.507,455.578z M739.507,417.772c-2.026,0-3.667-1.641-3.667-3.667v-18.902
					c0-2.026,1.641-3.667,3.667-3.667c2.026,0,3.667,1.641,3.667,3.667v18.902C743.174,416.13,741.532,417.772,739.507,417.772z
					 M739.507,379.966c-2.026,0-3.667-1.642-3.667-3.667v-18.902c0-2.026,1.641-3.667,3.667-3.667c2.026,0,3.667,1.641,3.667,3.667
					v18.902C743.174,378.325,741.532,379.966,739.507,379.966z M739.507,342.16c-2.026,0-3.667-1.641-3.667-3.667V319.59
					c0-2.026,1.641-3.667,3.667-3.667c2.026,0,3.667,1.641,3.667,3.667v18.903C743.174,340.519,741.532,342.16,739.507,342.16z
					 M739.507,304.355c-2.026,0-3.667-1.641-3.667-3.667v-18.903c0-2.026,1.641-3.667,3.667-3.667c2.026,0,3.667,1.641,3.667,3.667
					v18.903C743.174,302.714,741.532,304.355,739.507,304.355z M739.507,266.549c-2.026,0-3.667-1.641-3.667-3.667v-18.903
					c0-2.026,1.641-3.667,3.667-3.667c2.026,0,3.667,1.642,3.667,3.667v18.903C743.174,264.908,741.532,266.549,739.507,266.549z"/>
			</g>
			<g id="XMLID_4414_">
				<path id="XMLID_4429_" style="fill:#FF8F00;" d="M739.507,522.065c-2.026,0-3.667-1.643-3.667-3.667v-9.779
					c0-2.025,1.641-3.667,3.667-3.667c2.026,0,3.667,1.642,3.667,3.667v9.779C743.174,520.422,741.532,522.065,739.507,522.065z"/>
			</g>
		</g>
		<g id="XMLID_173_">
			<g id="XMLID_176_">
				<path id="XMLID_177_" style="fill:#FF8F00;" d="M739.62,569.089c-2.026,0-3.667-1.643-3.667-3.667v-18.901
					c0-2.025,1.641-3.667,3.667-3.667c2.026,0,3.667,1.642,3.667,3.667v18.901C743.287,567.446,741.646,569.089,739.62,569.089z
					 M739.62,531.284c-2.026,0-3.667-1.641-3.667-3.667v-18.903c0-2.026,1.641-3.667,3.667-3.667c2.026,0,3.667,1.642,3.667,3.667
					v18.903C743.287,529.643,741.646,531.284,739.62,531.284z M739.62,493.477c-2.026,0-3.667-1.641-3.667-3.667v-18.902
					c0-2.026,1.641-3.667,3.667-3.667c2.026,0,3.667,1.641,3.667,3.667v18.902C743.287,491.836,741.646,493.477,739.62,493.477z
					 M739.62,455.672c-2.026,0-3.667-1.642-3.667-3.667v-18.902c0-2.026,1.641-3.667,3.667-3.667c2.026,0,3.667,1.641,3.667,3.667
					v18.902C743.287,454.03,741.646,455.672,739.62,455.672z M739.62,417.866c-2.026,0-3.667-1.641-3.667-3.667v-18.903
					c0-2.026,1.641-3.667,3.667-3.667c2.026,0,3.667,1.641,3.667,3.667v18.903C743.287,416.225,741.646,417.866,739.62,417.866z
					 M739.62,380.061c-2.026,0-3.667-1.641-3.667-3.667V357.49c0-2.026,1.641-3.667,3.667-3.667c2.026,0,3.667,1.641,3.667,3.667
					v18.903C743.287,378.419,741.646,380.061,739.62,380.061z M739.62,342.255c-2.026,0-3.667-1.641-3.667-3.667v-18.903
					c0-2.026,1.641-3.667,3.667-3.667c2.026,0,3.667,1.642,3.667,3.667v18.903C743.287,340.614,741.646,342.255,739.62,342.255z"/>
			</g>
			<g id="XMLID_174_">
				<path id="XMLID_175_" style="fill:#FF8F00;" d="M739.62,597.771c-2.026,0-3.667-1.643-3.667-3.667v-9.779
					c0-2.025,1.641-3.667,3.667-3.667c2.026,0,3.667,1.642,3.667,3.667v9.779C743.287,596.128,741.646,597.771,739.62,597.771z"/>
			</g>
		</g>
	</g>
	<g>
		<g id="XMLID_143_">
			<g id="XMLID_166_">
				<path id="XMLID_167_" style="fill:#FF8F00;" d="M160.25,215.297c0-2.026,1.641-3.667,3.667-3.667h17.869
					c2.026,0,3.667,1.641,3.667,3.667c0,2.026-1.641,3.667-3.667,3.667h-17.869C161.891,218.964,160.25,217.323,160.25,215.297z
					 M195.987,215.297c0-2.026,1.641-3.667,3.667-3.667h17.869c2.026,0,3.667,1.641,3.667,3.667c0,2.026-1.641,3.667-3.667,3.667
					h-17.869C197.628,218.964,195.987,217.323,195.987,215.297z M231.724,215.297c0-2.026,1.641-3.667,3.667-3.667h17.869
					c2.026,0,3.667,1.641,3.667,3.667c0,2.026-1.641,3.667-3.667,3.667h-17.869C233.365,218.964,231.724,217.323,231.724,215.297z
					 M267.461,215.297c0-2.026,1.641-3.667,3.667-3.667h17.869c2.026,0,3.667,1.641,3.667,3.667c0,2.026-1.641,3.667-3.667,3.667
					h-17.869C269.102,218.964,267.461,217.323,267.461,215.297z M303.198,215.297c0-2.026,1.641-3.667,3.667-3.667h17.869
					c2.026,0,3.667,1.641,3.667,3.667c0,2.026-1.641,3.667-3.667,3.667h-17.869C304.839,218.964,303.198,217.323,303.198,215.297z"
					/>
			</g>
			<g id="XMLID_164_">
				<path id="XMLID_165_" style="fill:#FF8F00;" d="M136.271,228.743c2.026,0,3.667-1.641,3.667-3.667v-6.112h6.112
					c2.026,0,3.667-1.641,3.667-3.667c0-2.026-1.641-3.667-3.667-3.667h-9.779c-2.026,0-3.667,1.641-3.667,3.667v9.779
					C132.604,227.101,134.245,228.743,136.271,228.743z"/>
			</g>
			<g id="XMLID_155_">
				<path id="XMLID_156_" style="fill:#FF8F00;" d="M132.604,489.716v-18.901c0-2.025,1.641-3.667,3.667-3.667
					c2.026,0,3.667,1.642,3.667,3.667v18.901c0,2.025-1.641,3.667-3.667,3.667C134.245,493.383,132.604,491.741,132.604,489.716z
					 M132.604,451.911v-18.903c0-2.026,1.641-3.667,3.667-3.667c2.026,0,3.667,1.642,3.667,3.667v18.903
					c0,2.026-1.641,3.667-3.667,3.667C134.245,455.578,132.604,453.937,132.604,451.911z M132.604,414.105v-18.902
					c0-2.026,1.641-3.667,3.667-3.667c2.026,0,3.667,1.641,3.667,3.667v18.902c0,2.026-1.641,3.667-3.667,3.667
					C134.245,417.772,132.604,416.13,132.604,414.105z M132.604,376.299v-18.902c0-2.026,1.641-3.667,3.667-3.667
					c2.026,0,3.667,1.641,3.667,3.667v18.902c0,2.026-1.641,3.667-3.667,3.667C134.245,379.966,132.604,378.325,132.604,376.299z
					 M132.604,338.493V319.59c0-2.026,1.641-3.667,3.667-3.667c2.026,0,3.667,1.641,3.667,3.667v18.903
					c0,2.026-1.641,3.667-3.667,3.667C134.245,342.16,132.604,340.519,132.604,338.493z M132.604,300.688v-18.903
					c0-2.026,1.641-3.667,3.667-3.667c2.026,0,3.667,1.641,3.667,3.667v18.903c0,2.026-1.641,3.667-3.667,3.667
					C134.245,304.355,132.604,302.714,132.604,300.688z M132.604,262.882v-18.903c0-2.026,1.641-3.667,3.667-3.667
					c2.026,0,3.667,1.642,3.667,3.667v18.903c0,2.026-1.641,3.667-3.667,3.667C134.245,266.549,132.604,264.908,132.604,262.882z"/>
			</g>
			<g id="XMLID_144_">
				<path id="XMLID_154_" style="fill:#FF8F00;" d="M136.271,522.065c2.026,0,3.667-1.643,3.667-3.667v-9.779
					c0-2.025-1.641-3.667-3.667-3.667c-2.026,0-3.667,1.642-3.667,3.667v9.779C132.604,520.422,134.245,522.065,136.271,522.065z"/>
			</g>
		</g>
		<g id="XMLID_131_">
			<g id="XMLID_134_">
				<path id="XMLID_135_" style="fill:#FF8F00;" d="M136.452,569.081c-2.026,0-3.667-1.643-3.667-3.667v-18.901
					c0-2.025,1.641-3.667,3.667-3.667c2.026,0,3.667,1.642,3.667,3.667v18.901C140.119,567.438,138.478,569.081,136.452,569.081z
					 M136.452,531.276c-2.026,0-3.667-1.641-3.667-3.667v-18.903c0-2.026,1.641-3.667,3.667-3.667c2.026,0,3.667,1.642,3.667,3.667
					v18.903C140.119,529.635,138.478,531.276,136.452,531.276z M136.452,493.47c-2.026,0-3.667-1.641-3.667-3.667V470.9
					c0-2.026,1.641-3.667,3.667-3.667c2.026,0,3.667,1.641,3.667,3.667v18.902C140.119,491.828,138.478,493.47,136.452,493.47z
					 M136.452,455.664c-2.026,0-3.667-1.642-3.667-3.667v-18.902c0-2.026,1.641-3.667,3.667-3.667c2.026,0,3.667,1.641,3.667,3.667
					v18.902C140.119,454.023,138.478,455.664,136.452,455.664z M136.452,417.858c-2.026,0-3.667-1.641-3.667-3.667v-18.903
					c0-2.026,1.641-3.667,3.667-3.667c2.026,0,3.667,1.641,3.667,3.667v18.903C140.119,416.217,138.478,417.858,136.452,417.858z
					 M136.452,380.053c-2.026,0-3.667-1.641-3.667-3.667v-18.903c0-2.026,1.641-3.667,3.667-3.667c2.026,0,3.667,1.641,3.667,3.667
					v18.903C140.119,378.412,138.478,380.053,136.452,380.053z M136.452,342.247c-2.026,0-3.667-1.641-3.667-3.667v-18.903
					c0-2.026,1.641-3.667,3.667-3.667c2.026,0,3.667,1.642,3.667,3.667v18.903C140.119,340.606,138.478,342.247,136.452,342.247z"/>
			</g>
			<g id="XMLID_132_">
				<path id="XMLID_133_" style="fill:#FF8F00;" d="M136.452,597.763c-2.026,0-3.667-1.643-3.667-3.667v-9.779
					c0-2.025,1.641-3.667,3.667-3.667c2.026,0,3.667,1.642,3.667,3.667v9.779C140.119,596.12,138.478,597.763,136.452,597.763z"/>
			</g>
		</g>
	</g>
</g>
<g>
	<path id="XMLID_4070_" style="fill:#5C6BC0;" d="M549.829,48.515H309.9c-13.84,0-25.06,11.219-25.06,25.06v311.946
		c0,12.625,10.235,22.861,22.861,22.861h244.327c12.625,0,22.861-10.235,22.861-22.861V73.575
		C574.889,59.735,563.669,48.515,549.829,48.515z"/>
	<path id="XMLID_4077_" style="fill:#3949AB;" d="M574.899,73.581v311.935c0,12.631-10.245,22.877-22.877,22.877h-33.739V48.74
		h34.862C565.411,50.368,574.899,60.865,574.899,73.581z"/>
	<path id="XMLID_3375_" style="fill:#283593;" d="M546.027,173.053H315.859c-6.525,0-11.813,5.289-11.813,11.812v65.963
		c0,6.525,5.289,11.813,11.813,11.813h230.168c6.524,0,11.812-5.289,11.812-11.813v-65.963
		C557.839,178.341,552.55,173.053,546.027,173.053z"/>
	<g id="XMLID_2951_">
		<g id="XMLID_3362_">
			<circle id="XMLID_3367_" style="fill:#FFFEFF;" cx="432.502" cy="200.712" r="4.678"/>
			<circle id="XMLID_3366_" style="fill:#FFFEFF;" cx="432.502" cy="217.847" r="4.678"/>
			<circle id="XMLID_3365_" style="fill:#FFFEFF;" cx="432.502" cy="183.578" r="4.678"/>
			<circle id="XMLID_3364_" style="fill:#FFFEFF;" cx="432.502" cy="234.98" r="4.678"/>
			<circle id="XMLID_3363_" style="fill:#FFFEFF;" cx="432.502" cy="252.114" r="4.678"/>
		</g>
		<g id="XMLID_2871_">
			<path id="XMLID_3369_" style="fill:#5C6BC0;" d="M537.317,186.152h-76.02c-0.517,0-0.936-0.419-0.936-0.936v-5.379
				c0-0.517,0.419-0.936,0.936-0.936h76.02c0.517,0,0.937,0.419,0.937,0.936v5.379C538.255,185.733,537.835,186.152,537.317,186.152
				z"/>
			<path id="XMLID_3368_" style="fill:#5C6BC0;" d="M527.494,235.272h-56.372c-5.943,0-10.76,4.818-10.76,10.76
				c0,5.943,4.818,10.76,10.76,10.76h56.372c5.942,0,10.759-4.817,10.759-10.76C538.255,240.09,533.437,235.272,527.494,235.272z"/>
			<path id="XMLID_2949_" style="fill:#5C6BC0;" d="M527.494,207.086h-56.372c-5.943,0-10.76,4.817-10.76,10.76
				c0,5.943,4.818,10.76,10.76,10.76h56.372c5.942,0,10.759-4.817,10.759-10.76C538.255,211.904,533.437,207.086,527.494,207.086z"
				/>
			<path id="XMLID_3361_" style="fill:#5C6BC0;" d="M537.317,198.414h-76.02c-0.517,0-0.936-0.419-0.936-0.936v-5.379
				c0-0.517,0.419-0.936,0.936-0.936h76.02c0.517,0,0.937,0.419,0.937,0.936v5.379C538.255,197.995,537.835,198.414,537.317,198.414
				z"/>
		</g>
		<g id="XMLID_2950_">
			<path id="XMLID_2937_" style="fill:#5C6BC0;" d="M330.882,179.836v76.02c0,0.517-0.419,0.936-0.936,0.936h-5.379
				c-0.517,0-0.936-0.419-0.936-0.936v-76.02c0-0.517,0.419-0.936,0.936-0.936h5.379C330.463,178.9,330.882,179.32,330.882,179.836z
				"/>
			<path id="XMLID_2936_" style="fill:#5C6BC0;" d="M343.696,179.836v76.02c0,0.517-0.419,0.936-0.936,0.936h-5.379
				c-0.517,0-0.936-0.419-0.936-0.936v-76.02c0-0.517,0.419-0.936,0.936-0.936h5.379C343.277,178.9,343.696,179.32,343.696,179.836z
				"/>
			<path id="XMLID_2942_" style="fill:#5C6BC0;" d="M356.509,179.836v76.02c0,0.517-0.419,0.936-0.936,0.936h-5.379
				c-0.517,0-0.936-0.419-0.936-0.936v-76.02c0-0.517,0.419-0.936,0.936-0.936h5.379C356.09,178.9,356.509,179.32,356.509,179.836z"
				/>
			<path id="XMLID_2939_" style="fill:#5C6BC0;" d="M369.322,179.836v76.02c0,0.517-0.419,0.936-0.936,0.936h-5.379
				c-0.517,0-0.936-0.419-0.936-0.936v-76.02c0-0.517,0.419-0.936,0.936-0.936h5.379C368.903,178.9,369.322,179.32,369.322,179.836z
				"/>
			<path id="XMLID_2948_" style="fill:#5C6BC0;" d="M382.134,179.836v76.02c0,0.517-0.419,0.936-0.936,0.936h-5.379
				c-0.517,0-0.936-0.419-0.936-0.936v-76.02c0-0.517,0.419-0.936,0.936-0.936h5.379C381.716,178.9,382.134,179.32,382.134,179.836z
				"/>
			<path id="XMLID_2947_" style="fill:#5C6BC0;" d="M394.948,179.836v76.02c0,0.517-0.419,0.936-0.936,0.936h-5.379
				c-0.517,0-0.936-0.419-0.936-0.936v-76.02c0-0.517,0.419-0.936,0.936-0.936h5.379C394.528,178.9,394.948,179.32,394.948,179.836z
				"/>
			<path id="XMLID_2946_" style="fill:#5C6BC0;" d="M407.761,179.836v76.02c0,0.517-0.419,0.936-0.936,0.936h-5.379
				c-0.517,0-0.936-0.419-0.936-0.936v-76.02c0-0.517,0.419-0.936,0.936-0.936h5.379C407.342,178.9,407.761,179.32,407.761,179.836z
				"/>
		</g>
	</g>
	<path id="XMLID_3355_" style="fill:#283593;" d="M546.508,69.76H316.34c-6.524,0-11.812,5.289-11.812,11.812v65.963
		c0,6.525,5.289,11.813,11.812,11.813h230.168c6.524,0,11.813-5.289,11.813-11.813V81.572
		C558.321,75.048,553.031,69.76,546.508,69.76z"/>
	<g id="XMLID_3335_">
		<g id="XMLID_3349_">
			<circle id="XMLID_3354_" style="fill:#FFFEFF;" cx="432.983" cy="97.419" r="4.678"/>
			<circle id="XMLID_3353_" style="fill:#FFFEFF;" cx="432.983" cy="114.553" r="4.678"/>
			<circle id="XMLID_3352_" style="fill:#FFFEFF;" cx="432.983" cy="80.285" r="4.678"/>
			<circle id="XMLID_3351_" style="fill:#FFFEFF;" cx="432.983" cy="131.688" r="4.678"/>
			<circle id="XMLID_3350_" style="fill:#FFFEFF;" cx="432.983" cy="148.822" r="4.678"/>
		</g>
		<g id="XMLID_3344_">
			<path id="XMLID_3348_" style="fill:#5C6BC0;" d="M537.799,82.859h-76.02c-0.517,0-0.936-0.419-0.936-0.936v-5.379
				c0-0.517,0.419-0.936,0.936-0.936h76.02c0.517,0,0.936,0.419,0.936,0.936v5.379C538.735,82.439,538.316,82.859,537.799,82.859z"
				/>
			<path id="XMLID_3347_" style="fill:#5C6BC0;" d="M527.976,131.98h-56.372c-5.942,0-10.759,4.817-10.759,10.76
				c0,5.943,4.818,10.76,10.759,10.76h56.372c5.942,0,10.759-4.817,10.759-10.76C538.735,136.797,533.919,131.98,527.976,131.98z"/>
			<path id="XMLID_3346_" style="fill:#5C6BC0;" d="M527.976,103.794h-56.372c-5.943,0-10.759,4.818-10.759,10.76
				c0,5.943,4.817,10.76,10.759,10.76h56.372c5.942,0,10.759-4.817,10.759-10.76C538.735,108.612,533.918,103.794,527.976,103.794z"
				/>
			<path id="XMLID_3345_" style="fill:#5C6BC0;" d="M537.799,95.122h-76.02c-0.517,0-0.936-0.419-0.936-0.936v-5.379
				c0-0.517,0.419-0.936,0.936-0.936h76.02c0.517,0,0.936,0.419,0.936,0.936v5.379C538.735,94.703,538.316,95.122,537.799,95.122z"
				/>
		</g>
		<g id="XMLID_3336_">
			<path id="XMLID_3343_" style="fill:#5C6BC0;" d="M331.364,76.543v76.02c0,0.517-0.419,0.936-0.936,0.936h-5.379
				c-0.517,0-0.936-0.419-0.936-0.936v-76.02c0-0.517,0.419-0.936,0.936-0.936h5.379C330.944,75.607,331.364,76.027,331.364,76.543z
				"/>
			<path id="XMLID_3342_" style="fill:#5C6BC0;" d="M344.177,76.543v76.02c0,0.517-0.419,0.936-0.936,0.936h-5.379
				c-0.517,0-0.936-0.419-0.936-0.936v-76.02c0-0.517,0.419-0.936,0.936-0.936h5.379C343.757,75.607,344.177,76.027,344.177,76.543z
				"/>
			<path id="XMLID_3341_" style="fill:#5C6BC0;" d="M356.99,76.543v76.02c0,0.517-0.419,0.936-0.936,0.936h-5.379
				c-0.517,0-0.936-0.419-0.936-0.936v-76.02c0-0.517,0.419-0.936,0.936-0.936h5.379C356.571,75.607,356.99,76.027,356.99,76.543z"
				/>
			<path id="XMLID_3340_" style="fill:#5C6BC0;" d="M369.803,76.543v76.02c0,0.517-0.419,0.936-0.936,0.936h-5.379
				c-0.517,0-0.936-0.419-0.936-0.936v-76.02c0-0.517,0.419-0.936,0.936-0.936h5.379C369.384,75.607,369.803,76.027,369.803,76.543z
				"/>
			<path id="XMLID_3339_" style="fill:#5C6BC0;" d="M382.617,76.543v76.02c0,0.517-0.419,0.936-0.936,0.936h-5.379
				c-0.517,0-0.936-0.419-0.936-0.936v-76.02c0-0.517,0.419-0.936,0.936-0.936h5.379C382.197,75.607,382.617,76.027,382.617,76.543z
				"/>
			<path id="XMLID_3338_" style="fill:#5C6BC0;" d="M395.43,76.543v76.02c0,0.517-0.419,0.936-0.936,0.936h-5.379
				c-0.517,0-0.936-0.419-0.936-0.936v-76.02c0-0.517,0.419-0.936,0.936-0.936h5.379C395.01,75.607,395.43,76.027,395.43,76.543z"/>
			<path id="XMLID_3337_" style="fill:#5C6BC0;" d="M408.243,76.543v76.02c0,0.517-0.419,0.936-0.936,0.936h-5.379
				c-0.517,0-0.936-0.419-0.936-0.936v-76.02c0-0.517,0.419-0.936,0.936-0.936h5.379C407.823,75.607,408.243,76.027,408.243,76.543z
				"/>
		</g>
	</g>
	<path id="XMLID_3334_" style="fill:#283593;" d="M543.871,282.797H313.703c-6.525,0-11.813,5.289-11.813,11.812v65.964
		c0,6.524,5.289,11.812,11.813,11.812h230.168c6.524,0,11.813-5.289,11.813-11.812v-65.964
		C555.683,288.087,550.394,282.797,543.871,282.797z"/>
	<g id="XMLID_2958_">
		<g id="XMLID_3247_">
			<ellipse id="XMLID_3333_" style="fill:#FFFEFF;" cx="430.403" cy="310.454" rx="4.679" ry="4.679"/>
			<ellipse id="XMLID_3332_" style="fill:#FFFEFF;" cx="430.403" cy="327.589" rx="4.679" ry="4.679"/>
			<path id="XMLID_3273_" style="fill:#FFFEFF;" d="M430.345,298.002c-2.584,0-4.678-2.094-4.678-4.679
				c0-2.584,2.094-4.678,4.678-4.678s4.678,2.094,4.678,4.678C435.024,295.907,432.929,298.002,430.345,298.002z"/>
			<ellipse id="XMLID_3271_" style="fill:#FFFEFF;" cx="430.405" cy="344.724" rx="4.679" ry="4.679"/>
			<ellipse id="XMLID_3260_" style="fill:#FFFEFF;" cx="430.406" cy="361.859" rx="4.679" ry="4.679"/>
		</g>
		<g id="XMLID_2982_">
			<path id="XMLID_2988_" style="fill:#5C6BC0;" d="M535.161,295.897h-76.02c-0.517,0-0.936-0.419-0.936-0.936v-5.379
				c0-0.517,0.419-0.936,0.936-0.936h76.02c0.517,0,0.937,0.419,0.937,0.936v5.379C536.098,295.478,535.679,295.897,535.161,295.897
				z"/>
			<path id="XMLID_2986_" style="fill:#5C6BC0;" d="M525.337,345.019h-56.372c-5.943,0-10.76,4.817-10.76,10.76
				s4.818,10.759,10.76,10.759h56.372c5.942,0,10.76-4.817,10.76-10.759C536.098,349.836,531.28,345.019,525.337,345.019z"/>
			<path id="XMLID_2985_" style="fill:#5C6BC0;" d="M525.337,316.832h-56.372c-5.943,0-10.76,4.817-10.76,10.76
				s4.818,10.759,10.76,10.759h56.372c5.942,0,10.76-4.817,10.76-10.759C536.098,321.649,531.28,316.832,525.337,316.832z"/>
			<path id="XMLID_2983_" style="fill:#5C6BC0;" d="M535.161,308.16h-76.02c-0.517,0-0.936-0.419-0.936-0.936v-5.379
				c0-0.517,0.419-0.936,0.936-0.936h76.02c0.517,0,0.937,0.419,0.937,0.936v5.379C536.098,307.741,535.679,308.16,535.161,308.16z"
				/>
		</g>
		<g id="XMLID_2974_">
			<path id="XMLID_2981_" style="fill:#5C6BC0;" d="M328.726,289.582v76.02c0,0.517-0.419,0.936-0.936,0.936h-5.379
				c-0.517,0-0.936-0.419-0.936-0.936v-76.02c0-0.517,0.419-0.936,0.936-0.936h5.379
				C328.306,288.646,328.726,289.066,328.726,289.582z"/>
			<path id="XMLID_2980_" style="fill:#5C6BC0;" d="M341.539,289.582v76.02c0,0.517-0.419,0.936-0.936,0.936h-5.379
				c-0.517,0-0.936-0.419-0.936-0.936v-76.02c0-0.517,0.419-0.936,0.936-0.936h5.379
				C341.12,288.646,341.539,289.066,341.539,289.582z"/>
			<path id="XMLID_2979_" style="fill:#5C6BC0;" d="M354.352,289.582v76.02c0,0.517-0.419,0.936-0.936,0.936h-5.379
				c-0.517,0-0.936-0.419-0.936-0.936v-76.02c0-0.517,0.419-0.936,0.936-0.936h5.379
				C353.933,288.646,354.352,289.066,354.352,289.582z"/>
			<path id="XMLID_2978_" style="fill:#5C6BC0;" d="M367.165,289.582v76.02c0,0.517-0.419,0.936-0.936,0.936h-5.379
				c-0.517,0-0.936-0.419-0.936-0.936v-76.02c0-0.517,0.419-0.936,0.936-0.936h5.379
				C366.746,288.646,367.165,289.066,367.165,289.582z"/>
			<path id="XMLID_2977_" style="fill:#5C6BC0;" d="M379.978,289.582v76.02c0,0.517-0.419,0.936-0.936,0.936h-5.379
				c-0.517,0-0.936-0.419-0.936-0.936v-76.02c0-0.517,0.419-0.936,0.936-0.936h5.379
				C379.559,288.646,379.978,289.066,379.978,289.582z"/>
			<path id="XMLID_2976_" style="fill:#5C6BC0;" d="M392.792,289.582v76.02c0,0.517-0.419,0.936-0.936,0.936h-5.379
				c-0.517,0-0.936-0.419-0.936-0.936v-76.02c0-0.517,0.419-0.936,0.936-0.936h5.379
				C392.372,288.646,392.792,289.066,392.792,289.582z"/>
			<path id="XMLID_2975_" style="fill:#5C6BC0;" d="M405.605,289.582v76.02c0,0.517-0.419,0.936-0.936,0.936h-5.379
				c-0.517,0-0.936-0.419-0.936-0.936v-76.02c0-0.517,0.419-0.936,0.936-0.936h5.379
				C405.185,288.646,405.605,289.066,405.605,289.582z"/>
		</g>
	</g>
</g>
<g>
	<g>
		<g>
			
				<linearGradient id="SVGID_1_" gradientUnits="userSpaceOnUse" x1="220.3724" y1="198.1608" x2="57.1163" y2="105.1162" gradientTransform="matrix(1 0 0 -1 0 800)">
				<stop  offset="0" style="stop-color:#512DA8"/>
				<stop  offset="1" style="stop-color:#B39DDB"/>
			</linearGradient>
			<path style="fill-rule:evenodd;clip-rule:evenodd;fill:url(#SVGID_1_);" d="M53.783,589.959h167.435
				c3.422,0,6.222,2.8,6.222,6.222V701.96c0,3.422-2.8,6.222-6.222,6.222H53.783c-3.422,0-6.222-2.8-6.222-6.222V596.181
				C47.561,592.76,50.361,589.959,53.783,589.959z"/>
			<rect x="56.894" y="602.304" style="fill-rule:evenodd;clip-rule:evenodd;fill:#FFFFFF;" width="161.212" height="86.545"/>
			<path style="fill-rule:evenodd;clip-rule:evenodd;fill:#6A7573;" d="M137.5,598.615c1.25,0,2.263-1.014,2.263-2.263
				s-1.013-2.262-2.263-2.262c-1.249,0-2.262,1.012-2.262,2.262C135.238,597.601,136.25,598.615,137.5,598.615z"/>
			<rect x="133.675" y="694.237" style="fill-rule:evenodd;clip-rule:evenodd;fill:#6A7573;" width="7.65" height="7.65"/>
			<polygon style="fill-rule:evenodd;clip-rule:evenodd;fill:#9575CD;" points="47.561,708.182 227.44,708.182 258.682,713.848 
				16.319,713.848 			"/>
			<path style="fill-rule:evenodd;clip-rule:evenodd;fill:#5E35B1;" d="M16.319,713.848h242.363v3.489
				c0,2.472-2.024,4.497-4.497,4.497H20.816c-2.473,0-4.497-2.023-4.497-4.497C16.319,717.337,16.319,713.848,16.319,713.848z"/>
			<rect x="113.022" y="716.305" style="fill-rule:evenodd;clip-rule:evenodd;fill:#9575CD;" width="48.956" height="3.121"/>
		</g>
	</g>
	<g style="opacity:0.5;">
		<g>
			<g>
				<rect x="70.965" y="611.951" style="fill-rule:evenodd;clip-rule:evenodd;fill:#F45556;" width="45.277" height="1.72"/>
				<rect x="70.965" y="616.203" style="fill-rule:evenodd;clip-rule:evenodd;fill:#23D0F3;" width="14.508" height="1.72"/>
				<rect x="70.965" y="620.444" style="fill-rule:evenodd;clip-rule:evenodd;fill:#FFFFFF;" width="23.397" height="1.72"/>
				<rect x="81.852" y="624.696" style="fill-rule:evenodd;clip-rule:evenodd;fill:#23D0F3;" width="13.654" height="1.72"/>
				<rect x="81.852" y="628.937" style="fill-rule:evenodd;clip-rule:evenodd;fill:#23D0F3;" width="13.654" height="1.72"/>
				<rect x="91.328" y="633.189" style="fill-rule:evenodd;clip-rule:evenodd;fill:#23D0F3;" width="13.279" height="1.72"/>
				<rect x="90.356" y="616.203" style="fill-rule:evenodd;clip-rule:evenodd;fill:#FFFFFF;" width="24.743" height="1.72"/>
				<rect x="118.624" y="616.203" style="fill-rule:evenodd;clip-rule:evenodd;fill:#CACACA;" width="11.816" height="1.72"/>
				<rect x="134.928" y="616.203" style="fill-rule:evenodd;clip-rule:evenodd;fill:#CACACA;" width="15.951" height="1.72"/>
				<rect x="98.272" y="620.444" style="fill-rule:evenodd;clip-rule:evenodd;fill:#23D0F3;" width="13.921" height="1.72"/>
				<rect x="99.672" y="624.696" style="fill-rule:evenodd;clip-rule:evenodd;fill:#FFFFFF;" width="7.97" height="1.72"/>
				<rect x="99.672" y="628.937" style="fill-rule:evenodd;clip-rule:evenodd;fill:#CACACA;" width="13.654" height="1.72"/>
				<rect x="111.434" y="624.696" style="fill-rule:evenodd;clip-rule:evenodd;fill:#CACACA;" width="15.171" height="1.72"/>
				<rect x="129.639" y="624.696" style="fill-rule:evenodd;clip-rule:evenodd;fill:#FFE032;" width="7.959" height="1.72"/>
				<rect x="141.017" y="624.696" style="fill-rule:evenodd;clip-rule:evenodd;fill:#CACACA;" width="9.861" height="1.72"/>
				<rect x="116.359" y="628.937" style="fill-rule:evenodd;clip-rule:evenodd;fill:#FFFFFF;" width="17.243" height="1.72"/>
				<rect x="136.178" y="628.937" style="fill-rule:evenodd;clip-rule:evenodd;fill:#CACACA;" width="5.15" height="1.72"/>
				<rect x="108.4" y="633.189" style="fill-rule:evenodd;clip-rule:evenodd;fill:#F45556;" width="9.872" height="1.72"/>
				<rect x="81.852" y="641.683" style="fill-rule:evenodd;clip-rule:evenodd;fill:#23D0F3;" width="13.654" height="1.72"/>
				<rect x="81.852" y="645.935" style="fill-rule:evenodd;clip-rule:evenodd;fill:#23D0F3;" width="13.654" height="1.72"/>
				<rect x="99.672" y="641.683" style="fill-rule:evenodd;clip-rule:evenodd;fill:#CACACA;" width="7.97" height="1.72"/>
				<rect x="99.672" y="645.935" style="fill-rule:evenodd;clip-rule:evenodd;fill:#FFFFFF;" width="12.297" height="1.72"/>
				<rect x="111.434" y="641.683" style="fill-rule:evenodd;clip-rule:evenodd;fill:#CACACA;" width="11.666" height="1.72"/>
				<rect x="125.43" y="641.683" style="fill-rule:evenodd;clip-rule:evenodd;fill:#FFFFFF;" width="6.132" height="1.72"/>
				<rect x="134.19" y="641.683" style="fill-rule:evenodd;clip-rule:evenodd;fill:#CACACA;" width="7.586" height="1.72"/>
				<rect x="123.934" y="645.935" style="fill-rule:evenodd;clip-rule:evenodd;fill:#CACACA;" width="13.664" height="1.72"/>
				<rect x="81.852" y="650.177" style="fill-rule:evenodd;clip-rule:evenodd;fill:#23D0F3;" width="13.654" height="1.72"/>
				<rect x="81.852" y="654.429" style="fill-rule:evenodd;clip-rule:evenodd;fill:#23D0F3;" width="13.654" height="1.72"/>
				<rect x="99.672" y="650.177" style="fill-rule:evenodd;clip-rule:evenodd;fill:#CACACA;" width="7.97" height="1.72"/>
				<rect x="99.672" y="654.429" style="fill-rule:evenodd;clip-rule:evenodd;fill:#FFFFFF;" width="25.032" height="1.72"/>
				<rect x="111.434" y="650.177" style="fill-rule:evenodd;clip-rule:evenodd;fill:#FFFFFF;" width="15.171" height="1.72"/>
				<rect x="129.639" y="650.177" style="fill-rule:evenodd;clip-rule:evenodd;fill:#CACACA;" width="7.959" height="1.72"/>
				<rect x="141.017" y="650.177" style="fill-rule:evenodd;clip-rule:evenodd;fill:#CACACA;" width="9.861" height="1.72"/>
				<rect x="127.737" y="654.429" style="fill-rule:evenodd;clip-rule:evenodd;fill:#CACACA;" width="14.038" height="1.72"/>
				<rect x="114.704" y="645.935" style="fill-rule:evenodd;clip-rule:evenodd;fill:#FFE032;" width="5.812" height="1.72"/>
				<rect x="70.965" y="662.922" style="fill-rule:evenodd;clip-rule:evenodd;fill:#23D0F3;" width="14.508" height="1.72"/>
				<rect x="70.965" y="667.163" style="fill-rule:evenodd;clip-rule:evenodd;fill:#FFFFFF;" width="23.397" height="1.72"/>
				<rect x="81.852" y="671.415" style="fill-rule:evenodd;clip-rule:evenodd;fill:#23D0F3;" width="13.654" height="1.72"/>
				<rect x="81.852" y="675.657" style="fill-rule:evenodd;clip-rule:evenodd;fill:#23D0F3;" width="13.654" height="1.731"/>
				<rect x="91.328" y="679.909" style="fill-rule:evenodd;clip-rule:evenodd;fill:#23D0F3;" width="13.279" height="1.72"/>
				<rect x="90.356" y="662.922" style="fill-rule:evenodd;clip-rule:evenodd;fill:#F45556;" width="13.729" height="1.72"/>
				<rect x="107.599" y="662.922" style="fill-rule:evenodd;clip-rule:evenodd;fill:#CACACA;" width="6.934" height="1.72"/>
				<rect x="119.02" y="662.922" style="fill-rule:evenodd;clip-rule:evenodd;fill:#FFFFFF;" width="22.051" height="1.72"/>
				<rect x="98.272" y="667.163" style="fill-rule:evenodd;clip-rule:evenodd;fill:#23D0F3;" width="13.921" height="1.72"/>
				<rect x="99.672" y="671.415" style="fill-rule:evenodd;clip-rule:evenodd;fill:#CACACA;" width="15.555" height="1.72"/>
				<rect x="99.672" y="675.657" style="fill-rule:evenodd;clip-rule:evenodd;fill:#CACACA;" width="10.619" height="1.731"/>
				<rect x="119.02" y="671.415" style="fill-rule:evenodd;clip-rule:evenodd;fill:#FFE032;" width="11.56" height="1.72"/>
				<rect x="113.325" y="675.657" style="fill-rule:evenodd;clip-rule:evenodd;fill:#FFFFFF;" width="20.278" height="1.731"/>
				<rect x="136.178" y="675.657" style="fill-rule:evenodd;clip-rule:evenodd;fill:#CACACA;" width="5.15" height="1.731"/>
				<rect x="108.4" y="679.909" style="fill-rule:evenodd;clip-rule:evenodd;fill:#CACACA;" width="9.872" height="1.72"/>
				<rect x="120.462" y="679.909" style="fill-rule:evenodd;clip-rule:evenodd;fill:#CACACA;" width="18.376" height="1.72"/>
				<rect x="141.573" y="679.909" style="fill-rule:evenodd;clip-rule:evenodd;fill:#FFFFFF;" width="5.492" height="1.72"/>
			</g>
		</g>
		<g>
			<g>
				<rect x="124.722" y="616.203" style="fill-rule:evenodd;clip-rule:evenodd;fill:#23D0F3;" width="14.508" height="1.72"/>
				<rect x="124.722" y="620.444" style="fill-rule:evenodd;clip-rule:evenodd;fill:#FFFFFF;" width="23.397" height="1.72"/>
				<rect x="135.609" y="624.696" style="fill-rule:evenodd;clip-rule:evenodd;fill:#23D0F3;" width="13.654" height="1.72"/>
				<rect x="135.609" y="628.937" style="fill-rule:evenodd;clip-rule:evenodd;fill:#23D0F3;" width="13.654" height="1.72"/>
				<rect x="145.085" y="633.189" style="fill-rule:evenodd;clip-rule:evenodd;fill:#23D0F3;" width="13.279" height="1.72"/>
				<rect x="144.113" y="616.203" style="fill-rule:evenodd;clip-rule:evenodd;fill:#FFFFFF;" width="24.743" height="1.72"/>
				<rect x="172.382" y="616.203" style="fill-rule:evenodd;clip-rule:evenodd;fill:#CACACA;" width="11.816" height="1.72"/>
				<rect x="188.685" y="616.203" style="fill-rule:evenodd;clip-rule:evenodd;fill:#CACACA;" width="15.951" height="1.72"/>
				<rect x="152.029" y="620.444" style="fill-rule:evenodd;clip-rule:evenodd;fill:#23D0F3;" width="13.921" height="1.72"/>
				<rect x="153.429" y="624.696" style="fill-rule:evenodd;clip-rule:evenodd;fill:#FFFFFF;" width="7.97" height="1.72"/>
				<rect x="153.429" y="628.937" style="fill-rule:evenodd;clip-rule:evenodd;fill:#CACACA;" width="13.654" height="1.72"/>
				<rect x="165.192" y="624.696" style="fill-rule:evenodd;clip-rule:evenodd;fill:#CACACA;" width="15.171" height="1.72"/>
				<rect x="183.397" y="624.696" style="fill-rule:evenodd;clip-rule:evenodd;fill:#FFE032;" width="7.959" height="1.72"/>
				<rect x="194.775" y="624.696" style="fill-rule:evenodd;clip-rule:evenodd;fill:#CACACA;" width="9.861" height="1.72"/>
				<rect x="170.117" y="628.937" style="fill-rule:evenodd;clip-rule:evenodd;fill:#FFFFFF;" width="17.243" height="1.72"/>
				<rect x="189.935" y="628.937" style="fill-rule:evenodd;clip-rule:evenodd;fill:#CACACA;" width="5.15" height="1.72"/>
				<rect x="162.157" y="633.189" style="fill-rule:evenodd;clip-rule:evenodd;fill:#F45556;" width="9.872" height="1.72"/>
				<rect x="135.609" y="641.683" style="fill-rule:evenodd;clip-rule:evenodd;fill:#23D0F3;" width="13.654" height="1.72"/>
				<rect x="135.609" y="645.935" style="fill-rule:evenodd;clip-rule:evenodd;fill:#23D0F3;" width="13.654" height="1.72"/>
				<rect x="153.429" y="641.683" style="fill-rule:evenodd;clip-rule:evenodd;fill:#CACACA;" width="7.97" height="1.72"/>
				<rect x="153.429" y="645.935" style="fill-rule:evenodd;clip-rule:evenodd;fill:#FFFFFF;" width="12.297" height="1.72"/>
				<rect x="165.192" y="641.683" style="fill-rule:evenodd;clip-rule:evenodd;fill:#CACACA;" width="11.666" height="1.72"/>
				<rect x="179.187" y="641.683" style="fill-rule:evenodd;clip-rule:evenodd;fill:#FFFFFF;" width="6.132" height="1.72"/>
				<rect x="187.948" y="641.683" style="fill-rule:evenodd;clip-rule:evenodd;fill:#CACACA;" width="7.586" height="1.72"/>
				<rect x="177.692" y="645.935" style="fill-rule:evenodd;clip-rule:evenodd;fill:#CACACA;" width="13.664" height="1.72"/>
				<rect x="135.609" y="650.177" style="fill-rule:evenodd;clip-rule:evenodd;fill:#23D0F3;" width="13.654" height="1.72"/>
				<rect x="135.609" y="654.429" style="fill-rule:evenodd;clip-rule:evenodd;fill:#23D0F3;" width="13.654" height="1.72"/>
				<rect x="153.429" y="650.177" style="fill-rule:evenodd;clip-rule:evenodd;fill:#CACACA;" width="7.97" height="1.72"/>
				<rect x="153.429" y="654.429" style="fill-rule:evenodd;clip-rule:evenodd;fill:#FFFFFF;" width="25.032" height="1.72"/>
				<rect x="165.192" y="650.177" style="fill-rule:evenodd;clip-rule:evenodd;fill:#FFFFFF;" width="15.171" height="1.72"/>
				<rect x="183.397" y="650.177" style="fill-rule:evenodd;clip-rule:evenodd;fill:#CACACA;" width="7.959" height="1.72"/>
				<rect x="194.775" y="650.177" style="fill-rule:evenodd;clip-rule:evenodd;fill:#CACACA;" width="9.861" height="1.72"/>
				<rect x="181.495" y="654.429" style="fill-rule:evenodd;clip-rule:evenodd;fill:#CACACA;" width="14.038" height="1.72"/>
				<rect x="168.461" y="645.935" style="fill-rule:evenodd;clip-rule:evenodd;fill:#FFE032;" width="5.812" height="1.72"/>
				<rect x="124.722" y="662.922" style="fill-rule:evenodd;clip-rule:evenodd;fill:#23D0F3;" width="14.508" height="1.72"/>
				<rect x="124.722" y="667.163" style="fill-rule:evenodd;clip-rule:evenodd;fill:#FFFFFF;" width="23.397" height="1.72"/>
				<rect x="135.609" y="671.415" style="fill-rule:evenodd;clip-rule:evenodd;fill:#23D0F3;" width="13.654" height="1.72"/>
				<rect x="135.609" y="675.657" style="fill-rule:evenodd;clip-rule:evenodd;fill:#23D0F3;" width="13.654" height="1.731"/>
				<rect x="145.085" y="679.909" style="fill-rule:evenodd;clip-rule:evenodd;fill:#23D0F3;" width="13.279" height="1.72"/>
				<rect x="144.113" y="662.922" style="fill-rule:evenodd;clip-rule:evenodd;fill:#F45556;" width="13.729" height="1.72"/>
				<rect x="161.356" y="662.922" style="fill-rule:evenodd;clip-rule:evenodd;fill:#CACACA;" width="6.934" height="1.72"/>
				<rect x="172.777" y="662.922" style="fill-rule:evenodd;clip-rule:evenodd;fill:#FFFFFF;" width="22.051" height="1.72"/>
				<rect x="152.029" y="667.163" style="fill-rule:evenodd;clip-rule:evenodd;fill:#23D0F3;" width="13.921" height="1.72"/>
				<rect x="153.429" y="671.415" style="fill-rule:evenodd;clip-rule:evenodd;fill:#CACACA;" width="15.555" height="1.72"/>
				<rect x="153.429" y="675.657" style="fill-rule:evenodd;clip-rule:evenodd;fill:#CACACA;" width="10.619" height="1.731"/>
				<rect x="172.777" y="671.415" style="fill-rule:evenodd;clip-rule:evenodd;fill:#FFE032;" width="11.56" height="1.72"/>
				<rect x="167.082" y="675.657" style="fill-rule:evenodd;clip-rule:evenodd;fill:#FFFFFF;" width="20.278" height="1.731"/>
				<rect x="189.935" y="675.657" style="fill-rule:evenodd;clip-rule:evenodd;fill:#CACACA;" width="5.15" height="1.731"/>
				<rect x="162.157" y="679.909" style="fill-rule:evenodd;clip-rule:evenodd;fill:#CACACA;" width="9.872" height="1.72"/>
				<rect x="174.219" y="679.909" style="fill-rule:evenodd;clip-rule:evenodd;fill:#CACACA;" width="18.376" height="1.72"/>
				<rect x="195.33" y="679.909" style="fill-rule:evenodd;clip-rule:evenodd;fill:#FFFFFF;" width="5.492" height="1.72"/>
			</g>
		</g>
	</g>
</g>
<g>
	<g>
		<polygon style="fill-rule:evenodd;clip-rule:evenodd;fill:#6A1B9A;" points="447.535,700.788 487.57,700.788 506.336,739.245 
			428.769,739.245 		"/>
		
			<linearGradient id="SVGID_2_" gradientUnits="userSpaceOnUse" x1="467.5525" y1="91.4812" x2="467.5525" y2="219.5107" gradientTransform="matrix(1 0 0 -1 0 800)">
			<stop  offset="0" style="stop-color:#4527A0"/>
			<stop  offset="1" style="stop-color:#9575CD"/>
		</linearGradient>
		<path style="fill-rule:evenodd;clip-rule:evenodd;fill:url(#SVGID_2_);" d="M373.213,572.547h188.678
			c5.31,0,9.654,4.915,9.654,10.921v116.149c0,6.007-4.344,10.921-9.654,10.921H373.213c-5.31,0-9.653-4.915-9.653-10.921V583.468
			C363.56,577.462,367.904,572.547,373.213,572.547z"/>
		<rect x="369.967" y="578.917" style="fill-rule:evenodd;clip-rule:evenodd;fill:#FFFFFF;" width="195.171" height="112.12"/>
		<path style="fill-rule:evenodd;clip-rule:evenodd;fill:#808281;" d="M559.823,702.306c0.69,0,1.254-0.637,1.254-1.418
			c0-0.781-0.563-1.418-1.254-1.418c-0.69,0-1.254,0.637-1.254,1.418C558.569,701.668,559.133,702.306,559.823,702.306z"/>
		<path style="fill-rule:evenodd;clip-rule:evenodd;fill:#808281;" d="M554.928,702.306c0.691,0,1.254-0.637,1.254-1.418
			c0-0.781-0.563-1.418-1.254-1.418c-0.69,0-1.254,0.637-1.254,1.418C553.674,701.668,554.237,702.306,554.928,702.306z"/>
		<path style="fill-rule:evenodd;clip-rule:evenodd;fill:#808281;" d="M550.034,702.306c0.69,0,1.254-0.637,1.254-1.418
			c0-0.781-0.563-1.418-1.254-1.418c-0.691,0-1.254,0.637-1.254,1.418C548.78,701.668,549.343,702.306,550.034,702.306z"/>
		<path style="fill-rule:evenodd;clip-rule:evenodd;fill:#AB47BC;" d="M352.41,727.623h230.285c2.826,0,5.137,2.614,5.137,5.811l0,0
			c0,3.196-2.312,5.812-5.137,5.812H352.41c-2.826,0-5.137-2.615-5.137-5.812l0,0C347.272,730.238,349.585,727.623,352.41,727.623z"
			/>
		<path style="fill-rule:evenodd;clip-rule:evenodd;fill:#BA68C8;" d="M587.832,733.434c0,3.196-2.312,5.812-5.137,5.812H352.41
			c-2.827,0-5.137-2.615-5.137-5.812H587.832z"/>
	</g>
	<g>
		<g>
			<g>
				<rect x="451.951" y="592.614" style="fill-rule:evenodd;clip-rule:evenodd;fill:#F45556;" width="55.602" height="2.145"/>
				<rect x="451.951" y="597.917" style="fill-rule:evenodd;clip-rule:evenodd;fill:#23D0F3;" width="17.817" height="2.145"/>
				<rect x="451.951" y="603.207" style="fill-rule:evenodd;clip-rule:evenodd;fill:#FFFFFF;" width="28.733" height="2.145"/>
				<rect x="465.32" y="608.511" style="fill-rule:evenodd;clip-rule:evenodd;fill:#23D0F3;" width="16.767" height="2.145"/>
				<rect x="465.32" y="613.801" style="fill-rule:evenodd;clip-rule:evenodd;fill:#23D0F3;" width="16.767" height="2.145"/>
				<rect x="476.958" y="619.104" style="fill-rule:evenodd;clip-rule:evenodd;fill:#23D0F3;" width="16.308" height="2.145"/>
				<rect x="475.764" y="597.917" style="fill-rule:evenodd;clip-rule:evenodd;fill:#FFFFFF;" width="30.386" height="2.145"/>
				<rect x="510.48" y="597.917" style="fill-rule:evenodd;clip-rule:evenodd;fill:#CACACA;" width="14.511" height="2.145"/>
				<rect x="530.5" y="597.917" style="fill-rule:evenodd;clip-rule:evenodd;fill:#CACACA;" width="19.588" height="2.145"/>
				<rect x="485.486" y="603.207" style="fill-rule:evenodd;clip-rule:evenodd;fill:#23D0F3;" width="17.096" height="2.145"/>
				<rect x="487.204" y="608.511" style="fill-rule:evenodd;clip-rule:evenodd;fill:#FFFFFF;" width="9.788" height="2.145"/>
				<rect x="487.204" y="613.801" style="fill-rule:evenodd;clip-rule:evenodd;fill:#CACACA;" width="16.768" height="2.145"/>
				<rect x="501.65" y="608.511" style="fill-rule:evenodd;clip-rule:evenodd;fill:#CACACA;" width="18.63" height="2.145"/>
				<rect x="524.006" y="608.511" style="fill-rule:evenodd;clip-rule:evenodd;fill:#FFE032;" width="9.774" height="2.145"/>
				<rect x="537.979" y="608.511" style="fill-rule:evenodd;clip-rule:evenodd;fill:#CACACA;" width="12.11" height="2.145"/>
				<rect x="507.698" y="613.801" style="fill-rule:evenodd;clip-rule:evenodd;fill:#FFFFFF;" width="21.176" height="2.145"/>
				<rect x="532.035" y="613.801" style="fill-rule:evenodd;clip-rule:evenodd;fill:#CACACA;" width="6.324" height="2.145"/>
				<rect x="497.923" y="619.104" style="fill-rule:evenodd;clip-rule:evenodd;fill:#F45556;" width="12.123" height="2.145"/>
				<rect x="465.32" y="629.698" style="fill-rule:evenodd;clip-rule:evenodd;fill:#23D0F3;" width="16.767" height="2.145"/>
				<rect x="465.32" y="635.001" style="fill-rule:evenodd;clip-rule:evenodd;fill:#23D0F3;" width="16.767" height="2.145"/>
				<rect x="487.204" y="629.698" style="fill-rule:evenodd;clip-rule:evenodd;fill:#CACACA;" width="9.788" height="2.145"/>
				<rect x="487.204" y="635.001" style="fill-rule:evenodd;clip-rule:evenodd;fill:#FFFFFF;" width="15.101" height="2.145"/>
				<rect x="501.65" y="629.698" style="fill-rule:evenodd;clip-rule:evenodd;fill:#CACACA;" width="14.326" height="2.145"/>
				<rect x="518.837" y="629.698" style="fill-rule:evenodd;clip-rule:evenodd;fill:#FFFFFF;" width="7.531" height="2.145"/>
				<rect x="529.595" y="629.698" style="fill-rule:evenodd;clip-rule:evenodd;fill:#CACACA;" width="9.315" height="2.145"/>
				<rect x="517" y="635.001" style="fill-rule:evenodd;clip-rule:evenodd;fill:#CACACA;" width="16.78" height="2.145"/>
				<rect x="465.32" y="640.291" style="fill-rule:evenodd;clip-rule:evenodd;fill:#23D0F3;" width="16.767" height="2.145"/>
				<rect x="465.32" y="645.595" style="fill-rule:evenodd;clip-rule:evenodd;fill:#23D0F3;" width="16.767" height="2.145"/>
				<rect x="487.204" y="640.291" style="fill-rule:evenodd;clip-rule:evenodd;fill:#CACACA;" width="9.788" height="2.145"/>
				<rect x="487.204" y="645.595" style="fill-rule:evenodd;clip-rule:evenodd;fill:#FFFFFF;" width="30.74" height="2.145"/>
				<rect x="501.65" y="640.291" style="fill-rule:evenodd;clip-rule:evenodd;fill:#FFFFFF;" width="18.63" height="2.145"/>
				<rect x="524.006" y="640.291" style="fill-rule:evenodd;clip-rule:evenodd;fill:#CACACA;" width="9.774" height="2.145"/>
				<rect x="537.979" y="640.291" style="fill-rule:evenodd;clip-rule:evenodd;fill:#CACACA;" width="12.11" height="2.145"/>
				<rect x="521.671" y="645.595" style="fill-rule:evenodd;clip-rule:evenodd;fill:#CACACA;" width="17.24" height="2.145"/>
				<rect x="505.665" y="635.001" style="fill-rule:evenodd;clip-rule:evenodd;fill:#FFE032;" width="7.137" height="2.145"/>
				<rect x="451.951" y="656.188" style="fill-rule:evenodd;clip-rule:evenodd;fill:#23D0F3;" width="17.817" height="2.145"/>
				<rect x="451.951" y="661.479" style="fill-rule:evenodd;clip-rule:evenodd;fill:#FFFFFF;" width="28.733" height="2.145"/>
				<rect x="465.32" y="666.782" style="fill-rule:evenodd;clip-rule:evenodd;fill:#23D0F3;" width="16.767" height="2.146"/>
				<rect x="465.32" y="672.072" style="fill-rule:evenodd;clip-rule:evenodd;fill:#23D0F3;" width="16.767" height="2.159"/>
				<rect x="476.958" y="677.376" style="fill-rule:evenodd;clip-rule:evenodd;fill:#23D0F3;" width="16.308" height="2.145"/>
				<rect x="475.764" y="656.188" style="fill-rule:evenodd;clip-rule:evenodd;fill:#F45556;" width="16.859" height="2.145"/>
				<rect x="496.94" y="656.188" style="fill-rule:evenodd;clip-rule:evenodd;fill:#CACACA;" width="8.515" height="2.145"/>
				<rect x="510.965" y="656.188" style="fill-rule:evenodd;clip-rule:evenodd;fill:#FFFFFF;" width="27.08" height="2.145"/>
				<rect x="485.486" y="661.479" style="fill-rule:evenodd;clip-rule:evenodd;fill:#23D0F3;" width="17.096" height="2.145"/>
				<rect x="487.204" y="666.782" style="fill-rule:evenodd;clip-rule:evenodd;fill:#CACACA;" width="19.103" height="2.146"/>
				<rect x="487.204" y="672.072" style="fill-rule:evenodd;clip-rule:evenodd;fill:#CACACA;" width="13.041" height="2.159"/>
				<rect x="510.965" y="666.782" style="fill-rule:evenodd;clip-rule:evenodd;fill:#FFE032;" width="14.195" height="2.146"/>
				<rect x="503.972" y="672.072" style="fill-rule:evenodd;clip-rule:evenodd;fill:#FFFFFF;" width="24.902" height="2.159"/>
				<rect x="532.035" y="672.072" style="fill-rule:evenodd;clip-rule:evenodd;fill:#CACACA;" width="6.324" height="2.159"/>
				<rect x="497.923" y="677.376" style="fill-rule:evenodd;clip-rule:evenodd;fill:#CACACA;" width="12.123" height="2.145"/>
				<rect x="512.736" y="677.376" style="fill-rule:evenodd;clip-rule:evenodd;fill:#CACACA;" width="22.567" height="2.145"/>
				<rect x="538.661" y="677.376" style="fill-rule:evenodd;clip-rule:evenodd;fill:#FFFFFF;" width="6.744" height="2.145"/>
			</g>
		</g>
		<g>
			<g>
				<rect x="383.823" y="592.614" style="fill-rule:evenodd;clip-rule:evenodd;fill:#F45556;" width="55.602" height="2.145"/>
				<rect x="383.823" y="597.917" style="fill-rule:evenodd;clip-rule:evenodd;fill:#23D0F3;" width="17.817" height="2.145"/>
				<rect x="383.823" y="603.207" style="fill-rule:evenodd;clip-rule:evenodd;fill:#FFFFFF;" width="28.733" height="2.145"/>
				<rect x="397.192" y="608.511" style="fill-rule:evenodd;clip-rule:evenodd;fill:#23D0F3;" width="16.767" height="2.145"/>
				<rect x="397.192" y="613.801" style="fill-rule:evenodd;clip-rule:evenodd;fill:#23D0F3;" width="16.767" height="2.145"/>
				<rect x="408.83" y="619.104" style="fill-rule:evenodd;clip-rule:evenodd;fill:#23D0F3;" width="16.308" height="2.145"/>
				<rect x="407.636" y="597.917" style="fill-rule:evenodd;clip-rule:evenodd;fill:#FFFFFF;" width="30.386" height="2.145"/>
				<rect x="442.352" y="597.917" style="fill-rule:evenodd;clip-rule:evenodd;fill:#CACACA;" width="14.511" height="2.145"/>
				<rect x="462.372" y="597.917" style="fill-rule:evenodd;clip-rule:evenodd;fill:#CACACA;" width="19.588" height="2.145"/>
				<rect x="417.358" y="603.207" style="fill-rule:evenodd;clip-rule:evenodd;fill:#23D0F3;" width="17.096" height="2.145"/>
				<rect x="419.077" y="608.511" style="fill-rule:evenodd;clip-rule:evenodd;fill:#FFFFFF;" width="9.788" height="2.145"/>
				<rect x="419.077" y="613.801" style="fill-rule:evenodd;clip-rule:evenodd;fill:#CACACA;" width="16.768" height="2.145"/>
				<rect x="433.522" y="608.511" style="fill-rule:evenodd;clip-rule:evenodd;fill:#CACACA;" width="18.63" height="2.145"/>
				<rect x="455.878" y="608.511" style="fill-rule:evenodd;clip-rule:evenodd;fill:#FFE032;" width="9.774" height="2.145"/>
				<rect x="469.851" y="608.511" style="fill-rule:evenodd;clip-rule:evenodd;fill:#CACACA;" width="12.11" height="2.145"/>
				<rect x="439.57" y="613.801" style="fill-rule:evenodd;clip-rule:evenodd;fill:#FFFFFF;" width="21.176" height="2.145"/>
				<rect x="463.908" y="613.801" style="fill-rule:evenodd;clip-rule:evenodd;fill:#CACACA;" width="6.324" height="2.145"/>
				<rect x="429.795" y="619.104" style="fill-rule:evenodd;clip-rule:evenodd;fill:#F45556;" width="12.123" height="2.145"/>
				<rect x="397.192" y="629.698" style="fill-rule:evenodd;clip-rule:evenodd;fill:#23D0F3;" width="16.767" height="2.145"/>
				<rect x="397.192" y="635.001" style="fill-rule:evenodd;clip-rule:evenodd;fill:#23D0F3;" width="16.767" height="2.145"/>
				<rect x="419.077" y="629.698" style="fill-rule:evenodd;clip-rule:evenodd;fill:#CACACA;" width="9.788" height="2.145"/>
				<rect x="419.077" y="635.001" style="fill-rule:evenodd;clip-rule:evenodd;fill:#FFFFFF;" width="15.101" height="2.145"/>
				<rect x="433.522" y="629.698" style="fill-rule:evenodd;clip-rule:evenodd;fill:#CACACA;" width="14.326" height="2.145"/>
				<rect x="450.709" y="629.698" style="fill-rule:evenodd;clip-rule:evenodd;fill:#FFFFFF;" width="7.531" height="2.145"/>
				<rect x="461.467" y="629.698" style="fill-rule:evenodd;clip-rule:evenodd;fill:#CACACA;" width="9.315" height="2.145"/>
				<rect x="448.872" y="635.001" style="fill-rule:evenodd;clip-rule:evenodd;fill:#CACACA;" width="16.78" height="2.145"/>
				<rect x="397.192" y="640.291" style="fill-rule:evenodd;clip-rule:evenodd;fill:#23D0F3;" width="16.767" height="2.145"/>
				<rect x="397.192" y="645.595" style="fill-rule:evenodd;clip-rule:evenodd;fill:#23D0F3;" width="16.767" height="2.145"/>
				<rect x="419.077" y="640.291" style="fill-rule:evenodd;clip-rule:evenodd;fill:#CACACA;" width="9.788" height="2.145"/>
				<rect x="419.077" y="645.595" style="fill-rule:evenodd;clip-rule:evenodd;fill:#FFFFFF;" width="30.74" height="2.145"/>
				<rect x="433.522" y="640.291" style="fill-rule:evenodd;clip-rule:evenodd;fill:#FFFFFF;" width="18.63" height="2.145"/>
				<rect x="455.878" y="640.291" style="fill-rule:evenodd;clip-rule:evenodd;fill:#CACACA;" width="9.774" height="2.145"/>
				<rect x="469.851" y="640.291" style="fill-rule:evenodd;clip-rule:evenodd;fill:#CACACA;" width="12.11" height="2.145"/>
				<rect x="453.543" y="645.595" style="fill-rule:evenodd;clip-rule:evenodd;fill:#CACACA;" width="17.24" height="2.145"/>
				<rect x="437.537" y="635.001" style="fill-rule:evenodd;clip-rule:evenodd;fill:#FFE032;" width="7.137" height="2.145"/>
				<rect x="383.823" y="656.188" style="fill-rule:evenodd;clip-rule:evenodd;fill:#23D0F3;" width="17.817" height="2.145"/>
				<rect x="383.823" y="661.479" style="fill-rule:evenodd;clip-rule:evenodd;fill:#FFFFFF;" width="28.733" height="2.145"/>
				<rect x="397.192" y="666.782" style="fill-rule:evenodd;clip-rule:evenodd;fill:#23D0F3;" width="16.767" height="2.146"/>
				<rect x="397.192" y="672.072" style="fill-rule:evenodd;clip-rule:evenodd;fill:#23D0F3;" width="16.767" height="2.159"/>
				<rect x="408.83" y="677.376" style="fill-rule:evenodd;clip-rule:evenodd;fill:#23D0F3;" width="16.308" height="2.145"/>
				<rect x="407.636" y="656.188" style="fill-rule:evenodd;clip-rule:evenodd;fill:#F45556;" width="16.859" height="2.145"/>
				<rect x="428.812" y="656.188" style="fill-rule:evenodd;clip-rule:evenodd;fill:#CACACA;" width="8.515" height="2.145"/>
				<rect x="442.837" y="656.188" style="fill-rule:evenodd;clip-rule:evenodd;fill:#FFFFFF;" width="27.08" height="2.145"/>
				<rect x="417.358" y="661.479" style="fill-rule:evenodd;clip-rule:evenodd;fill:#23D0F3;" width="17.096" height="2.145"/>
				<rect x="419.077" y="666.782" style="fill-rule:evenodd;clip-rule:evenodd;fill:#CACACA;" width="19.103" height="2.146"/>
				<rect x="419.077" y="672.072" style="fill-rule:evenodd;clip-rule:evenodd;fill:#CACACA;" width="13.041" height="2.159"/>
				<rect x="442.837" y="666.782" style="fill-rule:evenodd;clip-rule:evenodd;fill:#FFE032;" width="14.195" height="2.146"/>
				<rect x="435.844" y="672.072" style="fill-rule:evenodd;clip-rule:evenodd;fill:#FFFFFF;" width="24.902" height="2.159"/>
				<rect x="463.908" y="672.072" style="fill-rule:evenodd;clip-rule:evenodd;fill:#CACACA;" width="6.324" height="2.159"/>
				<rect x="429.795" y="677.376" style="fill-rule:evenodd;clip-rule:evenodd;fill:#CACACA;" width="12.123" height="2.145"/>
				<rect x="444.608" y="677.376" style="fill-rule:evenodd;clip-rule:evenodd;fill:#CACACA;" width="22.567" height="2.145"/>
				<rect x="470.533" y="677.376" style="fill-rule:evenodd;clip-rule:evenodd;fill:#FFFFFF;" width="6.744" height="2.145"/>
			</g>
		</g>
	</g>
</g>
<path style="fill:#FFFFFF;" d="M401.317,372.704h-4.008c-0.227-9.505-8.056-17.215-17.613-17.215h-1.912
	c-3.695-12.808-15.528-22.253-29.483-22.253l0,0c-13.955,0-25.788,9.446-29.483,22.253h-1.913c-9.557,0-17.385,7.71-17.613,17.215
	h-4.008c-9.814,0-17.845,8.029-17.845,17.845c0,9.814,8.03,17.845,17.845,17.845h106.034c9.814,0,17.844-8.03,17.844-17.845
	C419.161,380.734,411.132,372.704,401.317,372.704z"/>
<g>
	<g>
		
			<linearGradient id="SVGID_3_" gradientUnits="userSpaceOnUse" x1="742.4473" y1="93.7685" x2="742.4473" y2="195.7308" gradientTransform="matrix(1 0 0 -1 0 800)">
			<stop  offset="0" style="stop-color:#4527A0"/>
			<stop  offset="1" style="stop-color:#9575CD"/>
		</linearGradient>
		<path style="fill-rule:evenodd;clip-rule:evenodd;fill:url(#SVGID_3_);" d="M725.228,598.054h34.439
			c6.67,0,12.126,5.457,12.126,12.126v91.432c0,6.669-5.457,12.126-12.126,12.126h-34.439c-6.669,0-12.126-5.457-12.126-12.126
			V610.18C713.101,603.51,718.558,598.054,725.228,598.054z"/>
		<path style="fill-rule:evenodd;clip-rule:evenodd;fill:#FFFFFF;" d="M718.433,607.755h48.028c0.094,0,0.17,0.076,0.17,0.17v94.973
			c0,0.094-0.076,0.17-0.17,0.17h-48.028c-0.094,0-0.17-0.076-0.17-0.17v-94.973C718.263,607.831,718.339,607.755,718.433,607.755z"
			/>
		<path style="fill-rule:evenodd;clip-rule:evenodd;fill:#5085A1;" d="M733.549,600.916h17.795c0.483,0,0.877,0.395,0.877,0.877
			v0.001c0,0.483-0.395,0.877-0.877,0.877h-17.795c-0.483,0-0.877-0.395-0.877-0.877v-0.001
			C732.673,601.31,733.067,600.916,733.549,600.916z"/>
		<path style="fill-rule:evenodd;clip-rule:evenodd;fill:#5085A1;" d="M742.447,711.202c1.633,0,2.965-1.332,2.965-2.965
			c0-1.633-1.332-2.965-2.965-2.965s-2.965,1.332-2.965,2.965C739.482,709.871,740.814,711.202,742.447,711.202z"/>
	</g>
	<path style="fill:#303F9F;" d="M742.559,619.381c0.543,0.001,1.089,0.031,1.636,0.093l0.74-2.435l5.136,1.561l-0.74,2.435
		c1.863,0.964,3.457,2.295,4.717,3.874l2.244-1.198l2.528,4.736l-2.244,1.198c0.611,1.926,0.829,3.99,0.594,6.075l2.435,0.74
		l-1.561,5.136l-2.435-0.74c-0.965,1.863-2.295,3.457-3.874,4.717l1.198,2.245l-4.736,2.527l-1.198-2.244
		c-1.42,0.451-2.916,0.688-4.439,0.687v-3.846c4.656,0.002,8.962-3.015,10.387-7.701c1.744-5.737-1.493-11.801-7.229-13.545
		c-1.051-0.32-2.113-0.471-3.157-0.472v-3.844H742.559z M733.384,622.595l-1.198-2.244l4.735-2.528l1.199,2.245
		c1.419-0.451,2.915-0.688,4.439-0.687v3.845c-4.656-0.002-8.962,3.015-10.387,7.701c-1.744,5.736,1.492,11.8,7.229,13.544l0,0
		c1.051,0.32,2.114,0.471,3.158,0.472v3.846c-0.543-0.001-1.089-0.03-1.637-0.093l-0.74,2.435l-5.136-1.561l0.74-2.436
		c-1.863-0.964-3.457-2.294-4.716-3.874l-2.246,1.198l-2.527-4.736l2.244-1.199c-0.612-1.925-0.83-3.99-0.594-6.075l-2.435-0.74
		l1.562-5.137l2.435,0.74C730.474,625.449,731.804,623.856,733.384,622.595z"/>
	<g>
		<rect x="723.937" y="693.628" style="fill-rule:evenodd;clip-rule:evenodd;fill:#303F9F;" width="14.048" height="2.014"/>
		<rect x="723.937" y="685.535" style="fill-rule:evenodd;clip-rule:evenodd;fill:#303F9F;" width="7.374" height="2.015"/>
		<rect x="750.744" y="685.535" style="fill-rule:evenodd;clip-rule:evenodd;fill:#303F9F;" width="10.414" height="2.015"/>
		<rect x="723.937" y="678.568" style="fill-rule:evenodd;clip-rule:evenodd;fill:#303F9F;" width="5.417" height="2.015"/>
		<rect x="731.31" y="678.568" style="fill-rule:evenodd;clip-rule:evenodd;fill:#303F9F;" width="24.595" height="2.015"/>
		<rect x="723.937" y="671.602" style="fill-rule:evenodd;clip-rule:evenodd;fill:#303F9F;" width="13.323" height="2.015"/>
		<rect x="739.218" y="671.602" style="fill-rule:evenodd;clip-rule:evenodd;fill:#303F9F;" width="14.875" height="2.015"/>
		<rect x="723.937" y="664.635" style="fill-rule:evenodd;clip-rule:evenodd;fill:#303F9F;" width="5.417" height="2.015"/>
		<rect x="731.31" y="664.635" style="fill-rule:evenodd;clip-rule:evenodd;fill:#303F9F;" width="13.784" height="2.015"/>
		<rect x="723.937" y="657.669" style="fill-rule:evenodd;clip-rule:evenodd;fill:#303F9F;" width="11.392" height="2.015"/>
		<rect x="737.286" y="657.669" style="fill-rule:evenodd;clip-rule:evenodd;fill:#303F9F;" width="14.156" height="2.015"/>
		<rect x="733.268" y="685.535" style="fill-rule:evenodd;clip-rule:evenodd;fill:#303F9F;" width="15.314" height="2.015"/>
		<rect x="758.068" y="678.568" style="fill-rule:evenodd;clip-rule:evenodd;fill:#303F9F;" width="3.091" height="2.015"/>
		<rect x="756.254" y="671.602" style="fill-rule:evenodd;clip-rule:evenodd;fill:#303F9F;" width="4.904" height="2.015"/>
		<rect x="747.257" y="664.635" style="fill-rule:evenodd;clip-rule:evenodd;fill:#303F9F;" width="13.901" height="2.015"/>
		<rect x="753.604" y="657.669" style="fill-rule:evenodd;clip-rule:evenodd;fill:#303F9F;" width="7.554" height="2.015"/>
	</g>
</g>
<g>
	
		<ellipse transform="matrix(0.9742 -0.2258 0.2258 0.9742 -106.8531 80.7921)" style="fill:#1187D1;" cx="299.713" cy="507.447" rx="44.586" ry="44.586"/>
	<g>
		<g>
			<path style="fill:#92C1D1;" d="M313.359,500.273h-4.581v-5.249c0-4.999-4.066-9.065-9.066-9.065
				c-4.999,0-9.066,4.066-9.066,9.065v5.249h-4.581v-5.249c0-7.524,6.122-13.646,13.647-13.646c7.525,0,13.647,6.122,13.647,13.646
				V500.273z"/>
		</g>
		<rect x="279.726" y="499.862" style="fill:#FFB43B;" width="39.974" height="29.519"/>
		<path style="fill:#263247;" d="M302.787,511.547c0-1.698-1.377-3.075-3.075-3.075c-1.698,0-3.075,1.377-3.075,3.075
			c0,1.298,0.806,2.402,1.943,2.854l-0.75,6.371h3.762l-0.75-6.371C301.981,513.949,302.787,512.845,302.787,511.547z"/>
	</g>
</g>
<g>
	
		<ellipse transform="matrix(0.9743 -0.2253 0.2253 0.9743 -98.5845 150.6367)" style="fill:#5C6BC0;" cx="610.789" cy="507.31" rx="45.439" ry="45.439"/>
</g>
<g id="XMLID_1260_">
	<path id="XMLID_1793_" style="fill:#DFE5E1;" d="M610.789,479.26c0,0-7.128,7.818-18.944,9.312v21.613c0,0,0,14.6,18.944,25.176
		c18.944-10.576,18.944-25.176,18.944-25.176v-21.613C617.917,487.077,610.789,479.26,610.789,479.26z"/>
	<path id="XMLID_4079_" style="fill:#C8CCCA;" d="M629.733,488.573v21.612c0,0,0,10.183-11.034,19.692v-44.827
		C621.658,486.611,625.377,488.02,629.733,488.573z"/>
	<path id="XMLID_1769_" style="fill:#FC982B;" d="M610.791,529.703c-13.683-8.724-14.085-19.408-14.085-19.519v-17.591
		c6.266-1.574,11.074-4.557,14.083-6.87c3.01,2.313,7.816,5.296,14.083,6.87v17.59C624.861,510.59,624.429,521.027,610.791,529.703z
		"/>
	<path id="XMLID_4080_" style="fill:#ED8B2B;" d="M624.872,492.595v17.59c-0.012,0.365-0.365,8.883-10.426,16.909v-38.879
		C617.217,489.892,620.729,491.556,624.872,492.595z"/>
</g>
</svg>
