<?xml version="1.0" encoding="utf-8"?>
<!-- Generator: Adobe Illustrator 23.0.1, SVG Export Plug-In . SVG Version: 6.00 Build 0)  -->
<svg version="1.1" id="Layer_1" xmlns="http://www.w3.org/2000/svg" xmlns:xlink="http://www.w3.org/1999/xlink" x="0px" y="0px"
	 viewBox="0 0 800 800" style="enable-background:new 0 0 800 800;" xml:space="preserve">
<path style="fill:#FFAE00;" d="M736.674,134.333c0.933-8.268,0.068-16.453-2.355-24.089l8.9-4.749l-10.024-18.776l-8.898,4.748
	c-4.996-6.263-11.317-11.541-18.703-15.361l2.936-9.656l-20.363-6.19l-2.936,9.655c-2.169-0.246-4.334-0.367-6.487-0.368v-0.001
	c-6.041-0.004-11.97,0.935-17.598,2.724l-4.756-8.9l-18.774,10.023l4.749,8.898c-6.264,4.996-11.538,11.316-15.36,18.698
	l-9.655-2.935l-6.191,20.366l9.655,2.935c-0.934,8.268-0.07,16.453,2.355,24.086l-8.9,4.752l10.019,18.777l8.904-4.748
	c4.996,6.264,11.312,11.539,18.701,15.361l-2.936,9.657l20.363,6.19l2.936-9.656c2.17,0.247,4.335,0.367,6.488,0.368v0.003
	c6.039,0.005,11.97-0.935,17.6-2.722l4.749,8.898l18.776-10.02l-4.748-8.901c6.263-4.995,11.537-11.314,15.363-18.702l9.653,2.935
	l6.19-20.363L736.674,134.333z M714.907,138.839c-4.959,16.311-19.954,26.816-36.164,26.81v-0.002
	c-3.636-0.001-7.334-0.53-10.995-1.642c-19.972-6.072-31.24-27.184-25.169-47.157c4.959-16.315,19.952-26.82,36.163-26.814v0.002
	c3.637,0.002,7.334,0.531,10.993,1.643C709.708,97.75,720.979,118.864,714.907,138.839z"/>
<path style="fill:#0277BD;" d="M443.382,58.607c0.497-4.402,0.036-8.76-1.254-12.825l4.738-2.529l-5.337-9.997l-4.738,2.528
	c-2.66-3.334-6.025-6.144-9.958-8.179l1.563-5.141l-10.841-3.295l-1.563,5.14c-1.155-0.131-2.307-0.195-3.453-0.196v-0.001
	c-3.216-0.002-6.373,0.498-9.369,1.45l-2.532-4.738l-9.995,5.336l2.529,4.738c-3.335,2.66-6.143,6.025-8.178,9.955l-5.14-1.563
	l-3.296,10.843l5.14,1.563c-0.497,4.402-0.037,8.76,1.254,12.824l-4.738,2.53l5.334,9.997l4.741-2.528
	c2.66,3.335,6.022,6.144,9.956,8.179l-1.563,5.142l10.842,3.295l1.563-5.141c1.156,0.132,2.308,0.195,3.454,0.196v0.001
	c3.215,0.003,6.373-0.498,9.37-1.449l2.529,4.738l9.997-5.335l-2.528-4.739c3.334-2.659,6.142-6.024,8.179-9.957l5.139,1.563
	l3.295-10.842L443.382,58.607z M431.794,61.006c-2.64,8.684-10.623,14.277-19.254,14.274v-0.001
	c-1.936-0.001-3.905-0.282-5.854-0.874c-10.633-3.233-16.632-14.473-13.4-25.106c2.64-8.686,10.623-14.279,19.254-14.276v0.001
	c1.937,0.001,3.905,0.283,5.853,0.875C429.026,39.13,435.026,50.371,431.794,61.006z"/>
<g>
	<path style="fill:#B3D6F5;" d="M201.71,731.253c-2.574,0-5.177-0.376-7.728-1.151c-3.419-1.04-6.555-2.744-9.317-5.062
		c-11.196-9.396-12.663-26.154-3.264-37.356c5.129-6.11,12.597-9.477,20.309-9.476V659.06l-12.419,1.085l0.598,6.834
		c-4.47,1.394-8.607,3.546-12.316,6.409l-5.257-4.41l-10.911,13.006l5.254,4.411c-2.175,4.152-3.581,8.591-4.182,13.242l-6.83,0.596
		l1.479,16.915l6.833-0.6c1.393,4.474,3.544,8.609,6.412,12.317l-4.41,5.257l13.005,10.914l4.414-5.255
		c4.12,2.162,8.622,3.58,13.235,4.179l0.601,6.832l4.496-0.392h-0.003V731.253z"/>
	<path style="fill:#B3D6F5;" d="M240.943,709.821l6.839-0.593l-1.479-16.915l-6.834,0.6c-1.393-4.476-3.546-8.606-6.409-12.317
		l4.41-5.257l-13.009-10.914l-4.41,5.257c-4.125-2.165-8.631-3.583-13.244-4.182l-0.597-6.83l-4.495,0.391v19.149
		c2.575,0.001,5.178,0.377,7.729,1.153c3.415,1.037,6.55,2.741,9.317,5.06c11.199,9.4,12.659,26.154,3.266,37.354
		c-5.132,6.113-12.6,9.481-20.311,9.479v19.146l12.418-1.085l-0.594-6.832c4.472-1.394,8.6-3.548,12.312-6.415l5.252,4.413
		l10.919-13.008l-5.254-4.409C238.942,718.915,240.347,714.472,240.943,709.821z"/>
</g>
<path style="fill:#F06358;" d="M263.834,98.559c0.66,0.001,1.324,0.037,1.991,0.114l0.901-2.963l6.249,1.899l-0.901,2.963
	c2.267,1.172,4.207,2.792,5.739,4.714l2.73-1.457l3.076,5.762l-2.731,1.458c0.743,2.343,1.008,4.855,0.723,7.391l2.962,0.901
	l-1.899,6.249l-2.962-0.9c-1.174,2.267-2.792,4.206-4.714,5.739l1.458,2.731l-5.762,3.075l-1.458-2.731
	c-1.728,0.549-3.548,0.837-5.401,0.836v-4.679c5.664,0.002,10.905-3.668,12.638-9.368c2.122-6.98-1.817-14.357-8.796-16.48
	c-1.278-0.389-2.571-0.573-3.841-0.574v-4.678H263.834z M252.672,102.47l-1.458-2.73l5.761-3.076l1.459,2.731
	c1.727-0.548,3.547-0.837,5.4-0.836v4.678c-5.664-0.002-10.904,3.669-12.637,9.37c-2.122,6.979,1.816,14.356,8.795,16.478l0,0
	c1.279,0.389,2.572,0.573,3.842,0.574v4.679c-0.661-0.001-1.325-0.038-1.991-0.114l-0.901,2.963l-6.249-1.899l0.901-2.963
	c-2.267-1.173-4.205-2.792-5.738-4.714l-2.733,1.457l-3.074-5.762l2.731-1.458c-0.744-2.342-1.009-4.854-0.723-7.39l-2.962-0.901
	l1.9-6.25l2.961,0.901C249.132,105.942,250.75,104.003,252.672,102.47z"/>
<path style="fill:#F06358;" d="M629.233,722.691c0.805,0.001,1.614,0.045,2.428,0.138l1.098-3.613l7.619,2.316l-1.098,3.613
	c2.764,1.429,5.129,3.404,6.998,5.748l3.329-1.776l3.75,7.025l-3.33,1.777c0.906,2.857,1.23,5.92,0.882,9.012l3.612,1.098
	l-2.316,7.619l-3.612-1.097c-1.431,2.764-3.404,5.128-5.748,6.998l1.777,3.33l-7.025,3.749l-1.777-3.33
	c-2.107,0.669-4.326,1.021-6.585,1.019v-5.706c6.907,0.003,13.296-4.473,15.41-11.423c2.587-8.511-2.215-17.506-10.725-20.094
	c-1.559-0.474-3.135-0.699-4.684-0.7v-5.705H629.233z M615.622,727.459l-1.777-3.329l7.024-3.75l1.779,3.33
	c2.105-0.668,4.325-1.021,6.584-1.019v5.705c-6.907-0.003-13.295,4.474-15.409,11.425c-2.587,8.51,2.214,17.505,10.724,20.092l0,0
	c1.56,0.474,3.135,0.699,4.685,0.7v5.706c-0.806-0.001-1.615-0.046-2.428-0.138l-1.098,3.613l-7.619-2.316l1.098-3.613
	c-2.765-1.43-5.127-3.404-6.997-5.748l-3.332,1.776l-3.748-7.025l3.33-1.778c-0.907-2.856-1.231-5.919-0.882-9.011l-3.612-1.098
	l2.317-7.62l3.611,1.098C611.305,731.693,613.278,729.328,615.622,727.459z"/>
<g>
	<g>
		
			<linearGradient id="SVGID_1_" gradientUnits="userSpaceOnUse" x1="635.4227" y1="522.1322" x2="151.7688" y2="246.4833" gradientTransform="matrix(1 0 0 -1 0 800)">
			<stop  offset="0" style="stop-color:#512DA8"/>
			<stop  offset="1" style="stop-color:#B39DDB"/>
		</linearGradient>
		<path style="fill-rule:evenodd;clip-rule:evenodd;fill:url(#SVGID_1_);" d="M141.894,242.673h496.033
			c10.138,0,18.433,8.296,18.433,18.433v313.373c0,10.137-8.295,18.433-18.433,18.433H141.894c-10.138,0-18.433-8.296-18.433-18.433
			V261.106C123.46,250.97,131.755,242.673,141.894,242.673z"/>
		<rect x="151.109" y="279.244" style="fill-rule:evenodd;clip-rule:evenodd;fill:#FFFFFF;" width="477.599" height="256.394"/>
		<path style="fill-rule:evenodd;clip-rule:evenodd;fill:#6A7573;" d="M389.908,268.315c3.703,0,6.704-3.003,6.704-6.705
			c0-3.701-3.001-6.7-6.704-6.7c-3.702,0-6.7,2.998-6.7,6.7C383.209,265.312,386.207,268.315,389.908,268.315z"/>
		<rect x="378.578" y="551.599" style="fill-rule:evenodd;clip-rule:evenodd;fill:#6A7573;" width="22.662" height="22.663"/>
		<polygon style="fill-rule:evenodd;clip-rule:evenodd;fill:#9575CD;" points="123.46,592.914 656.36,592.914 748.917,609.7 
			30.904,609.7 		"/>
		<path style="fill-rule:evenodd;clip-rule:evenodd;fill:#5E35B1;" d="M30.904,609.7h718.012v10.335
			c0,7.325-5.997,13.321-13.323,13.321H44.227c-7.327,0-13.323-5.994-13.323-13.321C30.904,620.035,30.904,609.7,30.904,609.7z"/>
		<rect x="317.392" y="616.978" style="fill-rule:evenodd;clip-rule:evenodd;fill:#9575CD;" width="145.034" height="9.246"/>
	</g>
</g>
<g>
	<g>
		<g>
			<rect x="192.796" y="307.823" style="fill-rule:evenodd;clip-rule:evenodd;fill:#F45556;" width="134.136" height="5.096"/>
			<rect x="192.796" y="320.42" style="fill-rule:evenodd;clip-rule:evenodd;fill:#23D0F3;" width="42.982" height="5.096"/>
			<rect x="192.796" y="332.985" style="fill-rule:evenodd;clip-rule:evenodd;fill:#FFFFFF;" width="69.315" height="5.096"/>
			<rect x="225.049" y="345.582" style="fill-rule:evenodd;clip-rule:evenodd;fill:#23D0F3;" width="40.449" height="5.096"/>
			<rect x="225.049" y="358.147" style="fill-rule:evenodd;clip-rule:evenodd;fill:#23D0F3;" width="40.449" height="5.096"/>
			<rect x="253.122" y="370.744" style="fill-rule:evenodd;clip-rule:evenodd;fill:#23D0F3;" width="39.34" height="5.096"/>
			<rect x="250.242" y="320.42" style="fill-rule:evenodd;clip-rule:evenodd;fill:#FFFFFF;" width="73.303" height="5.096"/>
			<rect x="333.99" y="320.42" style="fill-rule:evenodd;clip-rule:evenodd;fill:#CACACA;" width="35.005" height="5.096"/>
			<rect x="382.288" y="320.42" style="fill-rule:evenodd;clip-rule:evenodd;fill:#CACACA;" width="47.255" height="5.096"/>
			<rect x="273.695" y="332.985" style="fill-rule:evenodd;clip-rule:evenodd;fill:#23D0F3;" width="41.241" height="5.096"/>
			<rect x="277.841" y="345.582" style="fill-rule:evenodd;clip-rule:evenodd;fill:#FFFFFF;" width="23.611" height="5.096"/>
			<rect x="277.841" y="358.147" style="fill-rule:evenodd;clip-rule:evenodd;fill:#CACACA;" width="40.449" height="5.096"/>
			<rect x="312.689" y="345.582" style="fill-rule:evenodd;clip-rule:evenodd;fill:#CACACA;" width="44.944" height="5.096"/>
			<rect x="366.622" y="345.582" style="fill-rule:evenodd;clip-rule:evenodd;fill:#FFE032;" width="23.579" height="5.096"/>
			<rect x="400.33" y="345.582" style="fill-rule:evenodd;clip-rule:evenodd;fill:#CACACA;" width="29.213" height="5.096"/>
			<rect x="327.279" y="358.147" style="fill-rule:evenodd;clip-rule:evenodd;fill:#FFFFFF;" width="51.084" height="5.096"/>
			<rect x="385.992" y="358.147" style="fill-rule:evenodd;clip-rule:evenodd;fill:#CACACA;" width="15.256" height="5.096"/>
			<rect x="303.699" y="370.744" style="fill-rule:evenodd;clip-rule:evenodd;fill:#F45556;" width="29.246" height="5.096"/>
			<rect x="225.049" y="395.907" style="fill-rule:evenodd;clip-rule:evenodd;fill:#23D0F3;" width="40.449" height="5.096"/>
			<rect x="225.049" y="408.504" style="fill-rule:evenodd;clip-rule:evenodd;fill:#23D0F3;" width="40.449" height="5.096"/>
			<rect x="277.841" y="395.907" style="fill-rule:evenodd;clip-rule:evenodd;fill:#CACACA;" width="23.611" height="5.096"/>
			<rect x="277.841" y="408.504" style="fill-rule:evenodd;clip-rule:evenodd;fill:#FFFFFF;" width="36.43" height="5.096"/>
			<rect x="312.689" y="395.907" style="fill-rule:evenodd;clip-rule:evenodd;fill:#CACACA;" width="34.562" height="5.096"/>
			<rect x="354.15" y="395.907" style="fill-rule:evenodd;clip-rule:evenodd;fill:#FFFFFF;" width="18.168" height="5.096"/>
			<rect x="380.104" y="395.907" style="fill-rule:evenodd;clip-rule:evenodd;fill:#CACACA;" width="22.473" height="5.096"/>
			<rect x="349.72" y="408.504" style="fill-rule:evenodd;clip-rule:evenodd;fill:#CACACA;" width="40.481" height="5.096"/>
			<rect x="225.049" y="421.069" style="fill-rule:evenodd;clip-rule:evenodd;fill:#23D0F3;" width="40.449" height="5.096"/>
			<rect x="225.049" y="433.666" style="fill-rule:evenodd;clip-rule:evenodd;fill:#23D0F3;" width="40.449" height="5.096"/>
			<rect x="277.841" y="421.069" style="fill-rule:evenodd;clip-rule:evenodd;fill:#CACACA;" width="23.611" height="5.096"/>
			<rect x="277.841" y="433.666" style="fill-rule:evenodd;clip-rule:evenodd;fill:#FFFFFF;" width="74.157" height="5.096"/>
			<rect x="312.689" y="421.069" style="fill-rule:evenodd;clip-rule:evenodd;fill:#FFFFFF;" width="44.944" height="5.096"/>
			<rect x="366.622" y="421.069" style="fill-rule:evenodd;clip-rule:evenodd;fill:#CACACA;" width="23.579" height="5.096"/>
			<rect x="400.33" y="421.069" style="fill-rule:evenodd;clip-rule:evenodd;fill:#CACACA;" width="29.213" height="5.096"/>
			<rect x="360.987" y="433.666" style="fill-rule:evenodd;clip-rule:evenodd;fill:#CACACA;" width="41.589" height="5.096"/>
			<rect x="322.374" y="408.504" style="fill-rule:evenodd;clip-rule:evenodd;fill:#FFE032;" width="17.218" height="5.096"/>
			<rect x="192.796" y="458.828" style="fill-rule:evenodd;clip-rule:evenodd;fill:#23D0F3;" width="42.982" height="5.096"/>
			<rect x="192.796" y="471.393" style="fill-rule:evenodd;clip-rule:evenodd;fill:#FFFFFF;" width="69.315" height="5.096"/>
			<rect x="225.049" y="483.99" style="fill-rule:evenodd;clip-rule:evenodd;fill:#23D0F3;" width="40.449" height="5.097"/>
			<rect x="225.049" y="496.556" style="fill-rule:evenodd;clip-rule:evenodd;fill:#23D0F3;" width="40.449" height="5.128"/>
			<rect x="253.122" y="509.153" style="fill-rule:evenodd;clip-rule:evenodd;fill:#23D0F3;" width="39.34" height="5.096"/>
			<rect x="250.242" y="458.828" style="fill-rule:evenodd;clip-rule:evenodd;fill:#F45556;" width="40.672" height="5.096"/>
			<rect x="301.326" y="458.828" style="fill-rule:evenodd;clip-rule:evenodd;fill:#CACACA;" width="20.541" height="5.096"/>
			<rect x="335.16" y="458.828" style="fill-rule:evenodd;clip-rule:evenodd;fill:#FFFFFF;" width="65.326" height="5.096"/>
			<rect x="273.695" y="471.393" style="fill-rule:evenodd;clip-rule:evenodd;fill:#23D0F3;" width="41.241" height="5.096"/>
			<rect x="277.841" y="483.99" style="fill-rule:evenodd;clip-rule:evenodd;fill:#CACACA;" width="46.083" height="5.097"/>
			<rect x="277.841" y="496.556" style="fill-rule:evenodd;clip-rule:evenodd;fill:#CACACA;" width="31.46" height="5.128"/>
			<rect x="335.16" y="483.99" style="fill-rule:evenodd;clip-rule:evenodd;fill:#FFE032;" width="34.246" height="5.097"/>
			<rect x="318.29" y="496.556" style="fill-rule:evenodd;clip-rule:evenodd;fill:#FFFFFF;" width="60.073" height="5.128"/>
			<rect x="385.992" y="496.556" style="fill-rule:evenodd;clip-rule:evenodd;fill:#CACACA;" width="15.256" height="5.128"/>
			<rect x="303.699" y="509.153" style="fill-rule:evenodd;clip-rule:evenodd;fill:#CACACA;" width="29.246" height="5.096"/>
			<rect x="339.433" y="509.153" style="fill-rule:evenodd;clip-rule:evenodd;fill:#CACACA;" width="54.441" height="5.096"/>
			<rect x="401.975" y="509.153" style="fill-rule:evenodd;clip-rule:evenodd;fill:#FFFFFF;" width="16.269" height="5.096"/>
		</g>
	</g>
	<g>
		<g>
			<rect x="352.055" y="320.42" style="fill-rule:evenodd;clip-rule:evenodd;fill:#23D0F3;" width="42.982" height="5.096"/>
			<rect x="352.055" y="332.985" style="fill-rule:evenodd;clip-rule:evenodd;fill:#FFFFFF;" width="69.315" height="5.096"/>
			<rect x="384.307" y="345.582" style="fill-rule:evenodd;clip-rule:evenodd;fill:#23D0F3;" width="40.449" height="5.096"/>
			<rect x="384.307" y="358.147" style="fill-rule:evenodd;clip-rule:evenodd;fill:#23D0F3;" width="40.449" height="5.096"/>
			<rect x="412.381" y="370.744" style="fill-rule:evenodd;clip-rule:evenodd;fill:#23D0F3;" width="39.34" height="5.096"/>
			<rect x="409.501" y="320.42" style="fill-rule:evenodd;clip-rule:evenodd;fill:#FFFFFF;" width="73.303" height="5.096"/>
			<rect x="493.248" y="320.42" style="fill-rule:evenodd;clip-rule:evenodd;fill:#CACACA;" width="35.005" height="5.096"/>
			<rect x="541.547" y="320.42" style="fill-rule:evenodd;clip-rule:evenodd;fill:#CACACA;" width="47.255" height="5.096"/>
			<rect x="432.953" y="332.985" style="fill-rule:evenodd;clip-rule:evenodd;fill:#23D0F3;" width="41.241" height="5.096"/>
			<rect x="437.099" y="345.582" style="fill-rule:evenodd;clip-rule:evenodd;fill:#FFFFFF;" width="23.611" height="5.096"/>
			<rect x="437.099" y="358.147" style="fill-rule:evenodd;clip-rule:evenodd;fill:#CACACA;" width="40.449" height="5.096"/>
			<rect x="471.948" y="345.582" style="fill-rule:evenodd;clip-rule:evenodd;fill:#CACACA;" width="44.944" height="5.096"/>
			<rect x="525.88" y="345.582" style="fill-rule:evenodd;clip-rule:evenodd;fill:#FFE032;" width="23.579" height="5.096"/>
			<rect x="559.588" y="345.582" style="fill-rule:evenodd;clip-rule:evenodd;fill:#CACACA;" width="29.213" height="5.096"/>
			<rect x="486.538" y="358.147" style="fill-rule:evenodd;clip-rule:evenodd;fill:#FFFFFF;" width="51.084" height="5.096"/>
			<rect x="545.25" y="358.147" style="fill-rule:evenodd;clip-rule:evenodd;fill:#CACACA;" width="15.256" height="5.096"/>
			<rect x="462.957" y="370.744" style="fill-rule:evenodd;clip-rule:evenodd;fill:#F45556;" width="29.246" height="5.096"/>
			<rect x="384.307" y="395.907" style="fill-rule:evenodd;clip-rule:evenodd;fill:#23D0F3;" width="40.449" height="5.096"/>
			<rect x="384.307" y="408.504" style="fill-rule:evenodd;clip-rule:evenodd;fill:#23D0F3;" width="40.449" height="5.096"/>
			<rect x="437.099" y="395.907" style="fill-rule:evenodd;clip-rule:evenodd;fill:#CACACA;" width="23.611" height="5.096"/>
			<rect x="437.099" y="408.504" style="fill-rule:evenodd;clip-rule:evenodd;fill:#FFFFFF;" width="36.43" height="5.096"/>
			<rect x="471.948" y="395.907" style="fill-rule:evenodd;clip-rule:evenodd;fill:#CACACA;" width="34.562" height="5.096"/>
			<rect x="513.409" y="395.907" style="fill-rule:evenodd;clip-rule:evenodd;fill:#FFFFFF;" width="18.168" height="5.096"/>
			<rect x="539.363" y="395.907" style="fill-rule:evenodd;clip-rule:evenodd;fill:#CACACA;" width="22.472" height="5.096"/>
			<rect x="508.979" y="408.504" style="fill-rule:evenodd;clip-rule:evenodd;fill:#CACACA;" width="40.481" height="5.096"/>
			<rect x="384.307" y="421.069" style="fill-rule:evenodd;clip-rule:evenodd;fill:#23D0F3;" width="40.449" height="5.096"/>
			<rect x="384.307" y="433.666" style="fill-rule:evenodd;clip-rule:evenodd;fill:#23D0F3;" width="40.449" height="5.096"/>
			<rect x="437.099" y="421.069" style="fill-rule:evenodd;clip-rule:evenodd;fill:#CACACA;" width="23.611" height="5.096"/>
			<rect x="437.099" y="433.666" style="fill-rule:evenodd;clip-rule:evenodd;fill:#FFFFFF;" width="74.157" height="5.096"/>
			<rect x="471.948" y="421.069" style="fill-rule:evenodd;clip-rule:evenodd;fill:#FFFFFF;" width="44.944" height="5.096"/>
			<rect x="525.88" y="421.069" style="fill-rule:evenodd;clip-rule:evenodd;fill:#CACACA;" width="23.579" height="5.096"/>
			<rect x="559.588" y="421.069" style="fill-rule:evenodd;clip-rule:evenodd;fill:#CACACA;" width="29.213" height="5.096"/>
			<rect x="520.245" y="433.666" style="fill-rule:evenodd;clip-rule:evenodd;fill:#CACACA;" width="41.589" height="5.096"/>
			<rect x="481.633" y="408.504" style="fill-rule:evenodd;clip-rule:evenodd;fill:#FFE032;" width="17.218" height="5.096"/>
			<rect x="352.055" y="458.828" style="fill-rule:evenodd;clip-rule:evenodd;fill:#23D0F3;" width="42.982" height="5.096"/>
			<rect x="352.055" y="471.393" style="fill-rule:evenodd;clip-rule:evenodd;fill:#FFFFFF;" width="69.315" height="5.096"/>
			<rect x="384.307" y="483.99" style="fill-rule:evenodd;clip-rule:evenodd;fill:#23D0F3;" width="40.449" height="5.097"/>
			<rect x="384.307" y="496.556" style="fill-rule:evenodd;clip-rule:evenodd;fill:#23D0F3;" width="40.449" height="5.128"/>
			<rect x="412.381" y="509.153" style="fill-rule:evenodd;clip-rule:evenodd;fill:#23D0F3;" width="39.34" height="5.096"/>
			<rect x="409.501" y="458.828" style="fill-rule:evenodd;clip-rule:evenodd;fill:#F45556;" width="40.672" height="5.096"/>
			<rect x="460.585" y="458.828" style="fill-rule:evenodd;clip-rule:evenodd;fill:#CACACA;" width="20.541" height="5.096"/>
			<rect x="494.419" y="458.828" style="fill-rule:evenodd;clip-rule:evenodd;fill:#FFFFFF;" width="65.326" height="5.096"/>
			<rect x="432.953" y="471.393" style="fill-rule:evenodd;clip-rule:evenodd;fill:#23D0F3;" width="41.241" height="5.096"/>
			<rect x="437.099" y="483.99" style="fill-rule:evenodd;clip-rule:evenodd;fill:#CACACA;" width="46.083" height="5.097"/>
			<rect x="437.099" y="496.556" style="fill-rule:evenodd;clip-rule:evenodd;fill:#CACACA;" width="31.46" height="5.128"/>
			<rect x="494.419" y="483.99" style="fill-rule:evenodd;clip-rule:evenodd;fill:#FFE032;" width="34.246" height="5.097"/>
			<rect x="477.549" y="496.556" style="fill-rule:evenodd;clip-rule:evenodd;fill:#FFFFFF;" width="60.073" height="5.128"/>
			<rect x="545.25" y="496.556" style="fill-rule:evenodd;clip-rule:evenodd;fill:#CACACA;" width="15.256" height="5.128"/>
			<rect x="462.957" y="509.153" style="fill-rule:evenodd;clip-rule:evenodd;fill:#CACACA;" width="29.246" height="5.096"/>
			<rect x="498.691" y="509.153" style="fill-rule:evenodd;clip-rule:evenodd;fill:#CACACA;" width="54.441" height="5.096"/>
			<rect x="561.233" y="509.153" style="fill-rule:evenodd;clip-rule:evenodd;fill:#FFFFFF;" width="16.269" height="5.096"/>
		</g>
	</g>
</g>
<g>
	<g>
		
			<linearGradient id="SVGID_2_" gradientUnits="userSpaceOnUse" x1="688.4907" y1="127.8424" x2="688.4907" y2="356.1741" gradientTransform="matrix(1 0 0 -1 0 800)">
			<stop  offset="0" style="stop-color:#4527A0"/>
			<stop  offset="1" style="stop-color:#9575CD"/>
		</linearGradient>
		<path style="fill-rule:evenodd;clip-rule:evenodd;fill:url(#SVGID_2_);" d="M649.929,429.908h77.121
			c14.936,0,27.155,12.219,27.155,27.155v204.751c0,14.935-12.219,27.155-27.155,27.155h-77.121
			c-14.935,0-27.154-12.221-27.154-27.155V457.063C622.774,442.127,634.993,429.908,649.929,429.908z"/>
		<path style="fill-rule:evenodd;clip-rule:evenodd;fill:#FFFFFF;" d="M634.714,451.632h107.552c0.21,0,0.38,0.171,0.38,0.38v212.68
			c0,0.21-0.171,0.38-0.38,0.38H634.714c-0.21,0-0.38-0.171-0.38-0.38v-212.68C634.333,451.802,634.504,451.632,634.714,451.632z"/>
		<path style="fill-rule:evenodd;clip-rule:evenodd;fill:#5085A1;" d="M668.565,436.316h39.849c1.081,0,1.963,0.884,1.963,1.963
			v0.001c0,1.081-0.884,1.963-1.963,1.963h-39.849c-1.081,0-1.963-0.884-1.963-1.963v-0.001
			C666.602,437.2,667.484,436.316,668.565,436.316z"/>
		<path style="fill-rule:evenodd;clip-rule:evenodd;fill:#5085A1;" d="M688.49,683.289c3.657,0,6.64-2.982,6.64-6.64
			c0-3.657-2.983-6.64-6.64-6.64s-6.64,2.982-6.64,6.64C681.85,680.307,684.834,683.289,688.49,683.289z"/>
	</g>
	<path style="fill:#303F9F;" d="M688.741,477.667c1.215,0.001,2.439,0.069,3.664,0.207l1.658-5.453l11.501,3.496l-1.658,5.453
		c4.171,2.158,7.742,5.139,10.564,8.676l5.025-2.682l5.662,10.605l-5.026,2.682c1.369,4.313,1.857,8.936,1.33,13.604l5.452,1.657
		l-3.496,11.501l-5.452-1.657c-2.161,4.172-5.139,7.742-8.676,10.563l2.682,5.027l-10.605,5.659l-2.682-5.025
		c-3.18,1.009-6.529,1.54-9.94,1.538v-8.612c10.426,0.004,20.07-6.753,23.26-17.244c3.906-12.847-3.343-26.427-16.189-30.331
		c-2.353-0.716-4.731-1.055-7.07-1.056v-8.608H688.741z M668.195,484.865l-2.682-5.025l10.604-5.66l2.686,5.026
		c3.178-1.01,6.528-1.541,9.94-1.538v8.61c-10.426-0.004-20.07,6.753-23.26,17.246c-3.906,12.846,3.342,26.424,16.188,30.33l0,0
		c2.354,0.716,4.733,1.055,7.072,1.056v8.612c-1.215-0.001-2.439-0.068-3.665-0.207l-1.658,5.453l-11.501-3.496l1.658-5.454
		c-4.172-2.158-7.74-5.138-10.561-8.676l-5.029,2.682l-5.658-10.605l5.026-2.684c-1.37-4.311-1.858-8.934-1.33-13.603l-5.453-1.657
		l3.497-11.503l5.453,1.658C661.678,491.256,664.657,487.687,668.195,484.865z"/>
	<g>
		<rect x="647.039" y="643.934" style="fill-rule:evenodd;clip-rule:evenodd;fill:#303F9F;" width="31.458" height="4.51"/>
		<rect x="647.039" y="625.811" style="fill-rule:evenodd;clip-rule:evenodd;fill:#303F9F;" width="16.513" height="4.511"/>
		<rect x="707.071" y="625.811" style="fill-rule:evenodd;clip-rule:evenodd;fill:#303F9F;" width="23.321" height="4.511"/>
		<rect x="647.039" y="610.21" style="fill-rule:evenodd;clip-rule:evenodd;fill:#303F9F;" width="12.13" height="4.511"/>
		<rect x="663.551" y="610.21" style="fill-rule:evenodd;clip-rule:evenodd;fill:#303F9F;" width="55.077" height="4.511"/>
		<rect x="647.039" y="594.609" style="fill-rule:evenodd;clip-rule:evenodd;fill:#303F9F;" width="29.836" height="4.511"/>
		<rect x="681.258" y="594.609" style="fill-rule:evenodd;clip-rule:evenodd;fill:#303F9F;" width="33.31" height="4.511"/>
		<rect x="647.039" y="579.008" style="fill-rule:evenodd;clip-rule:evenodd;fill:#303F9F;" width="12.13" height="4.511"/>
		<rect x="663.551" y="579.008" style="fill-rule:evenodd;clip-rule:evenodd;fill:#303F9F;" width="30.869" height="4.511"/>
		<rect x="647.039" y="563.407" style="fill-rule:evenodd;clip-rule:evenodd;fill:#303F9F;" width="25.511" height="4.511"/>
		<rect x="676.932" y="563.407" style="fill-rule:evenodd;clip-rule:evenodd;fill:#303F9F;" width="31.7" height="4.511"/>
		<rect x="667.936" y="625.811" style="fill-rule:evenodd;clip-rule:evenodd;fill:#303F9F;" width="34.294" height="4.511"/>
		<rect x="723.47" y="610.21" style="fill-rule:evenodd;clip-rule:evenodd;fill:#303F9F;" width="6.921" height="4.511"/>
		<rect x="719.41" y="594.609" style="fill-rule:evenodd;clip-rule:evenodd;fill:#303F9F;" width="10.982" height="4.511"/>
		<rect x="699.261" y="579.008" style="fill-rule:evenodd;clip-rule:evenodd;fill:#303F9F;" width="31.129" height="4.511"/>
		<rect x="713.475" y="563.407" style="fill-rule:evenodd;clip-rule:evenodd;fill:#303F9F;" width="16.917" height="4.511"/>
	</g>
</g>
<g>
	
		<radialGradient id="SVGID_3_" cx="140.4284" cy="607.481" r="139.3326" gradientTransform="matrix(1 0 0 -1 0 800)" gradientUnits="userSpaceOnUse">
		<stop  offset="0" style="stop-color:#64B5F6"/>
		<stop  offset="1" style="stop-color:#0D47A1"/>
	</radialGradient>
	<path style="fill:url(#SVGID_3_);" d="M170.547,270.411H56.755c-11.349,0-20.634-9.285-20.634-20.634v-79.78
		c0-11.349,9.285-20.634,20.634-20.634h113.791c11.349,0,20.634,9.285,20.634,20.634v79.78
		C191.181,261.126,181.896,270.411,170.547,270.411z"/>
	<path style="fill-rule:evenodd;clip-rule:evenodd;fill:#FFFFFF;" d="M55.408,214.017v-7.428l41.353-18.161v7.923l-32.734,13.865
		l32.734,14.193v7.927L55.408,214.017z M101.546,243.231l18.206-66.686h6.223l-18.198,66.686H101.546z M171.959,214.017
		l-41.19,18.322v-7.927l32.57-14.193l-32.57-13.865v-7.923l41.19,18.161V214.017z"/>
</g>
</svg>
