<?xml version="1.0" encoding="utf-8"?>
<!-- Generator: Adobe Illustrator 23.0.1, SVG Export Plug-In . SVG Version: 6.00 Build 0)  -->
<svg version="1.1" id="Layer_1" xmlns="http://www.w3.org/2000/svg" xmlns:xlink="http://www.w3.org/1999/xlink" x="0px" y="0px"
	 viewBox="0 0 800 800" style="enable-background:new 0 0 800 800;" xml:space="preserve">
<linearGradient id="SVGID_1_" gradientUnits="userSpaceOnUse" x1="248.1794" y1="112.3302" x2="106.1747" y2="-29.6745" gradientTransform="matrix(6.123234e-17 -1 1 6.123234e-17 189.627 347.4105)">
	<stop  offset="0" style="stop-color:#FF8F00"/>
	<stop  offset="1" style="stop-color:#FFE082"/>
</linearGradient>
<circle style="fill:url(#SVGID_1_);" cx="231.136" cy="170.052" r="106.72"/>
<linearGradient id="SVGID_2_" gradientUnits="userSpaceOnUse" x1="710.6662" y1="601.4587" x2="58.6662" y2="347.4587">
	<stop  offset="0" style="stop-color:#4FF2FC"/>
	<stop  offset="0.5109" style="stop-color:#76AFFB"/>
	<stop  offset="1" style="stop-color:#9F6AFA"/>
</linearGradient>
<path style="fill:url(#SVGID_2_);" d="M576.733,716.252C345.392,795.001,45.689,599.305,16.959,380.405
	C0.149,252.342,94.098,155.601,181.96,148.989s81.542,65.426,254.761,138.114c173.22,72.688,299.392,21.833,330.503,139.26
	C798.335,543.791,720.719,667.24,576.733,716.252z"/>
<linearGradient id="SVGID_3_" gradientUnits="userSpaceOnUse" x1="370.2889" y1="286.6339" x2="224.233" y2="140.5781" gradientTransform="matrix(0.2474 0.9689 -0.9689 0.2474 256.6574 120.188)">
	<stop  offset="0" style="stop-color:#1F40C3"/>
	<stop  offset="1" style="stop-color:#101E85"/>
</linearGradient>
<path style="fill:url(#SVGID_3_);" d="M14.565,353.032c-0.997,82.742,60.559,181.617,101.687,220.372
	c40.364,38.035,76.077,81.572,98.58,69.86s119.901-164.872,41.14-124.972c-39.132,19.825-27.461-46.232-52.827-29.304
	c-27.446,18.316-24.191-17.342-12.78-64.868s-20.935-59.067-39.867-51.339c-18.933,7.728-75.606,21.535-41.993-10.419
	s-26.383-27.473-50.284-33.438c-13.26-3.31-25.412-33.882-8.471-93.176C36.336,240.637,15.217,298.951,14.565,353.032z"/>
<linearGradient id="SVGID_4_" gradientUnits="userSpaceOnUse" x1="666.4658" y1="101.8955" x2="624.2478" y2="226.066" gradientTransform="matrix(1 0 0 -1 0 800)">
	<stop  offset="0" style="stop-color:#F9A825"/>
	<stop  offset="1" style="stop-color:#FFF176"/>
</linearGradient>
<path style="fill:url(#SVGID_4_);" d="M722.307,631.931h-5.314c-0.301-12.603-10.682-22.825-23.353-22.825h-2.536
	c-4.899-16.981-20.589-29.505-39.092-29.505l0,0c-18.503,0-34.193,12.524-39.092,29.505h-2.537
	c-12.672,0-23.051,10.222-23.353,22.825h-5.314c-13.013,0-23.66,10.646-23.66,23.66c0,13.013,10.647,23.66,23.66,23.66h140.591
	c13.013,0,23.659-10.647,23.659-23.66C745.967,642.578,735.32,631.931,722.307,631.931z"/>
<linearGradient id="SVGID_5_" gradientUnits="userSpaceOnUse" x1="302.6224" y1="97.5305" x2="253.3536" y2="242.4386" gradientTransform="matrix(1 0 0 -1 0 800)">
	<stop  offset="0" style="stop-color:#F9A825"/>
	<stop  offset="1" style="stop-color:#FFF176"/>
</linearGradient>
<path style="fill:url(#SVGID_5_);" d="M367.79,625.245h-6.202c-0.351-14.708-12.465-26.637-27.253-26.637h-2.96
	c-5.717-19.817-24.027-34.433-45.621-34.433l0,0c-21.593,0-39.903,14.616-45.62,34.433h-2.961
	c-14.788,0-26.901,11.929-27.253,26.637h-6.202c-15.186,0-27.612,12.424-27.612,27.612c0,15.186,12.426,27.612,27.612,27.612H367.79
	c15.186,0,27.611-12.426,27.611-27.612C395.4,637.669,382.976,625.245,367.79,625.245z"/>
<g>
	<path id="XMLID_4070_" style="fill:#F9A825;" d="M630.028,231.091H329.522c-17.334,0-31.387,14.052-31.387,31.387v390.704
		c0,15.813,12.819,28.633,28.633,28.633h306.014c15.812,0,28.633-12.819,28.633-28.633V262.477
		C661.414,245.143,647.362,231.091,630.028,231.091z"/>
	<path id="XMLID_4077_" style="fill:#F57F17;" d="M661.427,262.485v390.691c0,15.82-12.832,28.653-28.653,28.653h-42.257V231.372
		h43.664C649.544,233.411,661.427,246.559,661.427,262.485z"/>
	<path id="XMLID_3375_" style="fill:#283593;" d="M625.266,387.071h-288.28c-8.172,0-14.795,6.624-14.795,14.794v82.617
		c0,8.172,6.624,14.795,14.795,14.795h288.28c8.171,0,14.794-6.624,14.794-14.795v-82.617
		C640.06,393.694,633.435,387.071,625.266,387.071z"/>
	<g id="XMLID_2951_">
		<g id="XMLID_3362_">
			<circle id="XMLID_3367_" style="fill:#FFFEFF;" cx="483.078" cy="421.713" r="5.859"/>
			<circle id="XMLID_3366_" style="fill:#FFFEFF;" cx="483.078" cy="443.174" r="5.859"/>
			<circle id="XMLID_3365_" style="fill:#FFFEFF;" cx="483.078" cy="400.253" r="5.859"/>
			<circle id="XMLID_3364_" style="fill:#FFFEFF;" cx="483.078" cy="464.633" r="5.859"/>
			<circle id="XMLID_3363_" style="fill:#FFFEFF;" cx="483.078" cy="486.093" r="5.859"/>
		</g>
		<g id="XMLID_2871_">
			<path id="XMLID_3369_" style="fill:#5C6BC0;" d="M614.357,403.477h-95.213c-0.648,0-1.172-0.525-1.172-1.172v-6.737
				c0-0.648,0.525-1.172,1.172-1.172h95.213c0.648,0,1.173,0.525,1.173,1.172v6.737
				C615.531,402.952,615.005,403.477,614.357,403.477z"/>
			<path id="XMLID_3368_" style="fill:#5C6BC0;" d="M602.053,464.999h-70.605c-7.443,0-13.477,6.034-13.477,13.476
				c0,7.443,6.034,13.477,13.477,13.477h70.605c7.442,0,13.476-6.033,13.476-13.477
				C615.531,471.033,609.497,464.999,602.053,464.999z"/>
			<path id="XMLID_2949_" style="fill:#5C6BC0;" d="M602.053,429.697h-70.605c-7.443,0-13.477,6.033-13.477,13.476
				c0,7.443,6.034,13.476,13.477,13.476h70.605c7.442,0,13.476-6.033,13.476-13.476
				C615.531,435.731,609.497,429.697,602.053,429.697z"/>
			<path id="XMLID_3361_" style="fill:#5C6BC0;" d="M614.357,418.835h-95.213c-0.648,0-1.172-0.525-1.172-1.172v-6.737
				c0-0.647,0.525-1.172,1.172-1.172h95.213c0.648,0,1.173,0.525,1.173,1.172v6.737
				C615.531,418.311,615.005,418.835,614.357,418.835z"/>
		</g>
		<g id="XMLID_2950_">
			<path id="XMLID_2937_" style="fill:#5C6BC0;" d="M355.802,395.567v95.213c0,0.648-0.525,1.172-1.172,1.172h-6.737
				c-0.647,0-1.172-0.525-1.172-1.172v-95.213c0-0.648,0.525-1.172,1.172-1.172h6.737
				C355.277,394.394,355.802,394.92,355.802,395.567z"/>
			<path id="XMLID_2936_" style="fill:#5C6BC0;" d="M371.851,395.567v95.213c0,0.648-0.525,1.172-1.172,1.172h-6.737
				c-0.647,0-1.172-0.525-1.172-1.172v-95.213c0-0.648,0.525-1.172,1.172-1.172h6.737
				C371.326,394.394,371.851,394.92,371.851,395.567z"/>
			<path id="XMLID_2942_" style="fill:#5C6BC0;" d="M387.899,395.567v95.213c0,0.648-0.525,1.172-1.172,1.172h-6.737
				c-0.648,0-1.172-0.525-1.172-1.172v-95.213c0-0.648,0.525-1.172,1.172-1.172h6.737
				C387.374,394.394,387.899,394.92,387.899,395.567z"/>
			<path id="XMLID_2939_" style="fill:#5C6BC0;" d="M403.947,395.567v95.213c0,0.648-0.525,1.172-1.172,1.172h-6.737
				c-0.648,0-1.172-0.525-1.172-1.172v-95.213c0-0.648,0.525-1.172,1.172-1.172h6.737
				C403.422,394.394,403.947,394.92,403.947,395.567z"/>
			<path id="XMLID_2948_" style="fill:#5C6BC0;" d="M419.994,395.567v95.213c0,0.648-0.525,1.172-1.172,1.172h-6.737
				c-0.648,0-1.172-0.525-1.172-1.172v-95.213c0-0.648,0.525-1.172,1.172-1.172h6.737
				C419.47,394.394,419.994,394.92,419.994,395.567z"/>
			<path id="XMLID_2947_" style="fill:#5C6BC0;" d="M436.043,395.567v95.213c0,0.648-0.525,1.172-1.172,1.172h-6.737
				c-0.647,0-1.172-0.525-1.172-1.172v-95.213c0-0.648,0.525-1.172,1.172-1.172h6.737
				C435.517,394.394,436.043,394.92,436.043,395.567z"/>
			<path id="XMLID_2946_" style="fill:#5C6BC0;" d="M452.091,395.567v95.213c0,0.648-0.525,1.172-1.172,1.172h-6.737
				c-0.647,0-1.172-0.525-1.172-1.172v-95.213c0-0.648,0.525-1.172,1.172-1.172h6.737
				C451.566,394.394,452.091,394.92,452.091,395.567z"/>
		</g>
	</g>
	<path id="XMLID_3355_" style="fill:#283593;" d="M625.868,257.699h-288.28c-8.171,0-14.794,6.624-14.794,14.794v82.617
		c0,8.172,6.624,14.795,14.794,14.795h288.28c8.171,0,14.795-6.624,14.795-14.795v-82.617
		C640.663,264.322,634.038,257.699,625.868,257.699z"/>
	<g id="XMLID_3335_">
		<g id="XMLID_3349_">
			<circle id="XMLID_3354_" style="fill:#FFFEFF;" cx="483.681" cy="292.342" r="5.859"/>
			<circle id="XMLID_3353_" style="fill:#FFFEFF;" cx="483.681" cy="313.802" r="5.859"/>
			<circle id="XMLID_3352_" style="fill:#FFFEFF;" cx="483.681" cy="270.882" r="5.859"/>
			<circle id="XMLID_3351_" style="fill:#FFFEFF;" cx="483.681" cy="335.262" r="5.859"/>
			<circle id="XMLID_3350_" style="fill:#FFFEFF;" cx="483.681" cy="356.722" r="5.859"/>
		</g>
		<g id="XMLID_3344_">
			<path id="XMLID_3348_" style="fill:#5C6BC0;" d="M614.96,274.105h-95.213c-0.648,0-1.172-0.525-1.172-1.172v-6.737
				c0-0.648,0.525-1.172,1.172-1.172h95.213c0.648,0,1.172,0.525,1.172,1.172v6.737C616.133,273.58,615.608,274.105,614.96,274.105z
				"/>
			<path id="XMLID_3347_" style="fill:#5C6BC0;" d="M602.657,335.628h-70.605c-7.442,0-13.476,6.033-13.476,13.476
				c0,7.443,6.034,13.476,13.476,13.476h70.605c7.442,0,13.476-6.033,13.476-13.476C616.133,341.662,610.1,335.628,602.657,335.628z
				"/>
			<path id="XMLID_3346_" style="fill:#5C6BC0;" d="M602.657,300.326h-70.605c-7.443,0-13.476,6.034-13.476,13.477
				c0,7.443,6.033,13.476,13.476,13.476h70.605c7.442,0,13.476-6.033,13.476-13.476C616.133,306.36,610.099,300.326,602.657,300.326
				z"/>
			<path id="XMLID_3345_" style="fill:#5C6BC0;" d="M614.96,289.465h-95.213c-0.648,0-1.172-0.525-1.172-1.172v-6.737
				c0-0.648,0.525-1.172,1.172-1.172h95.213c0.648,0,1.172,0.525,1.172,1.172v6.737C616.133,288.94,615.608,289.465,614.96,289.465z
				"/>
		</g>
		<g id="XMLID_3336_">
			<path id="XMLID_3343_" style="fill:#5C6BC0;" d="M356.405,266.195v95.213c0,0.647-0.525,1.172-1.172,1.172h-6.737
				c-0.648,0-1.172-0.525-1.172-1.172v-95.213c0-0.648,0.525-1.172,1.172-1.172h6.737
				C355.88,265.023,356.405,265.548,356.405,266.195z"/>
			<path id="XMLID_3342_" style="fill:#5C6BC0;" d="M372.453,266.195v95.213c0,0.647-0.525,1.172-1.172,1.172h-6.737
				c-0.647,0-1.172-0.525-1.172-1.172v-95.213c0-0.648,0.525-1.172,1.172-1.172h6.737
				C371.928,265.023,372.453,265.548,372.453,266.195z"/>
			<path id="XMLID_3341_" style="fill:#5C6BC0;" d="M388.501,266.195v95.213c0,0.647-0.525,1.172-1.172,1.172h-6.737
				c-0.647,0-1.172-0.525-1.172-1.172v-95.213c0-0.648,0.525-1.172,1.172-1.172h6.737
				C387.976,265.023,388.501,265.548,388.501,266.195z"/>
			<path id="XMLID_3340_" style="fill:#5C6BC0;" d="M404.55,266.195v95.213c0,0.647-0.525,1.172-1.172,1.172h-6.737
				c-0.648,0-1.172-0.525-1.172-1.172v-95.213c0-0.648,0.525-1.172,1.172-1.172h6.737
				C404.024,265.023,404.55,265.548,404.55,266.195z"/>
			<path id="XMLID_3339_" style="fill:#5C6BC0;" d="M420.598,266.195v95.213c0,0.647-0.525,1.172-1.172,1.172h-6.737
				c-0.648,0-1.172-0.525-1.172-1.172v-95.213c0-0.648,0.525-1.172,1.172-1.172h6.737
				C420.073,265.023,420.598,265.548,420.598,266.195z"/>
			<path id="XMLID_3338_" style="fill:#5C6BC0;" d="M436.646,266.195v95.213c0,0.647-0.525,1.172-1.172,1.172h-6.737
				c-0.648,0-1.172-0.525-1.172-1.172v-95.213c0-0.648,0.525-1.172,1.172-1.172h6.737
				C436.121,265.023,436.646,265.548,436.646,266.195z"/>
			<path id="XMLID_3337_" style="fill:#5C6BC0;" d="M452.694,266.195v95.213c0,0.647-0.525,1.172-1.172,1.172h-6.737
				c-0.647,0-1.172-0.525-1.172-1.172v-95.213c0-0.648,0.525-1.172,1.172-1.172h6.737
				C452.169,265.023,452.694,265.548,452.694,266.195z"/>
		</g>
	</g>
	<path id="XMLID_3334_" style="fill:#283593;" d="M622.565,524.523h-288.28c-8.172,0-14.795,6.624-14.795,14.794v82.618
		c0,8.171,6.624,14.794,14.795,14.794h288.28c8.171,0,14.795-6.624,14.795-14.794v-82.618
		C637.36,531.148,630.735,524.523,622.565,524.523z"/>
	<g id="XMLID_2958_">
		<g id="XMLID_3247_">
			
				<ellipse id="XMLID_3333_" transform="matrix(0.3866 -0.9223 0.9223 0.3866 -221.0056 786.0725)" style="fill:#FFFEFF;" cx="480.415" cy="559.174" rx="5.86" ry="5.86"/>
			
				<ellipse id="XMLID_3332_" transform="matrix(0.3866 -0.9223 0.9223 0.3866 -240.7974 799.2374)" style="fill:#FFFEFF;" cx="480.415" cy="580.634" rx="5.86" ry="5.86"/>
			<path id="XMLID_3273_" style="fill:#FFFEFF;" d="M480.377,543.567c-3.236,0-5.859-2.623-5.859-5.86
				c0-3.236,2.623-5.859,5.859-5.859c3.236,0,5.859,2.623,5.859,5.859C486.237,540.943,483.613,543.567,480.377,543.567z"/>
			
				<ellipse id="XMLID_3271_" transform="matrix(0.3866 -0.9223 0.9223 0.3866 -260.5893 812.4025)" style="fill:#FFFEFF;" cx="480.416" cy="602.095" rx="5.86" ry="5.86"/>
			
				<ellipse id="XMLID_3260_" transform="matrix(0.3866 -0.9223 0.9223 0.3866 -280.381 825.5672)" style="fill:#FFFEFF;" cx="480.416" cy="623.556" rx="5.86" ry="5.86"/>
		</g>
		<g id="XMLID_2982_">
			<path id="XMLID_2988_" style="fill:#5C6BC0;" d="M611.656,540.93h-95.213c-0.648,0-1.172-0.525-1.172-1.172v-6.737
				c0-0.648,0.525-1.172,1.172-1.172h95.213c0.648,0,1.173,0.525,1.173,1.172v6.737C612.83,540.405,612.305,540.93,611.656,540.93z"
				/>
			<path id="XMLID_2986_" style="fill:#5C6BC0;" d="M599.352,602.454h-70.605c-7.443,0-13.477,6.033-13.477,13.476
				c0,7.443,6.034,13.476,13.477,13.476h70.605c7.442,0,13.476-6.033,13.476-13.476C612.83,608.487,606.795,602.454,599.352,602.454
				z"/>
			<path id="XMLID_2985_" style="fill:#5C6BC0;" d="M599.352,567.151h-70.605c-7.443,0-13.477,6.033-13.477,13.476
				s6.034,13.476,13.477,13.476h70.605c7.442,0,13.476-6.033,13.476-13.476C612.83,573.184,606.795,567.151,599.352,567.151z"/>
			<path id="XMLID_2983_" style="fill:#5C6BC0;" d="M611.656,556.289h-95.213c-0.648,0-1.172-0.525-1.172-1.172v-6.737
				c0-0.648,0.525-1.172,1.172-1.172h95.213c0.648,0,1.173,0.525,1.173,1.172v6.737C612.83,555.764,612.305,556.289,611.656,556.289
				z"/>
		</g>
		<g id="XMLID_2974_">
			<path id="XMLID_2981_" style="fill:#5C6BC0;" d="M353.102,533.021v95.213c0,0.648-0.525,1.172-1.172,1.172h-6.737
				c-0.647,0-1.172-0.525-1.172-1.172v-95.213c0-0.648,0.525-1.172,1.172-1.172h6.737
				C352.576,531.848,353.102,532.374,353.102,533.021z"/>
			<path id="XMLID_2980_" style="fill:#5C6BC0;" d="M369.15,533.021v95.213c0,0.648-0.525,1.172-1.172,1.172h-6.737
				c-0.647,0-1.172-0.525-1.172-1.172v-95.213c0-0.648,0.525-1.172,1.172-1.172h6.737
				C368.625,531.848,369.15,532.374,369.15,533.021z"/>
			<path id="XMLID_2979_" style="fill:#5C6BC0;" d="M385.197,533.021v95.213c0,0.648-0.525,1.172-1.172,1.172h-6.737
				c-0.648,0-1.172-0.525-1.172-1.172v-95.213c0-0.648,0.525-1.172,1.172-1.172h6.737
				C384.673,531.848,385.197,532.374,385.197,533.021z"/>
			<path id="XMLID_2978_" style="fill:#5C6BC0;" d="M401.245,533.021v95.213c0,0.648-0.525,1.172-1.172,1.172h-6.737
				c-0.648,0-1.172-0.525-1.172-1.172v-95.213c0-0.648,0.525-1.172,1.172-1.172h6.737
				C400.72,531.848,401.245,532.374,401.245,533.021z"/>
			<path id="XMLID_2977_" style="fill:#5C6BC0;" d="M417.293,533.021v95.213c0,0.648-0.525,1.172-1.172,1.172h-6.737
				c-0.648,0-1.172-0.525-1.172-1.172v-95.213c0-0.648,0.525-1.172,1.172-1.172h6.737
				C416.768,531.848,417.293,532.374,417.293,533.021z"/>
			<path id="XMLID_2976_" style="fill:#5C6BC0;" d="M433.342,533.021v95.213c0,0.648-0.525,1.172-1.172,1.172h-6.737
				c-0.647,0-1.172-0.525-1.172-1.172v-95.213c0-0.648,0.525-1.172,1.172-1.172h6.737
				C432.817,531.848,433.342,532.374,433.342,533.021z"/>
			<path id="XMLID_2975_" style="fill:#5C6BC0;" d="M449.39,533.021v95.213c0,0.648-0.525,1.172-1.172,1.172h-6.737
				c-0.647,0-1.172-0.525-1.172-1.172v-95.213c0-0.648,0.525-1.172,1.172-1.172h6.737
				C448.865,531.848,449.39,532.374,449.39,533.021z"/>
		</g>
	</g>
</g>
<linearGradient id="SVGID_6_" gradientUnits="userSpaceOnUse" x1="372.8165" y1="103.3569" x2="339.3188" y2="201.8792" gradientTransform="matrix(1 0 0 -1 0 800)">
	<stop  offset="0" style="stop-color:#FFF59D"/>
	<stop  offset="1" style="stop-color:#FFFDE7"/>
</linearGradient>
<path style="fill:url(#SVGID_6_);" d="M417.124,644.138h-4.216c-0.239-10-8.475-18.111-18.529-18.111h-2.012
	c-3.887-13.474-16.336-23.411-31.017-23.411l0,0c-14.681,0-27.13,9.937-31.017,23.411h-2.013c-10.054,0-18.29,8.111-18.529,18.111
	h-4.216c-10.325,0-18.773,8.447-18.773,18.773c0,10.325,8.448,18.773,18.773,18.773h111.551c10.325,0,18.772-8.448,18.772-18.773
	C435.896,652.586,427.449,644.138,417.124,644.138z"/>
</svg>
