<?xml version="1.0" encoding="utf-8"?>
<!-- Generator: Adobe Illustrator 23.0.1, SVG Export Plug-In . SVG Version: 6.00 Build 0)  -->
<svg version="1.1" id="Layer_1" xmlns="http://www.w3.org/2000/svg" xmlns:xlink="http://www.w3.org/1999/xlink" x="0px" y="0px"
	 viewBox="0 0 800 800" style="enable-background:new 0 0 800 800;" xml:space="preserve">
<g>
	<path id="XMLID_99_" style="fill:#F9A825;" d="M688.755,110.835H475.179c-12.319,0-22.308,13.257-22.308,29.613v368.613
		c0,14.919,9.11,27.014,20.35,27.014h217.492c11.238,0,20.35-12.094,20.35-27.014V140.447
		C711.062,124.093,701.076,110.835,688.755,110.835z"/>
	<path id="XMLID_98_" style="fill:#F57F17;" d="M711.072,140.454v368.602c0,14.925-9.12,27.033-20.364,27.033h-30.033V111.101
		h31.034C702.626,113.024,711.072,125.429,711.072,140.454z"/>
	<path id="XMLID_97_" style="fill:#283593;" d="M685.371,257.996H480.483c-5.808,0-10.516,6.249-10.516,13.958v77.946
		c0,7.71,4.708,13.959,10.516,13.959h204.888c5.807,0,10.515-6.249,10.515-13.959v-77.946
		C695.886,264.245,691.177,257.996,685.371,257.996z"/>
	<g id="XMLID_77_">
		<g id="XMLID_91_">
			<ellipse id="XMLID_96_" style="fill:#FFFEFF;" cx="584.315" cy="290.681" rx="4.164" ry="5.527"/>
			<ellipse id="XMLID_95_" style="fill:#FFFEFF;" cx="584.315" cy="310.928" rx="4.164" ry="5.527"/>
			<ellipse id="XMLID_94_" style="fill:#FFFEFF;" cx="584.315" cy="270.433" rx="4.164" ry="5.527"/>
			<ellipse id="XMLID_93_" style="fill:#FFFEFF;" cx="584.315" cy="331.173" rx="4.164" ry="5.527"/>
			<ellipse id="XMLID_92_" style="fill:#FFFEFF;" cx="584.315" cy="351.421" rx="4.164" ry="5.527"/>
		</g>
		<g id="XMLID_86_">
			<path id="XMLID_90_" style="fill:#5C6BC0;" d="M677.618,273.475h-67.67c-0.461,0-0.833-0.496-0.833-1.105v-6.356
				c0-0.612,0.374-1.105,0.833-1.105h67.67c0.461,0,0.833,0.496,0.833,1.105v6.356C678.452,272.979,678.078,273.475,677.618,273.475
				z"/>
			<path id="XMLID_89_" style="fill:#5C6BC0;" d="M668.873,331.518h-50.18c-5.29,0-9.578,5.693-9.578,12.714
				c0,7.022,4.289,12.715,9.578,12.715h50.18c5.29,0,9.577-5.692,9.577-12.715C678.452,337.211,674.163,331.518,668.873,331.518z"/>
			<path id="XMLID_88_" style="fill:#5C6BC0;" d="M668.873,298.212h-50.18c-5.29,0-9.578,5.692-9.578,12.714
				c0,7.022,4.289,12.714,9.578,12.714h50.18c5.29,0,9.577-5.692,9.577-12.714C678.452,303.905,674.163,298.212,668.873,298.212z"/>
			<path id="XMLID_87_" style="fill:#5C6BC0;" d="M677.618,287.965h-67.67c-0.461,0-0.833-0.496-0.833-1.105v-6.356
				c0-0.611,0.374-1.105,0.833-1.105h67.67c0.461,0,0.833,0.496,0.833,1.105v6.356C678.452,287.47,678.078,287.965,677.618,287.965z
				"/>
		</g>
		<g id="XMLID_78_">
			<path id="XMLID_85_" style="fill:#5C6BC0;" d="M493.857,266.012v89.829c0,0.612-0.374,1.105-0.833,1.105h-4.788
				c-0.46,0-0.833-0.496-0.833-1.105v-89.829c0-0.612,0.374-1.105,0.833-1.105h4.788
				C493.484,264.906,493.857,265.402,493.857,266.012z"/>
			<path id="XMLID_84_" style="fill:#5C6BC0;" d="M505.263,266.012v89.829c0,0.612-0.374,1.105-0.833,1.105h-4.788
				c-0.46,0-0.833-0.496-0.833-1.105v-89.829c0-0.612,0.374-1.105,0.833-1.105h4.788
				C504.89,264.906,505.263,265.402,505.263,266.012z"/>
			<path id="XMLID_83_" style="fill:#5C6BC0;" d="M516.669,266.012v89.829c0,0.612-0.374,1.105-0.833,1.105h-4.788
				c-0.461,0-0.833-0.496-0.833-1.105v-89.829c0-0.612,0.374-1.105,0.833-1.105h4.788
				C516.296,264.906,516.669,265.402,516.669,266.012z"/>
			<path id="XMLID_82_" style="fill:#5C6BC0;" d="M528.074,266.012v89.829c0,0.612-0.374,1.105-0.833,1.105h-4.788
				c-0.461,0-0.833-0.496-0.833-1.105v-89.829c0-0.612,0.374-1.105,0.833-1.105h4.788
				C527.702,264.906,528.074,265.402,528.074,266.012z"/>
			<path id="XMLID_81_" style="fill:#5C6BC0;" d="M539.479,266.012v89.829c0,0.612-0.374,1.105-0.833,1.105h-4.788
				c-0.461,0-0.833-0.496-0.833-1.105v-89.829c0-0.612,0.374-1.105,0.833-1.105h4.788
				C539.107,264.906,539.479,265.402,539.479,266.012z"/>
			<path id="XMLID_80_" style="fill:#5C6BC0;" d="M550.886,266.012v89.829c0,0.612-0.374,1.105-0.833,1.105h-4.788
				c-0.46,0-0.833-0.496-0.833-1.105v-89.829c0-0.612,0.374-1.105,0.833-1.105h4.788
				C550.512,264.906,550.886,265.402,550.886,266.012z"/>
			<path id="XMLID_79_" style="fill:#5C6BC0;" d="M562.291,266.012v89.829c0,0.612-0.374,1.105-0.833,1.105h-4.788
				c-0.46,0-0.833-0.496-0.833-1.105v-89.829c0-0.612,0.374-1.105,0.833-1.105h4.788
				C561.919,264.906,562.291,265.402,562.291,266.012z"/>
		</g>
	</g>
	<path id="XMLID_76_" style="fill:#283593;" d="M685.799,135.939H480.912c-5.807,0-10.515,6.249-10.515,13.958v77.946
		c0,7.71,4.708,13.959,10.515,13.959h204.888c5.807,0,10.516-6.249,10.516-13.959v-77.946
		C696.314,142.187,691.606,135.939,685.799,135.939z"/>
	<g id="XMLID_41_">
		<g id="XMLID_65_">
			<ellipse id="XMLID_75_" style="fill:#FFFEFF;" cx="584.743" cy="168.623" rx="4.164" ry="5.527"/>
			<ellipse id="XMLID_69_" style="fill:#FFFEFF;" cx="584.743" cy="188.87" rx="4.164" ry="5.527"/>
			<ellipse id="XMLID_68_" style="fill:#FFFEFF;" cx="584.743" cy="148.377" rx="4.164" ry="5.527"/>
			<ellipse id="XMLID_67_" style="fill:#FFFEFF;" cx="584.743" cy="209.117" rx="4.164" ry="5.527"/>
			<ellipse id="XMLID_66_" style="fill:#FFFEFF;" cx="584.743" cy="229.364" rx="4.164" ry="5.527"/>
		</g>
		<g id="XMLID_55_">
			<path id="XMLID_64_" style="fill:#5C6BC0;" d="M678.046,151.417h-67.67c-0.461,0-0.833-0.496-0.833-1.105v-6.356
				c0-0.612,0.374-1.105,0.833-1.105h67.67c0.461,0,0.833,0.496,0.833,1.105v6.356C678.88,150.922,678.507,151.417,678.046,151.417z
				"/>
			<path id="XMLID_63_" style="fill:#5C6BC0;" d="M669.302,209.462h-50.18c-5.29,0-9.577,5.692-9.577,12.714
				c0,7.022,4.289,12.714,9.577,12.714h50.18c5.289,0,9.577-5.692,9.577-12.714C678.88,215.155,674.593,209.462,669.302,209.462z"/>
			<path id="XMLID_57_" style="fill:#5C6BC0;" d="M669.302,176.156h-50.18c-5.29,0-9.577,5.693-9.577,12.715
				c0,7.022,4.288,12.714,9.577,12.714h50.18c5.289,0,9.577-5.692,9.577-12.714C678.88,181.849,674.592,176.156,669.302,176.156z"/>
			<path id="XMLID_56_" style="fill:#5C6BC0;" d="M678.046,165.909h-67.67c-0.461,0-0.833-0.496-0.833-1.105v-6.357
				c0-0.612,0.374-1.105,0.833-1.105h67.67c0.461,0,0.833,0.496,0.833,1.105v6.356C678.88,165.414,678.507,165.909,678.046,165.909z
				"/>
		</g>
		<g id="XMLID_42_">
			<path id="XMLID_54_" style="fill:#5C6BC0;" d="M494.286,143.955v89.829c0,0.611-0.374,1.105-0.833,1.105h-4.788
				c-0.461,0-0.833-0.496-0.833-1.105v-89.829c0-0.612,0.374-1.105,0.833-1.105h4.788
				C493.912,142.849,494.286,143.344,494.286,143.955z"/>
			<path id="XMLID_53_" style="fill:#5C6BC0;" d="M505.691,143.955v89.829c0,0.611-0.374,1.105-0.833,1.105h-4.788
				c-0.46,0-0.833-0.496-0.833-1.105v-89.829c0-0.612,0.374-1.105,0.833-1.105h4.788
				C505.318,142.849,505.691,143.344,505.691,143.955z"/>
			<path id="XMLID_52_" style="fill:#5C6BC0;" d="M517.097,143.955v89.829c0,0.611-0.374,1.105-0.833,1.105h-4.788
				c-0.46,0-0.833-0.496-0.833-1.105v-89.829c0-0.612,0.374-1.105,0.833-1.105h4.788
				C516.724,142.849,517.097,143.344,517.097,143.955z"/>
			<path id="XMLID_51_" style="fill:#5C6BC0;" d="M528.503,143.955v89.829c0,0.611-0.374,1.105-0.833,1.105h-4.788
				c-0.461,0-0.833-0.496-0.833-1.105v-89.829c0-0.612,0.374-1.105,0.833-1.105h4.788
				C528.129,142.849,528.503,143.344,528.503,143.955z"/>
			<path id="XMLID_45_" style="fill:#5C6BC0;" d="M539.909,143.955v89.829c0,0.611-0.374,1.105-0.833,1.105h-4.788
				c-0.461,0-0.833-0.496-0.833-1.105v-89.829c0-0.612,0.374-1.105,0.833-1.105h4.788
				C539.536,142.849,539.909,143.344,539.909,143.955z"/>
			<path id="XMLID_44_" style="fill:#5C6BC0;" d="M551.314,143.955v89.829c0,0.611-0.374,1.105-0.833,1.105h-4.788
				c-0.461,0-0.833-0.496-0.833-1.105v-89.829c0-0.612,0.374-1.105,0.833-1.105h4.788
				C550.942,142.849,551.314,143.344,551.314,143.955z"/>
			<path id="XMLID_43_" style="fill:#5C6BC0;" d="M562.72,143.955v89.829c0,0.611-0.374,1.105-0.833,1.105H557.1
				c-0.46,0-0.833-0.496-0.833-1.105v-89.829c0-0.612,0.374-1.105,0.833-1.105h4.788C562.347,142.849,562.72,143.344,562.72,143.955
				z"/>
		</g>
	</g>
	<path id="XMLID_40_" style="fill:#283593;" d="M683.452,387.678H478.564c-5.808,0-10.516,6.249-10.516,13.958v77.946
		c0,7.709,4.708,13.958,10.516,13.958h204.888c5.807,0,10.516-6.249,10.516-13.958v-77.946
		C693.966,393.928,689.258,387.678,683.452,387.678z"/>
	<g id="XMLID_6_">
		<g id="XMLID_29_">
			<ellipse id="XMLID_39_" style="fill:#FFFEFF;" cx="582.446" cy="420.358" rx="4.165" ry="5.528"/>
			<ellipse id="XMLID_33_" style="fill:#FFFEFF;" cx="582.447" cy="440.606" rx="4.165" ry="5.528"/>
			<path id="XMLID_32_" style="fill:#FFFEFF;" d="M582.395,405.644c-2.3,0-4.164-2.475-4.164-5.528c0-3.053,1.864-5.527,4.164-5.527
				s4.164,2.475,4.164,5.527C586.56,403.169,584.695,405.644,582.395,405.644z"/>
			<ellipse id="XMLID_31_" style="fill:#FFFEFF;" cx="582.448" cy="460.853" rx="4.165" ry="5.528"/>
			<ellipse id="XMLID_30_" style="fill:#FFFEFF;" cx="582.45" cy="481.102" rx="4.165" ry="5.528"/>
		</g>
		<g id="XMLID_20_">
			<path id="XMLID_24_" style="fill:#5C6BC0;" d="M675.698,403.157h-67.67c-0.461,0-0.833-0.496-0.833-1.105v-6.356
				c0-0.612,0.374-1.105,0.833-1.105h67.67c0.461,0,0.833,0.496,0.833,1.105v6.356C676.533,402.661,676.159,403.157,675.698,403.157
				z"/>
			<path id="XMLID_23_" style="fill:#5C6BC0;" d="M666.954,461.202h-50.18c-5.29,0-9.578,5.692-9.578,12.714
				s4.289,12.714,9.578,12.714h50.18c5.29,0,9.577-5.692,9.577-12.714C676.533,466.894,672.243,461.202,666.954,461.202z"/>
			<path id="XMLID_22_" style="fill:#5C6BC0;" d="M666.954,427.896h-50.18c-5.29,0-9.578,5.692-9.578,12.714
				s4.289,12.714,9.578,12.714h50.18c5.29,0,9.577-5.692,9.577-12.714C676.533,433.588,672.243,427.896,666.954,427.896z"/>
			<path id="XMLID_21_" style="fill:#5C6BC0;" d="M675.698,417.647h-67.67c-0.461,0-0.833-0.496-0.833-1.105v-6.356
				c0-0.612,0.374-1.105,0.833-1.105h67.67c0.461,0,0.833,0.496,0.833,1.105v6.356C676.533,417.152,676.159,417.647,675.698,417.647
				z"/>
		</g>
		<g id="XMLID_7_">
			<path id="XMLID_19_" style="fill:#5C6BC0;" d="M491.938,395.695v89.829c0,0.612-0.374,1.105-0.833,1.105h-4.788
				c-0.46,0-0.833-0.496-0.833-1.105v-89.829c0-0.612,0.374-1.105,0.833-1.105h4.788
				C491.564,394.588,491.938,395.084,491.938,395.695z"/>
			<path id="XMLID_18_" style="fill:#5C6BC0;" d="M503.344,395.695v89.829c0,0.612-0.374,1.105-0.833,1.105h-4.788
				c-0.46,0-0.833-0.496-0.833-1.105v-89.829c0-0.612,0.374-1.105,0.833-1.105h4.788
				C502.97,394.588,503.344,395.084,503.344,395.695z"/>
			<path id="XMLID_12_" style="fill:#5C6BC0;" d="M514.749,395.695v89.829c0,0.612-0.374,1.105-0.833,1.105h-4.788
				c-0.461,0-0.833-0.496-0.833-1.105v-89.829c0-0.612,0.374-1.105,0.833-1.105h4.788
				C514.376,394.588,514.749,395.084,514.749,395.695z"/>
			<path id="XMLID_11_" style="fill:#5C6BC0;" d="M526.154,395.695v89.829c0,0.612-0.374,1.105-0.833,1.105h-4.788
				c-0.461,0-0.833-0.496-0.833-1.105v-89.829c0-0.612,0.374-1.105,0.833-1.105h4.788
				C525.781,394.588,526.154,395.084,526.154,395.695z"/>
			<path id="XMLID_10_" style="fill:#5C6BC0;" d="M537.56,395.695v89.829c0,0.612-0.374,1.105-0.833,1.105h-4.788
				c-0.461,0-0.833-0.496-0.833-1.105v-89.829c0-0.612,0.374-1.105,0.833-1.105h4.788
				C537.186,394.588,537.56,395.084,537.56,395.695z"/>
			<path id="XMLID_9_" style="fill:#5C6BC0;" d="M548.967,395.695v89.829c0,0.612-0.374,1.105-0.833,1.105h-4.788
				c-0.46,0-0.833-0.496-0.833-1.105v-89.829c0-0.612,0.374-1.105,0.833-1.105h4.788
				C548.593,394.588,548.967,395.084,548.967,395.695z"/>
			<path id="XMLID_8_" style="fill:#5C6BC0;" d="M560.372,395.695v89.829c0,0.612-0.374,1.105-0.833,1.105h-4.788
				c-0.46,0-0.833-0.496-0.833-1.105v-89.829c0-0.612,0.374-1.105,0.833-1.105h4.788
				C559.999,394.588,560.372,395.084,560.372,395.695z"/>
		</g>
	</g>
</g>
<path style="opacity:0.9;fill:#7E57C2;" d="M562.604,538.922h-9.656c-0.548-22.899-19.408-41.474-42.43-41.474h-4.608
	c-8.902-30.854-37.409-53.612-71.029-53.612l0,0c-33.62,0-62.127,22.755-71.029,53.612h-4.611c-23.024,0-41.885,18.574-42.43,41.474
	h-9.656c-23.643,0-42.99,19.344-42.99,42.99c0,23.643,19.347,42.99,42.99,42.99h255.451c23.643,0,42.988-19.347,42.988-42.99
	C605.591,558.267,586.247,538.922,562.604,538.922z"/>
<g>
	<path id="XMLID_4070_" style="fill:#F9A825;" d="M311.696,269.077H98.12c-12.319,0-22.308,13.257-22.308,29.613v368.613
		c0,14.919,9.11,27.014,20.35,27.014h217.492c11.238,0,20.35-12.094,20.35-27.014V298.689
		C334.003,282.335,324.017,269.077,311.696,269.077z"/>
	<path id="XMLID_4077_" style="fill:#F57F17;" d="M334.013,298.696v368.602c0,14.925-9.12,27.033-20.364,27.033h-30.033V269.342
		h31.033C325.567,271.265,334.013,283.671,334.013,298.696z"/>
	<path id="XMLID_3375_" style="fill:#283593;" d="M308.312,416.238H103.424c-5.808,0-10.516,6.249-10.516,13.958v77.946
		c0,7.71,4.708,13.959,10.516,13.959h204.888c5.807,0,10.515-6.249,10.515-13.959v-77.946
		C318.827,422.487,314.118,416.238,308.312,416.238z"/>
	<g id="XMLID_2951_">
		<g id="XMLID_3362_">
			<ellipse id="XMLID_3367_" style="fill:#FFFEFF;" cx="207.256" cy="448.922" rx="4.164" ry="5.527"/>
			<ellipse id="XMLID_3366_" style="fill:#FFFEFF;" cx="207.256" cy="469.17" rx="4.164" ry="5.527"/>
			<ellipse id="XMLID_3365_" style="fill:#FFFEFF;" cx="207.256" cy="428.675" rx="4.164" ry="5.527"/>
			<ellipse id="XMLID_3364_" style="fill:#FFFEFF;" cx="207.256" cy="489.415" rx="4.164" ry="5.527"/>
			<ellipse id="XMLID_3363_" style="fill:#FFFEFF;" cx="207.256" cy="509.662" rx="4.164" ry="5.527"/>
		</g>
		<g id="XMLID_2871_">
			<path id="XMLID_3369_" style="fill:#5C6BC0;" d="M300.559,431.717h-67.67c-0.461,0-0.833-0.496-0.833-1.105v-6.356
				c0-0.612,0.374-1.105,0.833-1.105h67.67c0.461,0,0.833,0.496,0.833,1.105v6.356C301.393,431.221,301.019,431.717,300.559,431.717
				z"/>
			<path id="XMLID_3368_" style="fill:#5C6BC0;" d="M291.814,489.76h-50.18c-5.29,0-9.578,5.693-9.578,12.714
				c0,7.022,4.289,12.715,9.578,12.715h50.18c5.29,0,9.577-5.692,9.577-12.715C301.393,495.453,297.104,489.76,291.814,489.76z"/>
			<path id="XMLID_2949_" style="fill:#5C6BC0;" d="M291.814,456.454h-50.18c-5.29,0-9.578,5.692-9.578,12.714
				s4.289,12.714,9.578,12.714h50.18c5.29,0,9.577-5.692,9.577-12.714C301.393,462.147,297.104,456.454,291.814,456.454z"/>
			<path id="XMLID_3361_" style="fill:#5C6BC0;" d="M300.559,446.207h-67.67c-0.461,0-0.833-0.496-0.833-1.105v-6.356
				c0-0.611,0.374-1.105,0.833-1.105h67.67c0.461,0,0.833,0.496,0.833,1.105v6.356C301.393,445.712,301.019,446.207,300.559,446.207
				z"/>
		</g>
		<g id="XMLID_2950_">
			<path id="XMLID_2937_" style="fill:#5C6BC0;" d="M116.798,424.254v89.829c0,0.612-0.374,1.105-0.833,1.105h-4.788
				c-0.46,0-0.833-0.496-0.833-1.105v-89.829c0-0.612,0.374-1.105,0.833-1.105h4.788
				C116.425,423.147,116.798,423.643,116.798,424.254z"/>
			<path id="XMLID_2936_" style="fill:#5C6BC0;" d="M128.204,424.254v89.829c0,0.612-0.374,1.105-0.833,1.105h-4.788
				c-0.46,0-0.833-0.496-0.833-1.105v-89.829c0-0.612,0.374-1.105,0.833-1.105h4.788
				C127.831,423.147,128.204,423.643,128.204,424.254z"/>
			<path id="XMLID_2942_" style="fill:#5C6BC0;" d="M139.61,424.254v89.829c0,0.612-0.374,1.105-0.833,1.105h-4.788
				c-0.461,0-0.833-0.496-0.833-1.105v-89.829c0-0.612,0.374-1.105,0.833-1.105h4.788
				C139.237,423.147,139.61,423.643,139.61,424.254z"/>
			<path id="XMLID_2939_" style="fill:#5C6BC0;" d="M151.015,424.254v89.829c0,0.612-0.374,1.105-0.833,1.105h-4.788
				c-0.461,0-0.833-0.496-0.833-1.105v-89.829c0-0.612,0.374-1.105,0.833-1.105h4.788
				C150.643,423.147,151.015,423.643,151.015,424.254z"/>
			<path id="XMLID_2948_" style="fill:#5C6BC0;" d="M162.42,424.254v89.829c0,0.612-0.374,1.105-0.833,1.105H156.8
				c-0.461,0-0.833-0.496-0.833-1.105v-89.829c0-0.612,0.374-1.105,0.833-1.105h4.788
				C162.048,423.147,162.42,423.643,162.42,424.254z"/>
			<path id="XMLID_2947_" style="fill:#5C6BC0;" d="M173.827,424.254v89.829c0,0.612-0.374,1.105-0.833,1.105h-4.788
				c-0.46,0-0.833-0.496-0.833-1.105v-89.829c0-0.612,0.374-1.105,0.833-1.105h4.788
				C173.453,423.147,173.827,423.643,173.827,424.254z"/>
			<path id="XMLID_2946_" style="fill:#5C6BC0;" d="M185.232,424.254v89.829c0,0.612-0.374,1.105-0.833,1.105h-4.788
				c-0.46,0-0.833-0.496-0.833-1.105v-89.829c0-0.612,0.374-1.105,0.833-1.105h4.788
				C184.86,423.147,185.232,423.643,185.232,424.254z"/>
		</g>
	</g>
	<path id="XMLID_3355_" style="fill:#283593;" d="M308.74,294.181H103.853c-5.807,0-10.515,6.249-10.515,13.958v77.946
		c0,7.71,4.708,13.959,10.515,13.959H308.74c5.807,0,10.516-6.249,10.516-13.959v-77.946
		C319.255,300.429,314.547,294.181,308.74,294.181z"/>
	<g id="XMLID_3335_">
		<g id="XMLID_3349_">
			<ellipse id="XMLID_3354_" style="fill:#FFFEFF;" cx="207.684" cy="326.865" rx="4.164" ry="5.527"/>
			<ellipse id="XMLID_3353_" style="fill:#FFFEFF;" cx="207.684" cy="347.111" rx="4.164" ry="5.527"/>
			<ellipse id="XMLID_3352_" style="fill:#FFFEFF;" cx="207.684" cy="306.619" rx="4.164" ry="5.527"/>
			<ellipse id="XMLID_3351_" style="fill:#FFFEFF;" cx="207.684" cy="367.359" rx="4.164" ry="5.527"/>
			<ellipse id="XMLID_3350_" style="fill:#FFFEFF;" cx="207.684" cy="387.605" rx="4.164" ry="5.527"/>
		</g>
		<g id="XMLID_3344_">
			<path id="XMLID_3348_" style="fill:#5C6BC0;" d="M300.987,309.659h-67.67c-0.461,0-0.833-0.496-0.833-1.105v-6.356
				c0-0.612,0.374-1.105,0.833-1.105h67.67c0.461,0,0.833,0.496,0.833,1.105v6.356C301.822,309.164,301.448,309.659,300.987,309.659
				z"/>
			<path id="XMLID_3347_" style="fill:#5C6BC0;" d="M292.243,367.704h-50.18c-5.29,0-9.577,5.692-9.577,12.714
				c0,7.022,4.289,12.714,9.577,12.714h50.18c5.289,0,9.577-5.692,9.577-12.714C301.822,373.397,297.534,367.704,292.243,367.704z"
				/>
			<path id="XMLID_3346_" style="fill:#5C6BC0;" d="M292.243,334.398h-50.18c-5.29,0-9.577,5.693-9.577,12.715
				s4.288,12.714,9.577,12.714h50.18c5.289,0,9.577-5.692,9.577-12.714C301.822,340.091,297.533,334.398,292.243,334.398z"/>
			<path id="XMLID_3345_" style="fill:#5C6BC0;" d="M300.987,324.151h-67.67c-0.461,0-0.833-0.496-0.833-1.105v-6.357
				c0-0.612,0.374-1.105,0.833-1.105h67.67c0.461,0,0.833,0.496,0.833,1.105v6.356C301.822,323.656,301.448,324.151,300.987,324.151
				z"/>
		</g>
		<g id="XMLID_3336_">
			<path id="XMLID_3343_" style="fill:#5C6BC0;" d="M117.227,302.197v89.829c0,0.611-0.374,1.105-0.833,1.105h-4.788
				c-0.461,0-0.833-0.496-0.833-1.105v-89.829c0-0.612,0.374-1.105,0.833-1.105h4.788
				C116.853,301.09,117.227,301.586,117.227,302.197z"/>
			<path id="XMLID_3342_" style="fill:#5C6BC0;" d="M128.632,302.197v89.829c0,0.611-0.374,1.105-0.833,1.105h-4.788
				c-0.46,0-0.833-0.496-0.833-1.105v-89.829c0-0.612,0.374-1.105,0.833-1.105h4.788
				C128.259,301.09,128.632,301.586,128.632,302.197z"/>
			<path id="XMLID_3341_" style="fill:#5C6BC0;" d="M140.038,302.197v89.829c0,0.611-0.374,1.105-0.833,1.105h-4.788
				c-0.46,0-0.833-0.496-0.833-1.105v-89.829c0-0.612,0.374-1.105,0.833-1.105h4.788
				C139.665,301.09,140.038,301.586,140.038,302.197z"/>
			<path id="XMLID_3340_" style="fill:#5C6BC0;" d="M151.444,302.197v89.829c0,0.611-0.374,1.105-0.833,1.105h-4.788
				c-0.461,0-0.833-0.496-0.833-1.105v-89.829c0-0.612,0.374-1.105,0.833-1.105h4.788
				C151.07,301.09,151.444,301.586,151.444,302.197z"/>
			<path id="XMLID_3339_" style="fill:#5C6BC0;" d="M162.85,302.197v89.829c0,0.611-0.374,1.105-0.833,1.105h-4.788
				c-0.461,0-0.833-0.496-0.833-1.105v-89.829c0-0.612,0.374-1.105,0.833-1.105h4.788C162.477,301.09,162.85,301.586,162.85,302.197
				z"/>
			<path id="XMLID_3338_" style="fill:#5C6BC0;" d="M174.255,302.197v89.829c0,0.611-0.374,1.105-0.833,1.105h-4.788
				c-0.461,0-0.833-0.496-0.833-1.105v-89.829c0-0.612,0.374-1.105,0.833-1.105h4.788
				C173.883,301.09,174.255,301.586,174.255,302.197z"/>
			<path id="XMLID_3337_" style="fill:#5C6BC0;" d="M185.661,302.197v89.829c0,0.611-0.374,1.105-0.833,1.105h-4.788
				c-0.46,0-0.833-0.496-0.833-1.105v-89.829c0-0.612,0.374-1.105,0.833-1.105h4.788
				C185.288,301.09,185.661,301.586,185.661,302.197z"/>
		</g>
	</g>
	<path id="XMLID_3334_" style="fill:#283593;" d="M306.393,545.919H101.505c-5.808,0-10.516,6.249-10.516,13.958v77.946
		c0,7.709,4.708,13.958,10.516,13.958h204.888c5.807,0,10.516-6.249,10.516-13.958v-77.946
		C316.907,552.169,312.199,545.919,306.393,545.919z"/>
	<g id="XMLID_2958_">
		<g id="XMLID_3247_">
			<ellipse id="XMLID_3333_" style="fill:#FFFEFF;" cx="205.387" cy="578.6" rx="4.165" ry="5.528"/>
			<ellipse id="XMLID_3332_" style="fill:#FFFEFF;" cx="205.388" cy="598.847" rx="4.165" ry="5.528"/>
			<path id="XMLID_3273_" style="fill:#FFFEFF;" d="M205.336,563.886c-2.3,0-4.164-2.475-4.164-5.528
				c0-3.053,1.864-5.527,4.164-5.527s4.164,2.475,4.164,5.527C209.501,561.411,207.636,563.886,205.336,563.886z"/>
			<ellipse id="XMLID_3271_" style="fill:#FFFEFF;" cx="205.389" cy="619.095" rx="4.165" ry="5.528"/>
			<ellipse id="XMLID_3260_" style="fill:#FFFEFF;" cx="205.391" cy="639.344" rx="4.165" ry="5.528"/>
		</g>
		<g id="XMLID_2982_">
			<path id="XMLID_2988_" style="fill:#5C6BC0;" d="M298.64,561.398h-67.67c-0.461,0-0.833-0.496-0.833-1.105v-6.356
				c0-0.612,0.374-1.105,0.833-1.105h67.67c0.461,0,0.833,0.496,0.833,1.105v6.356C299.474,560.902,299.1,561.398,298.64,561.398z"
				/>
			<path id="XMLID_2986_" style="fill:#5C6BC0;" d="M289.895,619.444h-50.18c-5.29,0-9.578,5.692-9.578,12.714
				s4.289,12.714,9.578,12.714h50.18c5.29,0,9.577-5.692,9.577-12.714C299.474,625.135,295.184,619.444,289.895,619.444z"/>
			<path id="XMLID_2985_" style="fill:#5C6BC0;" d="M289.895,586.137h-50.18c-5.29,0-9.578,5.692-9.578,12.714
				s4.289,12.714,9.578,12.714h50.18c5.29,0,9.577-5.692,9.577-12.714C299.474,591.829,295.184,586.137,289.895,586.137z"/>
			<path id="XMLID_2983_" style="fill:#5C6BC0;" d="M298.64,575.889h-67.67c-0.461,0-0.833-0.496-0.833-1.105v-6.356
				c0-0.612,0.374-1.105,0.833-1.105h67.67c0.461,0,0.833,0.496,0.833,1.105v6.356C299.474,575.393,299.1,575.889,298.64,575.889z"
				/>
		</g>
		<g id="XMLID_2974_">
			<path id="XMLID_2981_" style="fill:#5C6BC0;" d="M114.879,553.936v89.829c0,0.612-0.374,1.105-0.833,1.105h-4.788
				c-0.46,0-0.833-0.496-0.833-1.105v-89.829c0-0.612,0.374-1.105,0.833-1.105h4.788
				C114.505,552.83,114.879,553.326,114.879,553.936z"/>
			<path id="XMLID_2980_" style="fill:#5C6BC0;" d="M126.285,553.936v89.829c0,0.612-0.374,1.105-0.833,1.105h-4.788
				c-0.46,0-0.833-0.496-0.833-1.105v-89.829c0-0.612,0.374-1.105,0.833-1.105h4.788
				C125.911,552.83,126.285,553.326,126.285,553.936z"/>
			<path id="XMLID_2979_" style="fill:#5C6BC0;" d="M137.69,553.936v89.829c0,0.612-0.374,1.105-0.833,1.105h-4.788
				c-0.461,0-0.833-0.496-0.833-1.105v-89.829c0-0.612,0.374-1.105,0.833-1.105h4.788C137.317,552.83,137.69,553.326,137.69,553.936
				z"/>
			<path id="XMLID_2978_" style="fill:#5C6BC0;" d="M149.095,553.936v89.829c0,0.612-0.374,1.105-0.833,1.105h-4.788
				c-0.461,0-0.833-0.496-0.833-1.105v-89.829c0-0.612,0.374-1.105,0.833-1.105h4.788
				C148.722,552.83,149.095,553.326,149.095,553.936z"/>
			<path id="XMLID_2977_" style="fill:#5C6BC0;" d="M160.501,553.936v89.829c0,0.612-0.374,1.105-0.833,1.105h-4.788
				c-0.461,0-0.833-0.496-0.833-1.105v-89.829c0-0.612,0.374-1.105,0.833-1.105h4.788
				C160.127,552.83,160.501,553.326,160.501,553.936z"/>
			<path id="XMLID_2976_" style="fill:#5C6BC0;" d="M171.908,553.936v89.829c0,0.612-0.374,1.105-0.833,1.105h-4.788
				c-0.46,0-0.833-0.496-0.833-1.105v-89.829c0-0.612,0.374-1.105,0.833-1.105h4.788
				C171.534,552.83,171.908,553.326,171.908,553.936z"/>
			<path id="XMLID_2975_" style="fill:#5C6BC0;" d="M183.313,553.936v89.829c0,0.612-0.374,1.105-0.833,1.105h-4.788
				c-0.46,0-0.833-0.496-0.833-1.105v-89.829c0-0.612,0.374-1.105,0.833-1.105h4.788C182.94,552.83,183.313,553.326,183.313,553.936
				z"/>
		</g>
	</g>
</g>
<path style="opacity:0.9;fill:#0277BD;" d="M232.405,682.747h-6.646c-0.376-15.759-13.355-28.541-29.201-28.541h-3.171
	c-6.126-21.233-25.744-36.894-48.882-36.894l0,0c-23.136,0-42.754,15.661-48.881,36.894h-3.172
	c-15.845,0-28.823,12.782-29.201,28.541h-6.646c-16.271,0-29.585,13.312-29.585,29.585c0,16.271,13.314,29.585,29.585,29.585
	h175.799c16.271,0,29.584-13.314,29.584-29.585C261.989,696.059,248.677,682.747,232.405,682.747z"/>
<g id="XMLID_1260_">
	<path id="XMLID_1793_" style="fill:#DFE5E1;" d="M640.56,613.413c0,0-17.927,19.662-47.647,23.42v54.358c0,0,0,36.72,47.647,63.321
		c47.646-26.601,47.646-63.321,47.646-63.321v-54.358C658.486,633.075,640.56,613.413,640.56,613.413z"/>
	<path id="XMLID_4079_" style="fill:#C8CCCA;" d="M688.206,636.838v54.356c0,0,0,25.612-27.751,49.527V627.975
		C667.897,631.902,677.249,635.447,688.206,636.838z"/>
	<path id="XMLID_1769_" style="fill:#FC982B;" d="M640.564,740.284c-34.414-21.942-35.425-48.813-35.425-49.093v-44.243
		c15.759-3.958,27.851-11.461,35.421-17.278c7.57,5.817,19.659,13.321,35.421,17.28v44.242
		C675.953,692.213,674.865,718.463,640.564,740.284z"/>
	<path id="XMLID_4080_" style="fill:#ED8B2B;" d="M675.981,646.954v44.24c-0.031,0.917-0.917,22.341-26.223,42.528v-97.786
		C656.726,640.154,665.559,644.341,675.981,646.954z"/>
</g>
<g id="XMLID_4085_">
	<path id="XMLID_3419_" style="fill:#FC982B;" d="M363.344,174.21h-75.129c-3.171,0-5.742-2.571-5.742-5.742V98.62h86.613v69.848
		C369.086,171.639,366.515,174.21,363.344,174.21z"/>
	<path id="XMLID_4094_" style="fill:#ED8B2B;" d="M369.087,98.621v59.85c0,8.495-6.714,15.401-15.127,15.703
		c-8.413-0.274-15.154-7.207-15.154-15.703v-59.85H369.087z"/>
	<g id="XMLID_3418_">
		<path id="XMLID_4095_" style="fill:#33618E;" d="M360.377,98.621h-16.442v-16.1c0-10.012-8.145-18.155-18.155-18.155
			s-18.155,8.144-18.155,18.155v16.1h-16.442v-16.1c0-19.078,15.52-34.598,34.598-34.598c19.077,0,34.598,15.519,34.598,34.598
			V98.621z"/>
	</g>
	<path id="XMLID_3417_" style="fill:#03204C;" d="M322.981,114.098c-5.108,1.064-9.157,5.313-10.026,10.458
		c-0.909,5.379,1.49,10.277,5.486,13.011v14.118c0,4.053,3.286,7.339,7.339,7.339c4.053,0,7.338-3.285,7.338-7.339v-14.117
		c3.426-2.345,5.679-6.279,5.679-10.744C338.796,118.72,331.393,112.347,322.981,114.098z"/>
</g>
<path style="opacity:0.4;fill:#FFAE00;" d="M147.455,172.39c0.676-5.992,0.049-11.924-1.707-17.458l6.45-3.442l-7.265-13.608
	l-6.449,3.441c-3.621-4.539-8.202-8.364-13.555-11.133l2.128-6.998l-14.758-4.486l-2.128,6.997
	c-1.572-0.178-3.141-0.266-4.701-0.267v-0.001c-4.378-0.003-8.675,0.678-12.754,1.974l-3.447-6.45l-13.606,7.264l3.442,6.449
	c-4.54,3.621-8.362,8.201-11.132,13.551l-6.997-2.127l-4.487,14.76l6.997,2.127c-0.677,5.992-0.051,11.924,1.707,17.456l-6.45,3.444
	l7.261,13.608l6.453-3.441c3.621,4.54,8.198,8.363,13.553,11.133l-2.128,6.999l14.758,4.486l2.128-6.998
	c1.573,0.179,3.142,0.266,4.702,0.267v0.002c4.377,0.004,8.675-0.678,12.755-1.973l3.442,6.449l13.608-7.262l-3.441-6.451
	c4.539-3.62,8.361-8.2,11.134-13.554l6.996,2.127l4.486-14.758L147.455,172.39z M131.679,175.656
	c-3.594,11.821-14.461,19.435-26.21,19.43v-0.002c-2.635-0.001-5.315-0.384-7.968-1.19c-14.474-4.4-22.641-19.701-18.241-34.176
	c3.594-11.824,14.46-19.438,26.209-19.433v0.002c2.636,0.002,5.315,0.385,7.967,1.191
	C127.911,145.878,136.08,161.179,131.679,175.656z"/>
<path style="opacity:0.4;fill:#0277BD;" d="M480.174,49.86c0.337-2.989,0.024-5.948-0.852-8.709l3.218-1.717l-3.624-6.788
	l-3.217,1.717c-1.806-2.264-4.092-4.172-6.762-5.554l1.062-3.491l-7.362-2.238l-1.062,3.49c-0.784-0.089-1.567-0.133-2.345-0.133v0
	c-2.184-0.001-4.328,0.338-6.362,0.985l-1.72-3.218l-6.787,3.624l1.717,3.217c-2.265,1.806-4.171,4.091-5.553,6.76l-3.49-1.061
	l-2.238,7.363l3.49,1.061c-0.338,2.989-0.025,5.948,0.852,8.708l-3.218,1.718l3.622,6.788l3.219-1.717
	c1.806,2.265,4.09,4.172,6.761,5.554l-1.062,3.491l7.362,2.238l1.062-3.491c0.785,0.089,1.567,0.133,2.346,0.133v0.001
	c2.183,0.002,4.328-0.338,6.363-0.984l1.717,3.217l6.788-3.623l-1.717-3.218c2.264-1.806,4.171-4.091,5.554-6.761l3.49,1.061
	l2.238-7.362L480.174,49.86z M472.304,51.489c-1.793,5.897-7.214,9.695-13.075,9.693v-0.001c-1.315,0-2.652-0.191-3.975-0.594
	c-7.221-2.195-11.294-9.828-9.099-17.049c1.793-5.898,7.214-9.696,13.074-9.694v0.001c1.315,0.001,2.652,0.192,3.975,0.594
	C470.424,36.634,474.499,44.267,472.304,51.489z"/>
<g style="opacity:0.4;">
	<path style="fill:#B3D6F5;" d="M398.959,729.951c-1.716,0-3.451-0.251-5.151-0.767c-2.279-0.693-4.369-1.829-6.21-3.374
		c-7.463-6.263-8.44-17.432-2.176-24.898c3.419-4.072,8.396-6.317,13.536-6.316v-12.763l-8.277,0.723l0.399,4.555
		c-2.98,0.929-5.737,2.363-8.209,4.272l-3.504-2.939l-7.272,8.669l3.502,2.94c-1.45,2.767-2.387,5.726-2.788,8.826l-4.553,0.397
		l0.986,11.274l4.554-0.4c0.928,2.982,2.362,5.738,4.274,8.21l-2.939,3.504l8.668,7.274l2.942-3.503
		c2.746,1.441,5.747,2.386,8.822,2.786l0.401,4.554l2.997-0.262h-0.002V729.951z"/>
	<path style="fill:#B3D6F5;" d="M425.109,715.666l4.558-0.395l-0.986-11.275l-4.555,0.4c-0.928-2.983-2.363-5.736-4.272-8.21
		l2.939-3.504l-8.671-7.274l-2.939,3.504c-2.749-1.443-5.752-2.388-8.827-2.787l-0.398-4.553l-2.996,0.261v12.763
		c1.717,0.001,3.451,0.251,5.152,0.768c2.276,0.691,4.366,1.827,6.21,3.373c7.465,6.266,8.438,17.432,2.177,24.897
		c-3.42,4.074-8.398,6.32-13.538,6.318v12.761l8.277-0.723l-0.396-4.554c2.981-0.929,5.732-2.365,8.206-4.275l3.501,2.941
		l7.278-8.67l-3.502-2.938C423.775,721.727,424.712,718.766,425.109,715.666z"/>
</g>
<path style="opacity:0.4;fill:#F06358;" d="M737.895,36.924c0.814,0.001,1.633,0.046,2.456,0.14l1.111-3.655l7.708,2.343
	l-1.111,3.655c2.796,1.446,5.189,3.444,7.079,5.815l3.368-1.797l3.794,7.107l-3.369,1.798c0.917,2.89,1.244,5.989,0.892,9.117
	l3.654,1.111l-2.343,7.708l-3.654-1.11c-1.448,2.796-3.444,5.188-5.815,7.079l1.798,3.369l-7.107,3.793l-1.798-3.369
	c-2.131,0.677-4.376,1.033-6.662,1.031v-5.772c6.987,0.003,13.451-4.525,15.589-11.556c2.617-8.61-2.241-17.71-10.85-20.328
	c-1.577-0.48-3.171-0.707-4.738-0.708v-5.771H737.895z M724.126,41.748l-1.798-3.368l7.106-3.794l1.8,3.369
	c2.13-0.676,4.375-1.033,6.661-1.031v5.771c-6.987-0.003-13.45,4.526-15.588,11.558c-2.617,8.609,2.24,17.709,10.849,20.326l0,0
	c1.578,0.48,3.172,0.707,4.739,0.708v5.772c-0.815-0.001-1.634-0.047-2.456-0.14l-1.111,3.655l-7.708-2.343l1.111-3.655
	c-2.797-1.447-5.187-3.444-7.078-5.815l-3.371,1.797l-3.792-7.107l3.369-1.799c-0.918-2.889-1.245-5.988-0.892-9.116l-3.654-1.111
	l2.344-7.709l3.653,1.111C719.759,46.031,721.755,43.639,724.126,41.748z"/>
<g>
	<g id="XMLID_152_">
		<g id="XMLID_191_">
			<path id="XMLID_192_" style="fill:#5E35B1;" d="M363.857,438.949c-0.013-1.967,1.583-3.571,3.565-3.584l18.498-0.122
				c1.982-0.013,3.599,1.57,3.612,3.536c0.013,1.967-1.583,3.571-3.565,3.584l-18.498,0.122
				C365.486,442.498,363.869,440.916,363.857,438.949z"/>
		</g>
	</g>
	<g id="XMLID_145_">
		<g id="XMLID_150_">
			<path id="XMLID_151_" style="fill:#5E35B1;" d="M398.222,142.331c-2.066,0-3.741-1.674-3.741-3.74v-6.234h-6.234
				c-2.066,0-3.74-1.674-3.74-3.74c0-2.066,1.674-3.74,3.74-3.74h9.974c2.066,0,3.74,1.674,3.74,3.74v9.974
				C401.962,140.656,400.288,142.331,398.222,142.331z"/>
		</g>
		<g id="XMLID_148_">
			<path id="XMLID_149_" style="fill:#5E35B1;" d="M398.222,412.257c-2.066,0-3.741-1.675-3.741-3.74v-19.279
				c0-2.065,1.674-3.74,3.741-3.74c2.066,0,3.74,1.675,3.74,3.74v19.279C401.962,410.582,400.288,412.257,398.222,412.257z
				 M398.222,373.697c-2.066,0-3.741-1.674-3.741-3.74v-19.281c0-2.066,1.674-3.74,3.741-3.74c2.066,0,3.74,1.674,3.74,3.74v19.281
				C401.962,372.023,400.288,373.697,398.222,373.697z M398.222,335.136c-2.066,0-3.741-1.674-3.741-3.74v-19.28
				c0-2.066,1.674-3.74,3.741-3.74c2.066,0,3.74,1.674,3.74,3.74v19.28C401.962,333.461,400.288,335.136,398.222,335.136z
				 M398.222,296.575c-2.066,0-3.741-1.674-3.741-3.74v-19.28c0-2.066,1.674-3.74,3.741-3.74c2.066,0,3.74,1.674,3.74,3.74v19.28
				C401.962,294.901,400.288,296.575,398.222,296.575z M398.222,258.014c-2.066,0-3.741-1.674-3.741-3.74v-19.281
				c0-2.066,1.674-3.74,3.741-3.74c2.066,0,3.74,1.674,3.74,3.74v19.281C401.962,256.34,400.288,258.014,398.222,258.014z
				 M398.222,219.453c-2.066,0-3.741-1.674-3.741-3.74v-19.281c0-2.066,1.674-3.74,3.741-3.74c2.066,0,3.74,1.674,3.74,3.74v19.281
				C401.962,217.779,400.288,219.453,398.222,219.453z M398.222,180.892c-2.066,0-3.741-1.674-3.741-3.74v-19.281
				c0-2.066,1.674-3.74,3.741-3.74c2.066,0,3.74,1.674,3.74,3.74v19.281C401.962,179.218,400.288,180.892,398.222,180.892z"/>
		</g>
		<g id="XMLID_146_">
			<path id="XMLID_147_" style="fill:#5E35B1;" d="M398.222,441.512c-2.066,0-3.741-1.676-3.741-3.74v-9.974
				c0-2.065,1.674-3.74,3.741-3.74c2.066,0,3.74,1.675,3.74,3.74v9.974C401.962,439.837,400.288,441.512,398.222,441.512z"/>
		</g>
	</g>
</g>
<g>
	<g id="XMLID_206_">
		<g id="XMLID_207_">
			<path id="XMLID_208_" style="fill:#5E35B1;" d="M709.847,686.401c-0.013-1.967,1.583-3.571,3.565-3.584l18.498-0.122
				c1.982-0.013,3.599,1.57,3.612,3.536c0.013,1.967-1.583,3.571-3.565,3.584l-18.498,0.122
				C711.476,689.951,709.86,688.368,709.847,686.401z"/>
		</g>
	</g>
	<g id="XMLID_153_">
		<g id="XMLID_204_">
			<path id="XMLID_205_" style="fill:#5E35B1;" d="M744.212,389.783c-2.066,0-3.74-1.674-3.74-3.74v-6.234h-6.234
				c-2.066,0-3.74-1.674-3.74-3.74s1.674-3.74,3.74-3.74h9.974c2.066,0,3.74,1.674,3.74,3.74v9.974
				C747.952,388.109,746.278,389.783,744.212,389.783z"/>
		</g>
		<g id="XMLID_195_">
			<path id="XMLID_196_" style="fill:#5E35B1;" d="M744.212,659.709c-2.066,0-3.74-1.675-3.74-3.74V636.69
				c0-2.065,1.674-3.74,3.74-3.74c2.066,0,3.74,1.675,3.74,3.74v19.279C747.952,658.034,746.278,659.709,744.212,659.709z
				 M744.212,621.15c-2.066,0-3.74-1.674-3.74-3.74v-19.281c0-2.066,1.674-3.74,3.74-3.74c2.066,0,3.74,1.674,3.74,3.74v19.281
				C747.952,619.476,746.278,621.15,744.212,621.15z M744.212,582.588c-2.066,0-3.74-1.674-3.74-3.74v-19.28
				c0-2.066,1.674-3.74,3.74-3.74c2.066,0,3.74,1.674,3.74,3.74v19.28C747.952,580.914,746.278,582.588,744.212,582.588z
				 M744.212,544.027c-2.066,0-3.74-1.674-3.74-3.74v-19.28c0-2.066,1.674-3.74,3.74-3.74c2.066,0,3.74,1.674,3.74,3.74v19.28
				C747.952,542.353,746.278,544.027,744.212,544.027z M744.212,505.466c-2.066,0-3.74-1.674-3.74-3.74v-19.281
				c0-2.066,1.674-3.74,3.74-3.74c2.066,0,3.74,1.674,3.74,3.74v19.281C747.952,503.792,746.278,505.466,744.212,505.466z
				 M744.212,466.905c-2.066,0-3.74-1.674-3.74-3.74v-19.281c0-2.066,1.674-3.74,3.74-3.74c2.066,0,3.74,1.674,3.74,3.74v19.281
				C747.952,465.231,746.278,466.905,744.212,466.905z M744.212,428.345c-2.066,0-3.74-1.674-3.74-3.74v-19.281
				c0-2.066,1.674-3.741,3.74-3.741c2.066,0,3.74,1.674,3.74,3.741v19.281C747.952,426.671,746.278,428.345,744.212,428.345z"/>
		</g>
		<g id="XMLID_190_">
			<path id="XMLID_194_" style="fill:#5E35B1;" d="M744.212,688.964c-2.066,0-3.74-1.676-3.74-3.74v-9.974
				c0-2.065,1.674-3.74,3.74-3.74c2.066,0,3.74,1.675,3.74,3.74v9.974C747.952,687.289,746.278,688.964,744.212,688.964z"/>
		</g>
	</g>
</g>
<path style="opacity:0.9;fill:#29B6F6;" d="M756.312,536.762h-5.681c-0.322-13.473-11.42-24.401-24.966-24.401h-2.711
	c-5.237-18.153-22.011-31.542-41.79-31.542l0,0c-19.781,0-36.554,13.389-41.79,31.542h-2.713c-13.547,0-24.643,10.928-24.966,24.401
	h-5.681c-13.911,0-25.294,11.38-25.294,25.294c0,13.912,11.382,25.294,25.294,25.294H756.31c13.912,0,25.292-11.382,25.292-25.294
	C781.605,548.144,770.222,536.762,756.312,536.762z"/>
</svg>
