<?xml version="1.0" encoding="utf-8"?>
<!-- Generator: Adobe Illustrator 23.0.1, SVG Export Plug-In . SVG Version: 6.00 Build 0)  -->
<svg version="1.1" id="Layer_1" xmlns="http://www.w3.org/2000/svg" xmlns:xlink="http://www.w3.org/1999/xlink" x="0px" y="0px"
	 viewBox="0 0 800 800" style="enable-background:new 0 0 800 800;" xml:space="preserve">
<g>
	<g>
		<g>
			
				<linearGradient id="SVGID_1_" gradientUnits="userSpaceOnUse" x1="596.002" y1="550.3854" x2="151.2574" y2="296.9121" gradientTransform="matrix(1 0 0 -1 0 800)">
				<stop  offset="0" style="stop-color:#512DA8"/>
				<stop  offset="1" style="stop-color:#B39DDB"/>
			</linearGradient>
			<path style="fill-rule:evenodd;clip-rule:evenodd;fill:url(#SVGID_1_);" d="M142.177,217.251h456.128
				c9.323,0,16.95,7.629,16.95,16.95v288.163c0,9.322-7.628,16.95-16.95,16.95H142.177c-9.323,0-16.95-7.629-16.95-16.95V234.201
				C125.226,224.881,132.854,217.251,142.177,217.251z"/>
			<rect x="150.651" y="250.88" style="fill-rule:evenodd;clip-rule:evenodd;fill:#FFFFFF;" width="439.177" height="235.767"/>
			<path style="fill-rule:evenodd;clip-rule:evenodd;fill:#6A7573;" d="M370.239,240.83c3.405,0,6.164-2.762,6.164-6.165
				s-2.76-6.161-6.164-6.161c-3.404,0-6.161,2.757-6.161,6.161C364.078,238.069,366.835,240.83,370.239,240.83z"/>
			<rect x="359.82" y="501.325" style="fill-rule:evenodd;clip-rule:evenodd;fill:#6A7573;" width="20.839" height="20.84"/>
			<polygon style="fill-rule:evenodd;clip-rule:evenodd;fill:#9575CD;" points="125.226,539.315 615.255,539.315 700.366,554.751 
				40.116,554.751 			"/>
			<path style="fill-rule:evenodd;clip-rule:evenodd;fill:#5E35B1;" d="M40.116,554.751h660.249v9.504
				c0,6.735-5.514,12.25-12.252,12.25H52.367c-6.737,0-12.252-5.512-12.252-12.25C40.116,564.255,40.116,554.751,40.116,554.751z"/>
			<rect x="303.556" y="561.443" style="fill-rule:evenodd;clip-rule:evenodd;fill:#9575CD;" width="133.366" height="8.502"/>
		</g>
	</g>
	<g>
		<g>
			<g>
				<rect x="168.951" y="265.199" style="fill-rule:evenodd;clip-rule:evenodd;fill:#F45556;" width="134.136" height="5.096"/>
				<rect x="168.951" y="277.796" style="fill-rule:evenodd;clip-rule:evenodd;fill:#23D0F3;" width="42.982" height="5.096"/>
				<rect x="168.951" y="290.361" style="fill-rule:evenodd;clip-rule:evenodd;fill:#FFFFFF;" width="69.315" height="5.096"/>
				<rect x="201.203" y="302.958" style="fill-rule:evenodd;clip-rule:evenodd;fill:#23D0F3;" width="40.449" height="5.096"/>
				<rect x="201.203" y="315.523" style="fill-rule:evenodd;clip-rule:evenodd;fill:#23D0F3;" width="40.449" height="5.096"/>
				<rect x="229.277" y="328.12" style="fill-rule:evenodd;clip-rule:evenodd;fill:#23D0F3;" width="39.34" height="5.096"/>
				<rect x="226.396" y="277.796" style="fill-rule:evenodd;clip-rule:evenodd;fill:#FFFFFF;" width="73.303" height="5.096"/>
				<rect x="310.144" y="277.796" style="fill-rule:evenodd;clip-rule:evenodd;fill:#CACACA;" width="35.005" height="5.096"/>
				<rect x="358.443" y="277.796" style="fill-rule:evenodd;clip-rule:evenodd;fill:#CACACA;" width="47.255" height="5.096"/>
				<rect x="249.849" y="290.361" style="fill-rule:evenodd;clip-rule:evenodd;fill:#23D0F3;" width="41.241" height="5.096"/>
				<rect x="253.995" y="302.958" style="fill-rule:evenodd;clip-rule:evenodd;fill:#FFFFFF;" width="23.611" height="5.096"/>
				<rect x="253.995" y="315.523" style="fill-rule:evenodd;clip-rule:evenodd;fill:#CACACA;" width="40.449" height="5.096"/>
				<rect x="288.843" y="302.958" style="fill-rule:evenodd;clip-rule:evenodd;fill:#CACACA;" width="44.944" height="5.096"/>
				<rect x="342.776" y="302.958" style="fill-rule:evenodd;clip-rule:evenodd;fill:#FFE032;" width="23.579" height="5.096"/>
				<rect x="376.484" y="302.958" style="fill-rule:evenodd;clip-rule:evenodd;fill:#CACACA;" width="29.213" height="5.096"/>
				<rect x="303.434" y="315.523" style="fill-rule:evenodd;clip-rule:evenodd;fill:#FFFFFF;" width="51.084" height="5.096"/>
				<rect x="362.147" y="315.523" style="fill-rule:evenodd;clip-rule:evenodd;fill:#CACACA;" width="15.256" height="5.096"/>
				<rect x="279.853" y="328.12" style="fill-rule:evenodd;clip-rule:evenodd;fill:#F45556;" width="29.246" height="5.096"/>
				<rect x="201.203" y="353.283" style="fill-rule:evenodd;clip-rule:evenodd;fill:#23D0F3;" width="40.449" height="5.096"/>
				<rect x="201.203" y="365.88" style="fill-rule:evenodd;clip-rule:evenodd;fill:#23D0F3;" width="40.449" height="5.096"/>
				<rect x="253.995" y="353.283" style="fill-rule:evenodd;clip-rule:evenodd;fill:#CACACA;" width="23.611" height="5.096"/>
				<rect x="253.995" y="365.88" style="fill-rule:evenodd;clip-rule:evenodd;fill:#FFFFFF;" width="36.43" height="5.096"/>
				<rect x="288.843" y="353.283" style="fill-rule:evenodd;clip-rule:evenodd;fill:#CACACA;" width="34.562" height="5.096"/>
				<rect x="330.305" y="353.283" style="fill-rule:evenodd;clip-rule:evenodd;fill:#FFFFFF;" width="18.168" height="5.096"/>
				<rect x="356.259" y="353.283" style="fill-rule:evenodd;clip-rule:evenodd;fill:#CACACA;" width="22.473" height="5.096"/>
				<rect x="325.875" y="365.88" style="fill-rule:evenodd;clip-rule:evenodd;fill:#CACACA;" width="40.481" height="5.096"/>
				<rect x="201.203" y="378.445" style="fill-rule:evenodd;clip-rule:evenodd;fill:#23D0F3;" width="40.449" height="5.096"/>
				<rect x="201.203" y="391.042" style="fill-rule:evenodd;clip-rule:evenodd;fill:#23D0F3;" width="40.449" height="5.096"/>
				<rect x="253.995" y="378.445" style="fill-rule:evenodd;clip-rule:evenodd;fill:#CACACA;" width="23.611" height="5.096"/>
				<rect x="253.995" y="391.042" style="fill-rule:evenodd;clip-rule:evenodd;fill:#FFFFFF;" width="74.157" height="5.096"/>
				<rect x="288.843" y="378.445" style="fill-rule:evenodd;clip-rule:evenodd;fill:#FFFFFF;" width="44.944" height="5.096"/>
				<rect x="342.776" y="378.445" style="fill-rule:evenodd;clip-rule:evenodd;fill:#CACACA;" width="23.579" height="5.096"/>
				<rect x="376.484" y="378.445" style="fill-rule:evenodd;clip-rule:evenodd;fill:#CACACA;" width="29.213" height="5.096"/>
				<rect x="337.141" y="391.042" style="fill-rule:evenodd;clip-rule:evenodd;fill:#CACACA;" width="41.589" height="5.096"/>
				<rect x="298.529" y="365.88" style="fill-rule:evenodd;clip-rule:evenodd;fill:#FFE032;" width="17.218" height="5.096"/>
				<rect x="168.951" y="416.204" style="fill-rule:evenodd;clip-rule:evenodd;fill:#23D0F3;" width="42.982" height="5.096"/>
				<rect x="168.951" y="428.769" style="fill-rule:evenodd;clip-rule:evenodd;fill:#FFFFFF;" width="69.315" height="5.096"/>
				<rect x="201.203" y="441.366" style="fill-rule:evenodd;clip-rule:evenodd;fill:#23D0F3;" width="40.449" height="5.097"/>
				<rect x="201.203" y="453.932" style="fill-rule:evenodd;clip-rule:evenodd;fill:#23D0F3;" width="40.449" height="5.128"/>
				<rect x="229.277" y="466.529" style="fill-rule:evenodd;clip-rule:evenodd;fill:#23D0F3;" width="39.34" height="5.096"/>
				<rect x="226.396" y="416.204" style="fill-rule:evenodd;clip-rule:evenodd;fill:#F45556;" width="40.672" height="5.096"/>
				<rect x="277.481" y="416.204" style="fill-rule:evenodd;clip-rule:evenodd;fill:#CACACA;" width="20.541" height="5.096"/>
				<rect x="311.315" y="416.204" style="fill-rule:evenodd;clip-rule:evenodd;fill:#FFFFFF;" width="65.326" height="5.096"/>
				<rect x="249.849" y="428.769" style="fill-rule:evenodd;clip-rule:evenodd;fill:#23D0F3;" width="41.241" height="5.096"/>
				<rect x="253.995" y="441.366" style="fill-rule:evenodd;clip-rule:evenodd;fill:#CACACA;" width="46.083" height="5.097"/>
				<rect x="253.995" y="453.932" style="fill-rule:evenodd;clip-rule:evenodd;fill:#CACACA;" width="31.46" height="5.128"/>
				<rect x="311.315" y="441.366" style="fill-rule:evenodd;clip-rule:evenodd;fill:#FFE032;" width="34.246" height="5.097"/>
				<rect x="294.445" y="453.932" style="fill-rule:evenodd;clip-rule:evenodd;fill:#FFFFFF;" width="60.073" height="5.128"/>
				<rect x="362.147" y="453.932" style="fill-rule:evenodd;clip-rule:evenodd;fill:#CACACA;" width="15.256" height="5.128"/>
				<rect x="279.853" y="466.529" style="fill-rule:evenodd;clip-rule:evenodd;fill:#CACACA;" width="29.246" height="5.096"/>
				<rect x="315.587" y="466.529" style="fill-rule:evenodd;clip-rule:evenodd;fill:#CACACA;" width="54.441" height="5.096"/>
				<rect x="378.129" y="466.529" style="fill-rule:evenodd;clip-rule:evenodd;fill:#FFFFFF;" width="16.269" height="5.096"/>
			</g>
		</g>
		<g>
			<g>
				<rect x="328.209" y="277.796" style="fill-rule:evenodd;clip-rule:evenodd;fill:#23D0F3;" width="42.982" height="5.096"/>
				<rect x="328.209" y="290.361" style="fill-rule:evenodd;clip-rule:evenodd;fill:#FFFFFF;" width="69.315" height="5.096"/>
				<rect x="360.461" y="302.958" style="fill-rule:evenodd;clip-rule:evenodd;fill:#23D0F3;" width="40.449" height="5.096"/>
				<rect x="360.461" y="315.523" style="fill-rule:evenodd;clip-rule:evenodd;fill:#23D0F3;" width="40.449" height="5.096"/>
				<rect x="388.535" y="328.12" style="fill-rule:evenodd;clip-rule:evenodd;fill:#23D0F3;" width="39.34" height="5.096"/>
				<rect x="385.655" y="277.796" style="fill-rule:evenodd;clip-rule:evenodd;fill:#FFFFFF;" width="73.303" height="5.096"/>
				<rect x="469.402" y="277.796" style="fill-rule:evenodd;clip-rule:evenodd;fill:#CACACA;" width="35.005" height="5.096"/>
				<rect x="517.701" y="277.796" style="fill-rule:evenodd;clip-rule:evenodd;fill:#CACACA;" width="47.255" height="5.096"/>
				<rect x="409.108" y="290.361" style="fill-rule:evenodd;clip-rule:evenodd;fill:#23D0F3;" width="41.241" height="5.096"/>
				<rect x="413.254" y="302.958" style="fill-rule:evenodd;clip-rule:evenodd;fill:#FFFFFF;" width="23.611" height="5.096"/>
				<rect x="413.254" y="315.523" style="fill-rule:evenodd;clip-rule:evenodd;fill:#CACACA;" width="40.449" height="5.096"/>
				<rect x="448.102" y="302.958" style="fill-rule:evenodd;clip-rule:evenodd;fill:#CACACA;" width="44.944" height="5.096"/>
				<rect x="502.035" y="302.958" style="fill-rule:evenodd;clip-rule:evenodd;fill:#FFE032;" width="23.579" height="5.096"/>
				<rect x="535.743" y="302.958" style="fill-rule:evenodd;clip-rule:evenodd;fill:#CACACA;" width="29.213" height="5.096"/>
				<rect x="462.692" y="315.523" style="fill-rule:evenodd;clip-rule:evenodd;fill:#FFFFFF;" width="51.084" height="5.096"/>
				<rect x="521.404" y="315.523" style="fill-rule:evenodd;clip-rule:evenodd;fill:#CACACA;" width="15.256" height="5.096"/>
				<rect x="439.112" y="328.12" style="fill-rule:evenodd;clip-rule:evenodd;fill:#F45556;" width="29.246" height="5.096"/>
				<rect x="360.461" y="353.283" style="fill-rule:evenodd;clip-rule:evenodd;fill:#23D0F3;" width="40.449" height="5.096"/>
				<rect x="360.461" y="365.88" style="fill-rule:evenodd;clip-rule:evenodd;fill:#23D0F3;" width="40.449" height="5.096"/>
				<rect x="413.254" y="353.283" style="fill-rule:evenodd;clip-rule:evenodd;fill:#CACACA;" width="23.611" height="5.096"/>
				<rect x="413.254" y="365.88" style="fill-rule:evenodd;clip-rule:evenodd;fill:#FFFFFF;" width="36.43" height="5.096"/>
				<rect x="448.102" y="353.283" style="fill-rule:evenodd;clip-rule:evenodd;fill:#CACACA;" width="34.562" height="5.096"/>
				<rect x="489.563" y="353.283" style="fill-rule:evenodd;clip-rule:evenodd;fill:#FFFFFF;" width="18.168" height="5.096"/>
				<rect x="515.517" y="353.283" style="fill-rule:evenodd;clip-rule:evenodd;fill:#CACACA;" width="22.472" height="5.096"/>
				<rect x="485.133" y="365.88" style="fill-rule:evenodd;clip-rule:evenodd;fill:#CACACA;" width="40.481" height="5.096"/>
				<rect x="360.461" y="378.445" style="fill-rule:evenodd;clip-rule:evenodd;fill:#23D0F3;" width="40.449" height="5.096"/>
				<rect x="360.461" y="391.042" style="fill-rule:evenodd;clip-rule:evenodd;fill:#23D0F3;" width="40.449" height="5.096"/>
				<rect x="413.254" y="378.445" style="fill-rule:evenodd;clip-rule:evenodd;fill:#CACACA;" width="23.611" height="5.096"/>
				<rect x="413.254" y="391.042" style="fill-rule:evenodd;clip-rule:evenodd;fill:#FFFFFF;" width="74.157" height="5.096"/>
				<rect x="448.102" y="378.445" style="fill-rule:evenodd;clip-rule:evenodd;fill:#FFFFFF;" width="44.944" height="5.096"/>
				<rect x="502.035" y="378.445" style="fill-rule:evenodd;clip-rule:evenodd;fill:#CACACA;" width="23.579" height="5.096"/>
				<rect x="535.743" y="378.445" style="fill-rule:evenodd;clip-rule:evenodd;fill:#CACACA;" width="29.213" height="5.096"/>
				<rect x="496.4" y="391.042" style="fill-rule:evenodd;clip-rule:evenodd;fill:#CACACA;" width="41.589" height="5.096"/>
				<rect x="457.787" y="365.88" style="fill-rule:evenodd;clip-rule:evenodd;fill:#FFE032;" width="17.218" height="5.096"/>
				<rect x="328.209" y="416.204" style="fill-rule:evenodd;clip-rule:evenodd;fill:#23D0F3;" width="42.982" height="5.096"/>
				<rect x="328.209" y="428.769" style="fill-rule:evenodd;clip-rule:evenodd;fill:#FFFFFF;" width="69.315" height="5.096"/>
				<rect x="360.461" y="441.366" style="fill-rule:evenodd;clip-rule:evenodd;fill:#23D0F3;" width="40.449" height="5.097"/>
				<rect x="360.461" y="453.932" style="fill-rule:evenodd;clip-rule:evenodd;fill:#23D0F3;" width="40.449" height="5.128"/>
				<rect x="388.535" y="466.529" style="fill-rule:evenodd;clip-rule:evenodd;fill:#23D0F3;" width="39.34" height="5.096"/>
				<rect x="385.655" y="416.204" style="fill-rule:evenodd;clip-rule:evenodd;fill:#F45556;" width="40.672" height="5.096"/>
				<rect x="436.739" y="416.204" style="fill-rule:evenodd;clip-rule:evenodd;fill:#CACACA;" width="20.541" height="5.096"/>
				<rect x="470.573" y="416.204" style="fill-rule:evenodd;clip-rule:evenodd;fill:#FFFFFF;" width="65.326" height="5.096"/>
				<rect x="409.108" y="428.769" style="fill-rule:evenodd;clip-rule:evenodd;fill:#23D0F3;" width="41.241" height="5.096"/>
				<rect x="413.254" y="441.366" style="fill-rule:evenodd;clip-rule:evenodd;fill:#CACACA;" width="46.083" height="5.097"/>
				<rect x="413.254" y="453.932" style="fill-rule:evenodd;clip-rule:evenodd;fill:#CACACA;" width="31.46" height="5.128"/>
				<rect x="470.573" y="441.366" style="fill-rule:evenodd;clip-rule:evenodd;fill:#FFE032;" width="34.246" height="5.097"/>
				<rect x="453.703" y="453.932" style="fill-rule:evenodd;clip-rule:evenodd;fill:#FFFFFF;" width="60.073" height="5.128"/>
				<rect x="521.404" y="453.932" style="fill-rule:evenodd;clip-rule:evenodd;fill:#CACACA;" width="15.256" height="5.128"/>
				<rect x="439.112" y="466.529" style="fill-rule:evenodd;clip-rule:evenodd;fill:#CACACA;" width="29.246" height="5.096"/>
				<rect x="474.846" y="466.529" style="fill-rule:evenodd;clip-rule:evenodd;fill:#CACACA;" width="54.441" height="5.096"/>
				<rect x="537.387" y="466.529" style="fill-rule:evenodd;clip-rule:evenodd;fill:#FFFFFF;" width="16.269" height="5.096"/>
			</g>
		</g>
	</g>
</g>
<g>
	<g>
		
			<linearGradient id="SVGID_2_" gradientUnits="userSpaceOnUse" x1="694.1331" y1="223.5385" x2="694.1331" y2="433.5012" gradientTransform="matrix(1 0 0 -1 0 800)">
			<stop  offset="0" style="stop-color:#4527A0"/>
			<stop  offset="1" style="stop-color:#9575CD"/>
		</linearGradient>
		<path style="fill-rule:evenodd;clip-rule:evenodd;fill:url(#SVGID_2_);" d="M658.674,353.7h70.917
			c13.734,0,24.971,11.236,24.971,24.971V566.95c0,13.733-11.236,24.971-24.971,24.971h-70.917c-13.733,0-24.97-11.237-24.97-24.971
			V378.671C633.703,364.936,644.94,353.7,658.674,353.7z"/>
		<path style="fill-rule:evenodd;clip-rule:evenodd;fill:#FFFFFF;" d="M644.683,373.677h98.899c0.193,0,0.349,0.158,0.349,0.349
			v195.57c0,0.193-0.158,0.349-0.349,0.349h-98.899c-0.193,0-0.349-0.157-0.349-0.349v-195.57
			C644.332,373.833,644.49,373.677,644.683,373.677z"/>
		<path style="fill-rule:evenodd;clip-rule:evenodd;fill:#5085A1;" d="M675.81,359.593h36.643c0.994,0,1.805,0.813,1.805,1.805
			v0.001c0,0.994-0.812,1.805-1.805,1.805H675.81c-0.994,0-1.805-0.813-1.805-1.805v-0.001
			C674.005,360.406,674.816,359.593,675.81,359.593z"/>
		<path style="fill-rule:evenodd;clip-rule:evenodd;fill:#5085A1;" d="M694.133,586.697c3.363,0,6.105-2.742,6.105-6.105
			c0-3.363-2.743-6.105-6.105-6.105c-3.362,0-6.105,2.742-6.105,6.105C688.027,583.955,690.77,586.697,694.133,586.697z"/>
	</g>
	<path style="fill:#303F9F;" d="M694.363,397.617c1.117,0.001,2.242,0.064,3.369,0.191l1.525-5.014l10.576,3.215l-1.525,5.014
		c3.836,1.985,7.119,4.726,9.714,7.978l4.621-2.466l5.206,9.752l-4.622,2.466c1.259,3.966,1.707,8.217,1.223,12.51l5.013,1.523
		l-3.215,10.576l-5.013-1.523c-1.987,3.837-4.726,7.119-7.978,9.713l2.466,4.623l-9.752,5.204l-2.466-4.621
		c-2.924,0.928-6.004,1.416-9.14,1.414v-7.919c9.587,0.003,18.456-6.209,21.389-15.857c3.591-11.814-3.074-24.301-14.887-27.891
		c-2.164-0.658-4.35-0.97-6.501-0.971v-7.915H694.363z M675.47,404.236l-2.466-4.621l9.75-5.205l2.47,4.622
		c2.923-0.929,6.003-1.417,9.14-1.414v7.918c-9.587-0.003-18.456,6.209-21.389,15.858c-3.591,11.813,3.073,24.299,14.886,27.89l0,0
		c2.165,0.658,4.353,0.97,6.503,0.971v7.919c-1.117-0.001-2.242-0.063-3.37-0.191l-1.525,5.014l-10.576-3.215l1.525-5.016
		c-3.837-1.985-7.118-4.725-9.712-7.978l-4.624,2.466l-5.203-9.752l4.622-2.468c-1.26-3.965-1.708-8.216-1.223-12.509l-5.014-1.523
		l3.216-10.578l5.014,1.525C669.478,410.114,672.217,406.831,675.47,404.236z"/>
	<g>
		<rect x="656.016" y="550.508" style="fill-rule:evenodd;clip-rule:evenodd;fill:#303F9F;" width="28.927" height="4.147"/>
		<rect x="656.016" y="533.843" style="fill-rule:evenodd;clip-rule:evenodd;fill:#303F9F;" width="15.185" height="4.148"/>
		<rect x="711.219" y="533.843" style="fill-rule:evenodd;clip-rule:evenodd;fill:#303F9F;" width="21.444" height="4.148"/>
		<rect x="656.016" y="519.497" style="fill-rule:evenodd;clip-rule:evenodd;fill:#303F9F;" width="11.154" height="4.148"/>
		<rect x="671.2" y="519.497" style="fill-rule:evenodd;clip-rule:evenodd;fill:#303F9F;" width="50.646" height="4.148"/>
		<rect x="656.016" y="505.151" style="fill-rule:evenodd;clip-rule:evenodd;fill:#303F9F;" width="27.436" height="4.148"/>
		<rect x="687.483" y="505.151" style="fill-rule:evenodd;clip-rule:evenodd;fill:#303F9F;" width="30.63" height="4.148"/>
		<rect x="656.016" y="490.806" style="fill-rule:evenodd;clip-rule:evenodd;fill:#303F9F;" width="11.154" height="4.148"/>
		<rect x="671.2" y="490.806" style="fill-rule:evenodd;clip-rule:evenodd;fill:#303F9F;" width="28.385" height="4.148"/>
		<rect x="656.016" y="476.46" style="fill-rule:evenodd;clip-rule:evenodd;fill:#303F9F;" width="23.459" height="4.148"/>
		<rect x="683.504" y="476.46" style="fill-rule:evenodd;clip-rule:evenodd;fill:#303F9F;" width="29.15" height="4.148"/>
		<rect x="675.232" y="533.843" style="fill-rule:evenodd;clip-rule:evenodd;fill:#303F9F;" width="31.535" height="4.148"/>
		<rect x="726.299" y="519.497" style="fill-rule:evenodd;clip-rule:evenodd;fill:#303F9F;" width="6.365" height="4.148"/>
		<rect x="722.565" y="505.151" style="fill-rule:evenodd;clip-rule:evenodd;fill:#303F9F;" width="10.099" height="4.148"/>
		<rect x="704.037" y="490.806" style="fill-rule:evenodd;clip-rule:evenodd;fill:#303F9F;" width="28.625" height="4.148"/>
		<rect x="717.107" y="476.46" style="fill-rule:evenodd;clip-rule:evenodd;fill:#303F9F;" width="15.556" height="4.148"/>
	</g>
</g>
<g>
	<path style="fill:#E65100;" d="M714.958,617.369c4.876,8.502-1.282,19.093-11.082,19.065l-79.273-0.234l-79.274-0.233
		c-9.801-0.029-15.895-10.657-10.969-19.13l39.839-68.537l39.84-68.536c4.925-8.474,17.176-8.437,22.051,0.065l39.434,68.769
		L714.958,617.369z"/>
	<path style="fill:#F6F6F6;" d="M633.156,616.76c0,4.706-3.815,8.522-8.522,8.522c-4.705,0-8.521-3.815-8.521-8.522
		c0-4.706,3.815-8.522,8.521-8.522C629.341,608.239,633.156,612.054,633.156,616.76"/>
	<path style="fill:#F6F6F6;" d="M624.635,602.999L624.635,602.999c-3.287,0-6.042-2.586-6.278-5.941l-5.163-73.751
		c-0.493-7.057,4.079-13.159,10.025-13.159h2.83c5.945,0,10.518,6.102,10.025,13.159l-5.164,73.751
		C630.677,600.412,627.922,602.999,624.635,602.999"/>
</g>
<path style="fill:#FFAE00;" d="M113.736,671.31c-0.933,8.268-0.068,16.453,2.355,24.089l-8.9,4.749l10.024,18.776l8.898-4.748
	c4.996,6.263,11.317,11.541,18.703,15.361l-2.936,9.656l20.363,6.19l2.936-9.655c2.169,0.246,4.334,0.367,6.486,0.368v0.001
	c6.041,0.004,11.97-0.935,17.598-2.724l4.756,8.9l18.774-10.023l-4.749-8.898c6.264-4.996,11.538-11.316,15.36-18.698l9.655,2.935
	l6.191-20.366l-9.655-2.935c0.934-8.268,0.07-16.453-2.355-24.086l8.9-4.752l-10.019-18.777l-8.904,4.748
	c-4.996-6.264-11.312-11.539-18.701-15.361l2.936-9.657l-20.363-6.19l-2.936,9.656c-2.17-0.247-4.335-0.367-6.488-0.368V619.5
	c-6.039-0.005-11.97,0.935-17.6,2.722l-4.749-8.898l-18.776,10.02l4.748,8.901c-6.263,4.995-11.537,11.314-15.363,18.702
	l-9.653-2.935l-6.19,20.363L113.736,671.31z M135.503,666.804c4.959-16.311,19.954-26.817,36.164-26.81v0.002
	c3.636,0.001,7.334,0.53,10.995,1.642c19.972,6.072,31.24,27.184,25.169,47.157c-4.959,16.315-19.952,26.82-36.163,26.814v-0.002
	c-3.637-0.002-7.334-0.531-10.993-1.643C140.702,707.893,129.431,686.779,135.503,666.804z"/>
<path style="fill:#0277BD;" d="M317.654,84.006c-0.648,5.747-0.047,11.437,1.637,16.745l-6.187,3.301l6.968,13.052l6.186-3.3
	c3.473,4.354,7.867,8.022,13.002,10.678l-2.041,6.712l14.156,4.303l2.041-6.711c1.508,0.171,3.013,0.255,4.509,0.256v0.001
	c4.199,0.003,8.321-0.65,12.233-1.893l3.306,6.187l13.051-6.967l-3.301-6.186c4.355-3.473,8.021-7.866,10.678-12.998l6.711,2.04
	l4.304-14.157l-6.711-2.04c0.649-5.747,0.049-11.437-1.637-16.743l6.187-3.303l-6.965-13.053l-6.19,3.301
	c-3.473-4.355-7.863-8.022-13-10.679l2.041-6.713l-14.156-4.303l-2.041,6.712c-1.509-0.172-3.014-0.255-4.51-0.256v-0.002
	c-4.198-0.004-8.321,0.65-12.234,1.892l-3.302-6.186l-13.052,6.966l3.301,6.188c-4.354,3.472-8.02,7.865-10.679,13.001l-6.71-2.04
	l-4.303,14.156L317.654,84.006z M332.785,80.873c3.447-11.339,13.871-18.641,25.14-18.637v0.002
	c2.528,0.001,5.098,0.368,7.643,1.141c13.883,4.221,21.717,18.897,17.496,32.781c-3.447,11.341-13.87,18.644-25.139,18.64v-0.002
	c-2.529-0.002-5.098-0.369-7.642-1.142C336.4,109.436,328.565,94.759,332.785,80.873z"/>
<g>
	<path style="fill:#B3D6F5;" d="M629.996,136.588c1.532,0,3.081,0.224,4.599,0.685c2.035,0.619,3.901,1.633,5.545,3.012
		c6.663,5.592,7.536,15.565,1.943,22.232c-3.052,3.636-7.497,5.64-12.087,5.639v11.396l7.391-0.646l-0.356-4.067
		c2.66-0.83,5.123-2.11,7.33-3.814l3.128,2.625l6.494-7.741l-3.127-2.625c1.294-2.471,2.131-5.113,2.489-7.881l4.065-0.354
		l-0.88-10.067l-4.067,0.357c-0.829-2.663-2.109-5.123-3.816-7.331l2.625-3.128l-7.74-6.495l-2.627,3.128
		c-2.452-1.287-5.131-2.13-7.877-2.487l-0.358-4.066l-2.676,0.234h0.002V136.588z"/>
	<path style="fill:#B3D6F5;" d="M606.647,149.344l-4.07,0.353l0.88,10.067l4.068-0.357c0.829,2.664,2.11,5.122,3.814,7.331
		l-2.625,3.128l7.742,6.495l2.625-3.128c2.455,1.289,5.136,2.132,7.882,2.489l0.355,4.065l2.675-0.233v-11.396
		c-1.533-0.001-3.082-0.225-4.6-0.686c-2.033-0.617-3.898-1.632-5.545-3.012c-6.665-5.595-7.534-15.565-1.944-22.231
		c3.054-3.638,7.499-5.643,12.088-5.641v-11.395l-7.39,0.646l0.354,4.066c-2.661,0.83-5.118,2.112-7.327,3.818l-3.126-2.626
		l-6.499,7.741l3.127,2.624C607.837,143.931,607.001,146.575,606.647,149.344z"/>
</g>
<path style="fill:#0277BD;" d="M497.319,769.625c-0.66-0.001-1.324-0.037-1.991-0.114l-0.901,2.963l-6.249-1.899l0.901-2.963
	c-2.267-1.172-4.207-2.792-5.739-4.714l-2.73,1.457l-3.076-5.762l2.731-1.458c-0.743-2.343-1.009-4.855-0.723-7.391l-2.962-0.901
	l1.899-6.249l2.962,0.9c1.174-2.267,2.792-4.206,4.714-5.739l-1.458-2.731l5.762-3.075l1.458,2.731
	c1.728-0.549,3.548-0.837,5.401-0.836v4.679c-5.664-0.002-10.905,3.668-12.638,9.368c-2.122,6.98,1.817,14.357,8.796,16.48
	c1.278,0.389,2.571,0.573,3.841,0.574v4.678H497.319z M508.481,765.714l1.458,2.73l-5.761,3.076l-1.459-2.731
	c-1.727,0.548-3.547,0.837-5.4,0.836v-4.678c5.664,0.002,10.904-3.669,12.637-9.37c2.122-6.979-1.816-14.356-8.795-16.478l0,0
	c-1.279-0.389-2.572-0.573-3.842-0.574v-4.679c0.661,0.001,1.325,0.038,1.991,0.114l0.901-2.963l6.249,1.899l-0.901,2.963
	c2.267,1.173,4.205,2.792,5.738,4.714l2.733-1.457l3.074,5.762l-2.731,1.458c0.744,2.342,1.009,4.854,0.723,7.39l2.962,0.901
	l-1.9,6.25l-2.961-0.901C512.021,762.242,510.403,764.181,508.481,765.714z"/>
<path style="fill:#F06358;" d="M106.379,182.305c-0.805-0.001-1.614-0.045-2.428-0.138l-1.098,3.613l-7.619-2.316l1.098-3.613
	c-2.764-1.429-5.129-3.404-6.998-5.748l-3.329,1.776l-3.75-7.025l3.33-1.777c-0.906-2.857-1.23-5.92-0.882-9.012l-3.612-1.098
	l2.316-7.619l3.612,1.097c1.431-2.764,3.404-5.128,5.748-6.998l-1.777-3.33l7.025-3.749l1.777,3.33
	c2.107-0.669,4.326-1.021,6.585-1.019v5.706c-6.907-0.003-13.296,4.473-15.41,11.423c-2.587,8.511,2.215,17.506,10.725,20.094
	c1.559,0.475,3.135,0.699,4.684,0.7v5.705H106.379z M119.99,177.536l1.777,3.329l-7.024,3.75l-1.779-3.33
	c-2.106,0.668-4.325,1.021-6.584,1.019V176.6c6.907,0.003,13.295-4.474,15.409-11.425c2.587-8.51-2.214-17.505-10.724-20.092l0,0
	c-1.56-0.474-3.136-0.699-4.685-0.7v-5.706c0.806,0.001,1.615,0.046,2.428,0.138l1.098-3.613l7.619,2.316l-1.098,3.613
	c2.765,1.43,5.127,3.404,6.997,5.748l3.332-1.776l3.748,7.025l-3.33,1.778c0.907,2.856,1.231,5.919,0.882,9.011l3.612,1.098
	l-2.317,7.62l-3.611-1.098C124.307,173.303,122.334,175.667,119.99,177.536z"/>
</svg>
