<svg xmlns="http://www.w3.org/2000/svg" width="48" height="48" viewBox="0 0 48 48"><defs><style>.cls-1{fill:#a4b0c0;}.cls-2{fill:#768ba0;}.cls-3{fill:#f1f2f2;}.cls-4{fill:#d0d7df;}.cls-5{fill:#35dc86;}.cls-6{fill:#474c54;}</style></defs><title>13-Server-Upload</title><g id="_13-Server-Upload" data-name="13-Server-Upload"><g id="_Group_" data-name="&lt;Group&gt;"><path class="cls-1" d="M47,27V39a2.006,2.006,0,0,1-2,2H42v5a1,1,0,0,1-1,1H7a1,1,0,0,1-1-1V41H3a2.006,2.006,0,0,1-2-2V27a2.006,2.006,0,0,1,2-2H4V21H3a2.006,2.006,0,0,1-2-2V7A2.006,2.006,0,0,1,3,5h9V2a1,1,0,0,1,1-1H35a1,1,0,0,1,1,1V5h9a2.006,2.006,0,0,1,2,2V19a2.006,2.006,0,0,1-2,2H44v4h1A2.006,2.006,0,0,1,47,27Z"/><rect class="cls-2" x="4" y="21" width="40" height="4"/></g><g id="_Group_2" data-name="&lt;Group&gt;"><rect class="cls-3" x="10" y="41" width="28" height="2"/><circle class="cls-4" cx="9" cy="33" r="3"/><circle class="cls-3" cx="19" cy="33" r="3"/><circle class="cls-4" cx="39" cy="13" r="3"/><polygon class="cls-4" points="18 10 18 16 11 16 11 13 11 10 15 10 18 10"/><path class="cls-3" d="M11,13v3H7a1,1,0,0,1-1-1V11a1,1,0,0,1,1-1h4Z"/></g><circle class="cls-5" cx="36" cy="36" r="11"/><path class="cls-6" d="M26,25a1,1,0,0,0-1-1H8a1,1,0,0,0,0,2H25A1,1,0,0,0,26,25Z"/><path class="cls-6" d="M33,5a1,1,0,0,0-1-1H16a1,1,0,0,0,0,2H32A1,1,0,0,0,33,5Z"/><path class="cls-6" d="M13,33a4,4,0,1,0-4,4A4,4,0,0,0,13,33ZM7,33a2,2,0,1,1,2,2A2,2,0,0,1,7,33Z"/><path class="cls-6" d="M19,31a1,1,0,0,0,0-2,4,4,0,0,0,0,8,1,1,0,0,0,0-2,2,2,0,0,1,0-4Z"/><path class="cls-6" d="M45,4H37V2a2,2,0,0,0-2-2H13a2,2,0,0,0-2,2V4H3A3,3,0,0,0,0,7V19a3,3,0,0,0,3,3v2a3,3,0,0,0-3,3V39a3,3,0,0,0,3,3H5v4a2,2,0,0,0,2,2H26a1,1,0,0,0,0-2H7V41a1,1,0,0,0-1-1H3a1,1,0,0,1-1-1V27a1,1,0,0,1,1-1H4a1,1,0,0,0,1-1V22H40a1,1,0,0,0,0-2H3a1,1,0,0,1-1-1V7A1,1,0,0,1,3,6h9a1,1,0,0,0,1-1V2H35V5a1,1,0,0,0,1,1h9a1,1,0,0,1,1,1V19a1,1,0,0,1-1,1H44a1,1,0,0,0-1,1v2a1,1,0,0,0,2,0V22a3,3,0,0,0,3-3V7A3,3,0,0,0,45,4Z"/><path class="cls-6" d="M10,44a1,1,0,0,0,1-1V42H22a1,1,0,0,0,0-2H10a1,1,0,0,0-1,1v2A1,1,0,0,0,10,44Z"/><path class="cls-6" d="M36,24A12,12,0,1,0,48,36,12.013,12.013,0,0,0,36,24Zm0,22A10,10,0,1,1,46,36,10.011,10.011,0,0,1,36,46Z"/><path class="cls-6" d="M36.707,30.293a1,1,0,0,0-1.414,0l-3,3a1,1,0,0,0,1.414,1.414L35,33.414V41a1,1,0,0,0,2,0V33.414l1.293,1.293a1,1,0,0,0,1.414-1.414Z"/><path class="cls-6" d="M11,14a1,1,0,0,0,1-1V10a1,1,0,0,0-1-1H7a2,2,0,0,0-2,2v4a2,2,0,0,0,2,2H18a1,1,0,0,0,1-1V10a1,1,0,0,0-1-1H15a1,1,0,0,0,0,2h2v4H7V11h3v2A1,1,0,0,0,11,14Z"/><path class="cls-6" d="M39,9a4,4,0,1,0,4,4A4,4,0,0,0,39,9Zm0,6a2,2,0,1,1,2-2A2,2,0,0,1,39,15Z"/><path class="cls-6" d="M22,11v4a1,1,0,0,0,2,0V11a1,1,0,0,0-2,0Z"/><path class="cls-6" d="M26,11v4a1,1,0,0,0,2,0V11a1,1,0,0,0-2,0Z"/><path class="cls-6" d="M30,11v4a1,1,0,0,0,2,0V11a1,1,0,0,0-2,0Z"/></g></svg>