<svg xmlns="http://www.w3.org/2000/svg" width="48" height="48" viewBox="0 0 48 48"><defs><style>.cls-1{fill:#3398d6;}.cls-2{fill:#49aaee;}.cls-3{fill:#d0d7df;}.cls-4{fill:#f1f2f2;}.cls-5{fill:#474c54;}</style></defs><title>49-File-Document-home</title><g id="_49-File-Document-home" data-name="49-File-Document-home"><path class="cls-1" d="M39,13H22V7H38a.979.979,0,0,1,1,1Z"/><path class="cls-2" d="M22,7v6H43a4,4,0,0,1,4,4V43a4,4,0,0,1-4,4H5a4,4,0,0,1-4-4V5S1,1,5,1H18s4,0,4,4Z"/><path class="cls-3" d="M28,34v6H20V34a2.006,2.006,0,0,1,2-2h4A2.006,2.006,0,0,1,28,34Z"/><path class="cls-4" d="M34,26V38a2.006,2.006,0,0,1-2,2H28V34a2.006,2.006,0,0,0-2-2H22a2.006,2.006,0,0,0-2,2v6H16a2.006,2.006,0,0,1-2-2V26l10-7Z"/><path class="cls-5" d="M43,12H12a1,1,0,0,0,0,2H43a3,3,0,0,1,3,3V43a3,3,0,0,1-3,3H5a3,3,0,0,1-3-3V5.006A2.854,2.854,0,0,1,5,2H17.994A2.854,2.854,0,0,1,21,5V7a1,1,0,0,0,1,1H38V9a1,1,0,0,0,2,0V8a1.959,1.959,0,0,0-2-2H23V5a4.821,4.821,0,0,0-5-5H5A4.821,4.821,0,0,0,0,5V43a5.006,5.006,0,0,0,5,5H43a5.006,5.006,0,0,0,5-5V17A5.006,5.006,0,0,0,43,12Z"/><path class="cls-5" d="M28,41h4a3,3,0,0,0,3-3V26a1,1,0,0,0-.427-.819l-10-7a1,1,0,0,0-1.146,0l-10,7A1,1,0,0,0,13,26V38a3,3,0,0,0,3,3h8a1,1,0,0,0,0-2H16a1,1,0,0,1-1-1V26.521l9-6.3,9,6.3V38a1,1,0,0,1-1,1H29V34a3,3,0,0,0-3-3H22a3,3,0,0,0-3,3v2a1,1,0,0,0,2,0V34a1,1,0,0,1,1-1h4a1,1,0,0,1,1,1v6A1,1,0,0,0,28,41Z"/></g></svg>