<svg xmlns="http://www.w3.org/2000/svg" xmlns:xlink="http://www.w3.org/1999/xlink" x="0px" y="0px" style="enable-background:new 0 0 960 400" version="1.1" viewBox="0 0 960 400" xml:space="preserve">
    <style type="text/css">
        .st0{display:none;} .st1{display:inline;} .st2{fill:#742E91;} .st3{fill:url(#SVGID_1_);} .st4{fill:url(#SVGID_2_);}
    </style>
    <g id="Layer_2" class="st0">
        <g class="st1">
            <rect width="960" height="400" class="st2"/>
        </g>
        <radialGradient id="SVGID_1_" cx="433.2576" cy="198.1693" r="562.0992" fx="-32.9299" fy="14.941" gradientTransform="matrix(1.001 0 0 1.061 0 -0.0269)" gradientUnits="userSpaceOnUse">
            <stop offset="0" style="stop-color:#BC228F"/>
            <stop offset="0.3949" style="stop-color:#A22690"/>
            <stop offset="1" style="stop-color:#742E91"/>
        </radialGradient>
        <path d="M0,0.441v363.563c0,0,86.85-21.065,140.58,0c53.729,21.065,134.692,39.789,220.806,28.086
		s100.782-96.471,147.887-89.45c47.105,7.022,52.173,68.435,106.639,71.555c54.465,3.121,71.79-57.663,128.162-47.704
		c46.96,8.296,67.507,58.942,97.834,62.222c47.939,5.185,117.862-38.37,117.862-38.37V0.441H0z" class="st3"/>
    </g>
    <g id="Layer_4">
        <radialGradient id="SVGID_2_" cx="483.5684" cy="198.3609" r="580.1319" fx="-7.5403" fy="-44.1121" gradientUnits="userSpaceOnUse">
            <stop offset="0.0195" style="stop-color:#BC228F"/>
            <stop offset="0.9824" style="stop-color:#742E91"/>
        </radialGradient>
        <path d="M0,0v378.431c0,0,106.686-27.366,242.215-24.76c161.343,3.103,304.57,54.381,491.5,36.304
		C777.6,385.731,960,362.907,960,362.907V1.003L0,0z" class="st4"/>
    </g>
</svg>
