<?xml version="1.0" encoding="utf-8"?>
<!-- Generator: Adobe Illustrator 23.0.1, SVG Export Plug-In . SVG Version: 6.00 Build 0)  -->
<svg version="1.1" id="Layer_1" xmlns="http://www.w3.org/2000/svg" xmlns:xlink="http://www.w3.org/1999/xlink" x="0px" y="0px"
	 viewBox="0 0 800 800" style="enable-background:new 0 0 800 800;" xml:space="preserve">
<path style="fill:#FFAE00;" d="M740.614,66.625c0.678-6.011,0.049-11.961-1.712-17.513l6.47-3.453l-7.287-13.65l-6.469,3.452
	c-3.632-4.553-8.227-8.39-13.597-11.167l2.134-7.02l-14.804-4.5l-2.134,7.019c-1.577-0.179-3.151-0.267-4.716-0.268v-0.001
	c-4.392-0.003-8.702,0.68-12.794,1.98l-3.458-6.47l-13.649,7.287l3.453,6.469c-4.554,3.632-8.388,8.227-11.167,13.593l-7.019-2.134
	l-4.501,14.806l7.019,2.134c-0.679,6.011-0.051,11.961,1.712,17.511l-6.47,3.455l7.284,13.651l6.473-3.452
	c3.632,4.554,8.224,8.389,13.596,11.167l-2.134,7.021l14.804,4.5l2.134-7.02c1.578,0.18,3.152,0.267,4.717,0.268v0.002
	c4.39,0.004,8.702-0.68,12.795-1.979l3.453,6.469l13.65-7.285l-3.452-6.471c4.553-3.631,8.387-8.225,11.169-13.596l7.018,2.134
	l4.5-14.804L740.614,66.625z M724.789,69.901c-3.605,11.858-14.507,19.495-26.291,19.491v-0.001
	c-2.643-0.001-5.332-0.385-7.993-1.194c-14.52-4.414-22.711-19.763-18.298-34.283c3.605-11.861,14.505-19.498,26.291-19.494v0.001
	c2.644,0.001,5.332,0.386,7.992,1.194C721.01,40.03,729.204,55.379,724.789,69.901z"/>
<path style="fill:#0277BD;" d="M277.679,160.214c0.302-2.673,0.022-5.319-0.761-7.787l2.877-1.536l-3.241-6.07l-2.877,1.535
	c-1.615-2.024-3.658-3.731-6.046-4.966l0.949-3.122l-6.583-2.001l-0.949,3.121c-0.701-0.08-1.401-0.118-2.097-0.119v-0.001
	c-1.953-0.001-3.87,0.302-5.689,0.88l-1.537-2.877l-6.069,3.24l1.536,2.877c-2.025,1.615-3.73,3.658-4.966,6.045l-3.121-0.949
	l-2.001,6.584l3.121,0.949c-0.302,2.673-0.022,5.319,0.761,7.787l-2.877,1.536l3.239,6.07l2.879-1.535
	c1.615,2.025,3.656,3.731,6.045,4.966l-0.949,3.122l6.583,2.001l0.949-3.122c0.702,0.08,1.401,0.118,2.097,0.119v0.001
	c1.952,0.002,3.87-0.302,5.689-0.88l1.536,2.877l6.07-3.239l-1.535-2.877c2.024-1.615,3.729-3.658,4.966-6.046l3.12,0.949
	l2.001-6.583L277.679,160.214z M270.643,161.67c-1.603,5.273-6.45,8.669-11.691,8.667v-0.001c-1.176-0.001-2.371-0.171-3.555-0.531
	c-6.456-1.963-10.099-8.788-8.136-15.244c1.603-5.274,6.45-8.67,11.691-8.668v0.001c1.176,0.001,2.371,0.172,3.554,0.531
	C268.962,148.388,272.605,155.213,270.643,161.67z"/>
<g>
	<path style="fill:#B3D6F5;" d="M219.109,754.477c-2.574,0-5.177-0.376-7.728-1.151c-3.419-1.04-6.555-2.744-9.317-5.062
		c-11.196-9.396-12.663-26.154-3.264-37.356c5.129-6.11,12.597-9.477,20.309-9.476v-19.148l-12.419,1.085l0.598,6.834
		c-4.47,1.394-8.607,3.546-12.316,6.409l-5.257-4.41l-10.911,13.006l5.254,4.411c-2.175,4.152-3.581,8.591-4.182,13.242l-6.83,0.596
		l1.479,16.915l6.833-0.6c1.393,4.474,3.544,8.609,6.412,12.317l-4.41,5.257l13.005,10.914l4.414-5.255
		c4.12,2.162,8.622,3.58,13.235,4.179l0.601,6.832l4.496-0.392h-0.003L219.109,754.477L219.109,754.477z"/>
	<path style="fill:#B3D6F5;" d="M258.342,733.045l6.839-0.593l-1.479-16.915l-6.834,0.6c-1.393-4.476-3.546-8.606-6.409-12.317
		l4.41-5.257l-13.009-10.914l-4.41,5.257c-4.125-2.165-8.631-3.583-13.244-4.182l-0.597-6.83l-4.495,0.391v19.149
		c2.575,0.001,5.178,0.377,7.729,1.153c3.415,1.037,6.55,2.741,9.317,5.06c11.199,9.4,12.659,26.154,3.266,37.354
		c-5.132,6.113-12.6,9.481-20.311,9.479v19.146l12.418-1.085l-0.594-6.832c4.472-1.394,8.6-3.548,12.312-6.415l5.252,4.413
		l10.919-13.008l-5.254-4.409C256.341,742.139,257.746,737.696,258.342,733.045z"/>
</g>
<path style="fill:#FFAE00;" d="M95.146,278.919c0.66,0.001,1.324,0.037,1.991,0.114l0.901-2.963l6.249,1.899l-0.901,2.963
	c2.267,1.172,4.207,2.792,5.739,4.714l2.73-1.457l3.076,5.762l-2.731,1.458c0.743,2.343,1.008,4.855,0.723,7.391l2.962,0.901
	l-1.899,6.249l-2.962-0.9c-1.174,2.267-2.792,4.206-4.714,5.739l1.458,2.731l-5.762,3.075l-1.458-2.731
	c-1.728,0.549-3.548,0.837-5.401,0.836v-4.679c5.664,0.002,10.905-3.668,12.638-9.368c2.122-6.98-1.817-14.357-8.796-16.48
	c-1.278-0.389-2.571-0.573-3.841-0.574v-4.678h-0.002V278.919z M83.984,282.83l-1.458-2.73l5.761-3.076l1.459,2.731
	c1.727-0.548,3.547-0.837,5.4-0.836v4.678c-5.664-0.002-10.904,3.669-12.637,9.37c-2.122,6.979,1.816,14.356,8.795,16.478l0,0
	c1.279,0.389,2.572,0.573,3.842,0.574v4.679c-0.661-0.001-1.325-0.038-1.991-0.114l-0.901,2.963l-6.249-1.899l0.901-2.963
	c-2.267-1.173-4.205-2.792-5.738-4.714l-2.733,1.457l-3.074-5.762l2.731-1.458c-0.744-2.342-1.009-4.854-0.723-7.39l-2.962-0.901
	l1.9-6.25l2.961,0.901C80.444,286.302,82.062,284.363,83.984,282.83z"/>
<path style="fill:#F06358;" d="M719.895,736.438c0.805,0.001,1.614,0.045,2.428,0.138l1.098-3.613l7.619,2.316l-1.098,3.613
	c2.764,1.429,5.129,3.404,6.998,5.748l3.329-1.776l3.75,7.025l-3.33,1.777c0.906,2.857,1.23,5.92,0.882,9.012l3.612,1.098
	l-2.316,7.619l-3.612-1.097c-1.431,2.764-3.404,5.128-5.748,6.998l1.777,3.33l-7.025,3.749l-1.777-3.33
	c-2.107,0.669-4.326,1.021-6.585,1.019v-5.706c6.907,0.003,13.296-4.473,15.41-11.423c2.587-8.511-2.215-17.506-10.725-20.094
	c-1.559-0.474-3.135-0.699-4.684-0.7v-5.705h-0.003V736.438z M706.284,741.206l-1.777-3.329l7.024-3.75l1.779,3.33
	c2.105-0.668,4.325-1.021,6.584-1.019v5.705c-6.907-0.003-13.295,4.474-15.409,11.425c-2.587,8.51,2.214,17.505,10.724,20.092l0,0
	c1.56,0.474,3.135,0.699,4.685,0.7v5.706c-0.806-0.001-1.615-0.046-2.428-0.138l-1.098,3.613l-7.619-2.316l1.098-3.613
	c-2.765-1.43-5.127-3.404-6.997-5.748l-3.332,1.776l-3.748-7.025l3.33-1.778c-0.907-2.856-1.231-5.919-0.882-9.011l-3.612-1.098
	l2.317-7.62l3.611,1.098C701.967,745.44,703.94,743.075,706.284,741.206z"/>
<g>
	<g>
		<linearGradient id="SVGID_1_" gradientUnits="userSpaceOnUse" x1="655.7445" y1="693.214" x2="655.7445" y2="482.7385">
			<stop  offset="0" style="stop-color:#4527A0"/>
			<stop  offset="1" style="stop-color:#9575CD"/>
		</linearGradient>
		<path style="fill-rule:evenodd;clip-rule:evenodd;fill:url(#SVGID_1_);" d="M620.199,469.909h71.09
			c13.768,0,25.031,11.263,25.031,25.031v188.739c0,13.767-11.263,25.031-25.031,25.031h-71.09c-13.767,0-25.03-11.265-25.03-25.031
			V494.94C595.168,481.172,606.431,469.909,620.199,469.909z"/>
		<path style="fill-rule:evenodd;clip-rule:evenodd;fill:#FFFFFF;" d="M606.174,489.934h99.141c0.194,0,0.35,0.158,0.35,0.35
			v196.048c0,0.194-0.158,0.35-0.35,0.35h-99.141c-0.194,0-0.35-0.158-0.35-0.35V490.284
			C605.823,490.091,605.98,489.934,606.174,489.934z"/>
		<path style="fill-rule:evenodd;clip-rule:evenodd;fill:#5085A1;" d="M637.378,475.816h36.733c0.996,0,1.809,0.815,1.809,1.81
			v0.001c0,0.996-0.815,1.81-1.809,1.81h-36.733c-0.996,0-1.81-0.815-1.81-1.81v-0.001
			C635.568,476.631,636.381,475.816,637.378,475.816z"/>
		<path style="fill-rule:evenodd;clip-rule:evenodd;fill:#5085A1;" d="M655.744,703.475c3.371,0,6.121-2.749,6.121-6.121
			c0-3.371-2.75-6.121-6.121-6.121c-3.371,0-6.121,2.749-6.121,6.121S652.374,703.475,655.744,703.475z"/>
	</g>
	<path style="fill:#303F9F;" d="M655.976,513.933c1.12,0.001,2.248,0.064,3.377,0.191l1.528-5.027l10.602,3.223l-1.528,5.027
		c3.845,1.989,7.137,4.737,9.738,7.998l4.632-2.472l5.219,9.776l-4.633,2.472c1.262,3.976,1.712,8.237,1.226,12.54l5.026,1.527
		l-3.223,10.602l-5.026-1.527c-1.992,3.846-4.737,7.137-7.998,9.737l2.472,4.634l-9.776,5.216l-2.472-4.632
		c-2.931,0.93-6.018,1.42-9.163,1.418v-7.939c9.611,0.004,18.5-6.225,21.441-15.895c3.601-11.842-3.082-24.36-14.923-27.959
		c-2.169-0.66-4.361-0.972-6.517-0.973v-7.935L655.976,513.933L655.976,513.933z M637.037,520.568l-2.472-4.632l9.775-5.217
		l2.476,4.633c2.93-0.931,6.018-1.42,9.163-1.418v7.937c-9.611-0.004-18.5,6.225-21.441,15.897
		c-3.601,11.841,3.081,24.358,14.922,27.958l0,0c2.17,0.66,4.363,0.972,6.519,0.973v7.939c-1.12-0.001-2.248-0.063-3.378-0.191
		l-1.528,5.027l-10.602-3.223l1.528-5.027c-3.846-1.989-7.135-4.736-9.735-7.997l-4.636,2.472l-5.216-9.776l4.633-2.474
		c-1.263-3.974-1.713-8.235-1.226-12.539l-5.027-1.527l3.224-10.603l5.027,1.528C631.029,526.459,633.775,523.17,637.037,520.568z"
		/>
	<g>
		<rect x="617.535" y="667.198" style="fill-rule:evenodd;clip-rule:evenodd;fill:#303F9F;" width="28.998" height="4.157"/>
		<rect x="617.535" y="650.492" style="fill-rule:evenodd;clip-rule:evenodd;fill:#303F9F;" width="15.222" height="4.158"/>
		<rect x="672.872" y="650.492" style="fill-rule:evenodd;clip-rule:evenodd;fill:#303F9F;" width="21.497" height="4.158"/>
		<rect x="617.535" y="636.111" style="fill-rule:evenodd;clip-rule:evenodd;fill:#303F9F;" width="11.181" height="4.158"/>
		<rect x="632.756" y="636.111" style="fill-rule:evenodd;clip-rule:evenodd;fill:#303F9F;" width="50.77" height="4.158"/>
		<rect x="617.535" y="621.73" style="fill-rule:evenodd;clip-rule:evenodd;fill:#303F9F;" width="27.503" height="4.158"/>
		<rect x="649.078" y="621.73" style="fill-rule:evenodd;clip-rule:evenodd;fill:#303F9F;" width="30.705" height="4.158"/>
		<rect x="617.535" y="607.349" style="fill-rule:evenodd;clip-rule:evenodd;fill:#303F9F;" width="11.181" height="4.158"/>
		<rect x="632.756" y="607.349" style="fill-rule:evenodd;clip-rule:evenodd;fill:#303F9F;" width="28.455" height="4.158"/>
		<rect x="617.535" y="592.968" style="fill-rule:evenodd;clip-rule:evenodd;fill:#303F9F;" width="23.516" height="4.158"/>
		<rect x="645.09" y="592.968" style="fill-rule:evenodd;clip-rule:evenodd;fill:#303F9F;" width="29.221" height="4.158"/>
		<rect x="636.798" y="650.492" style="fill-rule:evenodd;clip-rule:evenodd;fill:#303F9F;" width="31.612" height="4.158"/>
		<rect x="687.989" y="636.111" style="fill-rule:evenodd;clip-rule:evenodd;fill:#303F9F;" width="6.38" height="4.158"/>
		<rect x="684.246" y="621.73" style="fill-rule:evenodd;clip-rule:evenodd;fill:#303F9F;" width="10.123" height="4.158"/>
		<rect x="665.673" y="607.349" style="fill-rule:evenodd;clip-rule:evenodd;fill:#303F9F;" width="28.695" height="4.158"/>
		<rect x="678.776" y="592.968" style="fill-rule:evenodd;clip-rule:evenodd;fill:#303F9F;" width="15.594" height="4.158"/>
	</g>
</g>
<g>
	<path id="XMLID_4070_" style="fill:#F9A825;" d="M605.212,34.322h-203.21c-11.722,0-21.225,10.009-21.225,22.357v278.302
		c0,11.264,8.669,20.396,19.362,20.396h206.934c10.693,0,19.362-9.131,19.362-20.396V56.678
		C626.436,44.331,616.933,34.322,605.212,34.322z"/>
	<path id="XMLID_4077_" style="fill:#F57F17;" d="M626.445,56.684v278.292c0,11.269-8.677,20.41-19.376,20.41h-28.575V34.522h29.527
		C618.409,35.975,626.445,45.34,626.445,56.684z"/>
	<path id="XMLID_3375_" style="fill:#283593;" d="M601.992,145.428H407.05c-5.526,0-10.005,4.718-10.005,10.538v58.849
		c0,5.821,4.479,10.539,10.005,10.539h194.942c5.525,0,10.004-4.718,10.004-10.539v-58.849
		C611.996,150.145,607.516,145.428,601.992,145.428z"/>
	<g id="XMLID_2951_">
		<g id="XMLID_3362_">
			<ellipse id="XMLID_3367_" style="fill:#FFFEFF;" cx="505.841" cy="170.104" rx="3.962" ry="4.173"/>
			<ellipse id="XMLID_3366_" style="fill:#FFFEFF;" cx="505.841" cy="185.39" rx="3.962" ry="4.173"/>
			<ellipse id="XMLID_3365_" style="fill:#FFFEFF;" cx="505.841" cy="154.817" rx="3.962" ry="4.173"/>
			<ellipse id="XMLID_3364_" style="fill:#FFFEFF;" cx="505.841" cy="200.676" rx="3.962" ry="4.173"/>
			<ellipse id="XMLID_3363_" style="fill:#FFFEFF;" cx="505.841" cy="215.962" rx="3.962" ry="4.173"/>
		</g>
		<g id="XMLID_2871_">
			<path id="XMLID_3369_" style="fill:#5C6BC0;" d="M594.615,157.114h-64.385c-0.438,0-0.793-0.374-0.793-0.835v-4.799
				c0-0.462,0.355-0.835,0.793-0.835h64.385c0.438,0,0.793,0.374,0.793,0.835v4.799C595.409,156.74,595.053,157.114,594.615,157.114
				z"/>
			<path id="XMLID_3368_" style="fill:#5C6BC0;" d="M586.294,200.937H538.55c-5.033,0-9.113,4.298-9.113,9.599
				c0,5.302,4.08,9.6,9.113,9.6h47.745c5.032,0,9.113-4.297,9.113-9.6C595.409,205.235,591.328,200.937,586.294,200.937z"/>
			<path id="XMLID_2949_" style="fill:#5C6BC0;" d="M586.294,175.791H538.55c-5.033,0-9.113,4.297-9.113,9.599
				c0,5.302,4.08,9.599,9.113,9.599h47.745c5.032,0,9.113-4.297,9.113-9.599C595.409,180.089,591.328,175.791,586.294,175.791z"/>
			<path id="XMLID_3361_" style="fill:#5C6BC0;" d="M594.615,168.054h-64.385c-0.438,0-0.793-0.374-0.793-0.835v-4.799
				c0-0.461,0.355-0.835,0.793-0.835h64.385c0.438,0,0.793,0.374,0.793,0.835v4.799C595.409,167.68,595.053,168.054,594.615,168.054
				z"/>
		</g>
		<g id="XMLID_2950_">
			<path id="XMLID_2937_" style="fill:#5C6BC0;" d="M419.773,151.48v67.821c0,0.462-0.355,0.835-0.793,0.835h-4.556
				c-0.438,0-0.793-0.374-0.793-0.835V151.48c0-0.462,0.355-0.835,0.793-0.835h4.556
				C419.418,150.644,419.773,151.019,419.773,151.48z"/>
			<path id="XMLID_2936_" style="fill:#5C6BC0;" d="M430.626,151.48v67.821c0,0.462-0.355,0.835-0.793,0.835h-4.556
				c-0.438,0-0.793-0.374-0.793-0.835V151.48c0-0.462,0.355-0.835,0.793-0.835h4.556
				C430.271,150.644,430.626,151.019,430.626,151.48z"/>
			<path id="XMLID_2942_" style="fill:#5C6BC0;" d="M441.478,151.48v67.821c0,0.462-0.355,0.835-0.793,0.835h-4.556
				c-0.438,0-0.793-0.374-0.793-0.835V151.48c0-0.462,0.355-0.835,0.793-0.835h4.556
				C441.123,150.644,441.478,151.019,441.478,151.48z"/>
			<path id="XMLID_2939_" style="fill:#5C6BC0;" d="M452.33,151.48v67.821c0,0.462-0.355,0.835-0.793,0.835h-4.556
				c-0.438,0-0.793-0.374-0.793-0.835V151.48c0-0.462,0.355-0.835,0.793-0.835h4.556C451.975,150.644,452.33,151.019,452.33,151.48z
				"/>
			<path id="XMLID_2948_" style="fill:#5C6BC0;" d="M463.182,151.48v67.821c0,0.462-0.355,0.835-0.793,0.835h-4.556
				c-0.438,0-0.793-0.374-0.793-0.835V151.48c0-0.462,0.355-0.835,0.793-0.835h4.556
				C462.827,150.644,463.182,151.019,463.182,151.48z"/>
			<path id="XMLID_2947_" style="fill:#5C6BC0;" d="M474.034,151.48v67.821c0,0.462-0.355,0.835-0.793,0.835h-4.556
				c-0.438,0-0.793-0.374-0.793-0.835V151.48c0-0.462,0.355-0.835,0.793-0.835h4.556
				C473.679,150.644,474.034,151.019,474.034,151.48z"/>
			<path id="XMLID_2946_" style="fill:#5C6BC0;" d="M484.886,151.48v67.821c0,0.462-0.355,0.835-0.793,0.835h-4.556
				c-0.438,0-0.793-0.374-0.793-0.835V151.48c0-0.462,0.355-0.835,0.793-0.835h4.556
				C484.531,150.644,484.886,151.019,484.886,151.48z"/>
		</g>
	</g>
	<path id="XMLID_3355_" style="fill:#283593;" d="M602.399,53.275H407.457c-5.525,0-10.004,4.718-10.004,10.538v58.849
		c0,5.821,4.479,10.539,10.004,10.539h194.942c5.525,0,10.005-4.718,10.005-10.539V63.813
		C612.403,57.993,607.923,53.275,602.399,53.275z"/>
	<g id="XMLID_3335_">
		<g id="XMLID_3349_">
			<ellipse id="XMLID_3354_" style="fill:#FFFEFF;" cx="506.248" cy="77.952" rx="3.962" ry="4.173"/>
			<ellipse id="XMLID_3353_" style="fill:#FFFEFF;" cx="506.248" cy="93.238" rx="3.962" ry="4.173"/>
			<ellipse id="XMLID_3352_" style="fill:#FFFEFF;" cx="506.248" cy="62.665" rx="3.962" ry="4.173"/>
			<ellipse id="XMLID_3351_" style="fill:#FFFEFF;" cx="506.248" cy="108.524" rx="3.962" ry="4.173"/>
			<ellipse id="XMLID_3350_" style="fill:#FFFEFF;" cx="506.248" cy="123.81" rx="3.962" ry="4.173"/>
		</g>
		<g id="XMLID_3344_">
			<path id="XMLID_3348_" style="fill:#5C6BC0;" d="M595.022,64.961h-64.385c-0.438,0-0.793-0.374-0.793-0.835v-4.799
				c0-0.462,0.355-0.835,0.793-0.835h64.385c0.438,0,0.793,0.374,0.793,0.835v4.799C595.816,64.587,595.461,64.961,595.022,64.961z"
				/>
			<path id="XMLID_3347_" style="fill:#5C6BC0;" d="M586.703,108.785h-47.745c-5.032,0-9.113,4.297-9.113,9.599
				c0,5.302,4.08,9.599,9.113,9.599h47.745c5.032,0,9.113-4.297,9.113-9.599C595.816,113.083,591.736,108.785,586.703,108.785z"/>
			<path id="XMLID_3346_" style="fill:#5C6BC0;" d="M586.703,83.639h-47.745c-5.033,0-9.113,4.298-9.113,9.6s4.08,9.599,9.113,9.599
				h47.745c5.032,0,9.113-4.297,9.113-9.599C595.816,87.937,591.735,83.639,586.703,83.639z"/>
			<path id="XMLID_3345_" style="fill:#5C6BC0;" d="M595.022,75.902h-64.385c-0.438,0-0.793-0.374-0.793-0.835v-4.799
				c0-0.462,0.355-0.835,0.793-0.835h64.385c0.438,0,0.793,0.374,0.793,0.835v4.799C595.816,75.528,595.461,75.902,595.022,75.902z"
				/>
		</g>
		<g id="XMLID_3336_">
			<path id="XMLID_3343_" style="fill:#5C6BC0;" d="M420.181,59.327v67.821c0,0.461-0.355,0.835-0.793,0.835h-4.556
				c-0.438,0-0.793-0.374-0.793-0.835V59.327c0-0.462,0.355-0.835,0.793-0.835h4.556C419.826,58.492,420.181,58.866,420.181,59.327z
				"/>
			<path id="XMLID_3342_" style="fill:#5C6BC0;" d="M431.033,59.327v67.821c0,0.461-0.355,0.835-0.793,0.835h-4.556
				c-0.438,0-0.793-0.374-0.793-0.835V59.327c0-0.462,0.355-0.835,0.793-0.835h4.556C430.678,58.492,431.033,58.866,431.033,59.327z
				"/>
			<path id="XMLID_3341_" style="fill:#5C6BC0;" d="M441.885,59.327v67.821c0,0.461-0.355,0.835-0.793,0.835h-4.556
				c-0.438,0-0.793-0.374-0.793-0.835V59.327c0-0.462,0.355-0.835,0.793-0.835h4.556C441.53,58.492,441.885,58.866,441.885,59.327z"
				/>
			<path id="XMLID_3340_" style="fill:#5C6BC0;" d="M452.738,59.327v67.821c0,0.461-0.355,0.835-0.793,0.835h-4.556
				c-0.438,0-0.793-0.374-0.793-0.835V59.327c0-0.462,0.355-0.835,0.793-0.835h4.556C452.382,58.492,452.738,58.866,452.738,59.327z
				"/>
			<path id="XMLID_3339_" style="fill:#5C6BC0;" d="M463.59,59.327v67.821c0,0.461-0.355,0.835-0.793,0.835h-4.556
				c-0.438,0-0.793-0.374-0.793-0.835V59.327c0-0.462,0.355-0.835,0.793-0.835h4.556C463.235,58.492,463.59,58.866,463.59,59.327z"
				/>
			<path id="XMLID_3338_" style="fill:#5C6BC0;" d="M474.442,59.327v67.821c0,0.461-0.355,0.835-0.793,0.835h-4.556
				c-0.438,0-0.793-0.374-0.793-0.835V59.327c0-0.462,0.355-0.835,0.793-0.835h4.556C474.087,58.492,474.442,58.866,474.442,59.327z
				"/>
			<path id="XMLID_3337_" style="fill:#5C6BC0;" d="M485.294,59.327v67.821c0,0.461-0.355,0.835-0.793,0.835h-4.556
				c-0.438,0-0.793-0.374-0.793-0.835V59.327c0-0.462,0.355-0.835,0.793-0.835h4.556C484.939,58.492,485.294,58.866,485.294,59.327z
				"/>
		</g>
	</g>
	<path id="XMLID_3334_" style="fill:#283593;" d="M600.165,243.336H405.223c-5.526,0-10.005,4.718-10.005,10.538v58.849
		c0,5.82,4.479,10.538,10.005,10.538h194.942c5.525,0,10.005-4.718,10.005-10.538v-58.849
		C610.17,248.055,605.69,243.336,600.165,243.336z"/>
	<g id="XMLID_2958_">
		<g id="XMLID_3247_">
			<ellipse id="XMLID_3333_" style="fill:#FFFEFF;" cx="504.063" cy="268.01" rx="3.963" ry="4.174"/>
			<ellipse id="XMLID_3332_" style="fill:#FFFEFF;" cx="504.063" cy="283.297" rx="3.963" ry="4.174"/>
			<path id="XMLID_3273_" style="fill:#FFFEFF;" d="M504.014,256.901c-2.188,0-3.962-1.868-3.962-4.174
				c0-2.305,1.774-4.173,3.962-4.173s3.962,1.868,3.962,4.173C507.977,255.032,506.202,256.901,504.014,256.901z"/>
			<ellipse id="XMLID_3271_" style="fill:#FFFEFF;" cx="504.065" cy="298.584" rx="3.963" ry="4.174"/>
			<ellipse id="XMLID_3260_" style="fill:#FFFEFF;" cx="504.066" cy="313.871" rx="3.963" ry="4.174"/>
		</g>
		<g id="XMLID_2982_">
			<path id="XMLID_2988_" style="fill:#5C6BC0;" d="M592.788,255.023h-64.385c-0.438,0-0.793-0.374-0.793-0.835v-4.799
				c0-0.462,0.355-0.835,0.793-0.835h64.385c0.438,0,0.793,0.374,0.793,0.835v4.799
				C593.582,254.649,593.227,255.023,592.788,255.023z"/>
			<path id="XMLID_2986_" style="fill:#5C6BC0;" d="M584.468,298.847h-47.745c-5.033,0-9.113,4.297-9.113,9.599
				c0,5.302,4.08,9.599,9.113,9.599h47.745c5.032,0,9.113-4.297,9.113-9.599C593.582,303.144,589.501,298.847,584.468,298.847z"/>
			<path id="XMLID_2985_" style="fill:#5C6BC0;" d="M584.468,273.7h-47.745c-5.033,0-9.113,4.297-9.113,9.599
				s4.08,9.599,9.113,9.599h47.745c5.032,0,9.113-4.297,9.113-9.599C593.582,277.998,589.501,273.7,584.468,273.7z"/>
			<path id="XMLID_2983_" style="fill:#5C6BC0;" d="M592.788,265.963h-64.385c-0.438,0-0.793-0.374-0.793-0.835v-4.799
				c0-0.462,0.355-0.835,0.793-0.835h64.385c0.438,0,0.793,0.374,0.793,0.835v4.799
				C593.582,265.589,593.227,265.963,592.788,265.963z"/>
		</g>
		<g id="XMLID_2974_">
			<path id="XMLID_2981_" style="fill:#5C6BC0;" d="M417.948,249.389v67.821c0,0.462-0.355,0.835-0.793,0.835h-4.556
				c-0.438,0-0.793-0.374-0.793-0.835v-67.821c0-0.462,0.355-0.835,0.793-0.835h4.556
				C417.592,248.554,417.948,248.928,417.948,249.389z"/>
			<path id="XMLID_2980_" style="fill:#5C6BC0;" d="M428.8,249.389v67.821c0,0.462-0.355,0.835-0.793,0.835h-4.556
				c-0.438,0-0.793-0.374-0.793-0.835v-67.821c0-0.462,0.355-0.835,0.793-0.835h4.556C428.445,248.554,428.8,248.928,428.8,249.389z
				"/>
			<path id="XMLID_2979_" style="fill:#5C6BC0;" d="M439.651,249.389v67.821c0,0.462-0.355,0.835-0.793,0.835h-4.556
				c-0.438,0-0.793-0.374-0.793-0.835v-67.821c0-0.462,0.355-0.835,0.793-0.835h4.556
				C439.297,248.554,439.651,248.928,439.651,249.389z"/>
			<path id="XMLID_2978_" style="fill:#5C6BC0;" d="M450.503,249.389v67.821c0,0.462-0.355,0.835-0.793,0.835h-4.556
				c-0.438,0-0.793-0.374-0.793-0.835v-67.821c0-0.462,0.355-0.835,0.793-0.835h4.556
				C450.148,248.554,450.503,248.928,450.503,249.389z"/>
			<path id="XMLID_2977_" style="fill:#5C6BC0;" d="M461.355,249.389v67.821c0,0.462-0.355,0.835-0.793,0.835h-4.556
				c-0.438,0-0.793-0.374-0.793-0.835v-67.821c0-0.462,0.355-0.835,0.793-0.835h4.556C461,248.554,461.355,248.928,461.355,249.389z
				"/>
			<path id="XMLID_2976_" style="fill:#5C6BC0;" d="M472.208,249.389v67.821c0,0.462-0.355,0.835-0.793,0.835h-4.556
				c-0.438,0-0.793-0.374-0.793-0.835v-67.821c0-0.462,0.355-0.835,0.793-0.835h4.556
				C471.853,248.554,472.208,248.928,472.208,249.389z"/>
			<path id="XMLID_2975_" style="fill:#5C6BC0;" d="M483.06,249.389v67.821c0,0.462-0.355,0.835-0.793,0.835h-4.556
				c-0.438,0-0.793-0.374-0.793-0.835v-67.821c0-0.462,0.355-0.835,0.793-0.835h4.556
				C482.705,248.554,483.06,248.928,483.06,249.389z"/>
		</g>
	</g>
</g>
<g>
	<g>
		<path style="fill:#FFCC80;" d="M561.286,650.182L561.286,650.182c0,5.333-4.862,9.646-10.98,9.646l-454.013,0.784
			c-6.039,0-10.98-4.313-10.98-9.646l-0.627-264.298c0-5.333,4.862-9.646,10.98-9.646l454.013-0.784
			c6.039,0,10.98,4.313,10.98,9.646v10.274L561.286,650.182z"/>
		
			<linearGradient id="SVGID_2_" gradientUnits="userSpaceOnUse" x1="322.8302" y1="418.5137" x2="322.8302" y2="402.7882" gradientTransform="matrix(1 0 0 -1 0 800)">
			<stop  offset="0" style="stop-color:#90CAF9"/>
			<stop  offset="1" style="stop-color:#1976D2"/>
		</linearGradient>
		<path style="fill:url(#SVGID_2_);" d="M548.895,378.59l-452.13,0.784c-6.588,0-11.921,4.706-11.921,10.509v9.098l475.972-0.863
			v-9.098C560.894,383.217,555.561,378.511,548.895,378.59z"/>
	</g>
	<g>
		<path style="fill:#7986CB;" d="M467.958,479.682c-0.314-9.098-4.078-17.411-9.882-23.842l-23.842,23.842H467.958z"/>
		<path style="fill:#0277BD;" d="M431.882,479.29l21.489-21.489c-5.725-5.255-13.176-8.47-21.489-8.47
			c-8.313,0-15.764,3.216-21.489,8.47L431.882,479.29z"/>
		<path style="fill:#B56887;" d="M432.902,481.799v27.763c15.058-0.549,27.136-12.627,27.685-27.763H432.902z"/>
		<path style="fill:#772E8E;" d="M430.784,481.25l-18.195-18.195c-4.313,4.706-6.902,10.901-6.902,17.803
			c0,14.038,11.215,25.567,25.097,26.116V481.25L430.784,481.25z"/>
	</g>
	<g>
		<path style="fill:#039BE5;enable-background:new    ;" d="M358.71,562.736H123.979c-9.96,0-18.117-8.078-18.117-18.117V441.331
			c0-9.96,8.078-18.117,18.117-18.117H358.71c9.96,0,18.117,8.078,18.117,18.117v103.288
			C376.827,554.579,368.749,562.736,358.71,562.736z"/>
		<g style="opacity:0.9;">
			<polygon style="fill:#813A97;" points="262.559,489.956 226.796,510.425 185.622,500.622 141.86,513.092 141.86,508.857 
				185.544,496.23 225.149,506.425 262.637,485.878 302.713,490.583 332.28,438.194 358.161,450.978 358.161,454.115 
				333.221,442.586 304.36,494.269 			"/>
			
				<linearGradient id="SVGID_3_" gradientUnits="userSpaceOnUse" x1="151.8685" y1="267.0604" x2="362.6722" y2="315.0794" gradientTransform="matrix(1 0 0 -1 0 800)">
				<stop  offset="0" style="stop-color:#F57F17"/>
				<stop  offset="1" style="stop-color:#FFEE58"/>
			</linearGradient>
			<polygon style="fill:url(#SVGID_3_);" points="355.181,458.585 335.182,448.39 306.635,500.543 262.402,494.269 228.365,514.582 
				186.014,503.916 141.782,516.542 141.782,528.777 358.004,528.777 358.004,457.801 			"/>
		</g>
		<g>
			<polygon style="fill:#762E8E;" points="358.553,543.129 124.292,543.129 124.292,439.214 127.743,439.214 127.743,539.6 
				358.553,539.6 			"/>
		</g>
	</g>
	<g>
		<g>
			<g style="opacity:0.57;">
				<rect x="401.609" y="582.421" style="fill:#757575;" width="138.815" height="3.921"/>
				<rect x="401.609" y="589.166" style="fill:#757575;" width="138.815" height="3.921"/>
				<rect x="401.609" y="595.91" style="fill:#757575;" width="138.815" height="3.921"/>
				<rect x="401.609" y="602.577" style="fill:#757575;" width="138.815" height="3.921"/>
				<rect x="401.609" y="609.243" style="fill:#757575;" width="138.815" height="3.921"/>
				<rect x="401.609" y="615.988" style="fill:#757575;" width="89.563" height="3.921"/>
			</g>
			<g style="opacity:0.57;">
				<rect x="401.609" y="627.516" style="fill:#757575;" width="138.815" height="3.921"/>
				<rect x="401.609" y="634.261" style="fill:#757575;" width="138.815" height="3.921"/>
				<rect x="401.609" y="640.927" style="fill:#757575;" width="89.563" height="3.921"/>
			</g>
		</g>
		<g>
			<g style="opacity:0.57;">
				<rect x="403.413" y="533.639" style="fill:#757575;" width="137.639" height="3.921"/>
				<rect x="403.413" y="540.384" style="fill:#757575;" width="137.639" height="3.921"/>
				<rect x="403.413" y="547.129" style="fill:#757575;" width="137.639" height="3.921"/>
				<rect x="403.413" y="553.795" style="fill:#757575;" width="137.639" height="3.921"/>
				<rect x="403.413" y="560.461" style="fill:#757575;" width="137.639" height="3.921"/>
				<rect x="403.413" y="567.206" style="fill:#757575;" width="88.779" height="3.921"/>
			</g>
		</g>
	</g>
	<g>
		<g style="opacity:0.57;">
			<rect x="108.764" y="581.009" style="fill:#757575;" width="122.424" height="3.921"/>
			<rect x="108.764" y="587.754" style="fill:#757575;" width="122.424" height="3.921"/>
			<rect x="108.764" y="594.499" style="fill:#757575;" width="122.424" height="3.921"/>
			<rect x="108.764" y="601.165" style="fill:#757575;" width="122.424" height="3.921"/>
			<rect x="108.764" y="607.91" style="fill:#757575;" width="122.424" height="3.921"/>
			<rect x="108.764" y="614.576" style="fill:#757575;" width="78.976" height="3.921"/>
		</g>
		<g style="opacity:0.57;">
			<rect x="108.764" y="626.183" style="fill:#757575;" width="122.424" height="3.921"/>
			<rect x="108.764" y="632.849" style="fill:#757575;" width="122.424" height="3.921"/>
			<rect x="108.764" y="639.516" style="fill:#757575;" width="78.976" height="3.921"/>
		</g>
	</g>
	<g>
		<g style="opacity:0.57;">
			<rect x="260.912" y="581.009" style="fill:#757575;" width="110.268" height="3.921"/>
			<rect x="260.912" y="587.754" style="fill:#757575;" width="110.268" height="3.921"/>
			<rect x="260.912" y="594.499" style="fill:#757575;" width="110.268" height="3.921"/>
			<rect x="260.912" y="601.165" style="fill:#757575;" width="110.268" height="3.921"/>
			<rect x="260.912" y="607.91" style="fill:#757575;" width="110.268" height="3.921"/>
			<rect x="260.912" y="614.576" style="fill:#757575;" width="71.133" height="3.921"/>
		</g>
		<g style="opacity:0.57;">
			<rect x="260.912" y="626.183" style="fill:#757575;" width="110.268" height="3.921"/>
			<rect x="260.912" y="632.849" style="fill:#757575;" width="110.268" height="3.921"/>
			<rect x="260.912" y="639.516" style="fill:#757575;" width="71.133" height="3.921"/>
		</g>
	</g>
	<g>
		<g>
			<path style="fill:#B56887;" d="M532.817,478.741c0,1.961-0.235,3.843-0.784,5.647l7.058,2.353c0.706-2.51,1.098-5.176,1.098-8
				c0-5.098-1.333-9.882-3.686-14.038l-6.274,3.843C531.876,471.604,532.817,475.055,532.817,478.741z"/>
			<path style="fill:#7986CB;" d="M512.505,457.409c6.902,0.314,12.94,3.921,16.548,9.254l6.274-3.843
				c-4.941-7.451-13.333-12.47-22.901-12.784v7.372H512.505z"/>
			<path style="fill:#0277BD;" d="M502.309,498.112c-7.215-3.451-12.235-10.744-12.235-19.293c0-11.45,9.019-20.783,20.313-21.332
				v-7.372c-15.372,0.549-27.685,13.176-27.685,28.704c0,11.607,6.902,21.646,16.783,26.116L502.309,498.112z"/>
			<path style="fill:#772E8E;" d="M531.327,486.505c-3.059,8-10.823,13.646-19.92,13.646c-2.51,0-4.862-0.471-7.137-1.255
				l-2.823,6.823c3.137,1.176,6.431,1.804,9.96,1.804c12.313,0,22.901-7.764,26.979-18.744L531.327,486.505z"/>
		</g>
	</g>
	<g>
		<rect x="199.425" y="447.605" style="fill:#7986CB;" width="30.273" height="3.921"/>
		<rect x="141.389" y="447.605" style="fill:#9FA8DA;" width="57.957" height="3.921"/>
		<rect x="229.698" y="447.605" style="fill:#5C6BC0;" width="29.018" height="3.921"/>
		<rect x="258.716" y="447.605" style="fill:#3949AB;" width="23.92" height="3.921"/>
		<rect x="141.389" y="454.272" style="fill:#9FA8DA;" width="40.468" height="3.921"/>
		<rect x="181.936" y="454.272" style="fill:#7986CB;" width="26.43" height="3.921"/>
		<rect x="246.324" y="454.272" style="fill:#3949AB;" width="36.312" height="3.921"/>
		<rect x="208.366" y="454.272" style="fill:#5C6BC0;" width="37.959" height="3.921"/>
		<rect x="141.389" y="461.016" style="fill:#9FA8DA;" width="34.116" height="3.921"/>
		<rect x="175.505" y="461.016" style="fill:#7986CB;" width="41.801" height="3.921"/>
		<rect x="217.307" y="461.016" style="fill:#5C6BC0;" width="37.096" height="3.921"/>
		<rect x="254.402" y="461.016" style="fill:#3949AB;" width="28.234" height="3.921"/>
		<rect x="141.389" y="467.761" style="fill:#9FA8DA;" width="51.997" height="3.921"/>
		<rect x="193.465" y="467.761" style="fill:#7986CB;" width="38.821" height="3.921"/>
		<rect x="265.539" y="467.761" style="fill:#3949AB;" width="17.097" height="3.921"/>
		<rect x="232.286" y="467.761" style="fill:#5C6BC0;" width="33.253" height="3.921"/>
	</g>
</g>
</svg>
