<?xml version="1.0" encoding="utf-8"?>
<!-- Generator: Adobe Illustrator 23.0.1, SVG Export Plug-In . SVG Version: 6.00 Build 0)  -->
<svg version="1.1" id="Layer_1" xmlns="http://www.w3.org/2000/svg" xmlns:xlink="http://www.w3.org/1999/xlink" x="0px" y="0px"
	 viewBox="0 0 800 800" style="enable-background:new 0 0 800 800;" xml:space="preserve">
<linearGradient id="SVGID_1_" gradientUnits="userSpaceOnUse" x1="390.2987" y1="175.5483" x2="390.2987" y2="614.3996" gradientTransform="matrix(0.9395 -0.3425 0.3425 0.9395 -120.0244 162.7426)">
	<stop  offset="0" style="stop-color:#4FF2FC"/>
	<stop  offset="0.5109" style="stop-color:#76AFFB"/>
	<stop  offset="1" style="stop-color:#9F6AFA"/>
</linearGradient>
<path style="fill:url(#SVGID_1_);" d="M70.936,360.362C193.772,149.1,548.326,100.01,713.687,246.291
	c96.743,85.579,89.367,220.229,27.424,282.889s-104.462,4.168-282.853,63.032c-178.391,58.865-240.195,180.051-340.746,111.883
	S-5.517,491.851,70.936,360.362z"/>
<linearGradient id="SVGID_2_" gradientUnits="userSpaceOnUse" x1="490.139" y1="988.902" x2="380.5908" y2="879.3538" gradientTransform="matrix(0.2596 0.9657 -0.9657 0.2596 931.9675 -47.4571)">
	<stop  offset="0" style="stop-color:#1F40C3"/>
	<stop  offset="1" style="stop-color:#101E85"/>
</linearGradient>
<path style="fill:url(#SVGID_2_);" d="M27.63,539.207c8.395,99.545,56.097,143.151,109.139,176.302
	c57.568,35.98,125.32-25.721,149.383-37.364c33.581-20.389-21.734-40.364,11.643-85.385c12.576-16.962-24.839-28.72-88.512,14.945
	c-27.213,18.662-51.735-11.829-38.789-27.364c31.049-37.259-8.129-42.324-26.963-34.358s-77.461,57.374-42.121-9.887
	c46.134-88.849,4.607-78.804-21.011-59.253C34.825,511.623,20.958,460.106,27.63,539.207z"/>
<linearGradient id="SVGID_3_" gradientUnits="userSpaceOnUse" x1="291.5149" y1="591.7624" x2="215.0037" y2="515.2513" gradientTransform="matrix(-0.5263 -0.8503 0.8503 -0.5263 330.9785 770.1718)">
	<stop  offset="0" style="stop-color:#1F40C3"/>
	<stop  offset="1" style="stop-color:#101E85"/>
</linearGradient>
<path style="fill:url(#SVGID_3_);" d="M771.292,327.809c-36.665-92.927-109.189-118.503-161.972-141.79
	c-65.483-17.906-25.613-8.814-44.635,43.904c-7.167,19.862-11.945,88.85,36.482,28.72c20.698-25.699,49.848-3.854,41.916,14.748
	c-19.024,44.613,9.091,27.018,24.839,13.972c15.748-13.046,51.217-50.691,36.711,23.891c-8.376,39.841-2.451,59.724,16.463,33.632
	C754.745,298.47,755.25,355.236,771.292,327.809z"/>
<linearGradient id="SVGID_4_" gradientUnits="userSpaceOnUse" x1="242.1317" y1="245.3411" x2="100.127" y2="103.3364" gradientTransform="matrix(6.123234e-17 -1 1 6.123234e-17 189.627 347.4105)">
	<stop  offset="0" style="stop-color:#7B1FA2"/>
	<stop  offset="1" style="stop-color:#E1BEE7"/>
</linearGradient>
<circle style="fill:url(#SVGID_4_);" cx="364.147" cy="176.1" r="106.72"/>
<g>
	<g>
		<linearGradient id="SVGID_5_" gradientUnits="userSpaceOnUse" x1="442.9493" y1="546.1079" x2="442.9493" y2="262.1247">
			<stop  offset="0" style="stop-color:#F57C00"/>
			<stop  offset="1" style="stop-color:#FFCC80"/>
		</linearGradient>
		<path style="fill-rule:evenodd;clip-rule:evenodd;fill:url(#SVGID_5_);" d="M228.987,248.945h427.925
			c8.746,0,15.903,7.157,15.903,15.903v270.345c0,8.745-7.156,15.903-15.903,15.903H228.987c-8.746,0-15.903-7.157-15.903-15.903
			V264.848C213.084,256.102,220.24,248.945,228.987,248.945z"/>
		<rect x="236.937" y="280.495" style="fill-rule:evenodd;clip-rule:evenodd;fill:#FFFFFF;" width="412.022" height="221.19"/>
		<path style="fill-rule:evenodd;clip-rule:evenodd;fill:#6A7573;" d="M442.948,271.066c3.194,0,5.783-2.591,5.783-5.784
			c0-3.193-2.589-5.78-5.783-5.78c-3.193,0-5.78,2.587-5.78,5.78C437.168,268.475,439.754,271.066,442.948,271.066z"/>
		<rect x="433.173" y="515.454" style="fill-rule:evenodd;clip-rule:evenodd;fill:#6A7573;" width="19.551" height="19.552"/>
		<polygon style="fill-rule:evenodd;clip-rule:evenodd;fill:#FB8C00;" points="213.084,551.096 672.815,551.096 752.662,565.577 
			133.236,565.577 		"/>
		<path style="fill-rule:evenodd;clip-rule:evenodd;fill:#BF360C;" d="M133.236,565.577h619.426v8.916
			c0,6.318-5.173,11.492-11.494,11.492H144.73c-6.321,0-11.494-5.171-11.494-11.492V565.577z"/>
		<rect x="380.388" y="571.856" style="fill-rule:evenodd;clip-rule:evenodd;fill:#FF6D00;" width="125.12" height="7.977"/>
	</g>
</g>
<g>
	<g>
		<g>
			<rect x="272.899" y="305.149" style="fill-rule:evenodd;clip-rule:evenodd;fill:#F45556;" width="115.718" height="4.396"/>
			<rect x="272.899" y="316.017" style="fill-rule:evenodd;clip-rule:evenodd;fill:#23D0F3;" width="37.08" height="4.396"/>
			<rect x="272.899" y="326.857" style="fill-rule:evenodd;clip-rule:evenodd;fill:#FFFFFF;" width="59.798" height="4.396"/>
			<rect x="300.723" y="337.724" style="fill-rule:evenodd;clip-rule:evenodd;fill:#23D0F3;" width="34.895" height="4.396"/>
			<rect x="300.723" y="348.564" style="fill-rule:evenodd;clip-rule:evenodd;fill:#23D0F3;" width="34.895" height="4.396"/>
			<rect x="324.943" y="359.431" style="fill-rule:evenodd;clip-rule:evenodd;fill:#23D0F3;" width="33.939" height="4.396"/>
			<rect x="322.458" y="316.017" style="fill-rule:evenodd;clip-rule:evenodd;fill:#FFFFFF;" width="63.238" height="4.396"/>
			<rect x="394.707" y="316.017" style="fill-rule:evenodd;clip-rule:evenodd;fill:#CACACA;" width="30.199" height="4.396"/>
			<rect x="436.374" y="316.017" style="fill-rule:evenodd;clip-rule:evenodd;fill:#CACACA;" width="40.767" height="4.396"/>
			<rect x="342.691" y="326.857" style="fill-rule:evenodd;clip-rule:evenodd;fill:#23D0F3;" width="35.579" height="4.396"/>
			<rect x="346.268" y="337.724" style="fill-rule:evenodd;clip-rule:evenodd;fill:#FFFFFF;" width="20.369" height="4.396"/>
			<rect x="346.268" y="348.564" style="fill-rule:evenodd;clip-rule:evenodd;fill:#CACACA;" width="34.896" height="4.396"/>
			<rect x="376.331" y="337.724" style="fill-rule:evenodd;clip-rule:evenodd;fill:#CACACA;" width="38.773" height="4.396"/>
			<rect x="422.858" y="337.724" style="fill-rule:evenodd;clip-rule:evenodd;fill:#FFE032;" width="20.342" height="4.396"/>
			<rect x="451.938" y="337.724" style="fill-rule:evenodd;clip-rule:evenodd;fill:#CACACA;" width="25.202" height="4.396"/>
			<rect x="388.918" y="348.564" style="fill-rule:evenodd;clip-rule:evenodd;fill:#FFFFFF;" width="44.07" height="4.396"/>
			<rect x="439.569" y="348.564" style="fill-rule:evenodd;clip-rule:evenodd;fill:#CACACA;" width="13.161" height="4.396"/>
			<rect x="368.575" y="359.431" style="fill-rule:evenodd;clip-rule:evenodd;fill:#F45556;" width="25.23" height="4.396"/>
			<rect x="300.723" y="381.139" style="fill-rule:evenodd;clip-rule:evenodd;fill:#23D0F3;" width="34.895" height="4.396"/>
			<rect x="300.723" y="392.006" style="fill-rule:evenodd;clip-rule:evenodd;fill:#23D0F3;" width="34.895" height="4.396"/>
			<rect x="346.268" y="381.139" style="fill-rule:evenodd;clip-rule:evenodd;fill:#CACACA;" width="20.369" height="4.396"/>
			<rect x="346.268" y="392.006" style="fill-rule:evenodd;clip-rule:evenodd;fill:#FFFFFF;" width="31.428" height="4.396"/>
			<rect x="376.331" y="381.139" style="fill-rule:evenodd;clip-rule:evenodd;fill:#CACACA;" width="29.816" height="4.396"/>
			<rect x="412.1" y="381.139" style="fill-rule:evenodd;clip-rule:evenodd;fill:#FFFFFF;" width="15.673" height="4.396"/>
			<rect x="434.49" y="381.139" style="fill-rule:evenodd;clip-rule:evenodd;fill:#CACACA;" width="19.386" height="4.396"/>
			<rect x="408.277" y="392.006" style="fill-rule:evenodd;clip-rule:evenodd;fill:#CACACA;" width="34.923" height="4.396"/>
			<rect x="300.723" y="402.846" style="fill-rule:evenodd;clip-rule:evenodd;fill:#23D0F3;" width="34.895" height="4.396"/>
			<rect x="300.723" y="413.714" style="fill-rule:evenodd;clip-rule:evenodd;fill:#23D0F3;" width="34.895" height="4.396"/>
			<rect x="346.268" y="402.846" style="fill-rule:evenodd;clip-rule:evenodd;fill:#CACACA;" width="20.369" height="4.396"/>
			<rect x="346.268" y="413.714" style="fill-rule:evenodd;clip-rule:evenodd;fill:#FFFFFF;" width="63.975" height="4.396"/>
			<rect x="376.331" y="402.846" style="fill-rule:evenodd;clip-rule:evenodd;fill:#FFFFFF;" width="38.773" height="4.396"/>
			<rect x="422.858" y="402.846" style="fill-rule:evenodd;clip-rule:evenodd;fill:#CACACA;" width="20.342" height="4.396"/>
			<rect x="451.938" y="402.846" style="fill-rule:evenodd;clip-rule:evenodd;fill:#CACACA;" width="25.202" height="4.396"/>
			<rect x="417.998" y="413.714" style="fill-rule:evenodd;clip-rule:evenodd;fill:#CACACA;" width="35.879" height="4.396"/>
			<rect x="384.686" y="392.006" style="fill-rule:evenodd;clip-rule:evenodd;fill:#FFE032;" width="14.854" height="4.396"/>
			<rect x="272.899" y="435.421" style="fill-rule:evenodd;clip-rule:evenodd;fill:#23D0F3;" width="37.08" height="4.396"/>
			<rect x="272.899" y="446.261" style="fill-rule:evenodd;clip-rule:evenodd;fill:#FFFFFF;" width="59.798" height="4.396"/>
			<rect x="300.723" y="457.128" style="fill-rule:evenodd;clip-rule:evenodd;fill:#23D0F3;" width="34.895" height="4.397"/>
			<rect x="300.723" y="467.968" style="fill-rule:evenodd;clip-rule:evenodd;fill:#23D0F3;" width="34.895" height="4.424"/>
			<rect x="324.943" y="478.836" style="fill-rule:evenodd;clip-rule:evenodd;fill:#23D0F3;" width="33.939" height="4.396"/>
			<rect x="322.458" y="435.421" style="fill-rule:evenodd;clip-rule:evenodd;fill:#F45556;" width="35.087" height="4.396"/>
			<rect x="366.529" y="435.421" style="fill-rule:evenodd;clip-rule:evenodd;fill:#CACACA;" width="17.721" height="4.396"/>
			<rect x="395.717" y="435.421" style="fill-rule:evenodd;clip-rule:evenodd;fill:#FFFFFF;" width="56.357" height="4.396"/>
			<rect x="342.691" y="446.261" style="fill-rule:evenodd;clip-rule:evenodd;fill:#23D0F3;" width="35.579" height="4.396"/>
			<rect x="346.268" y="457.128" style="fill-rule:evenodd;clip-rule:evenodd;fill:#CACACA;" width="39.756" height="4.397"/>
			<rect x="346.268" y="467.968" style="fill-rule:evenodd;clip-rule:evenodd;fill:#CACACA;" width="27.141" height="4.424"/>
			<rect x="395.717" y="457.128" style="fill-rule:evenodd;clip-rule:evenodd;fill:#FFE032;" width="29.543" height="4.397"/>
			<rect x="381.163" y="467.968" style="fill-rule:evenodd;clip-rule:evenodd;fill:#FFFFFF;" width="51.825" height="4.424"/>
			<rect x="439.569" y="467.968" style="fill-rule:evenodd;clip-rule:evenodd;fill:#CACACA;" width="13.161" height="4.424"/>
			<rect x="368.575" y="478.836" style="fill-rule:evenodd;clip-rule:evenodd;fill:#CACACA;" width="25.23" height="4.396"/>
			<rect x="399.403" y="478.836" style="fill-rule:evenodd;clip-rule:evenodd;fill:#CACACA;" width="46.965" height="4.396"/>
			<rect x="453.357" y="478.836" style="fill-rule:evenodd;clip-rule:evenodd;fill:#FFFFFF;" width="14.035" height="4.396"/>
		</g>
	</g>
	<g>
		<g>
			<rect x="410.291" y="316.017" style="fill-rule:evenodd;clip-rule:evenodd;fill:#23D0F3;" width="37.08" height="4.396"/>
			<rect x="410.291" y="326.857" style="fill-rule:evenodd;clip-rule:evenodd;fill:#FFFFFF;" width="59.798" height="4.396"/>
			<rect x="438.115" y="337.724" style="fill-rule:evenodd;clip-rule:evenodd;fill:#23D0F3;" width="34.895" height="4.396"/>
			<rect x="438.115" y="348.564" style="fill-rule:evenodd;clip-rule:evenodd;fill:#23D0F3;" width="34.895" height="4.396"/>
			<rect x="462.334" y="359.431" style="fill-rule:evenodd;clip-rule:evenodd;fill:#23D0F3;" width="33.939" height="4.396"/>
			<rect x="459.849" y="316.017" style="fill-rule:evenodd;clip-rule:evenodd;fill:#FFFFFF;" width="63.238" height="4.396"/>
			<rect x="532.098" y="316.017" style="fill-rule:evenodd;clip-rule:evenodd;fill:#CACACA;" width="30.199" height="4.396"/>
			<rect x="573.765" y="316.017" style="fill-rule:evenodd;clip-rule:evenodd;fill:#CACACA;" width="40.767" height="4.396"/>
			<rect x="480.082" y="326.857" style="fill-rule:evenodd;clip-rule:evenodd;fill:#23D0F3;" width="35.579" height="4.396"/>
			<rect x="483.659" y="337.724" style="fill-rule:evenodd;clip-rule:evenodd;fill:#FFFFFF;" width="20.369" height="4.396"/>
			<rect x="483.659" y="348.564" style="fill-rule:evenodd;clip-rule:evenodd;fill:#CACACA;" width="34.896" height="4.396"/>
			<rect x="513.722" y="337.724" style="fill-rule:evenodd;clip-rule:evenodd;fill:#CACACA;" width="38.773" height="4.396"/>
			<rect x="560.25" y="337.724" style="fill-rule:evenodd;clip-rule:evenodd;fill:#FFE032;" width="20.342" height="4.396"/>
			<rect x="589.329" y="337.724" style="fill-rule:evenodd;clip-rule:evenodd;fill:#CACACA;" width="25.202" height="4.396"/>
			<rect x="526.309" y="348.564" style="fill-rule:evenodd;clip-rule:evenodd;fill:#FFFFFF;" width="44.07" height="4.396"/>
			<rect x="576.96" y="348.564" style="fill-rule:evenodd;clip-rule:evenodd;fill:#CACACA;" width="13.161" height="4.396"/>
			<rect x="505.967" y="359.431" style="fill-rule:evenodd;clip-rule:evenodd;fill:#F45556;" width="25.23" height="4.396"/>
			<rect x="438.115" y="381.139" style="fill-rule:evenodd;clip-rule:evenodd;fill:#23D0F3;" width="34.895" height="4.396"/>
			<rect x="438.115" y="392.006" style="fill-rule:evenodd;clip-rule:evenodd;fill:#23D0F3;" width="34.895" height="4.396"/>
			<rect x="483.659" y="381.139" style="fill-rule:evenodd;clip-rule:evenodd;fill:#CACACA;" width="20.369" height="4.396"/>
			<rect x="483.659" y="392.006" style="fill-rule:evenodd;clip-rule:evenodd;fill:#FFFFFF;" width="31.428" height="4.396"/>
			<rect x="513.722" y="381.139" style="fill-rule:evenodd;clip-rule:evenodd;fill:#CACACA;" width="29.816" height="4.396"/>
			<rect x="549.491" y="381.139" style="fill-rule:evenodd;clip-rule:evenodd;fill:#FFFFFF;" width="15.673" height="4.396"/>
			<rect x="571.882" y="381.139" style="fill-rule:evenodd;clip-rule:evenodd;fill:#CACACA;" width="19.386" height="4.396"/>
			<rect x="545.669" y="392.006" style="fill-rule:evenodd;clip-rule:evenodd;fill:#CACACA;" width="34.923" height="4.396"/>
			<rect x="438.115" y="402.846" style="fill-rule:evenodd;clip-rule:evenodd;fill:#23D0F3;" width="34.895" height="4.396"/>
			<rect x="438.115" y="413.714" style="fill-rule:evenodd;clip-rule:evenodd;fill:#23D0F3;" width="34.895" height="4.396"/>
			<rect x="483.659" y="402.846" style="fill-rule:evenodd;clip-rule:evenodd;fill:#CACACA;" width="20.369" height="4.396"/>
			<rect x="483.659" y="413.714" style="fill-rule:evenodd;clip-rule:evenodd;fill:#FFFFFF;" width="63.975" height="4.396"/>
			<rect x="513.722" y="402.846" style="fill-rule:evenodd;clip-rule:evenodd;fill:#FFFFFF;" width="38.773" height="4.396"/>
			<rect x="560.25" y="402.846" style="fill-rule:evenodd;clip-rule:evenodd;fill:#CACACA;" width="20.342" height="4.396"/>
			<rect x="589.329" y="402.846" style="fill-rule:evenodd;clip-rule:evenodd;fill:#CACACA;" width="25.202" height="4.396"/>
			<rect x="555.389" y="413.714" style="fill-rule:evenodd;clip-rule:evenodd;fill:#CACACA;" width="35.879" height="4.396"/>
			<rect x="522.077" y="392.006" style="fill-rule:evenodd;clip-rule:evenodd;fill:#FFE032;" width="14.854" height="4.396"/>
			<rect x="410.291" y="435.421" style="fill-rule:evenodd;clip-rule:evenodd;fill:#23D0F3;" width="37.08" height="4.396"/>
			<rect x="410.291" y="446.261" style="fill-rule:evenodd;clip-rule:evenodd;fill:#FFFFFF;" width="59.798" height="4.396"/>
			<rect x="438.115" y="457.128" style="fill-rule:evenodd;clip-rule:evenodd;fill:#23D0F3;" width="34.895" height="4.397"/>
			<rect x="438.115" y="467.968" style="fill-rule:evenodd;clip-rule:evenodd;fill:#23D0F3;" width="34.895" height="4.424"/>
			<rect x="462.334" y="478.836" style="fill-rule:evenodd;clip-rule:evenodd;fill:#23D0F3;" width="33.939" height="4.396"/>
			<rect x="459.849" y="435.421" style="fill-rule:evenodd;clip-rule:evenodd;fill:#F45556;" width="35.087" height="4.396"/>
			<rect x="503.92" y="435.421" style="fill-rule:evenodd;clip-rule:evenodd;fill:#CACACA;" width="17.721" height="4.396"/>
			<rect x="533.109" y="435.421" style="fill-rule:evenodd;clip-rule:evenodd;fill:#FFFFFF;" width="56.357" height="4.396"/>
			<rect x="480.082" y="446.261" style="fill-rule:evenodd;clip-rule:evenodd;fill:#23D0F3;" width="35.579" height="4.396"/>
			<rect x="483.659" y="457.128" style="fill-rule:evenodd;clip-rule:evenodd;fill:#CACACA;" width="39.756" height="4.397"/>
			<rect x="483.659" y="467.968" style="fill-rule:evenodd;clip-rule:evenodd;fill:#CACACA;" width="27.141" height="4.424"/>
			<rect x="533.109" y="457.128" style="fill-rule:evenodd;clip-rule:evenodd;fill:#FFE032;" width="29.543" height="4.397"/>
			<rect x="518.555" y="467.968" style="fill-rule:evenodd;clip-rule:evenodd;fill:#FFFFFF;" width="51.825" height="4.424"/>
			<rect x="576.96" y="467.968" style="fill-rule:evenodd;clip-rule:evenodd;fill:#CACACA;" width="13.161" height="4.424"/>
			<rect x="505.967" y="478.836" style="fill-rule:evenodd;clip-rule:evenodd;fill:#CACACA;" width="25.23" height="4.396"/>
			<rect x="536.794" y="478.836" style="fill-rule:evenodd;clip-rule:evenodd;fill:#CACACA;" width="46.965" height="4.396"/>
			<rect x="590.749" y="478.836" style="fill-rule:evenodd;clip-rule:evenodd;fill:#FFFFFF;" width="14.035" height="4.396"/>
		</g>
	</g>
</g>
<radialGradient id="SVGID_6_" cx="229.6198" cy="356.1913" r="135.0991" gradientUnits="userSpaceOnUse">
	<stop  offset="0" style="stop-color:#64B5F6"/>
	<stop  offset="1" style="stop-color:#0D47A1"/>
</radialGradient>
<path style="fill:url(#SVGID_6_);" d="M258.823,431.717H148.489c-11.004,0-20.007-9.003-20.007-20.007v-77.356
	c0-11.004,9.003-20.007,20.007-20.007h110.334c11.004,0,20.007,9.003,20.007,20.007v77.356
	C278.83,422.714,269.827,431.717,258.823,431.717z"/>
<path style="fill-rule:evenodd;clip-rule:evenodd;fill:#FFFFFF;" d="M147.183,377.036v-7.202l40.097-17.609v7.682l-31.739,13.444
	l31.739,13.762v7.686L147.183,377.036z M191.919,405.362l17.653-64.66h6.034l-17.645,64.66H191.919z M260.192,377.036
	l-39.938,17.765v-7.686l31.58-13.762l-31.58-13.444v-7.682l39.938,17.609V377.036z"/>
</svg>
