<?xml version="1.0" encoding="utf-8"?>
<!-- Generator: Adobe Illustrator 23.0.1, SVG Export Plug-In . SVG Version: 6.00 Build 0)  -->
<svg version="1.1" id="Layer_1" xmlns="http://www.w3.org/2000/svg" xmlns:xlink="http://www.w3.org/1999/xlink" x="0px" y="0px"
	 viewBox="0 0 800 800" style="enable-background:new 0 0 800 800;" xml:space="preserve">
<linearGradient id="SVGID_1_" gradientUnits="userSpaceOnUse" x1="648.4478" y1="601.0993" x2="128.3429" y2="109.5265" gradientTransform="matrix(0.9578 0.2874 0.2874 -0.9578 -104.7962 658.6748)">
	<stop  offset="0" style="stop-color:#4FF2FC"/>
	<stop  offset="0.5109" style="stop-color:#76AFFB"/>
	<stop  offset="1" style="stop-color:#9F6AFA"/>
</linearGradient>
<path style="fill:url(#SVGID_1_);" d="M186.265,140.825c224.794-95.854,538.311,76.846,583.356,292.979
	c26.354,126.445-60.086,229.95-147.205,243.124s-86.214-59.134-264.39-118.645c-178.177-59.51-300.186,0.652-340.005-114.116
	S46.354,200.484,186.265,140.825z"/>
<linearGradient id="SVGID_2_" gradientUnits="userSpaceOnUse" x1="135.0026" y1="115.4191" x2="23.4621" y2="226.9595" gradientTransform="matrix(-0.3681 0.9298 -0.9298 -0.3681 829.3893 562.3005)">
	<stop  offset="0" style="stop-color:#1F40C3"/>
	<stop  offset="1" style="stop-color:#101E85"/>
</linearGradient>
<path style="fill:url(#SVGID_2_);" d="M714.369,442.173c-23.22-22.346-59.222-39.147-23.525,54.385
	c27.436,70.853-25.172,15.08-42.974,5.017s-57.302-9.5-30.707,31.058c11.089,16.91-16.751,44.405-41.657,22.76
	c-58.276-50.644-96.788-43.231-86.229-24.945c28.023,48.535-32.6,63.064-1.565,87.151c22.578,14.312,81.245,80.21,154.727,53.818
	c73.482-26.392,120.573-80.727,129.37-163.007S755.677,481.925,714.369,442.173z"/>
<linearGradient id="SVGID_3_" gradientUnits="userSpaceOnUse" x1="251.4463" y1="343.5262" x2="109.4416" y2="485.5309" gradientTransform="matrix(6.123234e-17 -1 -1 -6.123234e-17 989.627 347.4105)">
	<stop  offset="0" style="stop-color:#F57F17"/>
	<stop  offset="1" style="stop-color:#FFEE58"/>
</linearGradient>
<circle style="fill:url(#SVGID_3_);" cx="575.28" cy="166.785" r="106.72"/>
<g>
	<polygon style="fill-rule:evenodd;clip-rule:evenodd;fill:#6A1B9A;" points="360.643,486.058 442.679,486.058 481.133,564.862 
		322.189,564.862 	"/>
	<linearGradient id="SVGID_4_" gradientUnits="userSpaceOnUse" x1="401.6611" y1="501.8997" x2="401.6611" y2="239.5531">
		<stop  offset="0" style="stop-color:#4527A0"/>
		<stop  offset="1" style="stop-color:#9575CD"/>
	</linearGradient>
	<path style="fill-rule:evenodd;clip-rule:evenodd;fill:url(#SVGID_4_);" d="M208.35,223.278h386.622
		c10.88,0,19.781,10.071,19.781,22.379V483.66c0,12.308-8.901,22.378-19.781,22.378H208.35c-10.88,0-19.781-10.071-19.781-22.378
		V245.657C188.569,233.349,197.47,223.278,208.35,223.278z"/>
	<rect x="201.698" y="236.332" style="fill-rule:evenodd;clip-rule:evenodd;fill:#FFFFFF;" width="399.927" height="229.747"/>
	<path style="fill-rule:evenodd;clip-rule:evenodd;fill:#808281;" d="M590.733,489.168c1.414,0,2.569-1.306,2.569-2.906
		c0-1.6-1.154-2.906-2.569-2.906c-1.414,0-2.569,1.306-2.569,2.906C588.164,487.861,589.319,489.168,590.733,489.168z"/>
	<path style="fill-rule:evenodd;clip-rule:evenodd;fill:#808281;" d="M580.703,489.168c1.416,0,2.569-1.306,2.569-2.906
		c0-1.6-1.153-2.906-2.569-2.906c-1.414,0-2.569,1.306-2.569,2.906C578.134,487.861,579.288,489.168,580.703,489.168z"/>
	<path style="fill-rule:evenodd;clip-rule:evenodd;fill:#808281;" d="M570.674,489.168c1.414,0,2.569-1.306,2.569-2.906
		c0-1.6-1.154-2.906-2.569-2.906c-1.416,0-2.569,1.306-2.569,2.906C568.105,487.861,569.258,489.168,570.674,489.168z"/>
	<path style="fill-rule:evenodd;clip-rule:evenodd;fill:#AB47BC;" d="M165.722,541.047h471.879c5.79,0,10.527,5.357,10.527,11.907
		l0,0c0,6.549-4.737,11.909-10.527,11.909H165.722c-5.79,0-10.527-5.359-10.527-11.909l0,0
		C155.194,546.404,159.932,541.047,165.722,541.047z"/>
	<path style="fill-rule:evenodd;clip-rule:evenodd;fill:#BA68C8;" d="M648.128,552.953c0,6.549-4.737,11.909-10.527,11.909H165.722
		c-5.792,0-10.527-5.359-10.527-11.909H648.128z"/>
</g>
<g>
	<radialGradient id="SVGID_5_" cx="183.6888" cy="319.8864" r="132.9411" gradientUnits="userSpaceOnUse">
		<stop  offset="0" style="stop-color:#9FA8DA"/>
		<stop  offset="1" style="stop-color:#283593"/>
	</radialGradient>
	<path style="fill:url(#SVGID_5_);" d="M213.337,428.023H91.512c-6.6,0-12-5.4-12-12V282.658c0-6.6,5.4-12,12-12h121.824
		c6.6,0,12,5.4,12,12v133.365C225.337,422.623,219.937,428.023,213.337,428.023z"/>
	<g>
		<linearGradient id="SVGID_6_" gradientUnits="userSpaceOnUse" x1="96.203" y1="311.8961" x2="208.6462" y2="311.8961">
			<stop  offset="0.0121" style="stop-color:#FFEE58"/>
			<stop  offset="1" style="stop-color:#F9A825"/>
		</linearGradient>
		<path style="fill:url(#SVGID_6_);" d="M201.109,294.464H103.74c-4.162,0-7.538,3.375-7.538,7.538v19.786
			c0,4.164,3.375,7.539,7.538,7.539h97.368c4.164,0,7.537-3.376,7.537-7.539v-19.786
			C208.646,297.839,205.273,294.464,201.109,294.464z M105.623,324.312c-0.946,0-1.713-0.767-1.713-1.713s0.767-1.713,1.713-1.713
			c0.945,0,1.713,0.767,1.713,1.713S106.568,324.312,105.623,324.312z M111.178,324.312c-0.946,0-1.711-0.767-1.711-1.713
			s0.766-1.713,1.711-1.713c0.947,0,1.713,0.767,1.713,1.713S112.125,324.312,111.178,324.312z M108.482,312.842
			c-2.907,0-5.264-2.357-5.264-5.266c0-2.907,2.357-5.264,5.264-5.264c2.909,0,5.266,2.358,5.266,5.264
			C113.748,310.484,111.391,312.842,108.482,312.842z M116.887,324.312c-0.944,0-1.713-0.767-1.713-1.713s0.769-1.713,1.713-1.713
			c0.947,0,1.713,0.767,1.713,1.713S117.834,324.312,116.887,324.312z M195.413,322.868h-37.865v-4.256h37.865V322.868z
			 M195.413,314.025h-37.865v-4.257h37.865V314.025z M195.413,305.179h-37.865v-4.256h37.865V305.179z"/>
		<linearGradient id="SVGID_7_" gradientUnits="userSpaceOnUse" x1="96.203" y1="349.3405" x2="208.6462" y2="349.3405">
			<stop  offset="0.0121" style="stop-color:#FFEE58"/>
			<stop  offset="1" style="stop-color:#F9A825"/>
		</linearGradient>
		<path style="fill:url(#SVGID_7_);" d="M201.109,331.908H103.74c-4.162,0-7.538,3.376-7.538,7.538v19.788
			c0,4.163,3.375,7.538,7.538,7.538h97.368c4.164,0,7.537-3.375,7.537-7.538v-19.788
			C208.646,335.284,205.273,331.908,201.109,331.908z M105.623,361.757c-0.946,0-1.713-0.766-1.713-1.712
			c0-0.947,0.767-1.713,1.713-1.713c0.945,0,1.713,0.766,1.713,1.713C107.336,360.991,106.568,361.757,105.623,361.757z
			 M111.178,361.757c-0.946,0-1.711-0.766-1.711-1.712c0-0.947,0.766-1.713,1.711-1.713c0.947,0,1.713,0.766,1.713,1.713
			C112.89,360.991,112.125,361.757,111.178,361.757z M108.482,350.286c-2.907,0-5.264-2.357-5.264-5.265
			c0-2.908,2.357-5.265,5.264-5.265c2.909,0,5.266,2.357,5.266,5.265C113.748,347.929,111.391,350.286,108.482,350.286z
			 M116.887,361.757c-0.944,0-1.713-0.766-1.713-1.712c0-0.947,0.769-1.713,1.713-1.713c0.947,0,1.713,0.766,1.713,1.713
			C118.599,360.991,117.834,361.757,116.887,361.757z M195.413,360.313h-37.865v-4.257h37.865V360.313z M195.413,351.469h-37.865
			v-4.257h37.865V351.469z M195.413,342.625h-37.865v-4.257h37.865V342.625z"/>
		<linearGradient id="SVGID_8_" gradientUnits="userSpaceOnUse" x1="96.203" y1="386.7855" x2="208.6462" y2="386.7855">
			<stop  offset="0.0121" style="stop-color:#FFEE58"/>
			<stop  offset="1" style="stop-color:#F9A825"/>
		</linearGradient>
		<path style="fill:url(#SVGID_8_);" d="M201.109,369.354H103.74c-4.162,0-7.538,3.375-7.538,7.538v19.786
			c0,4.164,3.375,7.538,7.538,7.538h97.368c4.164,0,7.537-3.375,7.537-7.538v-19.786
			C208.646,372.729,205.273,369.354,201.109,369.354z M105.623,399.203c-0.946,0-1.713-0.767-1.713-1.713
			c0-0.946,0.767-1.714,1.713-1.714c0.945,0,1.713,0.768,1.713,1.714C107.336,398.435,106.568,399.203,105.623,399.203z
			 M111.178,399.203c-0.946,0-1.711-0.767-1.711-1.713c0-0.946,0.766-1.714,1.711-1.714c0.947,0,1.713,0.768,1.713,1.714
			C112.89,398.435,112.125,399.203,111.178,399.203z M108.482,387.732c-2.907,0-5.264-2.357-5.264-5.266
			c0-2.908,2.357-5.265,5.264-5.265c2.909,0,5.266,2.356,5.266,5.265C113.748,385.375,111.391,387.732,108.482,387.732z
			 M116.887,399.203c-0.944,0-1.713-0.767-1.713-1.713c0-0.946,0.769-1.714,1.713-1.714c0.947,0,1.713,0.768,1.713,1.714
			C118.599,398.435,117.834,399.203,116.887,399.203z M195.413,397.758h-37.865v-4.256h37.865V397.758z M195.413,388.915h-37.865
			v-4.257h37.865V388.915z M195.413,380.069h-37.865v-4.256h37.865V380.069z"/>
	</g>
</g>
<linearGradient id="SVGID_9_" gradientUnits="userSpaceOnUse" x1="267.0109" y1="540.2402" x2="265.8466" y2="414.4921" gradientTransform="matrix(-0.9995 -0.0314 0.0314 -0.9995 524.5751 871.5652)">
	<stop  offset="0" style="stop-color:#F57F17"/>
	<stop  offset="1" style="stop-color:#FFEE58"/>
</linearGradient>
<path style="fill-rule:evenodd;clip-rule:evenodd;fill:url(#SVGID_9_);" d="M261.188,446.308l0.279-11.497l0.148-6.119l5.372-2.931
	l5.373-2.932l0.003,0l5.226,3.188l5.223,3.189l-0.145,6.118l-0.28,11.498c5.923-3.43,9.974-9.769,10.151-17.115
	c0.199-8.231-4.53-15.421-11.487-18.789l1.18-48.796c7.112-3.027,12.184-9.98,12.384-18.211c0.176-7.345-3.563-13.873-9.313-17.586
	l-0.278,11.496l-0.149,6.12l-5.372,2.931l-5.372,2.932l-0.001,0l-5.227-3.188l-5.223-3.189l0.147-6.118l0.279-11.497
	c-5.924,3.432-9.973,9.772-10.153,17.116c-0.198,8.231,4.531,15.421,11.488,18.788l-1.181,48.796
	c-7.112,3.028-12.183,9.981-12.382,18.211C251.698,436.067,255.439,442.596,261.188,446.308z"/>
<path style="fill:#00ACC1;" d="M323.369,319.584c-2.926,5.083-4.667,10.618-5.246,16.236l-7.089,0.57l1.204,14.957l7.087-0.57
	c1.47,5.453,4.074,10.642,7.776,15.188l-4.612,5.418l11.427,9.725l4.611-5.417c1.334,0.768,2.7,1.455,4.091,2.061
	c3.904,1.701,8.002,2.759,12.143,3.184l0.574,7.09l14.955-1.204l-0.57-7.088c5.454-1.47,10.64-4.074,15.187-7.774l5.418,4.61
	l9.726-11.428l-5.418-4.61c2.927-5.083,4.669-10.618,5.246-16.235l7.089-0.572l-1.201-14.955l-7.091,0.568
	c-1.47-5.454-4.071-10.64-7.774-15.187l4.612-5.419l-11.427-9.725l-4.612,5.418c-1.334-0.769-2.701-1.456-4.092-2.061
	c-3.903-1.7-8.002-2.759-12.144-3.186l-0.57-7.088l-14.956,1.202l0.569,7.089c-5.453,1.47-10.639,4.074-15.189,7.775l-5.417-4.61
	l-9.725,11.427L323.369,319.584z M343.493,326.859c5.954-6.995,15.619-8.965,23.628-5.481c1.796,0.781,3.511,1.837,5.08,3.172
	c8.565,7.289,9.599,20.142,2.309,28.707c-5.954,6.996-15.619,8.967-23.628,5.483c-1.797-0.782-3.51-1.837-5.079-3.173
	C337.238,348.279,336.203,335.426,343.493,326.859z"/>
<path style="fill:#42A5F5;" d="M271.287,270.658l-4.614-1.547l-3.819,11.416l4.613,1.542c-0.359,3.304-0.127,6.598,0.686,9.82
	l-4.353,2.171l5.374,10.772l4.353-2.171c2.071,2.573,4.599,4.768,7.429,6.462l-1.543,4.61l3.033,1.016l8.382,2.804l1.543-4.613
	c3.301,0.357,6.598,0.127,9.819-0.687l2.171,4.353l10.769-5.373l-2.169-4.353c2.587-2.085,4.756-4.575,6.461-7.428l4.609,1.543
	l3.819-11.416l-4.612-1.542c0.359-3.303,0.128-6.599-0.688-9.821l4.353-2.171l-5.371-10.771l-4.355,2.169
	c-2.068-2.57-4.594-4.764-7.424-6.458l1.54-4.612l-3.034-1.015l-8.381-2.804l-1.545,4.61c-3.301-0.357-6.595-0.124-9.818,0.691
	l-2.168-4.353l-10.776,5.371l2.17,4.351C275.156,265.31,272.987,267.802,271.287,270.658z M286.965,268.231
	c5.065-2.524,10.872-2.603,15.885-0.423c1.674,0.727,3.259,1.707,4.699,2.933c1.929,1.642,3.487,3.637,4.627,5.924
	c4.624,9.274,0.842,20.584-8.434,25.211c-5.061,2.524-10.87,2.602-15.882,0.422c-1.674-0.729-3.26-1.709-4.699-2.934
	c-1.928-1.639-3.485-3.634-4.628-5.923C273.907,284.164,277.692,272.859,286.965,268.231z"/>
<g>
	<g>
		<rect x="417.722" y="264.397" style="fill-rule:evenodd;clip-rule:evenodd;fill:#F45556;" width="92.355" height="4.396"/>
		<rect x="417.722" y="275.265" style="fill-rule:evenodd;clip-rule:evenodd;fill:#23D0F3;" width="29.594" height="4.396"/>
		<rect x="417.722" y="286.105" style="fill-rule:evenodd;clip-rule:evenodd;fill:#FFFFFF;" width="47.725" height="4.396"/>
		<rect x="439.928" y="296.972" style="fill-rule:evenodd;clip-rule:evenodd;fill:#23D0F3;" width="27.85" height="4.396"/>
		<rect x="439.928" y="307.812" style="fill-rule:evenodd;clip-rule:evenodd;fill:#23D0F3;" width="27.85" height="4.396"/>
		<rect x="459.259" y="318.679" style="fill-rule:evenodd;clip-rule:evenodd;fill:#23D0F3;" width="27.087" height="4.396"/>
		<rect x="457.275" y="275.265" style="fill-rule:evenodd;clip-rule:evenodd;fill:#FFFFFF;" width="50.471" height="4.396"/>
		<rect x="514.938" y="275.265" style="fill-rule:evenodd;clip-rule:evenodd;fill:#CACACA;" width="24.102" height="4.396"/>
		<rect x="548.192" y="275.265" style="fill-rule:evenodd;clip-rule:evenodd;fill:#CACACA;" width="32.536" height="4.396"/>
		<rect x="473.423" y="286.105" style="fill-rule:evenodd;clip-rule:evenodd;fill:#23D0F3;" width="28.396" height="4.396"/>
		<rect x="476.278" y="296.972" style="fill-rule:evenodd;clip-rule:evenodd;fill:#FFFFFF;" width="16.257" height="4.396"/>
		<rect x="476.278" y="307.812" style="fill-rule:evenodd;clip-rule:evenodd;fill:#CACACA;" width="27.851" height="4.396"/>
		<rect x="500.272" y="296.972" style="fill-rule:evenodd;clip-rule:evenodd;fill:#CACACA;" width="30.945" height="4.396"/>
		<rect x="537.405" y="296.972" style="fill-rule:evenodd;clip-rule:evenodd;fill:#FFE032;" width="16.235" height="4.396"/>
		<rect x="560.614" y="296.972" style="fill-rule:evenodd;clip-rule:evenodd;fill:#CACACA;" width="20.114" height="4.396"/>
		<rect x="510.317" y="307.812" style="fill-rule:evenodd;clip-rule:evenodd;fill:#FFFFFF;" width="35.173" height="4.396"/>
		<rect x="550.742" y="307.812" style="fill-rule:evenodd;clip-rule:evenodd;fill:#CACACA;" width="10.504" height="4.396"/>
		<rect x="494.082" y="318.679" style="fill-rule:evenodd;clip-rule:evenodd;fill:#F45556;" width="20.136" height="4.396"/>
		<rect x="439.928" y="340.387" style="fill-rule:evenodd;clip-rule:evenodd;fill:#23D0F3;" width="27.85" height="4.396"/>
		<rect x="439.928" y="351.254" style="fill-rule:evenodd;clip-rule:evenodd;fill:#23D0F3;" width="27.85" height="4.396"/>
		<rect x="476.278" y="340.387" style="fill-rule:evenodd;clip-rule:evenodd;fill:#CACACA;" width="16.257" height="4.396"/>
		<rect x="476.278" y="351.254" style="fill-rule:evenodd;clip-rule:evenodd;fill:#FFFFFF;" width="25.083" height="4.396"/>
		<rect x="500.272" y="340.387" style="fill-rule:evenodd;clip-rule:evenodd;fill:#CACACA;" width="23.796" height="4.396"/>
		<rect x="528.819" y="340.387" style="fill-rule:evenodd;clip-rule:evenodd;fill:#FFFFFF;" width="12.509" height="4.396"/>
		<rect x="546.689" y="340.387" style="fill-rule:evenodd;clip-rule:evenodd;fill:#CACACA;" width="15.472" height="4.396"/>
		<rect x="525.768" y="351.254" style="fill-rule:evenodd;clip-rule:evenodd;fill:#CACACA;" width="27.872" height="4.396"/>
		<rect x="439.928" y="362.094" style="fill-rule:evenodd;clip-rule:evenodd;fill:#23D0F3;" width="27.85" height="4.396"/>
		<rect x="439.928" y="372.962" style="fill-rule:evenodd;clip-rule:evenodd;fill:#23D0F3;" width="27.85" height="4.396"/>
		<rect x="476.278" y="362.094" style="fill-rule:evenodd;clip-rule:evenodd;fill:#CACACA;" width="16.257" height="4.396"/>
		<rect x="476.278" y="372.962" style="fill-rule:evenodd;clip-rule:evenodd;fill:#FFFFFF;" width="51.059" height="4.396"/>
		<rect x="500.272" y="362.094" style="fill-rule:evenodd;clip-rule:evenodd;fill:#FFFFFF;" width="30.945" height="4.396"/>
		<rect x="537.405" y="362.094" style="fill-rule:evenodd;clip-rule:evenodd;fill:#CACACA;" width="16.235" height="4.396"/>
		<rect x="560.614" y="362.094" style="fill-rule:evenodd;clip-rule:evenodd;fill:#CACACA;" width="20.114" height="4.396"/>
		<rect x="533.526" y="372.962" style="fill-rule:evenodd;clip-rule:evenodd;fill:#CACACA;" width="28.635" height="4.396"/>
		<rect x="506.94" y="351.254" style="fill-rule:evenodd;clip-rule:evenodd;fill:#FFE032;" width="11.855" height="4.396"/>
		<rect x="417.722" y="394.669" style="fill-rule:evenodd;clip-rule:evenodd;fill:#23D0F3;" width="29.594" height="4.396"/>
		<rect x="417.722" y="405.509" style="fill-rule:evenodd;clip-rule:evenodd;fill:#FFFFFF;" width="47.725" height="4.396"/>
		<rect x="439.928" y="416.376" style="fill-rule:evenodd;clip-rule:evenodd;fill:#23D0F3;" width="27.85" height="4.397"/>
		<rect x="439.928" y="427.216" style="fill-rule:evenodd;clip-rule:evenodd;fill:#23D0F3;" width="27.85" height="4.424"/>
		<rect x="459.259" y="438.084" style="fill-rule:evenodd;clip-rule:evenodd;fill:#23D0F3;" width="27.087" height="4.396"/>
		<rect x="457.275" y="394.669" style="fill-rule:evenodd;clip-rule:evenodd;fill:#F45556;" width="28.003" height="4.396"/>
		<rect x="492.449" y="394.669" style="fill-rule:evenodd;clip-rule:evenodd;fill:#CACACA;" width="14.143" height="4.396"/>
		<rect x="515.744" y="394.669" style="fill-rule:evenodd;clip-rule:evenodd;fill:#FFFFFF;" width="44.979" height="4.396"/>
		<rect x="473.423" y="405.509" style="fill-rule:evenodd;clip-rule:evenodd;fill:#23D0F3;" width="28.396" height="4.396"/>
		<rect x="476.278" y="416.376" style="fill-rule:evenodd;clip-rule:evenodd;fill:#CACACA;" width="31.73" height="4.397"/>
		<rect x="476.278" y="427.216" style="fill-rule:evenodd;clip-rule:evenodd;fill:#CACACA;" width="21.661" height="4.424"/>
		<rect x="515.744" y="416.376" style="fill-rule:evenodd;clip-rule:evenodd;fill:#FFE032;" width="23.578" height="4.397"/>
		<rect x="504.128" y="427.216" style="fill-rule:evenodd;clip-rule:evenodd;fill:#FFFFFF;" width="41.362" height="4.424"/>
		<rect x="550.742" y="427.216" style="fill-rule:evenodd;clip-rule:evenodd;fill:#CACACA;" width="10.504" height="4.424"/>
		<rect x="494.082" y="438.084" style="fill-rule:evenodd;clip-rule:evenodd;fill:#CACACA;" width="20.136" height="4.396"/>
		<rect x="518.686" y="438.084" style="fill-rule:evenodd;clip-rule:evenodd;fill:#CACACA;" width="37.483" height="4.396"/>
		<rect x="561.747" y="438.084" style="fill-rule:evenodd;clip-rule:evenodd;fill:#FFFFFF;" width="11.201" height="4.396"/>
	</g>
</g>
</svg>
