<?xml version="1.0" encoding="utf-8"?>
<!-- Generator: Adobe Illustrator 23.0.1, SVG Export Plug-In . SVG Version: 6.00 Build 0)  -->
<svg version="1.1" id="Layer_1" xmlns="http://www.w3.org/2000/svg" xmlns:xlink="http://www.w3.org/1999/xlink" x="0px" y="0px"
	 viewBox="0 0 800 800" style="enable-background:new 0 0 800 800;" xml:space="preserve">
<path style="fill:#29B6F6;" d="M701.687,373.846h-4.486c-0.254-10.638-9.017-19.267-19.713-19.267h-2.141
	c-4.135-14.334-17.38-24.906-32.998-24.906l0,0c-15.619,0-28.863,10.572-32.998,24.906h-2.142c-10.697,0-19.458,8.629-19.713,19.267
	h-4.486c-10.984,0-19.972,8.986-19.972,19.972c0,10.985,8.987,19.972,19.972,19.972h118.676c10.985,0,19.971-8.987,19.971-19.972
	C721.659,382.833,712.671,373.846,701.687,373.846z"/>
<path style="fill:#0277BD;" d="M306.381,360.965h-5.933c-0.336-14.069-11.923-25.48-26.069-25.48h-2.831
	c-5.469-18.956-22.983-32.937-43.639-32.937l0,0c-20.655,0-38.169,13.981-43.638,32.937h-2.832
	c-14.146,0-25.732,11.411-26.069,25.48h-5.933c-14.526,0-26.412,11.884-26.412,26.412c0,14.526,11.886,26.412,26.412,26.412h156.944
	c14.526,0,26.411-11.886,26.411-26.412C332.792,372.849,320.908,360.965,306.381,360.965z"/>
<g>
	<g id="XMLID_1_">
		<g id="XMLID_4_">
			<path id="XMLID_5_" style="fill:#FF8F00;" d="M469.766,573.958c-2.066,0-3.74-1.675-3.74-3.74V550.94
				c0-2.065,1.674-3.74,3.74-3.74c2.066,0,3.74,1.675,3.74,3.74v19.279C473.506,572.283,471.832,573.958,469.766,573.958z
				 M469.766,535.399c-2.066,0-3.74-1.674-3.74-3.74v-19.281c0-2.066,1.674-3.741,3.74-3.741c2.066,0,3.74,1.674,3.74,3.741v19.281
				C473.506,533.725,471.832,535.399,469.766,535.399z M469.766,496.837c-2.066,0-3.74-1.674-3.74-3.74v-19.28
				c0-2.066,1.674-3.74,3.74-3.74c2.066,0,3.74,1.674,3.74,3.74v19.28C473.506,495.163,471.832,496.837,469.766,496.837z
				 M469.766,458.276c-2.066,0-3.74-1.674-3.74-3.74v-19.28c0-2.066,1.674-3.74,3.74-3.74c2.066,0,3.74,1.674,3.74,3.74v19.28
				C473.506,456.602,471.832,458.276,469.766,458.276z M469.766,419.715c-2.066,0-3.74-1.674-3.74-3.74v-19.281
				c0-2.066,1.674-3.74,3.74-3.74c2.066,0,3.74,1.674,3.74,3.74v19.281C473.506,418.041,471.832,419.715,469.766,419.715z
				 M469.766,381.155c-2.066,0-3.74-1.674-3.74-3.74v-19.281c0-2.066,1.674-3.74,3.74-3.74c2.066,0,3.74,1.674,3.74,3.74v19.281
				C473.506,379.481,471.832,381.155,469.766,381.155z M469.766,342.594c-2.066,0-3.74-1.674-3.74-3.74v-19.281
				c0-2.066,1.674-3.74,3.74-3.74c2.066,0,3.74,1.674,3.74,3.74v19.281C473.506,340.92,471.832,342.594,469.766,342.594z"/>
		</g>
		<g id="XMLID_2_">
			<path id="XMLID_3_" style="fill:#FF8F00;" d="M469.766,603.214c-2.066,0-3.74-1.676-3.74-3.74v-9.974
				c0-2.065,1.674-3.74,3.74-3.74c2.066,0,3.74,1.675,3.74,3.74v9.974C473.506,601.538,471.832,603.214,469.766,603.214z"/>
		</g>
	</g>
	<g id="XMLID_58_">
		<g id="XMLID_61_">
			<path id="XMLID_62_" style="fill:#FF8F00;" d="M172.505,648.82c0-2.066,1.675-3.74,3.74-3.74h19.279
				c2.065,0,3.74,1.674,3.74,3.74c0,2.066-1.675,3.74-3.74,3.74h-19.279C174.18,652.561,172.505,650.887,172.505,648.82z
				 M211.064,648.82c0-2.066,1.674-3.74,3.74-3.74h19.281c2.066,0,3.74,1.674,3.74,3.74c0,2.066-1.674,3.74-3.74,3.74h-19.281
				C212.738,652.561,211.064,650.887,211.064,648.82z M249.626,648.82c0-2.066,1.674-3.74,3.74-3.74h19.28
				c2.066,0,3.74,1.674,3.74,3.74c0,2.066-1.674,3.74-3.74,3.74h-19.28C251.3,652.561,249.626,650.887,249.626,648.82z
				 M288.187,648.82c0-2.066,1.674-3.74,3.74-3.74h19.28c2.066,0,3.74,1.674,3.74,3.74c0,2.066-1.674,3.74-3.74,3.74h-19.28
				C289.861,652.561,288.187,650.887,288.187,648.82z M326.748,648.82c0-2.066,1.674-3.74,3.74-3.74h19.281
				c2.066,0,3.74,1.674,3.74,3.74c0,2.066-1.674,3.74-3.74,3.74h-19.281C328.422,652.561,326.748,650.887,326.748,648.82z
				 M365.308,648.82c0-2.066,1.674-3.74,3.74-3.74h19.281c2.066,0,3.74,1.674,3.74,3.74c0,2.066-1.674,3.74-3.74,3.74h-19.281
				C366.983,652.561,365.308,650.887,365.308,648.82z M403.869,648.82c0-2.066,1.674-3.74,3.74-3.74h19.281
				c2.066,0,3.74,1.674,3.74,3.74c0,2.066-1.674,3.74-3.74,3.74H407.61C405.543,652.561,403.869,650.887,403.869,648.82z"/>
		</g>
		<g id="XMLID_59_">
			<path id="XMLID_60_" style="fill:#FF8F00;" d="M143.25,648.82c0-2.066,1.676-3.74,3.74-3.74h9.974c2.065,0,3.74,1.674,3.74,3.74
				c0,2.066-1.675,3.74-3.74,3.74h-9.974C144.925,652.561,143.25,650.887,143.25,648.82z"/>
		</g>
	</g>
	<g id="XMLID_70_">
		<g id="XMLID_73_">
			<path id="XMLID_74_" style="fill:#FF8F00;" d="M497.708,648.82c0-2.066,1.675-3.74,3.74-3.74h19.279
				c2.065,0,3.74,1.674,3.74,3.74c0,2.066-1.675,3.74-3.74,3.74h-19.279C499.383,652.561,497.708,650.887,497.708,648.82z
				 M536.268,648.82c0-2.066,1.674-3.74,3.74-3.74h19.281c2.066,0,3.74,1.674,3.74,3.74c0,2.066-1.674,3.74-3.74,3.74h-19.281
				C537.942,652.561,536.268,650.887,536.268,648.82z M574.829,648.82c0-2.066,1.674-3.74,3.74-3.74h19.28
				c2.066,0,3.74,1.674,3.74,3.74c0,2.066-1.674,3.74-3.74,3.74h-19.28C576.504,652.561,574.829,650.887,574.829,648.82z
				 M613.39,648.82c0-2.066,1.674-3.74,3.741-3.74h19.28c2.066,0,3.74,1.674,3.74,3.74c0,2.066-1.674,3.74-3.74,3.74h-19.28
				C615.064,652.561,613.39,650.887,613.39,648.82z M651.951,648.82c0-2.066,1.674-3.74,3.74-3.74h19.281
				c2.066,0,3.74,1.674,3.74,3.74c0,2.066-1.674,3.74-3.74,3.74h-19.281C653.625,652.561,651.951,650.887,651.951,648.82z
				 M690.512,648.82c0-2.066,1.674-3.74,3.74-3.74h19.281c2.066,0,3.74,1.674,3.74,3.74c0,2.066-1.674,3.74-3.74,3.74h-19.281
				C692.186,652.561,690.512,650.887,690.512,648.82z M729.073,648.82c0-2.066,1.674-3.74,3.74-3.74h19.281
				c2.066,0,3.74,1.674,3.74,3.74c0,2.066-1.674,3.74-3.74,3.74h-19.281C730.747,652.561,729.073,650.887,729.073,648.82z"/>
		</g>
		<g id="XMLID_71_">
			<path id="XMLID_72_" style="fill:#FF8F00;" d="M468.453,648.82c0-2.066,1.676-3.74,3.74-3.74h9.974c2.065,0,3.74,1.674,3.74,3.74
				c0,2.066-1.675,3.74-3.74,3.74h-9.974C470.128,652.561,468.453,650.887,468.453,648.82z"/>
		</g>
	</g>
	<g>
		<g id="XMLID_4411_">
			<g id="XMLID_4417_">
				<path id="XMLID_4439_" style="fill:#FF8F00;" d="M720.392,220.576h-18.226c-2.066,0-3.74-1.674-3.74-3.74s1.674-3.74,3.74-3.74
					h18.226c2.066,0,3.74,1.674,3.74,3.74S722.458,220.576,720.392,220.576z M683.941,220.576h-18.226
					c-2.066,0-3.74-1.674-3.74-3.74s1.674-3.74,3.74-3.74h18.226c2.066,0,3.74,1.674,3.74,3.74S686.007,220.576,683.941,220.576z
					 M647.49,220.576h-18.226c-2.066,0-3.74-1.674-3.74-3.74s1.674-3.74,3.74-3.74h18.226c2.066,0,3.74,1.674,3.74,3.74
					S649.557,220.576,647.49,220.576z M611.04,220.576h-18.226c-2.066,0-3.74-1.674-3.74-3.74s1.674-3.74,3.74-3.74h18.226
					c2.066,0,3.74,1.674,3.74,3.74S613.106,220.576,611.04,220.576z M574.589,220.576h-18.226c-2.066,0-3.74-1.674-3.74-3.74
					s1.674-3.74,3.74-3.74h18.226c2.066,0,3.74,1.674,3.74,3.74S576.655,220.576,574.589,220.576z"/>
			</g>
			<g id="XMLID_4416_">
				<path id="XMLID_4438_" style="fill:#FF8F00;" d="M748.59,230.55c-2.066,0-3.74-1.674-3.74-3.74v-6.234h-6.234
					c-2.066,0-3.74-1.674-3.74-3.74s1.674-3.74,3.74-3.74h9.974c2.066,0,3.74,1.674,3.74,3.74v9.974
					C752.331,228.876,750.656,230.55,748.59,230.55z"/>
			</g>
			<g id="XMLID_4415_">
				<path id="XMLID_4430_" style="fill:#FF8F00;" d="M748.59,500.477c-2.066,0-3.74-1.675-3.74-3.74v-19.279
					c0-2.065,1.674-3.74,3.74-3.74c2.066,0,3.74,1.675,3.74,3.74v19.279C752.331,498.802,750.656,500.477,748.59,500.477z
					 M748.59,461.917c-2.066,0-3.74-1.674-3.74-3.74v-19.281c0-2.066,1.674-3.74,3.74-3.74c2.066,0,3.74,1.674,3.74,3.74v19.281
					C752.331,460.243,750.656,461.917,748.59,461.917z M748.59,423.355c-2.066,0-3.74-1.674-3.74-3.74v-19.28
					c0-2.066,1.674-3.74,3.74-3.74c2.066,0,3.74,1.674,3.74,3.74v19.28C752.331,421.681,750.656,423.355,748.59,423.355z
					 M748.59,384.795c-2.066,0-3.74-1.674-3.74-3.74v-19.28c0-2.066,1.674-3.74,3.74-3.74c2.066,0,3.74,1.674,3.74,3.74v19.28
					C752.331,383.12,750.656,384.795,748.59,384.795z M748.59,346.234c-2.066,0-3.74-1.674-3.74-3.74v-19.281
					c0-2.066,1.674-3.74,3.74-3.74c2.066,0,3.74,1.674,3.74,3.74v19.281C752.331,344.56,750.656,346.234,748.59,346.234z
					 M748.59,307.673c-2.066,0-3.74-1.674-3.74-3.74v-19.281c0-2.066,1.674-3.74,3.74-3.74c2.066,0,3.74,1.674,3.74,3.74v19.281
					C752.331,305.999,750.656,307.673,748.59,307.673z M748.59,269.112c-2.066,0-3.74-1.674-3.74-3.74v-19.281
					c0-2.066,1.674-3.74,3.74-3.74c2.066,0,3.74,1.674,3.74,3.74v19.281C752.331,267.438,750.656,269.112,748.59,269.112z"/>
			</g>
			<g id="XMLID_4414_">
				<path id="XMLID_4429_" style="fill:#FF8F00;" d="M748.59,529.732c-2.066,0-3.74-1.676-3.74-3.74v-9.974
					c0-2.065,1.674-3.74,3.74-3.74c2.066,0,3.74,1.675,3.74,3.74v9.974C752.331,528.057,750.656,529.732,748.59,529.732z"/>
			</g>
		</g>
		<g id="XMLID_46_">
			<g id="XMLID_49_">
				<path id="XMLID_50_" style="fill:#FF8F00;" d="M748.706,577.695c-2.066,0-3.74-1.675-3.74-3.74v-19.279
					c0-2.065,1.674-3.74,3.74-3.74c2.066,0,3.74,1.675,3.74,3.74v19.279C752.446,576.02,750.772,577.695,748.706,577.695z
					 M748.706,539.135c-2.066,0-3.74-1.674-3.74-3.74v-19.281c0-2.066,1.674-3.74,3.74-3.74c2.066,0,3.74,1.674,3.74,3.74v19.281
					C752.446,537.461,750.772,539.135,748.706,539.135z M748.706,500.573c-2.066,0-3.74-1.674-3.74-3.74v-19.28
					c0-2.066,1.674-3.74,3.74-3.74c2.066,0,3.74,1.674,3.74,3.74v19.28C752.446,498.899,750.772,500.573,748.706,500.573z
					 M748.706,462.013c-2.066,0-3.74-1.674-3.74-3.74v-19.28c0-2.066,1.674-3.74,3.74-3.74c2.066,0,3.74,1.674,3.74,3.74v19.28
					C752.446,460.338,750.772,462.013,748.706,462.013z M748.706,423.452c-2.066,0-3.74-1.674-3.74-3.74V400.43
					c0-2.066,1.674-3.74,3.74-3.74c2.066,0,3.74,1.674,3.74,3.74v19.281C752.446,421.778,750.772,423.452,748.706,423.452z
					 M748.706,384.891c-2.066,0-3.74-1.674-3.74-3.74V361.87c0-2.066,1.674-3.74,3.74-3.74c2.066,0,3.74,1.674,3.74,3.74v19.281
					C752.446,383.217,750.772,384.891,748.706,384.891z M748.706,346.33c-2.066,0-3.74-1.674-3.74-3.74v-19.281
					c0-2.066,1.674-3.74,3.74-3.74c2.066,0,3.74,1.674,3.74,3.74v19.281C752.446,344.656,750.772,346.33,748.706,346.33z"/>
			</g>
			<g id="XMLID_47_">
				<path id="XMLID_48_" style="fill:#FF8F00;" d="M748.706,606.95c-2.066,0-3.74-1.676-3.74-3.74v-9.974
					c0-2.065,1.674-3.74,3.74-3.74c2.066,0,3.74,1.675,3.74,3.74v9.974C752.446,605.274,750.772,606.95,748.706,606.95z"/>
			</g>
		</g>
	</g>
	<g>
		<g id="XMLID_13_">
			<g id="XMLID_27_">
				<path id="XMLID_28_" style="fill:#FF8F00;" d="M157.763,216.836c0-2.066,1.674-3.74,3.74-3.74h18.225
					c2.066,0,3.74,1.674,3.74,3.74s-1.674,3.74-3.74,3.74h-18.225C159.437,220.576,157.763,218.902,157.763,216.836z
					 M194.214,216.836c0-2.066,1.674-3.74,3.74-3.74h18.225c2.066,0,3.74,1.674,3.74,3.74s-1.674,3.74-3.74,3.74h-18.225
					C195.888,220.576,194.214,218.902,194.214,216.836z M230.665,216.836c0-2.066,1.674-3.74,3.74-3.74h18.225
					c2.066,0,3.74,1.674,3.74,3.74s-1.674,3.74-3.74,3.74h-18.225C232.339,220.576,230.665,218.902,230.665,216.836z
					 M267.115,216.836c0-2.066,1.674-3.74,3.74-3.74h18.226c2.066,0,3.74,1.674,3.74,3.74s-1.674,3.74-3.74,3.74h-18.226
					C268.789,220.576,267.115,218.902,267.115,216.836z M303.566,216.836c0-2.066,1.674-3.74,3.74-3.74h18.226
					c2.066,0,3.74,1.674,3.74,3.74s-1.674,3.74-3.74,3.74h-18.226C305.24,220.576,303.566,218.902,303.566,216.836z"/>
			</g>
			<g id="XMLID_25_">
				<path id="XMLID_26_" style="fill:#FF8F00;" d="M133.305,230.55c2.066,0,3.74-1.674,3.74-3.74v-6.234h6.234
					c2.066,0,3.74-1.674,3.74-3.74s-1.674-3.74-3.74-3.74h-9.974c-2.066,0-3.74,1.674-3.74,3.74v9.974
					C129.565,228.876,131.239,230.55,133.305,230.55z"/>
			</g>
			<g id="XMLID_16_">
				<path id="XMLID_17_" style="fill:#FF8F00;" d="M129.565,496.737v-19.279c0-2.065,1.674-3.74,3.74-3.74
					c2.066,0,3.74,1.675,3.74,3.74v19.279c0,2.065-1.674,3.74-3.74,3.74C131.239,500.477,129.565,498.802,129.565,496.737z
					 M129.565,458.177v-19.281c0-2.066,1.674-3.74,3.74-3.74c2.066,0,3.74,1.674,3.74,3.74v19.281c0,2.066-1.674,3.74-3.74,3.74
					C131.239,461.917,129.565,460.243,129.565,458.177z M129.565,419.615v-19.28c0-2.066,1.674-3.74,3.74-3.74
					c2.066,0,3.74,1.674,3.74,3.74v19.28c0,2.066-1.674,3.74-3.74,3.74C131.239,423.355,129.565,421.681,129.565,419.615z
					 M129.565,381.054v-19.28c0-2.066,1.674-3.74,3.74-3.74c2.066,0,3.74,1.674,3.74,3.74v19.28c0,2.066-1.674,3.74-3.74,3.74
					C131.239,384.795,129.565,383.12,129.565,381.054z M129.565,342.494v-19.281c0-2.066,1.674-3.74,3.74-3.74
					c2.066,0,3.74,1.674,3.74,3.74v19.281c0,2.066-1.674,3.74-3.74,3.74C131.239,346.234,129.565,344.56,129.565,342.494z
					 M129.565,303.933v-19.281c0-2.066,1.674-3.74,3.74-3.74c2.066,0,3.74,1.674,3.74,3.74v19.281c0,2.066-1.674,3.74-3.74,3.74
					C131.239,307.673,129.565,305.999,129.565,303.933z M129.565,265.372v-19.281c0-2.066,1.674-3.74,3.74-3.74
					c2.066,0,3.74,1.674,3.74,3.74v19.281c0,2.066-1.674,3.74-3.74,3.74C131.239,269.112,129.565,267.438,129.565,265.372z"/>
			</g>
			<g id="XMLID_14_">
				<path id="XMLID_15_" style="fill:#FF8F00;" d="M133.305,529.732c2.066,0,3.74-1.676,3.74-3.74v-9.974
					c0-2.065-1.674-3.74-3.74-3.74c-2.066,0-3.74,1.675-3.74,3.74v9.974C129.565,528.057,131.239,529.732,133.305,529.732z"/>
			</g>
		</g>
		<g id="XMLID_34_">
			<g id="XMLID_37_">
				<path id="XMLID_38_" style="fill:#FF8F00;" d="M133.49,577.687c-2.066,0-3.74-1.675-3.74-3.74v-19.279
					c0-2.065,1.674-3.74,3.74-3.74c2.066,0,3.74,1.675,3.74,3.74v19.279C137.23,576.012,135.556,577.687,133.49,577.687z
					 M133.49,539.127c-2.066,0-3.74-1.674-3.74-3.74v-19.281c0-2.066,1.674-3.74,3.74-3.74c2.066,0,3.74,1.674,3.74,3.74v19.281
					C137.23,537.453,135.556,539.127,133.49,539.127z M133.49,500.565c-2.066,0-3.74-1.674-3.74-3.74v-19.28
					c0-2.066,1.674-3.74,3.74-3.74c2.066,0,3.74,1.674,3.74,3.74v19.28C137.23,498.891,135.556,500.565,133.49,500.565z
					 M133.49,462.005c-2.066,0-3.74-1.674-3.74-3.74v-19.28c0-2.066,1.674-3.74,3.74-3.74c2.066,0,3.74,1.674,3.74,3.74v19.28
					C137.23,460.33,135.556,462.005,133.49,462.005z M133.49,423.444c-2.066,0-3.74-1.674-3.74-3.74v-19.281
					c0-2.066,1.674-3.74,3.74-3.74c2.066,0,3.74,1.674,3.74,3.74v19.281C137.23,421.77,135.556,423.444,133.49,423.444z
					 M133.49,384.883c-2.066,0-3.74-1.674-3.74-3.74v-19.281c0-2.066,1.674-3.74,3.74-3.74c2.066,0,3.74,1.674,3.74,3.74v19.281
					C137.23,383.209,135.556,384.883,133.49,384.883z M133.49,346.322c-2.066,0-3.74-1.674-3.74-3.74v-19.281
					c0-2.066,1.674-3.741,3.74-3.741c2.066,0,3.74,1.674,3.74,3.741v19.281C137.23,344.648,135.556,346.322,133.49,346.322z"/>
			</g>
			<g id="XMLID_35_">
				<path id="XMLID_36_" style="fill:#FF8F00;" d="M133.49,606.942c-2.066,0-3.74-1.676-3.74-3.74v-9.974
					c0-2.065,1.674-3.74,3.74-3.74c2.066,0,3.74,1.675,3.74,3.74v9.974C137.23,605.267,135.556,606.942,133.49,606.942z"/>
			</g>
		</g>
	</g>
</g>
<g>
	<path id="XMLID_4070_" style="fill:#F9A825;" d="M555.124,46.723H310.402c-14.116,0-25.561,11.443-25.561,25.561V390.46
		c0,12.878,10.439,23.318,23.318,23.318h249.208c12.877,0,23.318-10.439,23.318-23.318V72.283
		C580.684,58.167,569.241,46.723,555.124,46.723z"/>
	<path id="XMLID_4077_" style="fill:#F57F17;" d="M580.695,72.289v318.166c0,12.883-10.45,23.334-23.334,23.334h-34.413V46.952
		h35.559C571.017,48.612,580.695,59.32,580.695,72.289z"/>
	<path id="XMLID_3375_" style="fill:#283593;" d="M551.246,173.748H316.48c-6.655,0-12.049,5.394-12.049,12.048v67.281
		c0,6.655,5.394,12.049,12.049,12.049h234.766c6.654,0,12.048-5.394,12.048-12.049v-67.281
		C563.294,179.142,557.899,173.748,551.246,173.748z"/>
	<g id="XMLID_2951_">
		<g id="XMLID_3362_">
			<circle id="XMLID_3367_" style="fill:#FFFEFF;" cx="435.453" cy="201.96" r="4.771"/>
			<circle id="XMLID_3366_" style="fill:#FFFEFF;" cx="435.453" cy="219.437" r="4.771"/>
			<circle id="XMLID_3365_" style="fill:#FFFEFF;" cx="435.453" cy="184.483" r="4.771"/>
			<circle id="XMLID_3364_" style="fill:#FFFEFF;" cx="435.453" cy="236.912" r="4.771"/>
			<circle id="XMLID_3363_" style="fill:#FFFEFF;" cx="435.453" cy="254.389" r="4.771"/>
		</g>
		<g id="XMLID_2871_">
			<path id="XMLID_3369_" style="fill:#5C6BC0;" d="M542.362,187.109h-77.538c-0.528,0-0.954-0.428-0.954-0.954v-5.486
				c0-0.528,0.428-0.954,0.954-0.954h77.538c0.528,0,0.955,0.428,0.955,0.954v5.486C543.318,186.681,542.89,187.109,542.362,187.109
				z"/>
			<path id="XMLID_3368_" style="fill:#5C6BC0;" d="M532.342,237.21h-57.498c-6.061,0-10.975,4.914-10.975,10.974
				c0,6.061,4.914,10.975,10.975,10.975h57.498c6.061,0,10.974-4.913,10.974-10.975C543.318,242.124,538.404,237.21,532.342,237.21z
				"/>
			<path id="XMLID_2949_" style="fill:#5C6BC0;" d="M532.342,208.461h-57.498c-6.061,0-10.975,4.913-10.975,10.974
				c0,6.061,4.914,10.974,10.975,10.974h57.498c6.061,0,10.974-4.913,10.974-10.974
				C543.318,213.375,538.404,208.461,532.342,208.461z"/>
			<path id="XMLID_3361_" style="fill:#5C6BC0;" d="M542.362,199.616h-77.538c-0.528,0-0.954-0.428-0.954-0.954v-5.486
				c0-0.527,0.428-0.954,0.954-0.954h77.538c0.528,0,0.955,0.428,0.955,0.954v5.486C543.318,199.189,542.89,199.616,542.362,199.616
				z"/>
		</g>
		<g id="XMLID_2950_">
			<path id="XMLID_2937_" style="fill:#5C6BC0;" d="M331.804,180.667v77.538c0,0.528-0.428,0.954-0.954,0.954h-5.486
				c-0.527,0-0.954-0.428-0.954-0.954v-77.538c0-0.528,0.428-0.954,0.954-0.954h5.486
				C331.376,179.712,331.804,180.14,331.804,180.667z"/>
			<path id="XMLID_2936_" style="fill:#5C6BC0;" d="M344.873,180.667v77.538c0,0.528-0.428,0.954-0.954,0.954h-5.486
				c-0.527,0-0.954-0.428-0.954-0.954v-77.538c0-0.528,0.428-0.954,0.954-0.954h5.486
				C344.446,179.712,344.873,180.14,344.873,180.667z"/>
			<path id="XMLID_2942_" style="fill:#5C6BC0;" d="M357.942,180.667v77.538c0,0.528-0.428,0.954-0.954,0.954h-5.486
				c-0.528,0-0.954-0.428-0.954-0.954v-77.538c0-0.528,0.428-0.954,0.954-0.954h5.486
				C357.515,179.712,357.942,180.14,357.942,180.667z"/>
			<path id="XMLID_2939_" style="fill:#5C6BC0;" d="M371.011,180.667v77.538c0,0.528-0.428,0.954-0.954,0.954h-5.486
				c-0.528,0-0.954-0.428-0.954-0.954v-77.538c0-0.528,0.428-0.954,0.954-0.954h5.486
				C370.584,179.712,371.011,180.14,371.011,180.667z"/>
			<path id="XMLID_2948_" style="fill:#5C6BC0;" d="M384.079,180.667v77.538c0,0.528-0.428,0.954-0.954,0.954h-5.486
				c-0.528,0-0.954-0.428-0.954-0.954v-77.538c0-0.528,0.428-0.954,0.954-0.954h5.486
				C383.653,179.712,384.079,180.14,384.079,180.667z"/>
			<path id="XMLID_2947_" style="fill:#5C6BC0;" d="M397.149,180.667v77.538c0,0.528-0.428,0.954-0.954,0.954h-5.486
				c-0.527,0-0.954-0.428-0.954-0.954v-77.538c0-0.528,0.428-0.954,0.954-0.954h5.486
				C396.721,179.712,397.149,180.14,397.149,180.667z"/>
			<path id="XMLID_2946_" style="fill:#5C6BC0;" d="M410.218,180.667v77.538c0,0.528-0.428,0.954-0.954,0.954h-5.486
				c-0.527,0-0.954-0.428-0.954-0.954v-77.538c0-0.528,0.428-0.954,0.954-0.954h5.486
				C409.791,179.712,410.218,180.14,410.218,180.667z"/>
		</g>
	</g>
	<path id="XMLID_3355_" style="fill:#283593;" d="M551.737,68.392H316.971c-6.654,0-12.048,5.394-12.048,12.048v67.281
		c0,6.655,5.394,12.049,12.048,12.049h234.766c6.654,0,12.049-5.394,12.049-12.049V80.44
		C563.785,73.785,558.39,68.392,551.737,68.392z"/>
	<g id="XMLID_3335_">
		<g id="XMLID_3349_">
			<circle id="XMLID_3354_" style="fill:#FFFEFF;" cx="435.944" cy="96.604" r="4.771"/>
			<circle id="XMLID_3353_" style="fill:#FFFEFF;" cx="435.944" cy="114.08" r="4.771"/>
			<circle id="XMLID_3352_" style="fill:#FFFEFF;" cx="435.944" cy="79.128" r="4.771"/>
			<circle id="XMLID_3351_" style="fill:#FFFEFF;" cx="435.944" cy="131.557" r="4.771"/>
			<circle id="XMLID_3350_" style="fill:#FFFEFF;" cx="435.944" cy="149.033" r="4.771"/>
		</g>
		<g id="XMLID_3344_">
			<path id="XMLID_3348_" style="fill:#5C6BC0;" d="M542.853,81.752h-77.538c-0.528,0-0.954-0.428-0.954-0.954v-5.486
				c0-0.528,0.428-0.954,0.954-0.954h77.538c0.528,0,0.954,0.428,0.954,0.954v5.486C543.809,81.325,543.381,81.752,542.853,81.752z"
				/>
			<path id="XMLID_3347_" style="fill:#5C6BC0;" d="M532.834,131.855h-57.498c-6.061,0-10.974,4.913-10.974,10.974
				c0,6.061,4.914,10.974,10.974,10.974h57.498c6.06,0,10.974-4.913,10.974-10.974C543.809,136.769,538.896,131.855,532.834,131.855
				z"/>
			<path id="XMLID_3346_" style="fill:#5C6BC0;" d="M532.834,103.106h-57.498c-6.061,0-10.974,4.914-10.974,10.975
				s4.913,10.974,10.974,10.974h57.498c6.06,0,10.974-4.913,10.974-10.974C543.809,108.02,538.895,103.106,532.834,103.106z"/>
			<path id="XMLID_3345_" style="fill:#5C6BC0;" d="M542.853,94.261h-77.538c-0.528,0-0.954-0.428-0.954-0.954V87.82
				c0-0.528,0.428-0.954,0.954-0.954h77.538c0.528,0,0.954,0.428,0.954,0.954v5.486C543.809,93.834,543.381,94.261,542.853,94.261z"
				/>
		</g>
		<g id="XMLID_3336_">
			<path id="XMLID_3343_" style="fill:#5C6BC0;" d="M332.295,75.311v77.538c0,0.527-0.428,0.954-0.954,0.954h-5.486
				c-0.528,0-0.954-0.428-0.954-0.954V75.311c0-0.528,0.428-0.954,0.954-0.954h5.486C331.867,74.356,332.295,74.784,332.295,75.311z
				"/>
			<path id="XMLID_3342_" style="fill:#5C6BC0;" d="M345.364,75.311v77.538c0,0.527-0.428,0.954-0.954,0.954h-5.486
				c-0.527,0-0.954-0.428-0.954-0.954V75.311c0-0.528,0.428-0.954,0.954-0.954h5.486C344.936,74.356,345.364,74.784,345.364,75.311z
				"/>
			<path id="XMLID_3341_" style="fill:#5C6BC0;" d="M358.433,75.311v77.538c0,0.527-0.428,0.954-0.954,0.954h-5.486
				c-0.527,0-0.954-0.428-0.954-0.954V75.311c0-0.528,0.428-0.954,0.954-0.954h5.486C358.005,74.356,358.433,74.784,358.433,75.311z
				"/>
			<path id="XMLID_3340_" style="fill:#5C6BC0;" d="M371.502,75.311v77.538c0,0.527-0.428,0.954-0.954,0.954h-5.486
				c-0.528,0-0.954-0.428-0.954-0.954V75.311c0-0.528,0.428-0.954,0.954-0.954h5.486C371.074,74.356,371.502,74.784,371.502,75.311z
				"/>
			<path id="XMLID_3339_" style="fill:#5C6BC0;" d="M384.571,75.311v77.538c0,0.527-0.428,0.954-0.954,0.954h-5.486
				c-0.528,0-0.954-0.428-0.954-0.954V75.311c0-0.528,0.428-0.954,0.954-0.954h5.486C384.144,74.356,384.571,74.784,384.571,75.311z
				"/>
			<path id="XMLID_3338_" style="fill:#5C6BC0;" d="M397.64,75.311v77.538c0,0.527-0.428,0.954-0.954,0.954h-5.486
				c-0.528,0-0.954-0.428-0.954-0.954V75.311c0-0.528,0.428-0.954,0.954-0.954h5.486C397.213,74.356,397.64,74.784,397.64,75.311z"
				/>
			<path id="XMLID_3337_" style="fill:#5C6BC0;" d="M410.709,75.311v77.538c0,0.527-0.428,0.954-0.954,0.954h-5.486
				c-0.527,0-0.954-0.428-0.954-0.954V75.311c0-0.528,0.428-0.954,0.954-0.954h5.486C410.282,74.356,410.709,74.784,410.709,75.311z
				"/>
		</g>
	</g>
	<path id="XMLID_3334_" style="fill:#283593;" d="M549.047,285.685H314.281c-6.655,0-12.049,5.394-12.049,12.048v67.281
		c0,6.654,5.394,12.048,12.049,12.048h234.766c6.654,0,12.049-5.394,12.049-12.048v-67.281
		C561.095,291.08,555.7,285.685,549.047,285.685z"/>
	<g id="XMLID_2958_">
		<g id="XMLID_3247_">
			<ellipse id="XMLID_3333_" style="fill:#FFFEFF;" cx="433.312" cy="313.894" rx="4.772" ry="4.772"/>
			<ellipse id="XMLID_3332_" style="fill:#FFFEFF;" cx="433.313" cy="331.371" rx="4.772" ry="4.772"/>
			<path id="XMLID_3273_" style="fill:#FFFEFF;" d="M433.253,301.193c-2.635,0-4.771-2.136-4.771-4.772
				c0-2.635,2.136-4.771,4.771-4.771c2.635,0,4.771,2.136,4.771,4.771C438.026,299.057,435.889,301.193,433.253,301.193z"/>
			<ellipse id="XMLID_3271_" style="fill:#FFFEFF;" cx="433.314" cy="348.848" rx="4.772" ry="4.772"/>
			<ellipse id="XMLID_3260_" style="fill:#FFFEFF;" cx="433.316" cy="366.326" rx="4.772" ry="4.772"/>
		</g>
		<g id="XMLID_2982_">
			<path id="XMLID_2988_" style="fill:#5C6BC0;" d="M540.163,299.046h-77.538c-0.528,0-0.954-0.428-0.954-0.954v-5.486
				c0-0.528,0.428-0.954,0.954-0.954h77.538c0.528,0,0.955,0.428,0.955,0.954v5.486
				C541.119,298.618,540.691,299.046,540.163,299.046z"/>
			<path id="XMLID_2986_" style="fill:#5C6BC0;" d="M530.143,349.149h-57.498c-6.061,0-10.975,4.913-10.975,10.974
				c0,6.061,4.914,10.974,10.975,10.974h57.498c6.061,0,10.974-4.913,10.974-10.974
				C541.119,354.062,536.204,349.149,530.143,349.149z"/>
			<path id="XMLID_2985_" style="fill:#5C6BC0;" d="M530.143,320.4h-57.498c-6.061,0-10.975,4.913-10.975,10.974
				c0,6.061,4.914,10.974,10.975,10.974h57.498c6.061,0,10.974-4.913,10.974-10.974C541.119,325.313,536.204,320.4,530.143,320.4z"
				/>
			<path id="XMLID_2983_" style="fill:#5C6BC0;" d="M540.163,311.554h-77.538c-0.528,0-0.954-0.428-0.954-0.954v-5.486
				c0-0.528,0.428-0.954,0.954-0.954h77.538c0.528,0,0.955,0.428,0.955,0.954v5.486
				C541.119,311.126,540.691,311.554,540.163,311.554z"/>
		</g>
		<g id="XMLID_2974_">
			<path id="XMLID_2981_" style="fill:#5C6BC0;" d="M329.605,292.605v77.538c0,0.528-0.428,0.954-0.954,0.954h-5.486
				c-0.527,0-0.954-0.428-0.954-0.954v-77.538c0-0.528,0.428-0.954,0.954-0.954h5.486
				C329.176,291.65,329.605,292.078,329.605,292.605z"/>
			<path id="XMLID_2980_" style="fill:#5C6BC0;" d="M342.674,292.605v77.538c0,0.528-0.428,0.954-0.954,0.954h-5.486
				c-0.527,0-0.954-0.428-0.954-0.954v-77.538c0-0.528,0.428-0.954,0.954-0.954h5.486
				C342.246,291.65,342.674,292.078,342.674,292.605z"/>
			<path id="XMLID_2979_" style="fill:#5C6BC0;" d="M355.742,292.605v77.538c0,0.528-0.428,0.954-0.954,0.954h-5.486
				c-0.528,0-0.954-0.428-0.954-0.954v-77.538c0-0.528,0.428-0.954,0.954-0.954h5.486
				C355.315,291.65,355.742,292.078,355.742,292.605z"/>
			<path id="XMLID_2978_" style="fill:#5C6BC0;" d="M368.811,292.605v77.538c0,0.528-0.428,0.954-0.954,0.954h-5.486
				c-0.528,0-0.954-0.428-0.954-0.954v-77.538c0-0.528,0.428-0.954,0.954-0.954h5.486
				C368.383,291.65,368.811,292.078,368.811,292.605z"/>
			<path id="XMLID_2977_" style="fill:#5C6BC0;" d="M381.88,292.605v77.538c0,0.528-0.428,0.954-0.954,0.954h-5.486
				c-0.528,0-0.954-0.428-0.954-0.954v-77.538c0-0.528,0.428-0.954,0.954-0.954h5.486C381.452,291.65,381.88,292.078,381.88,292.605
				z"/>
			<path id="XMLID_2976_" style="fill:#5C6BC0;" d="M394.95,292.605v77.538c0,0.528-0.428,0.954-0.954,0.954h-5.486
				c-0.527,0-0.954-0.428-0.954-0.954v-77.538c0-0.528,0.428-0.954,0.954-0.954h5.486C394.522,291.65,394.95,292.078,394.95,292.605
				z"/>
			<path id="XMLID_2975_" style="fill:#5C6BC0;" d="M408.019,292.605v77.538c0,0.528-0.428,0.954-0.954,0.954h-5.486
				c-0.527,0-0.954-0.428-0.954-0.954v-77.538c0-0.528,0.428-0.954,0.954-0.954h5.486
				C407.591,291.65,408.019,292.078,408.019,292.605z"/>
		</g>
	</g>
</g>
<g>
	<g>
		<g>
			
				<linearGradient id="SVGID_1_" gradientUnits="userSpaceOnUse" x1="219.0863" y1="188.9004" x2="52.5692" y2="93.9973" gradientTransform="matrix(1 0 0 -1 0 800)">
				<stop  offset="0" style="stop-color:#512DA8"/>
				<stop  offset="1" style="stop-color:#B39DDB"/>
			</linearGradient>
			<path style="fill-rule:evenodd;clip-rule:evenodd;fill:url(#SVGID_1_);" d="M49.169,598.982h170.779
				c3.49,0,6.346,2.856,6.346,6.346V713.22c0,3.49-2.856,6.346-6.346,6.346H49.169c-3.49,0-6.346-2.856-6.346-6.346V605.329
				C42.823,601.839,45.679,598.982,49.169,598.982z"/>
			<rect x="52.342" y="611.573" style="fill-rule:evenodd;clip-rule:evenodd;fill:#FFFFFF;" width="164.433" height="88.274"/>
			<path style="fill-rule:evenodd;clip-rule:evenodd;fill:#6A7573;" d="M134.558,607.811c1.275,0,2.308-1.034,2.308-2.308
				c0-1.274-1.033-2.307-2.308-2.307c-1.274,0-2.307,1.032-2.307,2.307C132.252,606.777,133.284,607.811,134.558,607.811z"/>
			<rect x="130.657" y="705.343" style="fill-rule:evenodd;clip-rule:evenodd;fill:#6A7573;" width="7.802" height="7.803"/>
			<polygon style="fill-rule:evenodd;clip-rule:evenodd;fill:#9575CD;" points="42.823,719.567 226.295,719.567 258.161,725.346 
				10.957,725.346 			"/>
			<path style="fill-rule:evenodd;clip-rule:evenodd;fill:#5E35B1;" d="M10.957,725.346h247.204v3.558
				c0,2.522-2.065,4.586-4.587,4.586H15.544c-2.523,0-4.587-2.064-4.587-4.586C10.957,728.904,10.957,725.346,10.957,725.346z"/>
			<rect x="109.591" y="727.852" style="fill-rule:evenodd;clip-rule:evenodd;fill:#9575CD;" width="49.934" height="3.183"/>
		</g>
	</g>
	<g style="opacity:0.5;">
		<g>
			<g>
				<rect x="66.694" y="621.413" style="fill-rule:evenodd;clip-rule:evenodd;fill:#F45556;" width="46.182" height="1.754"/>
				<rect x="66.694" y="625.75" style="fill-rule:evenodd;clip-rule:evenodd;fill:#23D0F3;" width="14.798" height="1.754"/>
				<rect x="66.694" y="630.076" style="fill-rule:evenodd;clip-rule:evenodd;fill:#FFFFFF;" width="23.864" height="1.754"/>
				<rect x="77.799" y="634.413" style="fill-rule:evenodd;clip-rule:evenodd;fill:#23D0F3;" width="13.926" height="1.754"/>
				<rect x="77.799" y="638.739" style="fill-rule:evenodd;clip-rule:evenodd;fill:#23D0F3;" width="13.926" height="1.754"/>
				<rect x="87.464" y="643.076" style="fill-rule:evenodd;clip-rule:evenodd;fill:#23D0F3;" width="13.545" height="1.754"/>
				<rect x="86.473" y="625.75" style="fill-rule:evenodd;clip-rule:evenodd;fill:#FFFFFF;" width="25.238" height="1.754"/>
				<rect x="115.306" y="625.75" style="fill-rule:evenodd;clip-rule:evenodd;fill:#CACACA;" width="12.052" height="1.754"/>
				<rect x="131.935" y="625.75" style="fill-rule:evenodd;clip-rule:evenodd;fill:#CACACA;" width="16.27" height="1.754"/>
				<rect x="94.547" y="630.076" style="fill-rule:evenodd;clip-rule:evenodd;fill:#23D0F3;" width="14.199" height="1.754"/>
				<rect x="95.975" y="634.413" style="fill-rule:evenodd;clip-rule:evenodd;fill:#FFFFFF;" width="8.129" height="1.754"/>
				<rect x="95.975" y="638.739" style="fill-rule:evenodd;clip-rule:evenodd;fill:#CACACA;" width="13.926" height="1.754"/>
				<rect x="107.972" y="634.413" style="fill-rule:evenodd;clip-rule:evenodd;fill:#CACACA;" width="15.474" height="1.754"/>
				<rect x="126.541" y="634.413" style="fill-rule:evenodd;clip-rule:evenodd;fill:#FFE032;" width="8.118" height="1.754"/>
				<rect x="138.146" y="634.413" style="fill-rule:evenodd;clip-rule:evenodd;fill:#CACACA;" width="10.058" height="1.754"/>
				<rect x="112.996" y="638.739" style="fill-rule:evenodd;clip-rule:evenodd;fill:#FFFFFF;" width="17.588" height="1.754"/>
				<rect x="133.21" y="638.739" style="fill-rule:evenodd;clip-rule:evenodd;fill:#CACACA;" width="5.252" height="1.754"/>
				<rect x="104.877" y="643.076" style="fill-rule:evenodd;clip-rule:evenodd;fill:#F45556;" width="10.069" height="1.754"/>
				<rect x="77.799" y="651.739" style="fill-rule:evenodd;clip-rule:evenodd;fill:#23D0F3;" width="13.926" height="1.754"/>
				<rect x="77.799" y="656.076" style="fill-rule:evenodd;clip-rule:evenodd;fill:#23D0F3;" width="13.926" height="1.754"/>
				<rect x="95.975" y="651.739" style="fill-rule:evenodd;clip-rule:evenodd;fill:#CACACA;" width="8.129" height="1.754"/>
				<rect x="95.975" y="656.076" style="fill-rule:evenodd;clip-rule:evenodd;fill:#FFFFFF;" width="12.542" height="1.754"/>
				<rect x="107.972" y="651.739" style="fill-rule:evenodd;clip-rule:evenodd;fill:#CACACA;" width="11.899" height="1.754"/>
				<rect x="122.247" y="651.739" style="fill-rule:evenodd;clip-rule:evenodd;fill:#FFFFFF;" width="6.255" height="1.754"/>
				<rect x="131.183" y="651.739" style="fill-rule:evenodd;clip-rule:evenodd;fill:#CACACA;" width="7.737" height="1.754"/>
				<rect x="120.722" y="656.076" style="fill-rule:evenodd;clip-rule:evenodd;fill:#CACACA;" width="13.937" height="1.754"/>
				<rect x="77.799" y="660.402" style="fill-rule:evenodd;clip-rule:evenodd;fill:#23D0F3;" width="13.926" height="1.754"/>
				<rect x="77.799" y="664.739" style="fill-rule:evenodd;clip-rule:evenodd;fill:#23D0F3;" width="13.926" height="1.754"/>
				<rect x="95.975" y="660.402" style="fill-rule:evenodd;clip-rule:evenodd;fill:#CACACA;" width="8.129" height="1.754"/>
				<rect x="95.975" y="664.739" style="fill-rule:evenodd;clip-rule:evenodd;fill:#FFFFFF;" width="25.532" height="1.754"/>
				<rect x="107.972" y="660.402" style="fill-rule:evenodd;clip-rule:evenodd;fill:#FFFFFF;" width="15.474" height="1.754"/>
				<rect x="126.541" y="660.402" style="fill-rule:evenodd;clip-rule:evenodd;fill:#CACACA;" width="8.118" height="1.754"/>
				<rect x="138.146" y="660.402" style="fill-rule:evenodd;clip-rule:evenodd;fill:#CACACA;" width="10.058" height="1.754"/>
				<rect x="124.601" y="664.739" style="fill-rule:evenodd;clip-rule:evenodd;fill:#CACACA;" width="14.319" height="1.754"/>
				<rect x="111.307" y="656.076" style="fill-rule:evenodd;clip-rule:evenodd;fill:#FFE032;" width="5.928" height="1.754"/>
				<rect x="66.694" y="673.402" style="fill-rule:evenodd;clip-rule:evenodd;fill:#23D0F3;" width="14.798" height="1.754"/>
				<rect x="66.694" y="677.728" style="fill-rule:evenodd;clip-rule:evenodd;fill:#FFFFFF;" width="23.864" height="1.754"/>
				<rect x="77.799" y="682.065" style="fill-rule:evenodd;clip-rule:evenodd;fill:#23D0F3;" width="13.926" height="1.755"/>
				<rect x="77.799" y="686.392" style="fill-rule:evenodd;clip-rule:evenodd;fill:#23D0F3;" width="13.926" height="1.766"/>
				<rect x="87.464" y="690.729" style="fill-rule:evenodd;clip-rule:evenodd;fill:#23D0F3;" width="13.545" height="1.754"/>
				<rect x="86.473" y="673.402" style="fill-rule:evenodd;clip-rule:evenodd;fill:#F45556;" width="14.003" height="1.754"/>
				<rect x="104.06" y="673.402" style="fill-rule:evenodd;clip-rule:evenodd;fill:#CACACA;" width="7.072" height="1.754"/>
				<rect x="115.709" y="673.402" style="fill-rule:evenodd;clip-rule:evenodd;fill:#FFFFFF;" width="22.491" height="1.754"/>
				<rect x="94.547" y="677.728" style="fill-rule:evenodd;clip-rule:evenodd;fill:#23D0F3;" width="14.199" height="1.754"/>
				<rect x="95.975" y="682.065" style="fill-rule:evenodd;clip-rule:evenodd;fill:#CACACA;" width="15.866" height="1.755"/>
				<rect x="95.975" y="686.392" style="fill-rule:evenodd;clip-rule:evenodd;fill:#CACACA;" width="10.832" height="1.766"/>
				<rect x="115.709" y="682.065" style="fill-rule:evenodd;clip-rule:evenodd;fill:#FFE032;" width="11.79" height="1.755"/>
				<rect x="109.901" y="686.392" style="fill-rule:evenodd;clip-rule:evenodd;fill:#FFFFFF;" width="20.683" height="1.766"/>
				<rect x="133.21" y="686.392" style="fill-rule:evenodd;clip-rule:evenodd;fill:#CACACA;" width="5.252" height="1.766"/>
				<rect x="104.877" y="690.729" style="fill-rule:evenodd;clip-rule:evenodd;fill:#CACACA;" width="10.069" height="1.754"/>
				<rect x="117.18" y="690.729" style="fill-rule:evenodd;clip-rule:evenodd;fill:#CACACA;" width="18.743" height="1.754"/>
				<rect x="138.712" y="690.729" style="fill-rule:evenodd;clip-rule:evenodd;fill:#FFFFFF;" width="5.601" height="1.754"/>
			</g>
		</g>
		<g>
			<g>
				<rect x="121.526" y="625.75" style="fill-rule:evenodd;clip-rule:evenodd;fill:#23D0F3;" width="14.798" height="1.754"/>
				<rect x="121.526" y="630.076" style="fill-rule:evenodd;clip-rule:evenodd;fill:#FFFFFF;" width="23.864" height="1.754"/>
				<rect x="132.63" y="634.413" style="fill-rule:evenodd;clip-rule:evenodd;fill:#23D0F3;" width="13.926" height="1.754"/>
				<rect x="132.63" y="638.739" style="fill-rule:evenodd;clip-rule:evenodd;fill:#23D0F3;" width="13.926" height="1.754"/>
				<rect x="142.295" y="643.076" style="fill-rule:evenodd;clip-rule:evenodd;fill:#23D0F3;" width="13.545" height="1.754"/>
				<rect x="141.304" y="625.75" style="fill-rule:evenodd;clip-rule:evenodd;fill:#FFFFFF;" width="25.238" height="1.754"/>
				<rect x="170.137" y="625.75" style="fill-rule:evenodd;clip-rule:evenodd;fill:#CACACA;" width="12.052" height="1.754"/>
				<rect x="186.766" y="625.75" style="fill-rule:evenodd;clip-rule:evenodd;fill:#CACACA;" width="16.27" height="1.754"/>
				<rect x="149.378" y="630.076" style="fill-rule:evenodd;clip-rule:evenodd;fill:#23D0F3;" width="14.199" height="1.754"/>
				<rect x="150.806" y="634.413" style="fill-rule:evenodd;clip-rule:evenodd;fill:#FFFFFF;" width="8.129" height="1.754"/>
				<rect x="150.806" y="638.739" style="fill-rule:evenodd;clip-rule:evenodd;fill:#CACACA;" width="13.926" height="1.754"/>
				<rect x="162.803" y="634.413" style="fill-rule:evenodd;clip-rule:evenodd;fill:#CACACA;" width="15.474" height="1.754"/>
				<rect x="181.372" y="634.413" style="fill-rule:evenodd;clip-rule:evenodd;fill:#FFE032;" width="8.118" height="1.754"/>
				<rect x="192.977" y="634.413" style="fill-rule:evenodd;clip-rule:evenodd;fill:#CACACA;" width="10.058" height="1.754"/>
				<rect x="167.827" y="638.739" style="fill-rule:evenodd;clip-rule:evenodd;fill:#FFFFFF;" width="17.588" height="1.754"/>
				<rect x="188.041" y="638.739" style="fill-rule:evenodd;clip-rule:evenodd;fill:#CACACA;" width="5.252" height="1.754"/>
				<rect x="159.708" y="643.076" style="fill-rule:evenodd;clip-rule:evenodd;fill:#F45556;" width="10.069" height="1.754"/>
				<rect x="132.63" y="651.739" style="fill-rule:evenodd;clip-rule:evenodd;fill:#23D0F3;" width="13.926" height="1.754"/>
				<rect x="132.63" y="656.076" style="fill-rule:evenodd;clip-rule:evenodd;fill:#23D0F3;" width="13.926" height="1.754"/>
				<rect x="150.806" y="651.739" style="fill-rule:evenodd;clip-rule:evenodd;fill:#CACACA;" width="8.129" height="1.754"/>
				<rect x="150.806" y="656.076" style="fill-rule:evenodd;clip-rule:evenodd;fill:#FFFFFF;" width="12.542" height="1.754"/>
				<rect x="162.803" y="651.739" style="fill-rule:evenodd;clip-rule:evenodd;fill:#CACACA;" width="11.899" height="1.754"/>
				<rect x="177.078" y="651.739" style="fill-rule:evenodd;clip-rule:evenodd;fill:#FFFFFF;" width="6.255" height="1.754"/>
				<rect x="186.014" y="651.739" style="fill-rule:evenodd;clip-rule:evenodd;fill:#CACACA;" width="7.737" height="1.754"/>
				<rect x="175.553" y="656.076" style="fill-rule:evenodd;clip-rule:evenodd;fill:#CACACA;" width="13.937" height="1.754"/>
				<rect x="132.63" y="660.402" style="fill-rule:evenodd;clip-rule:evenodd;fill:#23D0F3;" width="13.926" height="1.754"/>
				<rect x="132.63" y="664.739" style="fill-rule:evenodd;clip-rule:evenodd;fill:#23D0F3;" width="13.926" height="1.754"/>
				<rect x="150.806" y="660.402" style="fill-rule:evenodd;clip-rule:evenodd;fill:#CACACA;" width="8.129" height="1.754"/>
				<rect x="150.806" y="664.739" style="fill-rule:evenodd;clip-rule:evenodd;fill:#FFFFFF;" width="25.532" height="1.754"/>
				<rect x="162.803" y="660.402" style="fill-rule:evenodd;clip-rule:evenodd;fill:#FFFFFF;" width="15.474" height="1.754"/>
				<rect x="181.372" y="660.402" style="fill-rule:evenodd;clip-rule:evenodd;fill:#CACACA;" width="8.118" height="1.754"/>
				<rect x="192.977" y="660.402" style="fill-rule:evenodd;clip-rule:evenodd;fill:#CACACA;" width="10.058" height="1.754"/>
				<rect x="179.432" y="664.739" style="fill-rule:evenodd;clip-rule:evenodd;fill:#CACACA;" width="14.319" height="1.754"/>
				<rect x="166.138" y="656.076" style="fill-rule:evenodd;clip-rule:evenodd;fill:#FFE032;" width="5.928" height="1.754"/>
				<rect x="121.526" y="673.402" style="fill-rule:evenodd;clip-rule:evenodd;fill:#23D0F3;" width="14.798" height="1.754"/>
				<rect x="121.526" y="677.728" style="fill-rule:evenodd;clip-rule:evenodd;fill:#FFFFFF;" width="23.864" height="1.754"/>
				<rect x="132.63" y="682.065" style="fill-rule:evenodd;clip-rule:evenodd;fill:#23D0F3;" width="13.926" height="1.755"/>
				<rect x="132.63" y="686.392" style="fill-rule:evenodd;clip-rule:evenodd;fill:#23D0F3;" width="13.926" height="1.766"/>
				<rect x="142.295" y="690.729" style="fill-rule:evenodd;clip-rule:evenodd;fill:#23D0F3;" width="13.545" height="1.754"/>
				<rect x="141.304" y="673.402" style="fill-rule:evenodd;clip-rule:evenodd;fill:#F45556;" width="14.003" height="1.754"/>
				<rect x="158.891" y="673.402" style="fill-rule:evenodd;clip-rule:evenodd;fill:#CACACA;" width="7.072" height="1.754"/>
				<rect x="170.54" y="673.402" style="fill-rule:evenodd;clip-rule:evenodd;fill:#FFFFFF;" width="22.491" height="1.754"/>
				<rect x="149.378" y="677.728" style="fill-rule:evenodd;clip-rule:evenodd;fill:#23D0F3;" width="14.199" height="1.754"/>
				<rect x="150.806" y="682.065" style="fill-rule:evenodd;clip-rule:evenodd;fill:#CACACA;" width="15.866" height="1.755"/>
				<rect x="150.806" y="686.392" style="fill-rule:evenodd;clip-rule:evenodd;fill:#CACACA;" width="10.832" height="1.766"/>
				<rect x="170.54" y="682.065" style="fill-rule:evenodd;clip-rule:evenodd;fill:#FFE032;" width="11.79" height="1.755"/>
				<rect x="164.732" y="686.392" style="fill-rule:evenodd;clip-rule:evenodd;fill:#FFFFFF;" width="20.683" height="1.766"/>
				<rect x="188.041" y="686.392" style="fill-rule:evenodd;clip-rule:evenodd;fill:#CACACA;" width="5.252" height="1.766"/>
				<rect x="159.708" y="690.729" style="fill-rule:evenodd;clip-rule:evenodd;fill:#CACACA;" width="10.069" height="1.754"/>
				<rect x="172.011" y="690.729" style="fill-rule:evenodd;clip-rule:evenodd;fill:#CACACA;" width="18.743" height="1.754"/>
				<rect x="193.544" y="690.729" style="fill-rule:evenodd;clip-rule:evenodd;fill:#FFFFFF;" width="5.601" height="1.754"/>
			</g>
		</g>
	</g>
</g>
<g>
	<g>
		<polygon style="fill-rule:evenodd;clip-rule:evenodd;fill:#6A1B9A;" points="450.786,712.025 491.621,712.025 510.762,751.25 
			431.645,751.25 		"/>
		
			<linearGradient id="SVGID_2_" gradientUnits="userSpaceOnUse" x1="471.2038" y1="80.0899" x2="471.2038" y2="210.6768" gradientTransform="matrix(1 0 0 -1 0 800)">
			<stop  offset="0" style="stop-color:#4527A0"/>
			<stop  offset="1" style="stop-color:#9575CD"/>
		</linearGradient>
		<path style="fill-rule:evenodd;clip-rule:evenodd;fill:url(#SVGID_2_);" d="M374.98,581.222h192.447
			c5.416,0,9.846,5.013,9.846,11.139v118.47c0,6.126-4.431,11.139-9.846,11.139H374.98c-5.416,0-9.846-5.013-9.846-11.139v-118.47
			C365.134,586.235,369.565,581.222,374.98,581.222z"/>
		<rect x="371.669" y="587.72" style="fill-rule:evenodd;clip-rule:evenodd;fill:#FFFFFF;" width="199.07" height="114.36"/>
		<path style="fill-rule:evenodd;clip-rule:evenodd;fill:#808281;" d="M565.317,713.573c0.704,0,1.279-0.65,1.279-1.447
			s-0.574-1.446-1.279-1.446c-0.704,0-1.279,0.65-1.279,1.446C564.038,712.922,564.613,713.573,565.317,713.573z"/>
		<path style="fill-rule:evenodd;clip-rule:evenodd;fill:#808281;" d="M560.325,713.573c0.705,0,1.279-0.65,1.279-1.447
			s-0.574-1.446-1.279-1.446c-0.704,0-1.279,0.65-1.279,1.446C559.046,712.922,559.62,713.573,560.325,713.573z"/>
		<path style="fill-rule:evenodd;clip-rule:evenodd;fill:#808281;" d="M555.333,713.573c0.704,0,1.279-0.65,1.279-1.447
			s-0.574-1.446-1.279-1.446c-0.705,0-1.279,0.65-1.279,1.446C554.054,712.922,554.628,713.573,555.333,713.573z"/>
		<path style="fill-rule:evenodd;clip-rule:evenodd;fill:#AB47BC;" d="M353.762,739.396h234.885c2.882,0,5.24,2.667,5.24,5.927l0,0
			c0,3.26-2.358,5.928-5.24,5.928H353.762c-2.882,0-5.24-2.668-5.24-5.928l0,0C348.521,742.063,350.88,739.396,353.762,739.396z"/>
		<path style="fill-rule:evenodd;clip-rule:evenodd;fill:#BA68C8;" d="M593.886,745.323c0,3.26-2.358,5.928-5.24,5.928H353.762
			c-2.883,0-5.24-2.668-5.24-5.928H593.886z"/>
	</g>
	<g>
		<g>
			<g>
				<rect x="455.291" y="601.69" style="fill-rule:evenodd;clip-rule:evenodd;fill:#F45556;" width="56.713" height="2.188"/>
				<rect x="455.291" y="607.099" style="fill-rule:evenodd;clip-rule:evenodd;fill:#23D0F3;" width="18.173" height="2.188"/>
				<rect x="455.291" y="612.495" style="fill-rule:evenodd;clip-rule:evenodd;fill:#FFFFFF;" width="29.307" height="2.188"/>
				<rect x="468.927" y="617.904" style="fill-rule:evenodd;clip-rule:evenodd;fill:#23D0F3;" width="17.102" height="2.188"/>
				<rect x="468.927" y="623.3" style="fill-rule:evenodd;clip-rule:evenodd;fill:#23D0F3;" width="17.102" height="2.188"/>
				<rect x="480.797" y="628.709" style="fill-rule:evenodd;clip-rule:evenodd;fill:#23D0F3;" width="16.633" height="2.188"/>
				<rect x="479.579" y="607.099" style="fill-rule:evenodd;clip-rule:evenodd;fill:#FFFFFF;" width="30.993" height="2.188"/>
				<rect x="514.988" y="607.099" style="fill-rule:evenodd;clip-rule:evenodd;fill:#CACACA;" width="14.8" height="2.188"/>
				<rect x="535.409" y="607.099" style="fill-rule:evenodd;clip-rule:evenodd;fill:#CACACA;" width="19.98" height="2.188"/>
				<rect x="489.495" y="612.495" style="fill-rule:evenodd;clip-rule:evenodd;fill:#23D0F3;" width="17.437" height="2.188"/>
				<rect x="491.248" y="617.904" style="fill-rule:evenodd;clip-rule:evenodd;fill:#FFFFFF;" width="9.983" height="2.188"/>
				<rect x="491.248" y="623.3" style="fill-rule:evenodd;clip-rule:evenodd;fill:#CACACA;" width="17.103" height="2.188"/>
				<rect x="505.982" y="617.904" style="fill-rule:evenodd;clip-rule:evenodd;fill:#CACACA;" width="19.003" height="2.188"/>
				<rect x="528.785" y="617.904" style="fill-rule:evenodd;clip-rule:evenodd;fill:#FFE032;" width="9.97" height="2.188"/>
				<rect x="543.037" y="617.904" style="fill-rule:evenodd;clip-rule:evenodd;fill:#CACACA;" width="12.352" height="2.188"/>
				<rect x="512.151" y="623.3" style="fill-rule:evenodd;clip-rule:evenodd;fill:#FFFFFF;" width="21.599" height="2.188"/>
				<rect x="536.975" y="623.3" style="fill-rule:evenodd;clip-rule:evenodd;fill:#CACACA;" width="6.45" height="2.188"/>
				<rect x="502.181" y="628.709" style="fill-rule:evenodd;clip-rule:evenodd;fill:#F45556;" width="12.365" height="2.188"/>
				<rect x="468.927" y="639.515" style="fill-rule:evenodd;clip-rule:evenodd;fill:#23D0F3;" width="17.102" height="2.188"/>
				<rect x="468.927" y="644.924" style="fill-rule:evenodd;clip-rule:evenodd;fill:#23D0F3;" width="17.102" height="2.188"/>
				<rect x="491.248" y="639.515" style="fill-rule:evenodd;clip-rule:evenodd;fill:#CACACA;" width="9.983" height="2.188"/>
				<rect x="491.248" y="644.924" style="fill-rule:evenodd;clip-rule:evenodd;fill:#FFFFFF;" width="15.403" height="2.188"/>
				<rect x="505.982" y="639.515" style="fill-rule:evenodd;clip-rule:evenodd;fill:#CACACA;" width="14.613" height="2.188"/>
				<rect x="523.512" y="639.515" style="fill-rule:evenodd;clip-rule:evenodd;fill:#FFFFFF;" width="7.681" height="2.188"/>
				<rect x="534.486" y="639.515" style="fill-rule:evenodd;clip-rule:evenodd;fill:#CACACA;" width="9.501" height="2.188"/>
				<rect x="521.639" y="644.924" style="fill-rule:evenodd;clip-rule:evenodd;fill:#CACACA;" width="17.116" height="2.188"/>
				<rect x="468.927" y="650.32" style="fill-rule:evenodd;clip-rule:evenodd;fill:#23D0F3;" width="17.102" height="2.188"/>
				<rect x="468.927" y="655.729" style="fill-rule:evenodd;clip-rule:evenodd;fill:#23D0F3;" width="17.102" height="2.188"/>
				<rect x="491.248" y="650.32" style="fill-rule:evenodd;clip-rule:evenodd;fill:#CACACA;" width="9.983" height="2.188"/>
				<rect x="491.248" y="655.729" style="fill-rule:evenodd;clip-rule:evenodd;fill:#FFFFFF;" width="31.354" height="2.188"/>
				<rect x="505.982" y="650.32" style="fill-rule:evenodd;clip-rule:evenodd;fill:#FFFFFF;" width="19.003" height="2.188"/>
				<rect x="528.785" y="650.32" style="fill-rule:evenodd;clip-rule:evenodd;fill:#CACACA;" width="9.97" height="2.188"/>
				<rect x="543.037" y="650.32" style="fill-rule:evenodd;clip-rule:evenodd;fill:#CACACA;" width="12.352" height="2.188"/>
				<rect x="526.403" y="655.729" style="fill-rule:evenodd;clip-rule:evenodd;fill:#CACACA;" width="17.584" height="2.188"/>
				<rect x="510.077" y="644.924" style="fill-rule:evenodd;clip-rule:evenodd;fill:#FFE032;" width="7.28" height="2.188"/>
				<rect x="455.291" y="666.534" style="fill-rule:evenodd;clip-rule:evenodd;fill:#23D0F3;" width="18.173" height="2.188"/>
				<rect x="455.291" y="671.93" style="fill-rule:evenodd;clip-rule:evenodd;fill:#FFFFFF;" width="29.307" height="2.188"/>
				<rect x="468.927" y="677.339" style="fill-rule:evenodd;clip-rule:evenodd;fill:#23D0F3;" width="17.102" height="2.189"/>
				<rect x="468.927" y="682.735" style="fill-rule:evenodd;clip-rule:evenodd;fill:#23D0F3;" width="17.102" height="2.202"/>
				<rect x="480.797" y="688.145" style="fill-rule:evenodd;clip-rule:evenodd;fill:#23D0F3;" width="16.633" height="2.188"/>
				<rect x="479.579" y="666.534" style="fill-rule:evenodd;clip-rule:evenodd;fill:#F45556;" width="17.196" height="2.188"/>
				<rect x="501.179" y="666.534" style="fill-rule:evenodd;clip-rule:evenodd;fill:#CACACA;" width="8.685" height="2.188"/>
				<rect x="515.483" y="666.534" style="fill-rule:evenodd;clip-rule:evenodd;fill:#FFFFFF;" width="27.62" height="2.188"/>
				<rect x="489.495" y="671.93" style="fill-rule:evenodd;clip-rule:evenodd;fill:#23D0F3;" width="17.437" height="2.188"/>
				<rect x="491.248" y="677.339" style="fill-rule:evenodd;clip-rule:evenodd;fill:#CACACA;" width="19.485" height="2.189"/>
				<rect x="491.248" y="682.735" style="fill-rule:evenodd;clip-rule:evenodd;fill:#CACACA;" width="13.301" height="2.202"/>
				<rect x="515.483" y="677.339" style="fill-rule:evenodd;clip-rule:evenodd;fill:#FFE032;" width="14.479" height="2.189"/>
				<rect x="508.35" y="682.735" style="fill-rule:evenodd;clip-rule:evenodd;fill:#FFFFFF;" width="25.399" height="2.202"/>
				<rect x="536.975" y="682.735" style="fill-rule:evenodd;clip-rule:evenodd;fill:#CACACA;" width="6.45" height="2.202"/>
				<rect x="502.181" y="688.145" style="fill-rule:evenodd;clip-rule:evenodd;fill:#CACACA;" width="12.365" height="2.188"/>
				<rect x="517.29" y="688.145" style="fill-rule:evenodd;clip-rule:evenodd;fill:#CACACA;" width="23.017" height="2.188"/>
				<rect x="543.733" y="688.145" style="fill-rule:evenodd;clip-rule:evenodd;fill:#FFFFFF;" width="6.878" height="2.188"/>
			</g>
		</g>
		<g>
			<g>
				<rect x="385.802" y="601.69" style="fill-rule:evenodd;clip-rule:evenodd;fill:#F45556;" width="56.713" height="2.188"/>
				<rect x="385.802" y="607.099" style="fill-rule:evenodd;clip-rule:evenodd;fill:#23D0F3;" width="18.173" height="2.188"/>
				<rect x="385.802" y="612.495" style="fill-rule:evenodd;clip-rule:evenodd;fill:#FFFFFF;" width="29.307" height="2.188"/>
				<rect x="399.438" y="617.904" style="fill-rule:evenodd;clip-rule:evenodd;fill:#23D0F3;" width="17.102" height="2.188"/>
				<rect x="399.438" y="623.3" style="fill-rule:evenodd;clip-rule:evenodd;fill:#23D0F3;" width="17.102" height="2.188"/>
				<rect x="411.309" y="628.709" style="fill-rule:evenodd;clip-rule:evenodd;fill:#23D0F3;" width="16.633" height="2.188"/>
				<rect x="410.09" y="607.099" style="fill-rule:evenodd;clip-rule:evenodd;fill:#FFFFFF;" width="30.993" height="2.188"/>
				<rect x="445.5" y="607.099" style="fill-rule:evenodd;clip-rule:evenodd;fill:#CACACA;" width="14.8" height="2.188"/>
				<rect x="465.92" y="607.099" style="fill-rule:evenodd;clip-rule:evenodd;fill:#CACACA;" width="19.98" height="2.188"/>
				<rect x="420.006" y="612.495" style="fill-rule:evenodd;clip-rule:evenodd;fill:#23D0F3;" width="17.437" height="2.188"/>
				<rect x="421.76" y="617.904" style="fill-rule:evenodd;clip-rule:evenodd;fill:#FFFFFF;" width="9.983" height="2.188"/>
				<rect x="421.76" y="623.3" style="fill-rule:evenodd;clip-rule:evenodd;fill:#CACACA;" width="17.103" height="2.188"/>
				<rect x="436.494" y="617.904" style="fill-rule:evenodd;clip-rule:evenodd;fill:#CACACA;" width="19.003" height="2.188"/>
				<rect x="459.296" y="617.904" style="fill-rule:evenodd;clip-rule:evenodd;fill:#FFE032;" width="9.97" height="2.188"/>
				<rect x="473.548" y="617.904" style="fill-rule:evenodd;clip-rule:evenodd;fill:#CACACA;" width="12.352" height="2.188"/>
				<rect x="442.662" y="623.3" style="fill-rule:evenodd;clip-rule:evenodd;fill:#FFFFFF;" width="21.599" height="2.188"/>
				<rect x="467.486" y="623.3" style="fill-rule:evenodd;clip-rule:evenodd;fill:#CACACA;" width="6.45" height="2.188"/>
				<rect x="432.693" y="628.709" style="fill-rule:evenodd;clip-rule:evenodd;fill:#F45556;" width="12.365" height="2.188"/>
				<rect x="399.438" y="639.515" style="fill-rule:evenodd;clip-rule:evenodd;fill:#23D0F3;" width="17.102" height="2.188"/>
				<rect x="399.438" y="644.924" style="fill-rule:evenodd;clip-rule:evenodd;fill:#23D0F3;" width="17.102" height="2.188"/>
				<rect x="421.76" y="639.515" style="fill-rule:evenodd;clip-rule:evenodd;fill:#CACACA;" width="9.983" height="2.188"/>
				<rect x="421.76" y="644.924" style="fill-rule:evenodd;clip-rule:evenodd;fill:#FFFFFF;" width="15.403" height="2.188"/>
				<rect x="436.494" y="639.515" style="fill-rule:evenodd;clip-rule:evenodd;fill:#CACACA;" width="14.613" height="2.188"/>
				<rect x="454.024" y="639.515" style="fill-rule:evenodd;clip-rule:evenodd;fill:#FFFFFF;" width="7.681" height="2.188"/>
				<rect x="464.997" y="639.515" style="fill-rule:evenodd;clip-rule:evenodd;fill:#CACACA;" width="9.501" height="2.188"/>
				<rect x="452.15" y="644.924" style="fill-rule:evenodd;clip-rule:evenodd;fill:#CACACA;" width="17.116" height="2.188"/>
				<rect x="399.438" y="650.32" style="fill-rule:evenodd;clip-rule:evenodd;fill:#23D0F3;" width="17.102" height="2.188"/>
				<rect x="399.438" y="655.729" style="fill-rule:evenodd;clip-rule:evenodd;fill:#23D0F3;" width="17.102" height="2.188"/>
				<rect x="421.76" y="650.32" style="fill-rule:evenodd;clip-rule:evenodd;fill:#CACACA;" width="9.983" height="2.188"/>
				<rect x="421.76" y="655.729" style="fill-rule:evenodd;clip-rule:evenodd;fill:#FFFFFF;" width="31.354" height="2.188"/>
				<rect x="436.494" y="650.32" style="fill-rule:evenodd;clip-rule:evenodd;fill:#FFFFFF;" width="19.003" height="2.188"/>
				<rect x="459.296" y="650.32" style="fill-rule:evenodd;clip-rule:evenodd;fill:#CACACA;" width="9.97" height="2.188"/>
				<rect x="473.548" y="650.32" style="fill-rule:evenodd;clip-rule:evenodd;fill:#CACACA;" width="12.352" height="2.188"/>
				<rect x="456.914" y="655.729" style="fill-rule:evenodd;clip-rule:evenodd;fill:#CACACA;" width="17.584" height="2.188"/>
				<rect x="440.588" y="644.924" style="fill-rule:evenodd;clip-rule:evenodd;fill:#FFE032;" width="7.28" height="2.188"/>
				<rect x="385.802" y="666.534" style="fill-rule:evenodd;clip-rule:evenodd;fill:#23D0F3;" width="18.173" height="2.188"/>
				<rect x="385.802" y="671.93" style="fill-rule:evenodd;clip-rule:evenodd;fill:#FFFFFF;" width="29.307" height="2.188"/>
				<rect x="399.438" y="677.339" style="fill-rule:evenodd;clip-rule:evenodd;fill:#23D0F3;" width="17.102" height="2.189"/>
				<rect x="399.438" y="682.735" style="fill-rule:evenodd;clip-rule:evenodd;fill:#23D0F3;" width="17.102" height="2.202"/>
				<rect x="411.309" y="688.145" style="fill-rule:evenodd;clip-rule:evenodd;fill:#23D0F3;" width="16.633" height="2.188"/>
				<rect x="410.09" y="666.534" style="fill-rule:evenodd;clip-rule:evenodd;fill:#F45556;" width="17.196" height="2.188"/>
				<rect x="431.69" y="666.534" style="fill-rule:evenodd;clip-rule:evenodd;fill:#CACACA;" width="8.685" height="2.188"/>
				<rect x="445.995" y="666.534" style="fill-rule:evenodd;clip-rule:evenodd;fill:#FFFFFF;" width="27.62" height="2.188"/>
				<rect x="420.006" y="671.93" style="fill-rule:evenodd;clip-rule:evenodd;fill:#23D0F3;" width="17.437" height="2.188"/>
				<rect x="421.76" y="677.339" style="fill-rule:evenodd;clip-rule:evenodd;fill:#CACACA;" width="19.485" height="2.189"/>
				<rect x="421.76" y="682.735" style="fill-rule:evenodd;clip-rule:evenodd;fill:#CACACA;" width="13.301" height="2.202"/>
				<rect x="445.995" y="677.339" style="fill-rule:evenodd;clip-rule:evenodd;fill:#FFE032;" width="14.479" height="2.189"/>
				<rect x="438.862" y="682.735" style="fill-rule:evenodd;clip-rule:evenodd;fill:#FFFFFF;" width="25.399" height="2.202"/>
				<rect x="467.486" y="682.735" style="fill-rule:evenodd;clip-rule:evenodd;fill:#CACACA;" width="6.45" height="2.202"/>
				<rect x="432.693" y="688.145" style="fill-rule:evenodd;clip-rule:evenodd;fill:#CACACA;" width="12.365" height="2.188"/>
				<rect x="447.801" y="688.145" style="fill-rule:evenodd;clip-rule:evenodd;fill:#CACACA;" width="23.017" height="2.188"/>
				<rect x="474.244" y="688.145" style="fill-rule:evenodd;clip-rule:evenodd;fill:#FFFFFF;" width="6.878" height="2.188"/>
			</g>
		</g>
	</g>
</g>
<path style="fill:#FFFFFF;" d="M403.646,377.388h-4.088c-0.232-9.695-8.217-17.559-17.964-17.559h-1.951
	c-3.769-13.063-15.838-22.698-30.072-22.698l0,0c-14.234,0-26.303,9.634-30.072,22.698h-1.952c-9.748,0-17.733,7.864-17.964,17.559
	h-4.088c-10.01,0-18.201,8.19-18.201,18.201c0,10.01,8.191,18.201,18.201,18.201h108.152c10.01,0,18.2-8.191,18.2-18.201
	C421.846,385.578,413.656,377.388,403.646,377.388z"/>
<g>
	<g>
		
			<linearGradient id="SVGID_3_" gradientUnits="userSpaceOnUse" x1="751.5895" y1="82.423" x2="751.5895" y2="186.422" gradientTransform="matrix(1 0 0 -1 0 800)">
			<stop  offset="0" style="stop-color:#4527A0"/>
			<stop  offset="1" style="stop-color:#9575CD"/>
		</linearGradient>
		<path style="fill-rule:evenodd;clip-rule:evenodd;fill:url(#SVGID_3_);" d="M734.026,607.239h35.127
			c6.803,0,12.369,5.566,12.369,12.369v93.259c0,6.802-5.566,12.369-12.369,12.369h-35.127c-6.802,0-12.368-5.566-12.368-12.369
			v-93.259C721.657,612.804,727.223,607.239,734.026,607.239z"/>
		<path style="fill-rule:evenodd;clip-rule:evenodd;fill:#FFFFFF;" d="M727.096,617.134h48.987c0.096,0,0.173,0.078,0.173,0.173
			v96.87c0,0.096-0.078,0.173-0.173,0.173h-48.987c-0.096,0-0.173-0.078-0.173-0.173v-96.87
			C726.922,617.211,727,617.134,727.096,617.134z"/>
		<path style="fill-rule:evenodd;clip-rule:evenodd;fill:#5085A1;" d="M742.514,610.158h18.15c0.492,0,0.894,0.402,0.894,0.894
			v0.001c0,0.492-0.402,0.894-0.894,0.894h-18.15c-0.492,0-0.894-0.402-0.894-0.894v-0.001
			C741.62,610.56,742.022,610.158,742.514,610.158z"/>
		<path style="fill-rule:evenodd;clip-rule:evenodd;fill:#5085A1;" d="M751.589,722.647c1.666,0,3.024-1.358,3.024-3.024
			c0-1.666-1.359-3.024-3.024-3.024c-1.665,0-3.024,1.358-3.024,3.024C748.565,721.289,749.924,722.647,751.589,722.647z"/>
	</g>
	<path style="fill:#303F9F;" d="M751.703,628.992c0.553,0.001,1.111,0.032,1.669,0.094l0.755-2.484l5.238,1.592l-0.755,2.484
		c1.9,0.983,3.526,2.341,4.812,3.952l2.289-1.222l2.579,4.83L766,639.46c0.624,1.964,0.846,4.07,0.606,6.196l2.483,0.755
		l-1.592,5.238l-2.483-0.755c-0.984,1.9-2.341,3.526-3.952,4.811l1.222,2.29l-4.83,2.578l-1.222-2.289
		c-1.448,0.46-2.974,0.701-4.527,0.7v-3.922c4.749,0.002,9.141-3.076,10.594-7.854c1.779-5.852-1.523-12.037-7.374-13.815
		c-1.072-0.326-2.155-0.481-3.22-0.481v-3.921H751.703z M742.345,632.27l-1.222-2.289l4.83-2.578l1.223,2.289
		c1.448-0.46,2.973-0.702,4.527-0.7v3.922c-4.749-0.002-9.141,3.076-10.594,7.855c-1.779,5.851,1.522,12.036,7.373,13.815l0,0
		c1.072,0.326,2.156,0.48,3.221,0.481v3.922c-0.553-0.001-1.111-0.031-1.669-0.094l-0.755,2.484l-5.238-1.592l0.755-2.484
		c-1.9-0.983-3.526-2.34-4.81-3.952l-2.29,1.222l-2.577-4.83l2.289-1.223c-0.624-1.964-0.846-4.069-0.606-6.196l-2.484-0.755
		l1.593-5.239l2.484,0.755C739.377,635.181,740.734,633.556,742.345,632.27z"/>
	<g>
		<rect x="732.709" y="704.722" style="fill-rule:evenodd;clip-rule:evenodd;fill:#303F9F;" width="14.328" height="2.054"/>
		<rect x="732.709" y="696.467" style="fill-rule:evenodd;clip-rule:evenodd;fill:#303F9F;" width="7.521" height="2.055"/>
		<rect x="760.052" y="696.467" style="fill-rule:evenodd;clip-rule:evenodd;fill:#303F9F;" width="10.622" height="2.055"/>
		<rect x="732.709" y="689.362" style="fill-rule:evenodd;clip-rule:evenodd;fill:#303F9F;" width="5.525" height="2.055"/>
		<rect x="740.23" y="689.362" style="fill-rule:evenodd;clip-rule:evenodd;fill:#303F9F;" width="25.086" height="2.055"/>
		<rect x="732.709" y="682.255" style="fill-rule:evenodd;clip-rule:evenodd;fill:#303F9F;" width="13.59" height="2.055"/>
		<rect x="748.295" y="682.255" style="fill-rule:evenodd;clip-rule:evenodd;fill:#303F9F;" width="15.172" height="2.055"/>
		<rect x="732.709" y="675.15" style="fill-rule:evenodd;clip-rule:evenodd;fill:#303F9F;" width="5.525" height="2.055"/>
		<rect x="740.23" y="675.15" style="fill-rule:evenodd;clip-rule:evenodd;fill:#303F9F;" width="14.06" height="2.055"/>
		<rect x="732.709" y="668.044" style="fill-rule:evenodd;clip-rule:evenodd;fill:#303F9F;" width="11.62" height="2.055"/>
		<rect x="746.325" y="668.044" style="fill-rule:evenodd;clip-rule:evenodd;fill:#303F9F;" width="14.439" height="2.055"/>
		<rect x="742.227" y="696.467" style="fill-rule:evenodd;clip-rule:evenodd;fill:#303F9F;" width="15.62" height="2.055"/>
		<rect x="767.522" y="689.362" style="fill-rule:evenodd;clip-rule:evenodd;fill:#303F9F;" width="3.152" height="2.055"/>
		<rect x="765.672" y="682.255" style="fill-rule:evenodd;clip-rule:evenodd;fill:#303F9F;" width="5.002" height="2.055"/>
		<rect x="756.495" y="675.15" style="fill-rule:evenodd;clip-rule:evenodd;fill:#303F9F;" width="14.179" height="2.055"/>
		<rect x="762.969" y="668.044" style="fill-rule:evenodd;clip-rule:evenodd;fill:#303F9F;" width="7.705" height="2.055"/>
	</g>
</g>
<g>
	
		<ellipse transform="matrix(0.9742 -0.2258 0.2258 0.9742 -108.5108 81.05)" style="fill:#1187D1;" cx="300.011" cy="514.822" rx="45.477" ry="45.477"/>
	<g>
		<g>
			<path style="fill:#92C1D1;" d="M313.931,507.504h-4.673v-5.354c0-5.099-4.148-9.246-9.247-9.246
				c-5.099,0-9.247,4.147-9.247,9.246v5.354h-4.673v-5.354c0-7.674,6.244-13.919,13.919-13.919c7.675,0,13.919,6.244,13.919,13.919
				V507.504z"/>
		</g>
		<rect x="279.625" y="507.085" style="fill:#FFB43B;" width="40.772" height="30.109"/>
		<path style="fill:#263247;" d="M303.148,519.004c0-1.732-1.404-3.136-3.136-3.136c-1.732,0-3.136,1.404-3.136,3.136
			c0,1.324,0.822,2.45,1.982,2.911l-0.765,6.499h3.838l-0.765-6.499C302.325,521.454,303.148,520.327,303.148,519.004z"/>
	</g>
</g>
<g>
	<g>
		
			<ellipse transform="matrix(0.9743 -0.2253 0.2253 0.9743 -100.1441 151.9928)" style="fill:#5C6BC0;" cx="615.951" cy="514.822" rx="46.347" ry="46.347"/>
	</g>
	<g id="XMLID_3413_">
		<g id="XMLID_1263_">
			<path id="XMLID_1370_" style="fill:#E08327;" d="M612.557,497.616L612.557,497.616c0-2.343-1.9-4.243-4.243-4.243h-6.959
				c-2.344,0-4.243,1.9-4.243,4.243l0,0h-1.065c-1.661,0-3.008,1.347-3.008,3.008v20.414h45.827v-20.414
				c0-1.661-1.347-3.008-3.008-3.008H612.557z"/>
			<path id="XMLID_4089_" style="fill:#D17726;" d="M638.863,500.621v20.415h-17.281v-23.419h14.278
				C637.517,497.617,638.863,498.963,638.863,500.621z"/>
			<rect id="XMLID_1262_" x="595.552" y="502.033" style="fill:#FCFEFD;" width="40.798" height="7.152"/>
			<rect id="XMLID_3411_" x="617.18" y="502.033" style="fill:#DFE5E1;" width="19.226" height="7.152"/>
			<path id="XMLID_1261_" style="fill:#FC982B;" d="M638.088,536.271h-44.272c-2.121,0-3.841-1.719-3.841-3.84v-23.379
				c0-2.121,1.719-3.84,3.841-3.84h44.272c2.121,0,3.841,1.719,3.841,3.84v23.379C641.928,534.552,640.209,536.271,638.088,536.271z
				"/>
		</g>
		<path id="XMLID_4092_" style="fill:#ED8B2B;" d="M641.925,507.708v26.065c0,1.378-1.112,2.497-2.497,2.497h-12.496v-31.058h12.496
			C640.813,505.211,641.925,506.33,641.925,507.708z"/>
	</g>
</g>
</svg>
