<?xml version="1.0" encoding="utf-8"?>
<!-- Generator: Adobe Illustrator 23.0.1, SVG Export Plug-In . SVG Version: 6.00 Build 0)  -->
<svg version="1.1" id="Layer_1" xmlns="http://www.w3.org/2000/svg" xmlns:xlink="http://www.w3.org/1999/xlink" x="0px" y="0px"
	 viewBox="0 0 800 800" style="enable-background:new 0 0 800 800;" xml:space="preserve">
<path style="opacity:0.61;fill:#FFAE00;" d="M579.174,113.186c0.881-7.805,0.064-15.532-2.223-22.74l8.402-4.483l-9.463-17.725
	l-8.4,4.482c-4.717-5.912-10.684-10.895-17.656-14.501l2.772-9.115l-19.223-5.843l-2.772,9.114
	c-2.048-0.232-4.091-0.346-6.123-0.348v-0.001c-5.703-0.004-11.3,0.883-16.613,2.571l-4.49-8.402l-17.723,9.462l4.483,8.4
	c-5.914,4.717-10.892,10.682-14.5,17.651l-9.114-2.771l-5.845,19.226l9.114,2.771c-0.882,7.805-0.066,15.532,2.223,22.738
	l-8.402,4.486l9.458,17.725l8.405-4.482c4.717,5.914,10.678,10.893,17.654,14.502l-2.772,9.117l19.223,5.843l2.772-9.115
	c2.049,0.233,4.093,0.346,6.125,0.348v0.002c5.701,0.005,11.3-0.883,16.614-2.57l4.483,8.4l17.725-9.459l-4.482-8.403
	c5.912-4.715,10.891-10.681,14.503-17.655l9.113,2.771l5.843-19.223L579.174,113.186z M558.626,117.44
	c-4.682,15.398-18.837,25.315-34.14,25.31v-0.002c-3.433-0.001-6.924-0.5-10.379-1.55c-18.854-5.732-29.491-25.662-23.76-44.517
	c4.682-15.402,18.836-25.319,34.139-25.313v0.002c3.434,0.002,6.924,0.501,10.378,1.551
	C553.718,78.652,564.358,98.583,558.626,117.44z"/>
<g>
	<g>
		<polygon style="fill-rule:evenodd;clip-rule:evenodd;fill:#6A1B9A;" points="315.808,547.501 423.659,547.501 474.214,651.103 
			265.253,651.103 		"/>
		
			<linearGradient id="SVGID_1_" gradientUnits="userSpaceOnUse" x1="369.7338" y1="231.6721" x2="369.7338" y2="576.5746" gradientTransform="matrix(1 0 0 -1 0 800)">
			<stop  offset="0" style="stop-color:#4527A0"/>
			<stop  offset="1" style="stop-color:#9575CD"/>
		</linearGradient>
		<path style="fill-rule:evenodd;clip-rule:evenodd;fill:url(#SVGID_1_);" d="M115.591,202.029h508.285
			c14.304,0,26.006,13.24,26.006,29.421v312.898c0,16.181-11.702,29.42-26.006,29.42H115.591c-14.304,0-26.006-13.24-26.006-29.42
			V231.45C89.585,215.269,101.287,202.029,115.591,202.029z"/>
		<rect x="106.846" y="219.191" style="fill-rule:evenodd;clip-rule:evenodd;fill:#FFFFFF;" width="525.777" height="302.044"/>
		<path style="fill-rule:evenodd;clip-rule:evenodd;fill:#808281;" d="M618.303,551.59c1.859,0,3.377-1.717,3.377-3.82
			s-1.517-3.82-3.377-3.82c-1.859,0-3.377,1.717-3.377,3.82C614.926,549.871,616.444,551.59,618.303,551.59z"/>
		<path style="fill-rule:evenodd;clip-rule:evenodd;fill:#808281;" d="M605.117,551.59c1.862,0,3.377-1.717,3.377-3.82
			s-1.516-3.82-3.377-3.82c-1.859,0-3.377,1.717-3.377,3.82C601.74,549.871,603.257,551.59,605.117,551.59z"/>
		<path style="fill-rule:evenodd;clip-rule:evenodd;fill:#808281;" d="M591.932,551.59c1.859,0,3.377-1.717,3.377-3.82
			s-1.517-3.82-3.377-3.82c-1.862,0-3.377,1.717-3.377,3.82C588.555,549.871,590.071,551.59,591.932,551.59z"/>
		<path style="fill-rule:evenodd;clip-rule:evenodd;fill:#AB47BC;" d="M59.549,619.794H679.92c7.612,0,13.84,7.043,13.84,15.654l0,0
			c0,8.61-6.228,15.657-13.84,15.657H59.549c-7.612,0-13.84-7.045-13.84-15.657l0,0C45.708,626.837,51.937,619.794,59.549,619.794z"
			/>
		<path style="fill-rule:evenodd;clip-rule:evenodd;fill:#BA68C8;" d="M693.76,635.447c0,8.61-6.228,15.657-13.84,15.657H59.549
			c-7.615,0-13.84-7.045-13.84-15.657H693.76z"/>
	</g>
	
		<linearGradient id="SVGID_2_" gradientUnits="userSpaceOnUse" x1="338.5698" y1="272.2105" x2="337.0391" y2="437.5293" gradientTransform="matrix(-0.9995 -0.0314 -0.0314 0.9995 549.6951 71.9652)">
		<stop  offset="0" style="stop-color:#F57F17"/>
		<stop  offset="1" style="stop-color:#FFEE58"/>
	</linearGradient>
	<path style="fill-rule:evenodd;clip-rule:evenodd;fill:url(#SVGID_2_);" d="M185.056,495.242l0.367-15.115l0.195-8.045l7.062-3.853
		l7.064-3.855h0.004l6.871,4.191l6.867,4.193l-0.191,8.043l-0.368,15.116c7.787-4.509,13.113-12.843,13.345-22.501
		c0.262-10.821-5.956-20.274-15.102-24.702l1.551-64.151c9.35-3.98,16.018-13.121,16.281-23.942
		c0.231-9.656-4.684-18.239-12.244-23.12l-0.366,15.114l-0.196,8.046l-7.062,3.853l-7.062,3.855h-0.001l-6.872-4.191l-6.867-4.193
		l0.193-8.043l0.367-15.115c-7.788,4.512-13.111,12.847-13.348,22.502c-0.26,10.821,5.957,20.274,15.103,24.7l-1.553,64.151
		c-9.35,3.981-16.017,13.122-16.278,23.942C172.58,481.779,177.498,490.362,185.056,495.242z"/>
	<path style="fill:#00ACC1;" d="M266.805,328.641c-3.847,6.683-6.136,13.959-6.897,21.345l-9.32,0.749l1.583,19.664l9.317-0.749
		c1.933,7.169,5.356,13.991,10.223,19.967l-6.063,7.123l15.023,12.785l6.062-7.122c1.754,1.01,3.55,1.913,5.378,2.71
		c5.133,2.236,10.52,3.627,15.964,4.186l0.755,9.321l19.661-1.583l-0.749-9.318c7.17-1.933,13.988-5.356,19.966-10.22l7.123,6.061
		l12.787-15.024l-7.123-6.061c3.848-6.683,6.138-13.959,6.897-21.344l9.32-0.752l-1.579-19.661l-9.322,0.747
		c-1.933-7.17-5.352-13.988-10.22-19.966l6.063-7.124l-15.023-12.785l-6.063,7.123c-1.754-1.011-3.551-1.914-5.38-2.71
		c-5.131-2.235-10.52-3.627-15.966-4.189l-0.749-9.318l-19.662,1.58l0.748,9.32c-7.169,1.933-13.987,5.356-19.969,10.222
		l-7.122-6.061l-12.785,15.023L266.805,328.641z M293.261,338.205c7.828-9.196,20.534-11.786,31.063-7.206
		c2.361,1.027,4.616,2.415,6.679,4.17c11.26,9.583,12.62,26.48,3.036,37.741c-7.828,9.198-20.534,11.789-31.063,7.208
		c-2.362-1.028-4.615-2.415-6.677-4.171C285.038,366.365,283.677,349.468,293.261,338.205z"/>
	<path style="fill:#42A5F5;" d="M198.333,264.318l-6.066-2.034l-5.021,15.008l6.065,2.027c-0.472,4.344-0.167,8.674,0.902,12.91
		l-5.723,2.854l7.065,14.162l5.723-2.854c2.723,3.383,6.046,6.268,9.767,8.495l-2.029,6.061l3.987,1.336l11.02,3.686l2.029-6.065
		c4.34,0.469,8.674,0.167,12.909-0.903l2.854,5.723l14.158-7.064l-2.852-5.723c3.401-2.741,6.253-6.015,8.494-9.765l6.059,2.029
		l5.021-15.008l-6.063-2.027c0.472-4.342,0.168-8.676-0.905-12.912l5.723-2.854l-7.061-14.16l-5.725,2.852
		c-2.719-3.379-6.04-6.263-9.76-8.49l2.025-6.063l-3.989-1.334l-11.018-3.686l-2.031,6.061c-4.34-0.469-8.67-0.163-12.908,0.908
		l-2.85-5.723l-14.167,7.061l2.853,5.72C203.42,257.288,200.568,260.564,198.333,264.318z M218.945,261.128
		c6.659-3.318,14.293-3.422,20.884-0.556c2.201,0.956,4.285,2.244,6.178,3.856c2.536,2.159,4.584,4.781,6.083,7.788
		c6.079,12.192,1.107,27.061-11.088,33.144c-6.654,3.318-14.291,3.421-20.88,0.555c-2.201-0.958-4.286-2.247-6.178-3.857
		c-2.535-2.155-4.582-4.778-6.084-7.787C201.778,282.075,206.754,267.212,218.945,261.128z"/>
	<g>
		<g>
			<rect x="390.849" y="256.087" style="fill-rule:evenodd;clip-rule:evenodd;fill:#F45556;" width="121.418" height="5.779"/>
			<rect x="390.849" y="270.375" style="fill-rule:evenodd;clip-rule:evenodd;fill:#23D0F3;" width="38.907" height="5.779"/>
			<rect x="390.849" y="284.626" style="fill-rule:evenodd;clip-rule:evenodd;fill:#FFFFFF;" width="62.743" height="5.779"/>
			<rect x="420.043" y="298.913" style="fill-rule:evenodd;clip-rule:evenodd;fill:#23D0F3;" width="36.614" height="5.779"/>
			<rect x="420.043" y="313.164" style="fill-rule:evenodd;clip-rule:evenodd;fill:#23D0F3;" width="36.614" height="5.779"/>
			<rect x="445.457" y="327.451" style="fill-rule:evenodd;clip-rule:evenodd;fill:#23D0F3;" width="35.611" height="5.779"/>
			<rect x="442.849" y="270.375" style="fill-rule:evenodd;clip-rule:evenodd;fill:#FFFFFF;" width="66.353" height="5.779"/>
			<rect x="518.657" y="270.375" style="fill-rule:evenodd;clip-rule:evenodd;fill:#CACACA;" width="31.686" height="5.779"/>
			<rect x="562.376" y="270.375" style="fill-rule:evenodd;clip-rule:evenodd;fill:#CACACA;" width="42.775" height="5.779"/>
			<rect x="464.078" y="284.626" style="fill-rule:evenodd;clip-rule:evenodd;fill:#23D0F3;" width="37.332" height="5.779"/>
			<rect x="467.832" y="298.913" style="fill-rule:evenodd;clip-rule:evenodd;fill:#FFFFFF;" width="21.373" height="5.779"/>
			<rect x="467.832" y="313.164" style="fill-rule:evenodd;clip-rule:evenodd;fill:#CACACA;" width="36.615" height="5.779"/>
			<rect x="499.376" y="298.913" style="fill-rule:evenodd;clip-rule:evenodd;fill:#CACACA;" width="40.683" height="5.779"/>
			<rect x="548.194" y="298.913" style="fill-rule:evenodd;clip-rule:evenodd;fill:#FFE032;" width="21.344" height="5.779"/>
			<rect x="578.707" y="298.913" style="fill-rule:evenodd;clip-rule:evenodd;fill:#CACACA;" width="26.444" height="5.779"/>
			<rect x="512.582" y="313.164" style="fill-rule:evenodd;clip-rule:evenodd;fill:#FFFFFF;" width="46.241" height="5.779"/>
			<rect x="565.728" y="313.164" style="fill-rule:evenodd;clip-rule:evenodd;fill:#CACACA;" width="13.809" height="5.779"/>
			<rect x="491.238" y="327.451" style="fill-rule:evenodd;clip-rule:evenodd;fill:#F45556;" width="26.472" height="5.779"/>
			<rect x="420.043" y="355.99" style="fill-rule:evenodd;clip-rule:evenodd;fill:#23D0F3;" width="36.614" height="5.779"/>
			<rect x="420.043" y="370.277" style="fill-rule:evenodd;clip-rule:evenodd;fill:#23D0F3;" width="36.614" height="5.779"/>
			<rect x="467.832" y="355.99" style="fill-rule:evenodd;clip-rule:evenodd;fill:#CACACA;" width="21.373" height="5.779"/>
			<rect x="467.832" y="370.277" style="fill-rule:evenodd;clip-rule:evenodd;fill:#FFFFFF;" width="32.976" height="5.779"/>
			<rect x="499.376" y="355.99" style="fill-rule:evenodd;clip-rule:evenodd;fill:#CACACA;" width="31.284" height="5.779"/>
			<rect x="536.906" y="355.99" style="fill-rule:evenodd;clip-rule:evenodd;fill:#FFFFFF;" width="16.445" height="5.779"/>
			<rect x="560.4" y="355.99" style="fill-rule:evenodd;clip-rule:evenodd;fill:#CACACA;" width="20.341" height="5.779"/>
			<rect x="532.895" y="370.277" style="fill-rule:evenodd;clip-rule:evenodd;fill:#CACACA;" width="36.643" height="5.779"/>
			<rect x="420.043" y="384.528" style="fill-rule:evenodd;clip-rule:evenodd;fill:#23D0F3;" width="36.614" height="5.779"/>
			<rect x="420.043" y="398.816" style="fill-rule:evenodd;clip-rule:evenodd;fill:#23D0F3;" width="36.614" height="5.779"/>
			<rect x="467.832" y="384.528" style="fill-rule:evenodd;clip-rule:evenodd;fill:#CACACA;" width="21.373" height="5.779"/>
			<rect x="467.832" y="398.816" style="fill-rule:evenodd;clip-rule:evenodd;fill:#FFFFFF;" width="67.126" height="5.779"/>
			<rect x="499.376" y="384.528" style="fill-rule:evenodd;clip-rule:evenodd;fill:#FFFFFF;" width="40.683" height="5.779"/>
			<rect x="548.194" y="384.528" style="fill-rule:evenodd;clip-rule:evenodd;fill:#CACACA;" width="21.344" height="5.779"/>
			<rect x="578.707" y="384.528" style="fill-rule:evenodd;clip-rule:evenodd;fill:#CACACA;" width="26.444" height="5.779"/>
			<rect x="543.094" y="398.816" style="fill-rule:evenodd;clip-rule:evenodd;fill:#CACACA;" width="37.646" height="5.779"/>
			<rect x="508.142" y="370.277" style="fill-rule:evenodd;clip-rule:evenodd;fill:#FFE032;" width="15.586" height="5.779"/>
			<rect x="390.849" y="427.354" style="fill-rule:evenodd;clip-rule:evenodd;fill:#23D0F3;" width="38.907" height="5.779"/>
			<rect x="390.849" y="441.605" style="fill-rule:evenodd;clip-rule:evenodd;fill:#FFFFFF;" width="62.743" height="5.779"/>
			<rect x="420.043" y="455.891" style="fill-rule:evenodd;clip-rule:evenodd;fill:#23D0F3;" width="36.614" height="5.781"/>
			<rect x="420.043" y="470.143" style="fill-rule:evenodd;clip-rule:evenodd;fill:#23D0F3;" width="36.614" height="5.816"/>
			<rect x="445.457" y="484.431" style="fill-rule:evenodd;clip-rule:evenodd;fill:#23D0F3;" width="35.611" height="5.779"/>
			<rect x="442.849" y="427.354" style="fill-rule:evenodd;clip-rule:evenodd;fill:#F45556;" width="36.815" height="5.779"/>
			<rect x="489.091" y="427.354" style="fill-rule:evenodd;clip-rule:evenodd;fill:#CACACA;" width="18.594" height="5.779"/>
			<rect x="519.717" y="427.354" style="fill-rule:evenodd;clip-rule:evenodd;fill:#FFFFFF;" width="59.133" height="5.779"/>
			<rect x="464.078" y="441.605" style="fill-rule:evenodd;clip-rule:evenodd;fill:#23D0F3;" width="37.332" height="5.779"/>
			<rect x="467.832" y="455.891" style="fill-rule:evenodd;clip-rule:evenodd;fill:#CACACA;" width="41.715" height="5.781"/>
			<rect x="467.832" y="470.143" style="fill-rule:evenodd;clip-rule:evenodd;fill:#CACACA;" width="28.477" height="5.816"/>
			<rect x="519.717" y="455.891" style="fill-rule:evenodd;clip-rule:evenodd;fill:#FFE032;" width="30.998" height="5.781"/>
			<rect x="504.445" y="470.143" style="fill-rule:evenodd;clip-rule:evenodd;fill:#FFFFFF;" width="54.378" height="5.816"/>
			<rect x="565.728" y="470.143" style="fill-rule:evenodd;clip-rule:evenodd;fill:#CACACA;" width="13.809" height="5.816"/>
			<rect x="491.238" y="484.431" style="fill-rule:evenodd;clip-rule:evenodd;fill:#CACACA;" width="26.472" height="5.779"/>
			<rect x="523.585" y="484.431" style="fill-rule:evenodd;clip-rule:evenodd;fill:#CACACA;" width="49.278" height="5.779"/>
			<rect x="580.196" y="484.431" style="fill-rule:evenodd;clip-rule:evenodd;fill:#FFFFFF;" width="14.726" height="5.779"/>
		</g>
	</g>
</g>
<g>
	
		<ellipse transform="matrix(0.7071 -0.7071 0.7071 0.7071 46.0125 506.4536)" style="fill:#1187D1;" cx="634.35" cy="197.685" rx="120.23" ry="120.23"/>
	<g>
		<g>
			<path style="fill:#92C1D1;" d="M671.149,178.339h-12.353v-14.154c0-13.481-10.966-24.445-24.446-24.445
				c-13.48,0-24.446,10.964-24.446,24.445v14.154H597.55v-14.154c0-20.289,16.509-36.798,36.799-36.798
				c20.291,0,36.8,16.509,36.8,36.798V178.339z"/>
		</g>
		<rect x="580.453" y="177.232" style="fill:#FBC02D;" width="107.792" height="79.601"/>
		<path style="fill:#263247;" d="M642.641,208.74c0-4.579-3.712-8.292-8.292-8.292c-4.579,0-8.292,3.712-8.292,8.292
			c0,3.499,2.174,6.478,5.241,7.695l-2.021,17.181h10.146l-2.022-17.181C640.467,215.218,642.641,212.24,642.641,208.74z"/>
	</g>
</g>
<path style="fill:#0277BD;" d="M348.62,63.846c0.504-4.466,0.037-8.887-1.272-13.012l4.807-2.565l-5.415-10.143l-4.807,2.565
	c-2.699-3.383-6.113-6.234-10.103-8.298l1.586-5.216l-11-3.344l-1.586,5.215c-1.172-0.133-2.341-0.198-3.504-0.199v-0.001
	c-3.263-0.002-6.466,0.505-9.506,1.471l-2.569-4.807l-10.141,5.414l2.565,4.807c-3.384,2.699-6.233,6.113-8.297,10.1l-5.215-1.585
	L280.82,55.25l5.215,1.585c-0.505,4.466-0.038,8.887,1.272,13.011l-4.807,2.567l5.412,10.143l4.81-2.565
	c2.699,3.384,6.11,6.233,10.102,8.298l-1.586,5.217l11,3.344l1.586-5.216c1.172,0.133,2.342,0.198,3.505,0.199v0.001
	c3.262,0.003,6.466-0.505,9.507-1.471l2.565,4.807l10.143-5.413l-2.565-4.808c3.383-2.698,6.232-6.112,8.299-10.102l5.214,1.585
	l3.344-11L348.62,63.846z M336.862,66.28c-2.679,8.811-10.778,14.486-19.535,14.482v-0.001c-1.964-0.001-3.962-0.286-5.939-0.887
	c-10.788-3.28-16.875-14.684-13.595-25.473c2.679-8.813,10.778-14.488,19.534-14.484v0.001c1.965,0.001,3.962,0.287,5.938,0.887
	C334.054,44.085,340.142,55.49,336.862,66.28z"/>
<g>
	<path style="fill:#B3D6F5;" d="M123.934,740.248c-2.612,0-5.252-0.381-7.84-1.168c-3.469-1.055-6.65-2.784-9.453-5.136
		c-11.36-9.533-12.848-26.535-3.312-37.901c5.204-6.199,12.781-9.615,20.605-9.614v-19.429l-12.6,1.101l0.607,6.934
		c-4.536,1.414-8.733,3.597-12.496,6.503l-5.333-4.474l-11.07,13.196l5.33,4.476c-2.206,4.213-3.633,8.716-4.243,13.435l-6.93,0.604
		l1.501,17.162l6.933-0.608c1.413,4.54,3.596,8.734,6.505,12.497l-4.474,5.333l13.195,11.073l4.478-5.332
		c4.181,2.194,8.748,3.632,13.428,4.24l0.61,6.931l4.562-0.398h-0.003V740.248z"/>
	<path style="fill:#B3D6F5;" d="M163.739,718.503l6.938-0.601l-1.501-17.162l-6.934,0.608c-1.413-4.541-3.597-8.732-6.503-12.497
		l4.474-5.333l-13.199-11.073l-4.474,5.333c-4.185-2.197-8.756-3.635-13.437-4.243l-0.606-6.93l-4.561,0.397v19.429
		c2.613,0.001,5.254,0.383,7.842,1.169c3.465,1.052,6.646,2.781,9.453,5.134c11.363,9.537,12.844,26.535,3.313,37.899
		c-5.207,6.202-12.784,9.62-20.608,9.617v19.426l12.599-1.101l-0.603-6.931c4.537-1.414,8.726-3.6,12.492-6.508l5.329,4.477
		l11.079-13.198l-5.331-4.473C161.709,727.73,163.135,723.222,163.739,718.503z"/>
</g>
<path style="fill:#F06358;" d="M141.486,126.626c0.67,0.001,1.343,0.038,2.02,0.115l0.914-3.006l6.34,1.927l-0.914,3.006
	c2.3,1.189,4.268,2.833,5.823,4.783l2.77-1.478l3.121,5.846l-2.771,1.479c0.754,2.377,1.023,4.926,0.734,7.499l3.005,0.914
	l-1.927,6.34l-3.005-0.913c-1.191,2.3-2.833,4.267-4.783,5.823l1.479,2.771l-5.846,3.12l-1.479-2.771
	c-1.753,0.557-3.599,0.85-5.48,0.848v-4.748c5.747,0.002,11.064-3.722,12.822-9.505c2.153-7.082-1.843-14.567-8.924-16.72
	c-1.297-0.395-2.608-0.582-3.897-0.582v-4.747H141.486z M130.161,130.594l-1.479-2.77l5.845-3.121l1.481,2.771
	c1.752-0.556,3.599-0.85,5.479-0.848v4.747c-5.747-0.002-11.063,3.723-12.821,9.507c-2.153,7.081,1.842,14.566,8.923,16.718l0,0
	c1.298,0.395,2.609,0.582,3.898,0.582v4.748c-0.67-0.001-1.344-0.039-2.02-0.115l-0.914,3.006l-6.34-1.927l0.914-3.006
	c-2.301-1.19-4.266-2.833-5.822-4.783l-2.773,1.478l-3.119-5.846l2.771-1.48c-0.755-2.376-1.024-4.925-0.734-7.498l-3.005-0.914
	l1.928-6.341l3.005,0.914C126.569,134.117,128.211,132.15,130.161,130.594z"/>
<path style="fill:#FFAE00;" d="M606.496,722.003c0.816,0.001,1.638,0.046,2.463,0.14l1.114-3.666l7.731,2.35l-1.114,3.666
	c2.804,1.45,5.204,3.454,7.1,5.832l3.378-1.802l3.805,7.128l-3.379,1.803c0.92,2.898,1.248,6.007,0.895,9.144l3.665,1.114
	l-2.35,7.731l-3.665-1.113c-1.452,2.804-3.454,5.203-5.832,7.1l1.803,3.379l-7.128,3.804l-1.803-3.379
	c-2.137,0.679-4.389,1.036-6.682,1.034v-5.789c7.007,0.003,13.49-4.538,15.635-11.59c2.625-8.635-2.248-17.762-10.882-20.388
	c-1.582-0.481-3.18-0.709-4.752-0.71v-5.788H606.496z M592.686,726.841l-1.803-3.378l7.127-3.805l1.805,3.379
	c2.136-0.678,4.388-1.036,6.68-1.034v5.788c-7.007-0.003-13.489,4.539-15.634,11.592c-2.625,8.634,2.247,17.761,10.881,20.385l0,0
	c1.583,0.481,3.181,0.709,4.753,0.71v5.789c-0.817-0.001-1.639-0.047-2.463-0.14l-1.114,3.666l-7.731-2.35l1.114-3.666
	c-2.805-1.451-5.202-3.454-7.099-5.832l-3.381,1.802l-3.803-7.128l3.379-1.804c-0.921-2.897-1.249-6.006-0.895-9.143l-3.665-1.114
	l2.351-7.732l3.664,1.114C588.307,731.137,590.308,728.738,592.686,726.841z"/>
</svg>
