<?xml version="1.0" encoding="utf-8"?>
<!-- Generator: Adobe Illustrator 23.0.1, SVG Export Plug-In . SVG Version: 6.00 Build 0)  -->
<svg version="1.1" id="Layer_1" xmlns="http://www.w3.org/2000/svg" xmlns:xlink="http://www.w3.org/1999/xlink" x="0px" y="0px"
	 viewBox="0 0 800 800" style="enable-background:new 0 0 800 800;" xml:space="preserve">
<g>
	<g>
		<g>
			<linearGradient id="SVGID_1_" gradientUnits="userSpaceOnUse" x1="511.5831" y1="411.9961" x2="137.6357" y2="625.1199">
				<stop  offset="0" style="stop-color:#512DA8"/>
				<stop  offset="1" style="stop-color:#B39DDB"/>
			</linearGradient>
			<path style="fill-rule:evenodd;clip-rule:evenodd;fill:url(#SVGID_1_);" d="M130.001,384.784H513.52
				c7.839,0,14.252,6.415,14.252,14.252v242.291c0,7.838-6.414,14.252-14.252,14.252H130.001c-7.839,0-14.252-6.415-14.252-14.252
				V399.036C115.748,391.2,122.162,384.784,130.001,384.784z"/>
			<rect x="137.126" y="413.06" style="fill-rule:evenodd;clip-rule:evenodd;fill:#FFFFFF;" width="369.266" height="198.236"/>
			<path style="fill-rule:evenodd;clip-rule:evenodd;fill:#6A7573;" d="M321.758,404.61c2.863,0,5.183-2.322,5.183-5.184
				c0-2.861-2.321-5.18-5.183-5.18c-2.862,0-5.18,2.318-5.18,5.18S318.896,404.61,321.758,404.61z"/>
			<rect x="312.998" y="623.638" style="fill-rule:evenodd;clip-rule:evenodd;fill:#6A7573;" width="17.522" height="17.523"/>
			<polygon style="fill-rule:evenodd;clip-rule:evenodd;fill:#9575CD;" points="115.748,655.58 527.771,655.58 599.334,668.559 
				44.186,668.559 			"/>
			<path style="fill-rule:evenodd;clip-rule:evenodd;fill:#5E35B1;" d="M44.186,668.559h555.147v7.991
				c0,5.663-4.636,10.3-10.302,10.3H54.487c-5.665,0-10.302-4.635-10.302-10.3C44.186,676.55,44.186,668.559,44.186,668.559z"/>
			<rect x="265.69" y="674.186" style="fill-rule:evenodd;clip-rule:evenodd;fill:#9575CD;" width="112.136" height="7.149"/>
		</g>
	</g>
	<g>
		<g>
			<g>
				<rect x="152.513" y="425.1" style="fill-rule:evenodd;clip-rule:evenodd;fill:#F45556;" width="112.783" height="4.285"/>
				<rect x="152.513" y="435.691" style="fill-rule:evenodd;clip-rule:evenodd;fill:#23D0F3;" width="36.14" height="4.285"/>
				<rect x="152.513" y="446.256" style="fill-rule:evenodd;clip-rule:evenodd;fill:#FFFFFF;" width="58.281" height="4.285"/>
				<rect x="179.631" y="456.848" style="fill-rule:evenodd;clip-rule:evenodd;fill:#23D0F3;" width="34.01" height="4.285"/>
				<rect x="179.631" y="467.413" style="fill-rule:evenodd;clip-rule:evenodd;fill:#23D0F3;" width="34.01" height="4.285"/>
				<rect x="203.236" y="478.005" style="fill-rule:evenodd;clip-rule:evenodd;fill:#23D0F3;" width="33.078" height="4.285"/>
				<rect x="200.813" y="435.691" style="fill-rule:evenodd;clip-rule:evenodd;fill:#FFFFFF;" width="61.634" height="4.285"/>
				<rect x="271.23" y="435.691" style="fill-rule:evenodd;clip-rule:evenodd;fill:#CACACA;" width="29.433" height="4.285"/>
				<rect x="311.84" y="435.691" style="fill-rule:evenodd;clip-rule:evenodd;fill:#CACACA;" width="39.733" height="4.285"/>
				<rect x="220.533" y="446.256" style="fill-rule:evenodd;clip-rule:evenodd;fill:#23D0F3;" width="34.676" height="4.285"/>
				<rect x="224.019" y="456.848" style="fill-rule:evenodd;clip-rule:evenodd;fill:#FFFFFF;" width="19.852" height="4.285"/>
				<rect x="224.019" y="467.413" style="fill-rule:evenodd;clip-rule:evenodd;fill:#CACACA;" width="34.01" height="4.285"/>
				<rect x="253.32" y="456.848" style="fill-rule:evenodd;clip-rule:evenodd;fill:#CACACA;" width="37.79" height="4.285"/>
				<rect x="298.667" y="456.848" style="fill-rule:evenodd;clip-rule:evenodd;fill:#FFE032;" width="19.826" height="4.285"/>
				<rect x="327.009" y="456.848" style="fill-rule:evenodd;clip-rule:evenodd;fill:#CACACA;" width="24.563" height="4.285"/>
				<rect x="265.588" y="467.413" style="fill-rule:evenodd;clip-rule:evenodd;fill:#FFFFFF;" width="42.952" height="4.285"/>
				<rect x="314.955" y="467.413" style="fill-rule:evenodd;clip-rule:evenodd;fill:#CACACA;" width="12.827" height="4.285"/>
				<rect x="245.761" y="478.005" style="fill-rule:evenodd;clip-rule:evenodd;fill:#F45556;" width="24.59" height="4.285"/>
				<rect x="179.631" y="499.162" style="fill-rule:evenodd;clip-rule:evenodd;fill:#23D0F3;" width="34.01" height="4.285"/>
				<rect x="179.631" y="509.754" style="fill-rule:evenodd;clip-rule:evenodd;fill:#23D0F3;" width="34.01" height="4.285"/>
				<rect x="224.019" y="499.162" style="fill-rule:evenodd;clip-rule:evenodd;fill:#CACACA;" width="19.852" height="4.285"/>
				<rect x="224.019" y="509.754" style="fill-rule:evenodd;clip-rule:evenodd;fill:#FFFFFF;" width="30.631" height="4.285"/>
				<rect x="253.32" y="499.162" style="fill-rule:evenodd;clip-rule:evenodd;fill:#CACACA;" width="29.06" height="4.285"/>
				<rect x="288.181" y="499.162" style="fill-rule:evenodd;clip-rule:evenodd;fill:#FFFFFF;" width="15.276" height="4.285"/>
				<rect x="310.004" y="499.162" style="fill-rule:evenodd;clip-rule:evenodd;fill:#CACACA;" width="18.896" height="4.285"/>
				<rect x="284.457" y="509.754" style="fill-rule:evenodd;clip-rule:evenodd;fill:#CACACA;" width="34.037" height="4.285"/>
				<rect x="179.631" y="520.318" style="fill-rule:evenodd;clip-rule:evenodd;fill:#23D0F3;" width="34.01" height="4.285"/>
				<rect x="179.631" y="530.91" style="fill-rule:evenodd;clip-rule:evenodd;fill:#23D0F3;" width="34.01" height="4.285"/>
				<rect x="224.019" y="520.318" style="fill-rule:evenodd;clip-rule:evenodd;fill:#CACACA;" width="19.852" height="4.285"/>
				<rect x="224.019" y="530.91" style="fill-rule:evenodd;clip-rule:evenodd;fill:#FFFFFF;" width="62.352" height="4.285"/>
				<rect x="253.32" y="520.318" style="fill-rule:evenodd;clip-rule:evenodd;fill:#FFFFFF;" width="37.79" height="4.285"/>
				<rect x="298.667" y="520.318" style="fill-rule:evenodd;clip-rule:evenodd;fill:#CACACA;" width="19.826" height="4.285"/>
				<rect x="327.009" y="520.318" style="fill-rule:evenodd;clip-rule:evenodd;fill:#CACACA;" width="24.563" height="4.285"/>
				<rect x="293.929" y="530.91" style="fill-rule:evenodd;clip-rule:evenodd;fill:#CACACA;" width="34.969" height="4.285"/>
				<rect x="261.464" y="509.754" style="fill-rule:evenodd;clip-rule:evenodd;fill:#FFE032;" width="14.477" height="4.285"/>
				<rect x="152.513" y="552.067" style="fill-rule:evenodd;clip-rule:evenodd;fill:#23D0F3;" width="36.14" height="4.285"/>
				<rect x="152.513" y="562.632" style="fill-rule:evenodd;clip-rule:evenodd;fill:#FFFFFF;" width="58.281" height="4.285"/>
				<rect x="179.631" y="573.223" style="fill-rule:evenodd;clip-rule:evenodd;fill:#23D0F3;" width="34.01" height="4.286"/>
				<rect x="179.631" y="583.789" style="fill-rule:evenodd;clip-rule:evenodd;fill:#23D0F3;" width="34.01" height="4.312"/>
				<rect x="203.236" y="594.381" style="fill-rule:evenodd;clip-rule:evenodd;fill:#23D0F3;" width="33.078" height="4.285"/>
				<rect x="200.813" y="552.067" style="fill-rule:evenodd;clip-rule:evenodd;fill:#F45556;" width="34.198" height="4.285"/>
				<rect x="243.766" y="552.067" style="fill-rule:evenodd;clip-rule:evenodd;fill:#CACACA;" width="17.271" height="4.285"/>
				<rect x="272.214" y="552.067" style="fill-rule:evenodd;clip-rule:evenodd;fill:#FFFFFF;" width="54.927" height="4.285"/>
				<rect x="220.533" y="562.632" style="fill-rule:evenodd;clip-rule:evenodd;fill:#23D0F3;" width="34.676" height="4.285"/>
				<rect x="224.019" y="573.223" style="fill-rule:evenodd;clip-rule:evenodd;fill:#CACACA;" width="38.747" height="4.286"/>
				<rect x="224.019" y="583.789" style="fill-rule:evenodd;clip-rule:evenodd;fill:#CACACA;" width="26.452" height="4.312"/>
				<rect x="272.214" y="573.223" style="fill-rule:evenodd;clip-rule:evenodd;fill:#FFE032;" width="28.795" height="4.286"/>
				<rect x="258.03" y="583.789" style="fill-rule:evenodd;clip-rule:evenodd;fill:#FFFFFF;" width="50.51" height="4.312"/>
				<rect x="314.955" y="583.789" style="fill-rule:evenodd;clip-rule:evenodd;fill:#CACACA;" width="12.827" height="4.312"/>
				<rect x="245.761" y="594.381" style="fill-rule:evenodd;clip-rule:evenodd;fill:#CACACA;" width="24.59" height="4.285"/>
				<rect x="275.806" y="594.381" style="fill-rule:evenodd;clip-rule:evenodd;fill:#CACACA;" width="45.775" height="4.285"/>
				<rect x="328.392" y="594.381" style="fill-rule:evenodd;clip-rule:evenodd;fill:#FFFFFF;" width="13.679" height="4.285"/>
			</g>
		</g>
		<g>
			<g>
				<rect x="286.419" y="435.691" style="fill-rule:evenodd;clip-rule:evenodd;fill:#23D0F3;" width="36.14" height="4.285"/>
				<rect x="286.419" y="446.256" style="fill-rule:evenodd;clip-rule:evenodd;fill:#FFFFFF;" width="58.281" height="4.285"/>
				<rect x="313.537" y="456.848" style="fill-rule:evenodd;clip-rule:evenodd;fill:#23D0F3;" width="34.01" height="4.285"/>
				<rect x="313.537" y="467.413" style="fill-rule:evenodd;clip-rule:evenodd;fill:#23D0F3;" width="34.01" height="4.285"/>
				<rect x="337.142" y="478.005" style="fill-rule:evenodd;clip-rule:evenodd;fill:#23D0F3;" width="33.078" height="4.285"/>
				<rect x="334.72" y="435.691" style="fill-rule:evenodd;clip-rule:evenodd;fill:#FFFFFF;" width="61.634" height="4.285"/>
				<rect x="405.136" y="435.691" style="fill-rule:evenodd;clip-rule:evenodd;fill:#CACACA;" width="29.433" height="4.285"/>
				<rect x="445.747" y="435.691" style="fill-rule:evenodd;clip-rule:evenodd;fill:#CACACA;" width="39.733" height="4.285"/>
				<rect x="354.44" y="446.256" style="fill-rule:evenodd;clip-rule:evenodd;fill:#23D0F3;" width="34.676" height="4.285"/>
				<rect x="357.926" y="456.848" style="fill-rule:evenodd;clip-rule:evenodd;fill:#FFFFFF;" width="19.852" height="4.285"/>
				<rect x="357.926" y="467.413" style="fill-rule:evenodd;clip-rule:evenodd;fill:#CACACA;" width="34.01" height="4.285"/>
				<rect x="387.227" y="456.848" style="fill-rule:evenodd;clip-rule:evenodd;fill:#CACACA;" width="37.79" height="4.285"/>
				<rect x="432.574" y="456.848" style="fill-rule:evenodd;clip-rule:evenodd;fill:#FFE032;" width="19.826" height="4.285"/>
				<rect x="460.917" y="456.848" style="fill-rule:evenodd;clip-rule:evenodd;fill:#CACACA;" width="24.563" height="4.285"/>
				<rect x="399.494" y="467.413" style="fill-rule:evenodd;clip-rule:evenodd;fill:#FFFFFF;" width="42.952" height="4.285"/>
				<rect x="448.86" y="467.413" style="fill-rule:evenodd;clip-rule:evenodd;fill:#CACACA;" width="12.827" height="4.285"/>
				<rect x="379.668" y="478.005" style="fill-rule:evenodd;clip-rule:evenodd;fill:#F45556;" width="24.59" height="4.285"/>
				<rect x="313.537" y="499.162" style="fill-rule:evenodd;clip-rule:evenodd;fill:#23D0F3;" width="34.01" height="4.285"/>
				<rect x="313.537" y="509.754" style="fill-rule:evenodd;clip-rule:evenodd;fill:#23D0F3;" width="34.01" height="4.285"/>
				<rect x="357.926" y="499.162" style="fill-rule:evenodd;clip-rule:evenodd;fill:#CACACA;" width="19.852" height="4.285"/>
				<rect x="357.926" y="509.754" style="fill-rule:evenodd;clip-rule:evenodd;fill:#FFFFFF;" width="30.631" height="4.285"/>
				<rect x="387.227" y="499.162" style="fill-rule:evenodd;clip-rule:evenodd;fill:#CACACA;" width="29.06" height="4.285"/>
				<rect x="422.088" y="499.162" style="fill-rule:evenodd;clip-rule:evenodd;fill:#FFFFFF;" width="15.276" height="4.285"/>
				<rect x="443.91" y="499.162" style="fill-rule:evenodd;clip-rule:evenodd;fill:#CACACA;" width="18.895" height="4.285"/>
				<rect x="418.363" y="509.754" style="fill-rule:evenodd;clip-rule:evenodd;fill:#CACACA;" width="34.037" height="4.285"/>
				<rect x="313.537" y="520.318" style="fill-rule:evenodd;clip-rule:evenodd;fill:#23D0F3;" width="34.01" height="4.285"/>
				<rect x="313.537" y="530.91" style="fill-rule:evenodd;clip-rule:evenodd;fill:#23D0F3;" width="34.01" height="4.285"/>
				<rect x="357.926" y="520.318" style="fill-rule:evenodd;clip-rule:evenodd;fill:#CACACA;" width="19.852" height="4.285"/>
				<rect x="357.926" y="530.91" style="fill-rule:evenodd;clip-rule:evenodd;fill:#FFFFFF;" width="62.352" height="4.285"/>
				<rect x="387.227" y="520.318" style="fill-rule:evenodd;clip-rule:evenodd;fill:#FFFFFF;" width="37.79" height="4.285"/>
				<rect x="432.574" y="520.318" style="fill-rule:evenodd;clip-rule:evenodd;fill:#CACACA;" width="19.826" height="4.285"/>
				<rect x="460.917" y="520.318" style="fill-rule:evenodd;clip-rule:evenodd;fill:#CACACA;" width="24.563" height="4.285"/>
				<rect x="427.836" y="530.91" style="fill-rule:evenodd;clip-rule:evenodd;fill:#CACACA;" width="34.969" height="4.285"/>
				<rect x="395.37" y="509.754" style="fill-rule:evenodd;clip-rule:evenodd;fill:#FFE032;" width="14.477" height="4.285"/>
				<rect x="286.419" y="552.067" style="fill-rule:evenodd;clip-rule:evenodd;fill:#23D0F3;" width="36.14" height="4.285"/>
				<rect x="286.419" y="562.632" style="fill-rule:evenodd;clip-rule:evenodd;fill:#FFFFFF;" width="58.281" height="4.285"/>
				<rect x="313.537" y="573.223" style="fill-rule:evenodd;clip-rule:evenodd;fill:#23D0F3;" width="34.01" height="4.286"/>
				<rect x="313.537" y="583.789" style="fill-rule:evenodd;clip-rule:evenodd;fill:#23D0F3;" width="34.01" height="4.312"/>
				<rect x="337.142" y="594.381" style="fill-rule:evenodd;clip-rule:evenodd;fill:#23D0F3;" width="33.078" height="4.285"/>
				<rect x="334.72" y="552.067" style="fill-rule:evenodd;clip-rule:evenodd;fill:#F45556;" width="34.198" height="4.285"/>
				<rect x="377.673" y="552.067" style="fill-rule:evenodd;clip-rule:evenodd;fill:#CACACA;" width="17.271" height="4.285"/>
				<rect x="406.121" y="552.067" style="fill-rule:evenodd;clip-rule:evenodd;fill:#FFFFFF;" width="54.927" height="4.285"/>
				<rect x="354.44" y="562.632" style="fill-rule:evenodd;clip-rule:evenodd;fill:#23D0F3;" width="34.676" height="4.285"/>
				<rect x="357.926" y="573.223" style="fill-rule:evenodd;clip-rule:evenodd;fill:#CACACA;" width="38.747" height="4.286"/>
				<rect x="357.926" y="583.789" style="fill-rule:evenodd;clip-rule:evenodd;fill:#CACACA;" width="26.452" height="4.312"/>
				<rect x="406.121" y="573.223" style="fill-rule:evenodd;clip-rule:evenodd;fill:#FFE032;" width="28.795" height="4.286"/>
				<rect x="391.936" y="583.789" style="fill-rule:evenodd;clip-rule:evenodd;fill:#FFFFFF;" width="50.51" height="4.312"/>
				<rect x="448.86" y="583.789" style="fill-rule:evenodd;clip-rule:evenodd;fill:#CACACA;" width="12.827" height="4.312"/>
				<rect x="379.668" y="594.381" style="fill-rule:evenodd;clip-rule:evenodd;fill:#CACACA;" width="24.59" height="4.285"/>
				<rect x="409.713" y="594.381" style="fill-rule:evenodd;clip-rule:evenodd;fill:#CACACA;" width="45.775" height="4.285"/>
				<rect x="462.299" y="594.381" style="fill-rule:evenodd;clip-rule:evenodd;fill:#FFFFFF;" width="13.679" height="4.285"/>
			</g>
		</g>
	</g>
</g>
<path style="fill:#FFAE00;" d="M751.487,95.467c0.678-6.011,0.049-11.961-1.712-17.513l6.47-3.453l-7.287-13.65l-6.469,3.452
	c-3.632-4.553-8.227-8.39-13.597-11.167l2.134-7.02l-14.804-4.5l-2.134,7.019c-1.577-0.179-3.151-0.267-4.716-0.268v-0.001
	c-4.392-0.003-8.702,0.68-12.794,1.98l-3.458-6.47l-13.649,7.287l3.453,6.469c-4.554,3.632-8.388,8.227-11.167,13.593l-7.019-2.134
	l-4.501,14.806l7.019,2.134c-0.679,6.011-0.051,11.961,1.712,17.511l-6.47,3.455l7.284,13.651l6.473-3.452
	c3.632,4.554,8.224,8.389,13.596,11.167l-2.134,7.021l14.804,4.5l2.134-7.02c1.578,0.18,3.152,0.267,4.717,0.268v0.002
	c4.39,0.004,8.702-0.68,12.795-1.979l3.453,6.469l13.65-7.285l-3.452-6.471c4.553-3.631,8.387-8.225,11.169-13.596l7.018,2.134
	l4.5-14.804L751.487,95.467z M735.663,98.743c-3.605,11.858-14.507,19.495-26.291,19.491v-0.001
	c-2.643-0.001-5.332-0.385-7.993-1.194c-14.52-4.414-22.711-19.763-18.298-34.283c3.605-11.861,14.505-19.498,26.291-19.494v0.001
	c2.644,0.001,5.332,0.386,7.992,1.194C731.883,68.871,740.077,84.221,735.663,98.743z"/>
<path style="fill:#0277BD;" d="M285.946,170.811c0.302-2.673,0.022-5.319-0.761-7.787l2.877-1.536l-3.241-6.07l-2.877,1.535
	c-1.615-2.024-3.658-3.731-6.046-4.966l0.949-3.122l-6.583-2.001l-0.949,3.121c-0.701-0.08-1.401-0.118-2.097-0.119v-0.001
	c-1.953-0.001-3.87,0.302-5.689,0.88l-1.537-2.877l-6.069,3.24l1.536,2.877c-2.025,1.615-3.73,3.658-4.966,6.045l-3.121-0.949
	l-2.001,6.584l3.121,0.949c-0.302,2.673-0.022,5.319,0.761,7.787l-2.877,1.536l3.239,6.07l2.879-1.535
	c1.615,2.025,3.657,3.731,6.045,4.966l-0.949,3.122l6.583,2.001l0.949-3.122c0.702,0.08,1.401,0.118,2.097,0.119v0.001
	c1.952,0.002,3.87-0.302,5.689-0.88l1.536,2.877l6.07-3.239l-1.535-2.877c2.024-1.615,3.729-3.658,4.966-6.046l3.12,0.949
	l2.001-6.583L285.946,170.811z M278.91,172.268c-1.603,5.273-6.45,8.669-11.691,8.667v-0.001c-1.176-0.001-2.371-0.171-3.555-0.531
	c-6.456-1.963-10.099-8.788-8.136-15.244c1.603-5.274,6.45-8.67,11.691-8.668v0.001c1.176,0.001,2.371,0.172,3.554,0.531
	C277.229,158.985,280.872,165.81,278.91,172.268z"/>
<g>
	<path style="fill:#B3D6F5;" d="M227.376,765.074c-2.574,0-5.177-0.376-7.728-1.151c-3.419-1.04-6.555-2.744-9.317-5.062
		c-11.196-9.396-12.663-26.154-3.264-37.356c5.129-6.11,12.597-9.477,20.309-9.476v-19.148l-12.419,1.085l0.598,6.834
		c-4.47,1.394-8.607,3.546-12.316,6.409l-5.257-4.41l-10.911,13.006l5.254,4.411c-2.175,4.152-3.581,8.591-4.182,13.242l-6.83,0.596
		l1.479,16.915l6.833-0.6c1.393,4.474,3.544,8.609,6.412,12.317l-4.41,5.257l13.005,10.914l4.414-5.255
		c4.12,2.162,8.622,3.58,13.235,4.179l0.601,6.832l4.496-0.392h-0.003L227.376,765.074L227.376,765.074z"/>
	<path style="fill:#B3D6F5;" d="M266.609,743.642l6.839-0.593l-1.479-16.915l-6.834,0.6c-1.393-4.476-3.546-8.606-6.409-12.317
		l4.41-5.257l-13.009-10.914l-4.41,5.257c-4.125-2.165-8.631-3.583-13.244-4.182l-0.597-6.83l-4.495,0.391v19.149
		c2.575,0.001,5.178,0.377,7.729,1.153c3.415,1.037,6.55,2.741,9.317,5.06c11.199,9.4,12.659,26.154,3.266,37.354
		c-5.132,6.113-12.6,9.481-20.311,9.479v19.146l12.418-1.085l-0.594-6.832c4.472-1.394,8.6-3.548,12.312-6.415l5.252,4.413
		l10.919-13.008l-5.254-4.409C264.608,752.736,266.013,748.293,266.609,743.642z"/>
</g>
<path style="fill:#FFAE00;" d="M103.413,289.517c0.66,0.001,1.324,0.037,1.991,0.114l0.901-2.963l6.249,1.899l-0.901,2.963
	c2.267,1.172,4.207,2.792,5.739,4.714l2.73-1.457l3.076,5.762l-2.731,1.458c0.743,2.343,1.008,4.855,0.723,7.391l2.962,0.901
	l-1.899,6.249l-2.962-0.9c-1.174,2.267-2.792,4.206-4.714,5.739l1.458,2.731l-5.762,3.075l-1.458-2.731
	c-1.728,0.549-3.548,0.837-5.401,0.836v-4.679c5.664,0.002,10.905-3.668,12.638-9.368c2.122-6.98-1.817-14.357-8.796-16.48
	c-1.278-0.389-2.571-0.573-3.841-0.574v-4.678h-0.002V289.517z M92.251,293.428l-1.458-2.73l5.761-3.076l1.459,2.731
	c1.727-0.548,3.547-0.837,5.4-0.836v4.678c-5.664-0.002-10.904,3.669-12.637,9.37c-2.122,6.979,1.816,14.356,8.795,16.478l0,0
	c1.279,0.389,2.572,0.573,3.842,0.574v4.679c-0.661-0.001-1.325-0.038-1.991-0.114l-0.901,2.963l-6.249-1.899l0.901-2.963
	c-2.267-1.173-4.205-2.792-5.738-4.714l-2.733,1.457l-3.074-5.762l2.731-1.458c-0.744-2.342-1.009-4.854-0.723-7.39l-2.962-0.901
	l1.9-6.25l2.961,0.901C88.711,296.9,90.329,294.961,92.251,293.428z"/>
<path style="fill:#F06358;" d="M728.162,747.035c0.805,0.001,1.614,0.045,2.428,0.138l1.098-3.613l7.619,2.316l-1.098,3.613
	c2.764,1.429,5.129,3.404,6.998,5.748l3.329-1.776l3.75,7.025l-3.33,1.777c0.906,2.857,1.23,5.92,0.882,9.012l3.612,1.098
	l-2.316,7.619l-3.612-1.097c-1.431,2.764-3.404,5.128-5.748,6.998l1.777,3.33l-7.025,3.749l-1.777-3.33
	c-2.107,0.669-4.326,1.021-6.585,1.019v-5.706c6.907,0.003,13.296-4.473,15.41-11.423c2.587-8.511-2.215-17.506-10.725-20.094
	c-1.559-0.474-3.135-0.699-4.684-0.7v-5.705h-0.003V747.035z M714.551,751.803l-1.777-3.329l7.024-3.75l1.779,3.33
	c2.105-0.668,4.325-1.021,6.584-1.019v5.705c-6.907-0.003-13.295,4.474-15.409,11.425c-2.587,8.51,2.214,17.505,10.724,20.092l0,0
	c1.56,0.474,3.135,0.699,4.685,0.7v5.706c-0.806-0.001-1.615-0.046-2.428-0.138l-1.098,3.613l-7.619-2.316l1.098-3.613
	c-2.765-1.43-5.127-3.404-6.997-5.748l-3.332,1.776l-3.748-7.025l3.33-1.778c-0.907-2.856-1.231-5.919-0.882-9.011l-3.612-1.098
	l2.317-7.62l3.611,1.098C710.234,756.037,712.207,753.672,714.551,751.803z"/>
<g>
	<g>
		<linearGradient id="SVGID_2_" gradientUnits="userSpaceOnUse" x1="679.5002" y1="698.5988" x2="679.5002" y2="488.1233">
			<stop  offset="0" style="stop-color:#4527A0"/>
			<stop  offset="1" style="stop-color:#9575CD"/>
		</linearGradient>
		<path style="fill-rule:evenodd;clip-rule:evenodd;fill:url(#SVGID_2_);" d="M643.955,475.294h71.09
			c13.768,0,25.031,11.263,25.031,25.031v188.739c0,13.767-11.263,25.031-25.031,25.031h-71.09c-13.767,0-25.03-11.265-25.03-25.031
			V500.325C618.923,486.557,630.187,475.294,643.955,475.294z"/>
		<path style="fill-rule:evenodd;clip-rule:evenodd;fill:#FFFFFF;" d="M629.93,495.319h99.141c0.194,0,0.35,0.158,0.35,0.35v196.048
			c0,0.194-0.158,0.35-0.35,0.35H629.93c-0.194,0-0.35-0.158-0.35-0.35V495.669C629.578,495.476,629.736,495.319,629.93,495.319z"/>
		<path style="fill-rule:evenodd;clip-rule:evenodd;fill:#5085A1;" d="M661.133,481.201h36.733c0.996,0,1.81,0.815,1.81,1.81v0.001
			c0,0.996-0.815,1.81-1.81,1.81h-36.733c-0.996,0-1.809-0.815-1.809-1.81v-0.001C659.324,482.016,660.137,481.201,661.133,481.201z
			"/>
		<path style="fill-rule:evenodd;clip-rule:evenodd;fill:#5085A1;" d="M679.5,708.86c3.371,0,6.121-2.749,6.121-6.121
			c0-3.371-2.75-6.121-6.121-6.121s-6.121,2.749-6.121,6.121S676.13,708.86,679.5,708.86z"/>
	</g>
	<path style="fill:#303F9F;" d="M679.732,519.318c1.12,0.001,2.248,0.064,3.378,0.191l1.528-5.027l10.602,3.223l-1.528,5.027
		c3.845,1.989,7.137,4.737,9.738,7.997l4.632-2.472l5.219,9.776l-4.633,2.472c1.262,3.976,1.712,8.237,1.226,12.54l5.026,1.527
		l-3.223,10.602l-5.026-1.527c-1.992,3.846-4.737,7.137-7.997,9.737l2.472,4.634l-9.776,5.216l-2.472-4.632
		c-2.931,0.93-6.018,1.42-9.163,1.418v-7.938c9.611,0.004,18.5-6.225,21.441-15.896c3.601-11.842-3.082-24.36-14.923-27.959
		c-2.169-0.66-4.361-0.972-6.517-0.973v-7.935L679.732,519.318L679.732,519.318z M660.792,525.953l-2.472-4.632l9.775-5.217
		l2.476,4.633c2.929-0.931,6.018-1.42,9.163-1.418v7.937c-9.611-0.004-18.5,6.225-21.441,15.897
		c-3.601,11.841,3.081,24.358,14.922,27.958l0,0c2.17,0.66,4.363,0.973,6.519,0.973v7.939c-1.12-0.001-2.248-0.063-3.378-0.191
		l-1.528,5.027l-10.602-3.223l1.528-5.027c-3.846-1.989-7.135-4.736-9.735-7.998l-4.636,2.472l-5.216-9.776l4.633-2.474
		c-1.263-3.974-1.713-8.235-1.226-12.539l-5.027-1.527l3.224-10.603l5.027,1.528C654.785,531.844,657.531,528.554,660.792,525.953z"
		/>
	<g>
		<rect x="641.291" y="672.582" style="fill-rule:evenodd;clip-rule:evenodd;fill:#303F9F;" width="28.998" height="4.157"/>
		<rect x="641.291" y="655.877" style="fill-rule:evenodd;clip-rule:evenodd;fill:#303F9F;" width="15.222" height="4.158"/>
		<rect x="696.628" y="655.877" style="fill-rule:evenodd;clip-rule:evenodd;fill:#303F9F;" width="21.497" height="4.158"/>
		<rect x="641.291" y="641.496" style="fill-rule:evenodd;clip-rule:evenodd;fill:#303F9F;" width="11.181" height="4.158"/>
		<rect x="656.511" y="641.496" style="fill-rule:evenodd;clip-rule:evenodd;fill:#303F9F;" width="50.77" height="4.158"/>
		<rect x="641.291" y="627.115" style="fill-rule:evenodd;clip-rule:evenodd;fill:#303F9F;" width="27.503" height="4.158"/>
		<rect x="672.834" y="627.115" style="fill-rule:evenodd;clip-rule:evenodd;fill:#303F9F;" width="30.705" height="4.158"/>
		<rect x="641.291" y="612.734" style="fill-rule:evenodd;clip-rule:evenodd;fill:#303F9F;" width="11.181" height="4.158"/>
		<rect x="656.511" y="612.734" style="fill-rule:evenodd;clip-rule:evenodd;fill:#303F9F;" width="28.455" height="4.158"/>
		<rect x="641.291" y="598.353" style="fill-rule:evenodd;clip-rule:evenodd;fill:#303F9F;" width="23.516" height="4.158"/>
		<rect x="668.846" y="598.353" style="fill-rule:evenodd;clip-rule:evenodd;fill:#303F9F;" width="29.221" height="4.158"/>
		<rect x="660.553" y="655.877" style="fill-rule:evenodd;clip-rule:evenodd;fill:#303F9F;" width="31.612" height="4.158"/>
		<rect x="711.745" y="641.496" style="fill-rule:evenodd;clip-rule:evenodd;fill:#303F9F;" width="6.38" height="4.158"/>
		<rect x="708.002" y="627.115" style="fill-rule:evenodd;clip-rule:evenodd;fill:#303F9F;" width="10.123" height="4.158"/>
		<rect x="689.429" y="612.734" style="fill-rule:evenodd;clip-rule:evenodd;fill:#303F9F;" width="28.695" height="4.158"/>
		<rect x="702.531" y="598.353" style="fill-rule:evenodd;clip-rule:evenodd;fill:#303F9F;" width="15.594" height="4.158"/>
	</g>
</g>
<g>
	<path id="XMLID_4070_" style="fill:#F9A825;" d="M614.451,38.856H409.456c-11.825,0-21.411,10.097-21.411,22.554v280.747
		c0,11.363,8.745,20.575,19.532,20.575h208.752c10.786,0,19.532-9.211,19.532-20.575V61.409
		C635.861,48.953,626.275,38.856,614.451,38.856z"/>
	<path id="XMLID_4077_" style="fill:#F57F17;" d="M635.87,61.415v280.737c0,11.368-8.753,20.589-19.546,20.589h-28.826V39.058
		h29.786C627.764,40.523,635.87,49.971,635.87,61.415z"/>
	<path id="XMLID_3375_" style="fill:#283593;" d="M611.202,150.938H414.547c-5.575,0-10.093,4.76-10.093,10.63v59.366
		c0,5.872,4.519,10.631,10.093,10.631h196.655c5.574,0,10.092-4.76,10.092-10.631v-59.366
		C621.294,155.697,616.775,150.938,611.202,150.938z"/>
	<g id="XMLID_2951_">
		<g id="XMLID_3362_">
			<ellipse id="XMLID_3367_" style="fill:#FFFEFF;" cx="514.206" cy="175.831" rx="3.997" ry="4.21"/>
			<ellipse id="XMLID_3366_" style="fill:#FFFEFF;" cx="514.206" cy="191.252" rx="3.997" ry="4.21"/>
			<ellipse id="XMLID_3365_" style="fill:#FFFEFF;" cx="514.206" cy="160.41" rx="3.997" ry="4.21"/>
			<ellipse id="XMLID_3364_" style="fill:#FFFEFF;" cx="514.206" cy="206.671" rx="3.997" ry="4.21"/>
			<ellipse id="XMLID_3363_" style="fill:#FFFEFF;" cx="514.206" cy="222.092" rx="3.997" ry="4.21"/>
		</g>
		<g id="XMLID_2871_">
			<path id="XMLID_3369_" style="fill:#5C6BC0;" d="M603.76,162.727h-64.951c-0.442,0-0.799-0.377-0.799-0.842v-4.841
				c0-0.466,0.358-0.842,0.799-0.842h64.951c0.442,0,0.8,0.377,0.8,0.842v4.841C604.561,162.35,604.202,162.727,603.76,162.727z"/>
			<path id="XMLID_3368_" style="fill:#5C6BC0;" d="M595.367,206.934h-48.164c-5.077,0-9.194,4.336-9.194,9.683
				c0,5.348,4.116,9.684,9.194,9.684h48.164c5.077,0,9.193-4.335,9.193-9.684C604.561,211.27,600.445,206.934,595.367,206.934z"/>
			<path id="XMLID_2949_" style="fill:#5C6BC0;" d="M595.367,181.568h-48.164c-5.077,0-9.194,4.335-9.194,9.683
				c0,5.348,4.116,9.683,9.194,9.683h48.164c5.077,0,9.193-4.335,9.193-9.683C604.561,185.903,600.445,181.568,595.367,181.568z"/>
			<path id="XMLID_3361_" style="fill:#5C6BC0;" d="M603.76,173.763h-64.951c-0.442,0-0.799-0.377-0.799-0.842v-4.841
				c0-0.465,0.358-0.842,0.799-0.842h64.951c0.442,0,0.8,0.377,0.8,0.842v4.841C604.561,173.386,604.202,173.763,603.76,173.763z"/>
		</g>
		<g id="XMLID_2950_">
			<path id="XMLID_2937_" style="fill:#5C6BC0;" d="M427.383,157.043v68.417c0,0.466-0.358,0.842-0.799,0.842h-4.596
				c-0.441,0-0.799-0.377-0.799-0.842v-68.417c0-0.466,0.358-0.842,0.799-0.842h4.596
				C427.025,156.2,427.383,156.578,427.383,157.043z"/>
			<path id="XMLID_2936_" style="fill:#5C6BC0;" d="M438.331,157.043v68.417c0,0.466-0.358,0.842-0.799,0.842h-4.596
				c-0.441,0-0.799-0.377-0.799-0.842v-68.417c0-0.466,0.358-0.842,0.799-0.842h4.596
				C437.973,156.2,438.331,156.578,438.331,157.043z"/>
			<path id="XMLID_2942_" style="fill:#5C6BC0;" d="M449.279,157.043v68.417c0,0.466-0.358,0.842-0.799,0.842h-4.596
				c-0.442,0-0.799-0.377-0.799-0.842v-68.417c0-0.466,0.358-0.842,0.799-0.842h4.596C448.92,156.2,449.279,156.578,449.279,157.043
				z"/>
			<path id="XMLID_2939_" style="fill:#5C6BC0;" d="M460.226,157.043v68.417c0,0.466-0.358,0.842-0.799,0.842h-4.596
				c-0.442,0-0.799-0.377-0.799-0.842v-68.417c0-0.466,0.358-0.842,0.799-0.842h4.596
				C459.868,156.2,460.226,156.578,460.226,157.043z"/>
			<path id="XMLID_2948_" style="fill:#5C6BC0;" d="M471.173,157.043v68.417c0,0.466-0.358,0.842-0.799,0.842h-4.596
				c-0.442,0-0.799-0.377-0.799-0.842v-68.417c0-0.466,0.358-0.842,0.799-0.842h4.596
				C470.815,156.2,471.173,156.578,471.173,157.043z"/>
			<path id="XMLID_2947_" style="fill:#5C6BC0;" d="M482.121,157.043v68.417c0,0.466-0.358,0.842-0.799,0.842h-4.596
				c-0.441,0-0.799-0.377-0.799-0.842v-68.417c0-0.466,0.358-0.842,0.799-0.842h4.596
				C481.762,156.2,482.121,156.578,482.121,157.043z"/>
			<path id="XMLID_2946_" style="fill:#5C6BC0;" d="M493.068,157.043v68.417c0,0.466-0.358,0.842-0.799,0.842h-4.596
				c-0.441,0-0.799-0.377-0.799-0.842v-68.417c0-0.466,0.358-0.842,0.799-0.842h4.596C492.71,156.2,493.068,156.578,493.068,157.043
				z"/>
		</g>
	</g>
	<path id="XMLID_3355_" style="fill:#283593;" d="M611.613,57.976H414.958c-5.574,0-10.092,4.76-10.092,10.63v59.366
		c0,5.872,4.519,10.631,10.092,10.631h196.655c5.574,0,10.093-4.76,10.093-10.631V68.606
		C621.705,62.735,617.186,57.976,611.613,57.976z"/>
	<g id="XMLID_3335_">
		<g id="XMLID_3349_">
			<ellipse id="XMLID_3354_" style="fill:#FFFEFF;" cx="514.618" cy="82.869" rx="3.997" ry="4.21"/>
			<ellipse id="XMLID_3353_" style="fill:#FFFEFF;" cx="514.618" cy="98.289" rx="3.997" ry="4.21"/>
			<ellipse id="XMLID_3352_" style="fill:#FFFEFF;" cx="514.618" cy="67.449" rx="3.997" ry="4.21"/>
			<ellipse id="XMLID_3351_" style="fill:#FFFEFF;" cx="514.618" cy="113.71" rx="3.997" ry="4.21"/>
			<ellipse id="XMLID_3350_" style="fill:#FFFEFF;" cx="514.618" cy="129.13" rx="3.997" ry="4.21"/>
		</g>
		<g id="XMLID_3344_">
			<path id="XMLID_3348_" style="fill:#5C6BC0;" d="M604.172,69.765h-64.951c-0.442,0-0.799-0.377-0.799-0.842v-4.841
				c0-0.466,0.358-0.842,0.799-0.842h64.951c0.442,0,0.799,0.377,0.799,0.842v4.841C604.972,69.387,604.614,69.765,604.172,69.765z"
				/>
			<path id="XMLID_3347_" style="fill:#5C6BC0;" d="M595.779,113.973h-48.164c-5.077,0-9.193,4.335-9.193,9.683
				c0,5.348,4.116,9.683,9.193,9.683h48.164c5.077,0,9.193-4.335,9.193-9.683C604.972,118.309,600.856,113.973,595.779,113.973z"/>
			<path id="XMLID_3346_" style="fill:#5C6BC0;" d="M595.779,88.606h-48.164c-5.077,0-9.193,4.336-9.193,9.684
				c0,5.348,4.115,9.683,9.193,9.683h48.164c5.077,0,9.193-4.335,9.193-9.683C604.972,92.942,600.856,88.606,595.779,88.606z"/>
			<path id="XMLID_3345_" style="fill:#5C6BC0;" d="M604.172,80.802h-64.951c-0.442,0-0.799-0.377-0.799-0.842v-4.841
				c0-0.466,0.358-0.842,0.799-0.842h64.951c0.442,0,0.799,0.377,0.799,0.842v4.841C604.972,80.424,604.614,80.802,604.172,80.802z"
				/>
		</g>
		<g id="XMLID_3336_">
			<path id="XMLID_3343_" style="fill:#5C6BC0;" d="M427.794,64.081v68.417c0,0.465-0.358,0.842-0.799,0.842h-4.596
				c-0.442,0-0.799-0.377-0.799-0.842V64.081c0-0.466,0.358-0.842,0.799-0.842h4.596C427.436,63.239,427.794,63.616,427.794,64.081z
				"/>
			<path id="XMLID_3342_" style="fill:#5C6BC0;" d="M438.742,64.081v68.417c0,0.465-0.358,0.842-0.799,0.842h-4.596
				c-0.441,0-0.799-0.377-0.799-0.842V64.081c0-0.466,0.358-0.842,0.799-0.842h4.596C438.384,63.239,438.742,63.616,438.742,64.081z
				"/>
			<path id="XMLID_3341_" style="fill:#5C6BC0;" d="M449.689,64.081v68.417c0,0.465-0.358,0.842-0.799,0.842h-4.596
				c-0.441,0-0.799-0.377-0.799-0.842V64.081c0-0.466,0.358-0.842,0.799-0.842h4.596C449.331,63.239,449.689,63.616,449.689,64.081z
				"/>
			<path id="XMLID_3340_" style="fill:#5C6BC0;" d="M460.637,64.081v68.417c0,0.465-0.358,0.842-0.799,0.842h-4.596
				c-0.442,0-0.799-0.377-0.799-0.842V64.081c0-0.466,0.358-0.842,0.799-0.842h4.596C460.278,63.239,460.637,63.616,460.637,64.081z
				"/>
			<path id="XMLID_3339_" style="fill:#5C6BC0;" d="M471.585,64.081v68.417c0,0.465-0.358,0.842-0.799,0.842h-4.596
				c-0.442,0-0.799-0.377-0.799-0.842V64.081c0-0.466,0.358-0.842,0.799-0.842h4.596C471.227,63.239,471.585,63.616,471.585,64.081z
				"/>
			<path id="XMLID_3338_" style="fill:#5C6BC0;" d="M482.532,64.081v68.417c0,0.465-0.358,0.842-0.799,0.842h-4.596
				c-0.442,0-0.799-0.377-0.799-0.842V64.081c0-0.466,0.358-0.842,0.799-0.842h4.596C482.174,63.239,482.532,63.616,482.532,64.081z
				"/>
			<path id="XMLID_3337_" style="fill:#5C6BC0;" d="M493.479,64.081v68.417c0,0.465-0.358,0.842-0.799,0.842h-4.596
				c-0.441,0-0.799-0.377-0.799-0.842V64.081c0-0.466,0.358-0.842,0.799-0.842h4.596C493.121,63.239,493.479,63.616,493.479,64.081z
				"/>
		</g>
	</g>
	<path id="XMLID_3334_" style="fill:#283593;" d="M609.36,249.706H412.705c-5.575,0-10.093,4.76-10.093,10.63v59.366
		c0,5.871,4.519,10.63,10.093,10.63H609.36c5.574,0,10.093-4.76,10.093-10.63v-59.366
		C619.452,254.467,614.933,249.706,609.36,249.706z"/>
	<g id="XMLID_2958_">
		<g id="XMLID_3247_">
			<ellipse id="XMLID_3333_" style="fill:#FFFEFF;" cx="512.413" cy="274.597" rx="3.998" ry="4.211"/>
			<ellipse id="XMLID_3332_" style="fill:#FFFEFF;" cx="512.413" cy="290.018" rx="3.998" ry="4.211"/>
			<path id="XMLID_3273_" style="fill:#FFFEFF;" d="M512.364,263.391c-2.207,0-3.997-1.885-3.997-4.211
				c0-2.325,1.789-4.21,3.997-4.21c2.208,0,3.997,1.885,3.997,4.21C516.361,261.505,514.571,263.391,512.364,263.391z"/>
			<ellipse id="XMLID_3271_" style="fill:#FFFEFF;" cx="512.415" cy="305.44" rx="3.998" ry="4.211"/>
			<ellipse id="XMLID_3260_" style="fill:#FFFEFF;" cx="512.416" cy="320.861" rx="3.998" ry="4.211"/>
		</g>
		<g id="XMLID_2982_">
			<path id="XMLID_2988_" style="fill:#5C6BC0;" d="M601.918,261.496h-64.951c-0.442,0-0.799-0.377-0.799-0.842v-4.841
				c0-0.466,0.358-0.842,0.799-0.842h64.951c0.442,0,0.8,0.377,0.8,0.842v4.841C602.719,261.119,602.361,261.496,601.918,261.496z"
				/>
			<path id="XMLID_2986_" style="fill:#5C6BC0;" d="M593.524,305.705H545.36c-5.077,0-9.194,4.335-9.194,9.683
				s4.116,9.683,9.194,9.683h48.164c5.077,0,9.193-4.335,9.193-9.683C602.719,310.04,598.602,305.705,593.524,305.705z"/>
			<path id="XMLID_2985_" style="fill:#5C6BC0;" d="M593.524,280.337H545.36c-5.077,0-9.194,4.335-9.194,9.683
				c0,5.348,4.116,9.683,9.194,9.683h48.164c5.077,0,9.193-4.335,9.193-9.683C602.719,284.672,598.602,280.337,593.524,280.337z"/>
			<path id="XMLID_2983_" style="fill:#5C6BC0;" d="M601.918,272.532h-64.951c-0.442,0-0.799-0.377-0.799-0.842v-4.841
				c0-0.466,0.358-0.842,0.799-0.842h64.951c0.442,0,0.8,0.377,0.8,0.842v4.841C602.719,272.155,602.361,272.532,601.918,272.532z"
				/>
		</g>
		<g id="XMLID_2974_">
			<path id="XMLID_2981_" style="fill:#5C6BC0;" d="M425.541,255.813v68.417c0,0.466-0.358,0.842-0.799,0.842h-4.596
				c-0.441,0-0.799-0.377-0.799-0.842v-68.417c0-0.466,0.358-0.842,0.799-0.842h4.596
				C425.182,254.97,425.541,255.348,425.541,255.813z"/>
			<path id="XMLID_2980_" style="fill:#5C6BC0;" d="M436.489,255.813v68.417c0,0.466-0.358,0.842-0.799,0.842h-4.596
				c-0.441,0-0.799-0.377-0.799-0.842v-68.417c0-0.466,0.358-0.842,0.799-0.842h4.596
				C436.13,254.97,436.489,255.348,436.489,255.813z"/>
			<path id="XMLID_2979_" style="fill:#5C6BC0;" d="M447.435,255.813v68.417c0,0.466-0.358,0.842-0.799,0.842h-4.596
				c-0.442,0-0.799-0.377-0.799-0.842v-68.417c0-0.466,0.358-0.842,0.799-0.842h4.596
				C447.078,254.97,447.435,255.348,447.435,255.813z"/>
			<path id="XMLID_2978_" style="fill:#5C6BC0;" d="M458.383,255.813v68.417c0,0.466-0.358,0.842-0.799,0.842h-4.596
				c-0.442,0-0.799-0.377-0.799-0.842v-68.417c0-0.466,0.358-0.842,0.799-0.842h4.596
				C458.025,254.97,458.383,255.348,458.383,255.813z"/>
			<path id="XMLID_2977_" style="fill:#5C6BC0;" d="M469.33,255.813v68.417c0,0.466-0.358,0.842-0.799,0.842h-4.596
				c-0.442,0-0.799-0.377-0.799-0.842v-68.417c0-0.466,0.358-0.842,0.799-0.842h4.596C468.972,254.97,469.33,255.348,469.33,255.813
				z"/>
			<path id="XMLID_2976_" style="fill:#5C6BC0;" d="M480.278,255.813v68.417c0,0.466-0.358,0.842-0.799,0.842h-4.596
				c-0.441,0-0.799-0.377-0.799-0.842v-68.417c0-0.466,0.358-0.842,0.799-0.842h4.596
				C479.92,254.97,480.278,255.348,480.278,255.813z"/>
			<path id="XMLID_2975_" style="fill:#5C6BC0;" d="M491.226,255.813v68.417c0,0.466-0.358,0.842-0.799,0.842h-4.596
				c-0.441,0-0.799-0.377-0.799-0.842v-68.417c0-0.466,0.358-0.842,0.799-0.842h4.596
				C490.867,254.97,491.226,255.348,491.226,255.813z"/>
		</g>
	</g>
</g>
</svg>
