<?xml version="1.0" encoding="utf-8"?>
<!-- Generator: Adobe Illustrator 23.0.1, SVG Export Plug-In . SVG Version: 6.00 Build 0)  -->
<svg version="1.1" id="logoipsum" xmlns="http://www.w3.org/2000/svg" xmlns:xlink="http://www.w3.org/1999/xlink" x="0px" y="0px"
	 viewBox="0 0 177.8 100" style="enable-background:new 0 0 177.8 100;" xml:space="preserve">
<style type="text/css">
	.st0{display:none;}
	.st1{fill:url(#SVGID_1_);}
	.st2{fill:#FFFFFF;}
</style>
<path class="st0" d="M84.4,38.4V26.6c0-5.6,4.2-10.2,9.7-10.8v22.6H84.4z M96.5,38.4V15.7c5.5,0.6,9.7,5.2,9.7,10.8v11.8H96.5z"/>
<path class="st0" d="M112.8,27.7c0-7.1,4.5-11.7,10.5-11.8v22.5C117.4,38.1,112.8,33.4,112.8,27.7z M116.5,38.4
	c1.4,1.4,4,2.3,6.5,2.3h0.7c3.7,0,6.8-1.5,8.3-3l-1.6-1.6c-1.5,1.1-3.2,1.9-5.1,2.2V15.9h9v20.6c0,6-4.9,10.7-10.9,10.7
	c-4.3,0-8-2.4-9.8-6L116.5,38.4z"/>
<g>
	<linearGradient id="SVGID_1_" gradientUnits="userSpaceOnUse" x1="80.2798" y1="70.0281" x2="31.5563" y2="21.3046">
		<stop  offset="0" style="stop-color:#6F00BD"/>
		<stop  offset="1" style="stop-color:#59CAFF"/>
	</linearGradient>
	<path class="st1" d="M78,71H33.9c-1.8,0-3.3-1.5-3.3-3.3V23.6c0-1.8,1.5-3.3,3.3-3.3H78c1.8,0,3.3,1.5,3.3,3.3v44.1
		C81.2,69.5,79.8,71,78,71z"/>
	<g>
		<path class="st2" d="M43,25.7h12.1v39.6H43V25.7z M68.7,55.4v9.9H58.2v-9.9H68.7z"/>
	</g>
</g>
<g>
	<path class="st2" d="M93,59.2c0,0.6,0.1,1.2,0.2,1.7c0.1,0.6,0.3,1.1,0.6,1.5c0.3,0.4,0.7,0.6,1.2,0.6c0.8,0,1.6-0.4,2.5-1.1
		c0.9-0.7,1.8-1.6,2.7-2.6c0.9-1,1.7-2,2.4-3.1c0.7-1,1.3-1.9,1.7-2.5c0.2-0.3,0.4-0.6,0.7-0.9c0.3-0.3,0.6-0.5,1-0.5
		c0.4,0,0.6,0.1,0.7,0.4c0.1,0.3,0.1,0.6,0.1,0.9c0,0.2-0.1,0.4-0.2,0.7c-0.1,0.3-0.3,0.6-0.4,0.8c-0.2,0.3-0.3,0.6-0.5,0.8
		c-0.2,0.3-0.3,0.5-0.4,0.6c-0.5,0.8-1.2,1.7-2.1,2.8c-0.9,1.1-1.8,2.1-2.8,3.1c-1,1-2.1,1.8-3.2,2.5c-1.1,0.7-2.2,1-3.2,1
		c-1.2,0-2.1-0.4-2.8-1.1c-0.7-0.7-1.2-1.6-1.6-2.6c-0.4-1-0.6-2.1-0.8-3.3c-0.1-1.1-0.2-2.1-0.2-3c0-1.1,0.1-2.3,0.4-3.6
		c0.3-1.3,0.5-2.5,0.8-3.5c0.3-1,0.8-1.9,1.4-2.6c0.6-0.7,1.5-1.1,2.8-1.1c0.9,0,1.3,0.4,1.3,1.3c0,0.4-0.1,0.8-0.2,1.4
		c-0.1,0.5-0.3,1.1-0.5,1.6c-0.2,0.6-0.4,1.1-0.6,1.7c-0.2,0.6-0.3,1.1-0.5,1.5C93.2,54.3,93,56,93,57.8C93,58.2,93,58.6,93,59.2z
		 M96.8,37c0.4,0.4,0.6,1,0.6,1.5c0,0.8-0.3,1.5-0.8,2.1c-0.5,0.6-1.2,1-2,1c-0.6,0-1.1-0.2-1.5-0.7c-0.3-0.4-0.5-1-0.5-1.5
		c0-0.7,0.3-1.4,0.8-2.1c0.5-0.7,1.2-1,1.9-1C96,36.3,96.4,36.5,96.8,37z"/>
	<path class="st2" d="M103,66.4c-0.2-0.3-0.3-0.6-0.3-1c0-2.9,0.3-5.8,0.9-8.8c0.6-3,1.2-5.9,1.8-8.7c0.2-0.9,0.4-1.8,0.5-2.7
		c0.2-0.9,0.3-1.8,0.5-2.7c0.2-0.7,0.6-1.3,1.3-1.9c0.7-0.6,1.4-0.9,2.1-0.9c0.7,0,1.1,0.2,1.4,0.5c0.3,0.3,0.4,0.8,0.4,1.5
		c0,1-0.2,2.1-0.5,3.2c-0.3,1.1-0.7,2.1-1,3.1c-0.4,1.1-0.8,2.2-1,3.3c-0.2,1.1-0.4,2.2-0.6,3.4c0.4-0.6,1.1-1.5,1.9-2.7
		c0.8-1.2,1.7-2.3,2.7-3.4c1-1.1,1.9-2.1,2.9-3c1-0.9,1.9-1.3,2.6-1.3c0.6,0,1,0.2,1.4,0.6c0.3,0.4,0.6,1,0.8,1.6
		c0.2,0.6,0.3,1.2,0.3,1.9c0,0.6,0.1,1.1,0.1,1.6c0,1.4,0,2.7-0.1,4.1c-0.1,1.4-0.1,2.7-0.1,4.1c0,0.3,0,0.7,0,1.1
		c0,0.4,0.1,0.8,0.2,1.1c0.1,0.3,0.3,0.6,0.6,0.9c0.3,0.2,0.6,0.3,1.1,0.3c0.8,0,1.6-0.3,2.4-0.9c0.8-0.6,1.6-1.3,2.3-2.2
		c0.7-0.8,1.4-1.7,2-2.6s1-1.6,1.3-2.3c0.2-0.3,0.3-0.6,0.6-0.9c0.2-0.3,0.5-0.5,0.9-0.5c0.3,0,0.6,0.1,0.7,0.4
		c0.2,0.3,0.3,0.5,0.3,0.8c0,0.2,0,0.3-0.1,0.6c-0.1,0.2-0.2,0.4-0.3,0.6c-0.4,0.9-1,1.9-1.8,3.1c-0.8,1.1-1.7,2.2-2.7,3.2
		c-1,1-2.1,1.9-3.3,2.6c-1.1,0.7-2.3,1-3.3,1c-1,0-1.8-0.3-2.4-0.8c-0.6-0.5-1-1.2-1.3-1.9c-0.3-0.8-0.5-1.6-0.5-2.5
		c-0.1-0.9-0.1-1.7-0.1-2.4c0-1.1,0-2.2,0.1-3.3c0.1-1.1,0.1-2.2,0.1-3.3c0-0.2,0-0.4-0.1-0.7c-0.1-0.3-0.2-0.5-0.4-0.5
		c-0.2,0-0.4,0.1-0.7,0.3c-0.3,0.2-0.5,0.4-0.6,0.6c-1,0.9-1.9,2-2.7,3.3c-0.9,1.2-1.6,2.4-2.3,3.5c-0.9,1.4-1.6,2.7-2.3,4.2
		c-0.7,1.4-1.4,2.9-2,4.3c-0.2,0.5-0.6,0.9-1,1.3c-0.4,0.4-0.9,0.6-1.4,0.6C103.5,66.8,103.1,66.7,103,66.4z"/>
	<path class="st2" d="M141.8,45.2c-1.6,0.9-3,2-4.2,3.2c-0.5,0.6-1.1,1.3-1.7,2.1c-0.6,0.8-1.2,1.6-1.7,2.5
		c-0.5,0.9-0.9,1.8-1.3,2.7c-0.3,0.9-0.5,1.8-0.5,2.6c0,0.6,0.1,1.2,0.4,1.6c0.3,0.4,0.7,0.7,1.4,0.7c0.9,0,1.9-0.5,3.1-1.4
		c1.2-0.9,2.3-2,3.4-3.3c1.1-1.3,2.1-2.5,3-3.9c0.9-1.3,1.5-2.4,1.8-3.1c0.3-0.7,0.8-1.3,1.3-2c0.6-0.7,1.3-1,2.1-1
		c0.7,0,1.2,0.2,1.6,0.6c0.4,0.4,0.6,1,0.6,1.6c0,1.7,0,3.8-0.1,6.3c-0.1,2.5-0.3,5.1-0.6,7.9c-0.3,2.8-0.8,5.6-1.5,8.4
		c-0.7,2.8-1.6,5.3-2.7,7.5c-1.1,2.2-2.5,4-4.2,5.4c-1.7,1.4-3.7,2.1-6.1,2.1c-0.9,0-1.8-0.2-2.5-0.6c-0.7-0.4-1.3-1-1.8-1.8
		c-0.1-0.2-0.2-0.4-0.2-0.6c-0.1-0.2-0.1-0.4-0.1-0.6c0-0.3,0.1-0.7,0.3-1c0.2-0.3,0.5-0.4,0.9-0.4c0.3,0,0.6,0.1,0.8,0.4
		c0.2,0.3,0.3,0.5,0.5,0.9c0.2,0.3,0.4,0.6,0.6,0.9c0.3,0.3,0.6,0.4,1.2,0.4c1.2,0,2.4-0.5,3.3-1.5c1-1,1.9-2.3,2.6-3.9
		c0.8-1.6,1.4-3.4,2-5.4c0.6-2,1-3.9,1.4-5.8c0.3-1.9,0.6-3.7,0.8-5.4c0.2-1.6,0.3-2.9,0.3-3.9c0-0.8,0-1.6,0-2.4
		c0-0.8-0.1-1.6-0.1-2.4c-0.5,0.9-1.3,2-2.2,3.2c-0.9,1.2-1.9,2.4-3,3.5c-1.1,1.1-2.2,2-3.5,2.8c-1.2,0.8-2.4,1.2-3.6,1.2
		c-0.8,0-1.5-0.2-2-0.5c-0.5-0.3-1-0.7-1.3-1.2c-0.3-0.5-0.6-1.1-0.7-1.7c-0.1-0.7-0.2-1.3-0.2-2c0-1,0.1-2.1,0.4-3.2
		c0.3-1.1,0.7-2.2,1.2-3.2c0.5-1,1.1-2,1.7-3c0.7-0.9,1.4-1.8,2.1-2.5c1.5-1.5,3.1-2.6,4.9-3.4c1.8-0.8,3.8-1.2,5.9-1.2
		c0.4,0,1,0.1,1.7,0.2c0.7,0.1,1.4,0.3,2.1,0.6c0.7,0.3,1.3,0.6,1.8,1c0.5,0.4,0.8,0.9,0.8,1.4c0,0.2-0.1,0.3-0.2,0.4
		c-0.1,0.1-0.3,0.1-0.4,0.1c-0.2,0-0.4-0.1-0.8-0.3c-0.3-0.2-0.7-0.4-1-0.6c-0.4-0.2-0.8-0.4-1.3-0.6s-1-0.3-1.5-0.3
		C145.1,43.8,143.4,44.3,141.8,45.2z"/>
</g>
</svg>
