<?xml version="1.0" encoding="utf-8"?>
<!-- Generator: Adobe Illustrator 23.0.2, SVG Export Plug-In . SVG Version: 6.00 Build 0)  -->
<svg version="1.1" id="Layer_1" xmlns="http://www.w3.org/2000/svg" xmlns:xlink="http://www.w3.org/1999/xlink" x="0px" y="0px"
	 viewBox="0 0 300 300" style="enable-background:new 0 0 300 300;" xml:space="preserve">
<style type="text/css">
	.st0{fill:#E6E7E8;}
	.st1{fill:#6D16BF;}
	.st2{fill:#3B8EFD;}
	.st3{fill:#FFFFFF;}
	.st4{fill:#323232;}
</style>
<g>
	<rect x="153.7" y="54.9" class="st0" width="135.3" height="190.2"/>
	<path class="st1" d="M287,116.1H155.7c-7.2,0-13-4.8-13-10.8V80.9c0-5.9,5.8-10.8,13-10.8H287c7.2,0,13,4.8,13,10.8v24.4
		C300,111.3,294.2,116.1,287,116.1z"/>
	<path class="st1" d="M287,173.1H155.7c-7.2,0-13-4.8-13-10.8V138c0-5.9,5.8-10.8,13-10.8H287c7.2,0,13,4.8,13,10.8v24.4
		C300,168.3,294.2,173.1,287,173.1z"/>
	<path class="st1" d="M287,230.1H155.7c-7.2,0-13-4.8-13-10.8V195c0-5.9,5.8-10.8,13-10.8H287c7.2,0,13,4.8,13,10.8v24.4
		C300,225.3,294.2,230.1,287,230.1z"/>
	<path class="st2" d="M263,88.8c0,3.1-2.6,5.7-5.7,5.7s-5.7-2.5-5.7-5.7c0-3.1,2.6-5.7,5.7-5.7S263,85.6,263,88.8z"/>
	<path class="st3" d="M279.7,88.8c0,3.1-2.5,5.7-5.7,5.7c-3.2,0-5.7-2.5-5.7-5.7c0-3.1,2.5-5.7,5.7-5.7
		C277.2,83.1,279.7,85.6,279.7,88.8z"/>
	<path class="st2" d="M263,141.9c0,3.1-2.6,5.7-5.7,5.7s-5.7-2.5-5.7-5.7c0-3.1,2.6-5.7,5.7-5.7S263,138.7,263,141.9z"/>
	<path class="st3" d="M279.7,141.9c0,3.1-2.5,5.7-5.7,5.7c-3.2,0-5.7-2.5-5.7-5.7c0-3.1,2.5-5.7,5.7-5.7
		C277.2,136.2,279.7,138.7,279.7,141.9z"/>
	<path class="st2" d="M263,195c0,3.1-2.6,5.7-5.7,5.7s-5.7-2.5-5.7-5.7c0-3.1,2.6-5.7,5.7-5.7S263,191.8,263,195z"/>
	<path class="st3" d="M279.7,195c0,3.1-2.5,5.7-5.7,5.7c-3.2,0-5.7-2.5-5.7-5.7c0-3.1,2.5-5.7,5.7-5.7
		C277.2,189.3,279.7,191.8,279.7,195z"/>
</g>
<g>
	<rect x="11" y="54.9" class="st0" width="135.3" height="190.2"/>
	<path class="st1" d="M144.3,116.1H13c-7.2,0-13-4.8-13-10.8V80.9C0,75,5.8,70.2,13,70.2h131.3c7.2,0,13,4.8,13,10.8v24.4
		C157.2,111.3,151.4,116.1,144.3,116.1z"/>
	<path class="st1" d="M144.3,173.1H13c-7.2,0-13-4.8-13-10.8V138c0-5.9,5.8-10.8,13-10.8h131.3c7.2,0,13,4.8,13,10.8v24.4
		C157.2,168.3,151.4,173.1,144.3,173.1z"/>
	<path class="st1" d="M144.3,230.1H13c-7.2,0-13-4.8-13-10.8V195c0-5.9,5.8-10.8,13-10.8h131.3c7.2,0,13,4.8,13,10.8v24.4
		C157.2,225.3,151.4,230.1,144.3,230.1z"/>
</g>
<rect x="44.9" y="0" class="st0" width="213.3" height="300"/>
<path class="st4" d="M255.1,96.6H48c-11.3,0-20.5-7.6-20.5-17V41.1c0-9.4,9.2-17,20.5-17h207c11.3,0,20.5,7.6,20.5,17v38.5
	C275.6,89,266.4,96.6,255.1,96.6z"/>
<path class="st4" d="M255.1,186.5H48c-11.3,0-20.5-7.6-20.5-17V131c0-9.4,9.2-17,20.5-17h207c11.3,0,20.5,7.6,20.5,17v38.5
	C275.6,178.9,266.4,186.5,255.1,186.5z"/>
<path class="st4" d="M255.1,276.4H48c-11.3,0-20.5-7.6-20.5-17v-38.5c0-9.4,9.2-17,20.5-17h207c11.3,0,20.5,7.6,20.5,17v38.5
	C275.6,268.8,266.4,276.4,255.1,276.4z"/>
<path class="st2" d="M217.1,53.5c0,5-4,9-9,9s-9-4-9-9c0-5,4-9,9-9S217.1,48.5,217.1,53.5z"/>
<path class="st3" d="M243.6,53.5c0,5-4,9-9,9s-9-4-9-9c0-5,4-9,9-9S243.6,48.5,243.6,53.5z"/>
<path class="st2" d="M217.1,137.2c0,5-4,9-9,9s-9-4-9-9c0-5,4-9,9-9S217.1,132.3,217.1,137.2z"/>
<path class="st3" d="M243.6,137.2c0,5-4,9-9,9s-9-4-9-9c0-5,4-9,9-9S243.6,132.3,243.6,137.2z"/>
<path class="st2" d="M217.1,221c0,5-4,9-9,9s-9-4-9-9c0-5,4-9,9-9S217.1,216,217.1,221z"/>
<path class="st3" d="M243.6,221c0,5-4,9-9,9s-9-4-9-9c0-5,4-9,9-9S243.6,216,243.6,221z"/>
</svg>
