<?xml version="1.0" encoding="utf-8"?>
<!-- Generator: Adobe Illustrator 23.0.2, SVG Export Plug-In . SVG Version: 6.00 Build 0)  -->
<svg version="1.1" id="Layer_1" xmlns="http://www.w3.org/2000/svg" xmlns:xlink="http://www.w3.org/1999/xlink" x="0px" y="0px"
	 viewBox="0 0 300 300" style="enable-background:new 0 0 300 300;" xml:space="preserve">
<style type="text/css">
	.st0{fill:#FFFFFF;}
	.st1{fill:#2494C6;}
	.st2{fill:#D0C7AB;}
	.st3{fill:#3B8EFD;}
	.st4{fill:#E6E7E8;}
	.st5{fill:#6D16BF;}
	.st6{fill:#323232;}
</style>
<path class="st0" d="M138.2,298.7c-2.9,0.2-5.9,0.3-8.9,0.3C132.3,299,135.3,298.9,138.2,298.7z"/>
<path class="st1" d="M248.1,240.4c-1.3,2.4-0.4,1.6,7.2-10.1c-1.9,2.9-3.8,5.7-5.9,8.5C248.9,239.4,248.5,239.9,248.1,240.4z"/>
<path class="st1" d="M248.1,240.4c0.4-0.5,0.8-1.1,1.2-1.6c2.1-2.8,4-5.6,5.9-8.5C254.6,229.7,249.7,237.5,248.1,240.4z"/>
<path class="st2" d="M205.9,277.9c-0.4,0.2-0.7,0.4-1.1,0.6l0,0C205.2,278.3,205.6,278.1,205.9,277.9z"/>
<g>
	<path class="st0" d="M198.7,5.2c0.9,0.3,1.7,0.6,2.6,0.9c0,0,0,0,0,0C200.5,5.8,199.6,5.5,198.7,5.2z"/>
	<path class="st3" d="M280.1,85.5c-3.5-1.2-7.2-0.7-10.6-1.7c-2.1-0.6-2-1.8-2-3.7c0-2.4-1.9-3.7-4-4.5c-3.1-1.3-5.6-3.3-7.3-6.2
		c-1.2-2-5.8-8.7-7.9-4.1c-2.1,4.4-4.1,8.4-9.9,8.1c-4.8-0.2-8.4-4.7-8.5-9.3c-0.1-5.6,7.5-5.3,6.9-11.2c-0.7-6.5-8.2-10.2-13.3-13
		c-0.2-0.1-3.6-2-3.1-2.3c1.7-1.1,6,0.7,7.5,1.5c3.1,1.6,7.5,8.2,11.6,5.7c4.2-2.6-4.7-9.6-6.6-10.6c-2.1-1-5.1-0.8-6.7-2.7
		c-1.3-1.6-1.2-4.1-2-5.9c-2.1-5-8.8-8.4-14-9.4c-3.8-0.7-9-3-9.4-7.3c-1.3-0.5-2.6-0.9-3.8-1.3c-4.6,2.1-8.9,4.9-13.5,7
		c-2.1,0.9-6.1,3-8.4,1.5c-3.7-2.4,0.7-9.7-2.2-12.8c-2.1-2.3-7-0.4-9.7-0.4c-0.7,0-3.2-0.8-3.6,0.1c-0.3,0.8,0.5,2.2,0.8,2.9
		c1.2,2.9,1,5.5-3,5c-3-0.4-5.6-2.8-7.3-5.2l-6.6,2.9c3.7,8.9-19.3-0.6-20.5,3.9c-0.4,1.5,2.4,3.2,3.6,3.2c0.8,0,2.4-1.6,3.1-1.1
		c1.5,1.3,1.5,5,1.7,6.9c0,0.3-0.1,2.7,0.4,2.2c3.7-3.4,8.4-5.3,12.1-8.7c1.2-1.1,2.5-2.6,4.1-3c2.1-0.5,4.1,1.5,5.4,2.8
		c4.9,4.7,10.4,11.7,9.6,19c-0.1,1.1-0.6,3.3-2.2,3.1c-2.1-0.4-3.3-4.1-4.7-5.5c-2.9-2.9-10.7-6.3-13-0.8c-1.6,3.7,3.8,5.6,6.3,6.7
		c0.9,0.4,2.7,1,3,2.1c0.4,1.5-3.2,2.4-4.1,2.5c-4.7,0.7-8.3-3.3-11.5-6c-3-2.5-1.5,2.6-0.3,3.9c0.3,0.4,1.5,1.3,1.2,1.9
		c-0.8,1.2-4.4,1.1-5.5,1.2c-7.2,0.7-13.2,2.5-19.2,6.7c-3.8,2.7-7.2,5.8-10.2,9.4c-0.2,0.2-0.4,0.5-0.6,0.7
		c-1.4,5.3-2.6,10.9-5,15.9c-1.3,2.7-1.9,1.1-2-1.1c-0.2-5.1,1.3-11.3-2-15.8c-5.9-8.1-19.1,3.4-23.5,7.7
		c-3.5,3.5-9.4,10.6-5.2,15.7c4.1,5,8.5-2.2,12.7-2.7c1.7-0.2,3.4,0.2,4.9,1.1c-2.5,2.3-5.2,4.3-7.7,6.6c-1.2,1-1.9,2.1,0,2.6
		c1.9,0.5,4.9,0.2,6.3,1.8c1.2,1.4-0.1,3.9-0.6,5.3c-1.2,3.3-3.4,11,0,13.8c2.5,2.1,8.5-0.6,11.1-1.2c12.9-2.8,27-2.3,34.6,10
		c1.2,1.9,1.9,4.1,3.7,5.7c1.9,1.6,4.3,2.5,6.5,3.5c1.6,0.7,3.6,1.4,4.6,3c1.4,2.4-1,5.4-2.1,7.5c-1.7,3.3-5.4,8.8-4.7,12.8
		c0.1,0.9,0.9,1.3,1.7,1c9.8,0.3,21,3.2,29,9c3,2.1,6.1,5.3,5.9,9.3c-0.3,5.6-6.1,9-9.8,12.3c-6.5,5.8-11.1,11.4-12.9,19.9
		c-1.6,7.6-8.6,10.5-15.7,11.6c-6.3,21.8-20.7,18.4-20.7,18.4c-1.6,3.9-4,10.9-8.8,12.1c-2,0.5-4.3-0.5-5.8,1.3
		c-3.1,3.6-1.6,9.6-0.8,13.8c0.4,2.3,2.8,10.2-1.2,10.8c-3.7,0.6-7-2.3-8.1-5.5c-1.8-5.6-0.9-12.1-0.4-17.8
		c0.7-7.6,0.1-14.5-2.1-21.9c-1.2-4.3-3.9-10-2.3-14.5c0.8-2.2,3-3.2,4.6-4.9c2.2-2.3,3.6-5.3,4.3-8.4c1-4.2,1.4-10.5-2.4-13.5
		c-3.3-2.6-9.2-3.7-11.3-7.7c-1.3-2.4,0.8-4.4,2-6.4c1.9-3.3,2.2-6.9,0.5-10.3c-2.4-4.9-8.6-8.5-9.8-13.9c-1.4-6.2,6.2-11.7,10-15.3
		c2.8-2.7,5.6-5.5,8.2-8.4c1.8-2,4.1-4.3,5.1-6.9c0.7-1.6-0.4-2.1-1.9-1.8c-3.5,0.6-6.5,1.9-10.1,1.2c-2.9-0.5-5.8-2-7.8-4.2
		c-0.3-3.1-0.7-6.3-1.5-9.4c-0.3-1.1-0.7-2.6-1.7-3.3c-1.9-1.3-3.3-1.3-4.6-3.7c-1.1-2-1.8-4.1-3.5-5.8C60.6,87,58.8,86,57.1,85
		c-3.1-1.8-5.7-3.7-5.1-7.7c1-6.9,6-12.7,7.6-19.6c0.5-2,0.7-7.6-2.6-4.3c-1.7,1.7-2.8,3.9-3.8,6.1c-0.6,1.2-1.4,3.3-2.7,3.9
		c-2.2,1-0.6-5.8-0.4-6.4c3.8-12.4,14.6-19.2,23.9-27.3c0.8-0.7,6.6-5,5.7-6.4c-2.7,0-4.8-0.8-6.4-2.1c-26.5,15.9-47.9,40-60.4,68.3
		C0.2,117.9-3.2,150,3.1,180.4c10.8,52.3,50.1,96,100.9,112.4c28.9,9.3,60.6,9.6,89.6,0.7c29.7-9.1,56.2-27.5,75.2-52.1
		c1.6-3,6.6-10.7,7.2-10.1c-1.7-1.9-3.4-3.7-6-2.4c-2.3,1.1-4.1,3.2-5.8,5c-5,5.4-9.4,11.2-14.7,16.2c-2.6,2.5-5.4,4.7-7.9,7.4
		c-1.6,1.7-3.1,3.9-5,5.3c-3.7,2.6-6.4-7.1-6.8-9.2c-1.1-5.7,2.2-10.5,6.2-14.1c2.7-2.4,9.4-5.7,9.8-9.7c0.4-4.2-4.6-8.1-3-12.3
		c1-2.6,4.2-3.3,6-5.2c2-2.2,3-5,3.6-7.8c0.5-2.1,0.7-4.5,1.8-6.3c1.1-1.8,3-2.9,4.2-4.7c2.8-4.2,4.7-10.7,0.9-14.9
		c-1.3-1.5-4.2-2.3-4.8-4.4c-0.4-1.5,1.3-2.8,2.3-3.6c3.2-2.6,7.1-5.3,5.8-10c-1.1-3.9-4.7,0.7-6.9,0.5c-3.1-0.3-2.2-6.6-2.6-8.6
		c-0.5-2.3-8.3,1-9.5,1.3c-4.7,1.3-11.7,3.6-15.8-0.4c-3.5-3.4-4-8.9-5.7-13.2c-2.3-5.5-6.6-9.3-9.9-14.1c-2.6-3.8,3.4-2.6,5.6-3.5
		c4.4-1.7,5.1-7,5.2-11.1c0-3.8-0.6-7.5-0.8-11.3c-0.1-2.2-0.3-4.9,0.7-6.9c1.5-3,5.9-1.9,8.5-3.1c2.1-0.9,2-3,2.3-4.9
		c0.4-2.9,2.3-3.5,4.9-4.1c5.1-1.2,10-4.6,15.3-4.6c2,0,3.6,1,4.1,3c0.4,1.4-0.2,4.7,0.9,5.8c0.4,0.4,1.8,0.4,2.4,0.7
		c3.1,1.6,5.2,4.9,7.3,7.5c0.7,0.9,2,3.3,3.4,3.4c1.2,0.1,2.8-1.8,3.7-2.3c2.4-1.5,5.9-2.2,7.6-4.7
		C284.9,87.6,281.8,86.1,280.1,85.5z"/>
	<path class="st4" d="M16.2,82.3C29,57,48.9,35.8,73.2,21.2c1.7,1.2,3.8,2.1,6.4,2.1c0,0,2.9,0-15.5,14.4
		C45.7,52,47.4,71.9,53.1,59.4c5.8-12.6,10.9-8,1.7,9.9c-9.2,17.8,4.8,12.1,9.6,23c4.8,10.9,6.5-2.3,8.8,18.4c0,0,5.8,6.9,16.1,3.4
		c10.3-3.4-1.7,9.2-12.6,19.5c-10.9,10.4-7.5,13.8-1.7,20.1c5.7,6.3,8.1,11.5,2.9,18.4c-5.2,6.9,8.1,9.2,11.5,13.2
		c3.4,4,2.9,17.2-5.2,23c-8,5.7,4,18.4,2.3,36.2c-1.7,17.8-1.3,25.3,6.8,26.4c8.1,1.2-1.1-15.5,2.4-23c3.5-7.5,7.5,5.2,15.5-14.9
		c0,0,14.4,3.4,20.7-18.4c0,0,12.6-1.7,15-8.6c2.3-6.9-0.6-11.5,17.8-26.4c18.4-15-12.6-26.4-29.3-27c0,0-6.1,2.5,4.6-16.7
		c4.7-8.4-9.2-6.3-12.6-13.8c-3.4-7.5-11.5-16.1-27.6-14.4c-16.1,1.7-20.7,7.5-21.3-2.3c-0.6-9.8,6.9-14.4-1.2-15.5
		c-8-1.2-4-1.7,4.6-9.8c0,0-5.2-3.5-10.4,1.7c-5.2,5.2-14.4-2.9-3.5-14.4C79,56,96.2,47.4,95.1,69.3c-1.1,21.8,6.9-9.9,6.9-9.9
		s12.1-15.4,27-16.6c14.9-1.2,5.7-1.7,5.7-6.9c0-5.2,6.9,8.6,15.2,5.2c8.3-3.5-8.9-4.6-7.2-10.3c1.7-5.8,11.5-4,15.5,3.4
		c4,7.5,8.6-4-1.7-16.1c-10.4-12.1-8.6-4.6-18.4,0.6c-9.8,5.2-5.7,8-7.5-0.6c-1.7-8.6-2.3,0.6-6.9-4c-4.6-4.6,8.2-2.5,14.9-1.7
		c6.7,0.7,4.6-4,4.6-4l6.6-2.9c0,0,4.3,6.3,9.5,5.2c5.2-1.1-3.4-9.2,1.7-8c5.2,1.2,12.1-3.4,12.6,3.5c0.6,6.9-4,16.1,15,5.7
		c3.8-2.1,6.4-3.4,8.1-4.2C182.1,2.7,166.4,0,150,0C91.5,0,40.9,33.5,16.2,82.3z"/>
	<path class="st4" d="M200.8,8.9c0.1,1.4,0.6,3.1,3,4.6c7.5,4.6,5.2,0.6,14.9,6.3c9.8,5.8,3.4,12.1,10.9,13.2
		c7.5,1.2,14.4,11.5,8.6,12.1c-5.7,0.6-6.3-6.3-14.9-7.5c-8.6-1.1,3.4,2.9,9.2,8.1c5.7,5.2,5.7,11.3,0,13.7
		c-5.7,2.4-1.5,15.6,7.9,13.9c9.4-1.7,5.9-11.5,11.1-9.2c5.2,2.3,3.4,8,12.1,11.5c8.6,3.4-1.2,8,9.2,8.6c10.4,0.6,15.5,4.6,6.3,8.6
		c-9.2,4-4.6,7.5-12.6-2.3c-8-9.8-7.3-0.4-8-9.8c-0.8-9.4-13.8-0.6-20.7,0.6c-6.9,1.2-1.2,8-7.5,9.2c-6.3,1.2-9.2-0.6-7.5,14.4
		c1.7,15-2.3,18.4-9.2,18.4c-6.9,0,5.8,8,9.2,18.4c3.4,10.3,4,16.7,19,12.6c14.9-4,10.3-4,12.1,4c1.7,8,8-4.6,9.2,3.4
		c1.2,8-14.4,9.8-5.8,14.9c8.6,5.2,2.3,17.2-1.7,20.1c-4,2.9-1.2,13.2-9.8,17.8c-8.6,4.6,4,12.6-1.2,17.8
		c-5.2,5.2-19,11.5-13.8,24.1c5.2,12.6,5.2,5.2,16.1-4c10.9-9.2,20.1-24.7,25.3-24.1c1.9,0.2,2.7,1.6,3.8,2.9
		c-16.7,25.8-41.1,46.2-69.9,57.8C261.1,267,300,213,300,150C300,85,258.6,29.7,200.8,8.9z"/>
	<path class="st2" d="M48.6,39.6c1.3-1.2,2.6-2.2,3.9-3.4l0,0C51.2,37.4,49.9,38.5,48.6,39.6z"/>
</g>
<path class="st2" d="M241,248.9c-0.1,0.1-0.3,0.3-0.4,0.4l0,0C240.7,249.2,240.9,249.1,241,248.9z"/>
<path class="st2" d="M240.5,249.5L240.5,249.5c-2.1,2.3-4.3,4.6-6.5,6.8C236.2,254.1,238.4,251.8,240.5,249.5z"/>
<path class="st2" d="M192.4,285c-2.3,1.1-4.7,2.2-7.1,3.2C187.7,287.2,190,286.1,192.4,285L192.4,285L192.4,285z"/>
<path class="st2" d="M204.1,278.9C204.1,278.9,204.1,278.9,204.1,278.9c-2.5,1.4-4.9,2.8-7.5,4.1
	C199.2,281.7,201.6,280.3,204.1,278.9z"/>
<g>
	<g>
		<g>
			<circle class="st5" cx="230.7" cy="229.2" r="69.3"/>
			<circle class="st5" cx="230.7" cy="230.7" r="69.3"/>
		</g>
	</g>
	<circle class="st4" cx="230.7" cy="230.7" r="64"/>
	<path class="st5" d="M252.9,209.5l-13.4,34h-5.1l13.3-34H252.9z"/>
	<g>
		<path class="st6" d="M181.7,223.5c0-5.9,5.7-8.5,10.8-8.5c5.6,0,11.7,2.3,11.7,8.9c0,7.1-5.4,8.5-11.3,8.5c-2.3,0-6.1,0.6-6.1,3.6
			v2.4h17.4v4.9h-22.7c0-2.4,0-4.9,0-7.4c0-6.5,5.9-8.4,11.4-8.4c2.1,0,6-0.4,6-3.6c0-3-2.8-4.5-6.4-4.5c-2.8,0-5.6,1.4-5.7,3.9
			H181.7z"/>
		<path class="st6" d="M228.1,215.5V233h3.3v5.1h-3.3v5.3h-5.2v-5.3h-15l-0.5-5.4l12.6-17.3H228.1z M222.9,233v-13l-9.5,13H222.9z"
			/>
	</g>
	<path class="st6" d="M258.3,243.5l11.5-23h-13.7v-5.1h20.6l0.3,2.8l-12.6,25.3H258.3z"/>
	<g>
		<g>
			<path class="st6" d="M230.7,164.5c-0.8,0-1.5,0.3-1.5,0.8v7.5c0,0.4,0.7,0.8,1.5,0.8c0.8,0,1.5-0.3,1.5-0.8v-7.5
				C232.3,164.8,231.6,164.5,230.7,164.5z"/>
			<path class="st6" d="M230.7,288c-0.8,0-1.5,0.3-1.5,0.8v7.5c0,0.4,0.7,0.8,1.5,0.8c0.8,0,1.5-0.3,1.5-0.8v-7.5
				C232.3,288.3,231.6,288,230.7,288z"/>
			<path class="st6" d="M297,230.7c0-0.8-0.3-1.5-0.8-1.5h-7.5c-0.4,0-0.8,0.7-0.8,1.5c0,0.8,0.3,1.5,0.8,1.5h7.5
				C296.7,232.3,297,231.6,297,230.7z"/>
			<path class="st6" d="M173.5,230.7c0-0.8-0.3-1.5-0.8-1.5h-7.5c-0.4,0-0.8,0.7-0.8,1.5c0,0.8,0.3,1.5,0.8,1.5h7.5
				C173.2,232.3,173.5,231.6,173.5,230.7z"/>
		</g>
		<g>
			<path class="st6" d="M197.6,173.4c-0.7,0.4-1.1,1-0.9,1.4l3.8,6.5c0.2,0.4,1,0.3,1.7-0.1c0.7-0.4,1.1-1,0.9-1.4l-3.8-6.5
				C199.1,172.9,198.3,173,197.6,173.4z"/>
			<path class="st6" d="M259.4,280.3c-0.7,0.4-1.1,1-0.9,1.4l3.8,6.5c0.2,0.4,1,0.3,1.7-0.1c0.7-0.4,1.1-1,0.9-1.4l-3.8-6.5
				C260.8,279.8,260.1,279.9,259.4,280.3z"/>
			<path class="st6" d="M288.1,197.6c-0.4-0.7-1-1.1-1.4-0.9l-6.5,3.8c-0.4,0.2-0.3,1,0.1,1.7c0.4,0.7,1,1.1,1.4,0.9l6.5-3.8
				C288.6,199.1,288.5,198.3,288.1,197.6z"/>
			<path class="st6" d="M181.2,259.4c-0.4-0.7-1-1.1-1.4-0.9l-6.5,3.8c-0.4,0.2-0.3,1,0.1,1.7c0.4,0.7,1,1.1,1.4,0.9l6.5-3.8
				C181.7,260.8,181.6,260.1,181.2,259.4z"/>
		</g>
		<g>
			<path class="st6" d="M173.4,197.6c-0.4,0.7-0.5,1.5-0.1,1.7l6.5,3.8c0.4,0.2,1-0.2,1.4-0.9c0.4-0.7,0.5-1.5,0.1-1.7l-6.5-3.8
				C174.4,196.5,173.8,196.9,173.4,197.6z"/>
			<path class="st6" d="M280.3,259.4c-0.4,0.7-0.5,1.5-0.1,1.7l6.5,3.8c0.4,0.2,1-0.2,1.4-0.9c0.4-0.7,0.5-1.5,0.1-1.7l-6.5-3.8
				C281.3,258.2,280.7,258.6,280.3,259.4z"/>
			<path class="st6" d="M263.9,173.4c-0.7-0.4-1.5-0.5-1.7-0.1l-3.8,6.5c-0.2,0.4,0.2,1,0.9,1.4c0.7,0.4,1.5,0.5,1.7,0.1l3.8-6.5
				C265,174.4,264.6,173.8,263.9,173.4z"/>
			<path class="st6" d="M202.1,280.3c-0.7-0.4-1.5-0.5-1.7-0.1l-3.8,6.5c-0.2,0.4,0.2,1,0.9,1.4c0.7,0.4,1.5,0.5,1.7,0.1l3.8-6.5
				C203.3,281.3,202.9,280.7,202.1,280.3z"/>
		</g>
	</g>
</g>
</svg>
