<svg xmlns="http://www.w3.org/2000/svg" width="100%" height="100%" viewBox="0 0 1782.03 1418.87">
    <defs>
        <style>
            .a{fill:#8e43e7}
        </style>
    </defs>
    <title>
        Asset 1
    </title>
    <path class="a" d="M1739.68,787.44H1439.11a42.39,42.39,0,0,0-42.35,42.35v546.72a42.4,42.4,0,0,0,42.35,42.36h300.57a42.4,42.4,0,0,0,42.35-42.36V829.79A42.4,42.4,0,0,0,1739.68,787.44Zm-7.45,581.63H1446.56V837.24h285.67Z"/>
    <path class="a" d="M1589.15,1288.5a24,24,0,1,0,24,24A24,24,0,0,0,1589.15,1288.5Z"/>
    <path class="a" d="M1630.08,870.33a12.24,12.24,0,0,0-5.92-1.57h-69.54a12.21,12.21,0,0,0-5.92,1.57,12.41,12.41,0,0,0,5.92,23.34h69.54a12.41,12.41,0,0,0,5.92-23.34Z"/>
    <path class="a" d="M49.8,71.28c0-11.84,8.07-21.48,18-21.48H1608.53c9.93,0,18,9.64,18,21.48V745.94h49.8V71.28c0-39.3-30.41-71.28-67.8-71.28H67.79C30.41,0,0,32,0,71.28V1092.35c0,39.3,30.41,71.28,67.79,71.28H681.86v205.28H444.91a24.9,24.9,0,0,0,0,49.8h786.52a24.9,24.9,0,0,0,0-49.8h-237V1163.63h353.19v-49.8H67.79c-9.92,0-18-9.64-18-21.48V920.13H1347.67v-49.8H49.8ZM944.68,1368.91h-213V1163.63h213v205.28Z"/>
    <path class="a" d="M799.28,1015.05a38.89,38.89,0,1,0,38.88-38.89A38.88,38.88,0,0,0,799.28,1015.05Z"/>
    <path class="a" d="M264.22,267h795.72a24.9,24.9,0,0,0,0-49.8H264.22a24.9,24.9,0,0,0,0,49.8Z"/>
    <path class="a" d="M919.78,365.84H378.19c-14.73,0-26.61,12.07-25.53,26.76a24.89,24.89,0,0,0,24.83,23H919.78a24.9,24.9,0,0,0,0-49.8Z"/>
    <path class="a" d="M1412.12,514.54H328.19c-14.73,0-26.61,12.07-25.53,26.76a24.89,24.89,0,0,0,24.83,23.05H1411.56c14,0,25.72-11.43,25.45-25.39A24.89,24.89,0,0,0,1412.12,514.54Z"/>
    <path class="a" d="M1261.73,663.23H264.22a24.9,24.9,0,0,0,0,49.8h997.51a24.9,24.9,0,1,0,0-49.8Z"/>
</svg>
