<svg xmlns="http://www.w3.org/2000/svg" width="100%" height="100%" viewBox="0 0 1781.42 1778.29">
    <defs>
        <style>
            .a{fill:#8e43e7}
        </style>
    </defs>
    <title>
        Asset 1
    </title>
    <path class="a" d="M1532.32,1529.29h0a91.3,91.3,0,1,0-129.12,0A91.4,91.4,0,0,0,1532.32,1529.28Zm-100.73-28.4a51.15,51.15,0,1,1,72.33,0A50.84,50.84,0,0,1,1431.59,1500.89Z"/>
    <path class="a" d="M1691.64,391.88l.07-.07.13-.13,5.5-5.51-.14-.13c81.84-87.82,80-225.82-5.5-311.36a224.14,224.14,0,0,0-311.36-5.51l-.13-.13-5.51,5.51-.14.13-.06.07L57.08,1392.16l.51.52a31,31,0,0,0-14,21.9L.29,1731.05a31.12,31.12,0,0,0,30.83,35.34,31.76,31.76,0,0,0,4.23-.29l316.45-43.34a31,31,0,0,0,21.91-14l.51.51ZM1533.13,71.24a160.92,160.92,0,0,1,114.55,47.45c55.65,55.64,62.28,142,19.9,205L1442.68,98.78A160.91,160.91,0,0,1,1533.13,71.24Zm-152.92,85.82,229.11,229.11L374.22,1621.27,288,1535.08l991.42-991.41-59.35-59.34L228.69,1475.75l-83.59-83.59ZM67.51,1698.87l35.68-260.6,224.92,224.92Z"/>
    <path class="a" d="M497.65,793.62l56.79-56.79L100,282.38,285.43,97l87.92,87.93-63.79,63.78L359.92,299l63.79-63.78L475,286.5l-63.79,63.79,50.36,50.35,63.8-63.78,51.26,51.27-94.38,94.35,50.38,50.36L627,438.48l62.5,62.5-63.79,63.8L676,615.14l63.8-63.8,0,0,56.79-56.79L313.82,11.76a40.16,40.16,0,0,0-56.79,0L14.81,254a40.14,40.14,0,0,0,0,56.79Z"/>
    <path class="a" d="M1769.65,1467.43c-.72-.73-1.47-1.42-2.24-2.09L1262.13,960.07,1111,1111.23l50.26,50.26,94.37-94.37,428.79,428.78L1499,1681.33l-479-479-56.79,56.8,507.43,507.43a40.14,40.14,0,0,0,56.79,0l242.24-242.21a.31.31,0,0,1,.07-.09A40.14,40.14,0,0,0,1769.65,1467.43Z"/>
</svg>
