<?xml version="1.0" encoding="UTF-8" standalone="no"?>
<!DOCTYPE svg PUBLIC "-//W3C//DTD SVG 1.1//EN" "http://www.w3.org/Graphics/SVG/1.1/DTD/svg11.dtd">
<svg width="100%" height="100%" viewBox="0 0 1800 1800" version="1.1" xmlns="http://www.w3.org/2000/svg" xmlns:xlink="http://www.w3.org/1999/xlink" xml:space="preserve" xmlns:serif="http://www.serif.com/" style="fill-rule:evenodd;clip-rule:evenodd;stroke-linejoin:round;stroke-miterlimit:2">
    <g>
        <path d="M1720.34,5.563l-1635.09,0c-43.937,0 -79.679,35.739 -79.679,79.667l0,1635.1c0,43.928 35.743,79.67 79.679,79.67l1635.09,0c43.927,0 79.665,-35.742 79.665,-79.67l0,-1635.1c0,-43.928 -35.738,-79.667 -79.665,-79.667Zm-1635.09,63.012l1635.09,0c9.182,0 16.653,7.473 16.653,16.655l0,195.532l-1668.41,0l0,-195.532c0,-9.182 7.477,-16.655 16.667,-16.655Zm1635.09,1668.41l-1635.09,0c-9.19,0 -16.667,-7.472 -16.667,-16.658l0,-1376.56l1668.41,0l0,1376.56c0,9.187 -7.471,16.658 -16.653,16.658Z" style="fill:#8e43e7;fill-rule:nonzero"/>
        <path d="M1518.68,1150.93l-1184.73,0c-47.154,0 -85.517,38.363 -85.517,85.517l0,315.061c0,47.152 38.363,85.516 85.517,85.516l1184.73,0c47.154,0 85.518,-38.363 85.518,-85.516l0,-315.061c0,-47.154 -38.363,-85.517 -85.517,-85.517Zm22.505,400.577c0,12.403 -10.096,22.504 -22.505,22.504l-1184.73,0c-12.409,0 -22.504,-10.101 -22.504,-22.504l0,-315.061c0,-12.412 10.096,-22.505 22.504,-22.505l1184.73,0c12.409,0 22.505,10.093 22.505,22.505l0,315.061l0.001,0Z" style="fill:#8e43e7;fill-rule:nonzero"/>
        <path d="M333.948,913.886l305.565,0c47.153,0 85.517,-38.365 85.517,-85.519l0,-305.565c0,-47.154 -38.363,-85.516 -85.517,-85.516l-305.565,0c-47.154,0 -85.517,38.362 -85.517,85.516l0,305.565c0.001,47.154 38.363,85.519 85.517,85.519Zm-22.504,-391.084c0,-12.408 10.096,-22.504 22.504,-22.504l305.565,0c12.408,0 22.505,10.096 22.505,22.504l0,305.565c0,12.408 -10.097,22.505 -22.505,22.505l-305.565,0c-12.409,0 -22.504,-10.097 -22.504,-22.505l0,-305.565Z" style="fill:#8e43e7;fill-rule:nonzero"/>
        <path d="M1572.69,996.396l-1292.75,0c-17.401,0 -31.506,14.108 -31.506,31.505c0,17.406 14.105,31.507 31.506,31.507l1292.75,0c17.401,0 31.507,-14.101 31.507,-31.507c0,-17.396 -14.105,-31.505 -31.507,-31.505Z" style="fill:#8e43e7;fill-rule:nonzero"/>
        <path d="M1572.69,832.116l-714.131,0c-17.402,0 -31.507,14.105 -31.507,31.507c0,17.401 14.105,31.505 31.507,31.505l714.132,0c17.401,0 31.507,-14.104 31.507,-31.505c-0.001,-17.401 -14.106,-31.507 -31.508,-31.507Z" style="fill:#8e43e7;fill-rule:nonzero"/>
        <path d="M1572.69,643.081l-714.131,0c-17.402,0 -31.507,14.105 -31.507,31.506c0,17.401 14.105,31.505 31.507,31.505l714.132,0c17.401,0 31.507,-14.104 31.507,-31.505c-0.001,-17.401 -14.106,-31.506 -31.508,-31.506Z" style="fill:#8e43e7;fill-rule:nonzero"/>
        <path d="M1572.69,454.044l-714.131,0c-17.402,0 -31.507,14.105 -31.507,31.507c0,17.401 14.105,31.505 31.507,31.505l714.132,0c17.401,0 31.507,-14.104 31.507,-31.505c-0.001,-17.401 -14.106,-31.507 -31.508,-31.507Z" style="fill:#8e43e7;fill-rule:nonzero"/>
        <circle cx="204.913" cy="171.616" r="50.635" style="fill:#8e43e7"/>
        <circle cx="364.694" cy="171.616" r="50.635" style="fill:#8e43e7"/>
        <circle cx="524.474" cy="171.616" r="50.635" style="fill:#8e43e7"/>
    </g>
</svg>
