<?xml version="1.0" encoding="UTF-8" standalone="no"?><!DOCTYPE svg PUBLIC "-//W3C//DTD SVG 1.1//EN" "http://www.w3.org/Graphics/SVG/1.1/DTD/svg11.dtd"><svg width="100%" height="100%" viewBox="0 0 1800 1800" version="1.1" xmlns="http://www.w3.org/2000/svg" xmlns:xlink="http://www.w3.org/1999/xlink" xml:space="preserve" xmlns:serif="http://www.serif.com/" style="fill-rule:evenodd;clip-rule:evenodd;stroke-linejoin:round;stroke-miterlimit:2;"><g><path d="M1741.4,786.797l-35.999,0c-32.197,-298.013 -226.637,-548.089 -492.951,-659.834l305.92,0l0,31.245c0,17.376 14.079,31.46 31.461,31.46l125.409,0c17.381,0 31.459,-14.084 31.459,-31.46l0,-125.41c0,-17.375 -14.078,-31.46 -31.459,-31.46l-125.409,0c-17.382,0 -31.461,14.084 -31.461,31.46l0,31.245l-524.209,0l0,-31.245c0,-17.375 -14.079,-31.46 -31.46,-31.46l-125.416,0c-17.376,0 -31.46,14.084 -31.46,31.46l0,31.245l-524.209,0l0,-31.245c0,-17.375 -14.084,-31.46 -31.46,-31.46l-125.407,0c-17.375,0 -31.459,14.084 -31.459,31.46l0,125.41c0,17.376 14.084,31.46 31.459,31.46l125.406,0c17.375,0 31.46,-14.084 31.46,-31.46l0,-31.245l305.933,0c-266.322,111.745 -460.758,361.822 -492.954,659.834l-35.999,0c-17.376,0 -31.46,14.084 -31.46,31.46l0,125.409c0,17.375 14.083,31.459 31.46,31.459l125.418,0c17.376,0 31.46,-14.084 31.46,-31.459l0,-125.409c0,-17.375 -14.083,-31.46 -31.46,-31.46l-26.088,0c39.887,-339.954 308.838,-610.875 647.899,-653.703l0,25.114c0,17.376 14.084,31.46 31.46,31.46l125.417,0c17.381,0 31.46,-14.084 31.46,-31.46l0,-25.116c339.064,42.821 608.012,313.747 647.908,653.706l-26.08,0c-17.38,0 -31.46,14.084 -31.46,31.46l0,125.409c0,17.375 14.08,31.459 31.46,31.459l125.411,0c17.38,0 31.46,-14.084 31.46,-31.459l0,-125.41c0,-17.375 -14.08,-31.46 -31.46,-31.46Zm-97.62,-660.049l-62.49,0l0,-31.245l0,-31.245l62.49,0l0,62.49Zm-1487.57,-62.49l62.485,0l0,62.49l-62.485,0l0,-62.49Zm-3.656,813.665l0,34.282l-62.499,0l0,-34.225l0,-20.505c0.052,-2.589 0.119,-5.174 0.193,-7.758l62.306,0l0,28.206Zm747.449,-813.665c10.461,0 20.871,0.266 31.237,0.661l0,61.829l-62.496,0l0,-61.83c10.376,-0.394 20.787,-0.66 31.259,-0.66Zm809.936,793.562l0,54.385l-62.489,0l0,-34.225l0,-28.263l62.287,0c0.089,2.698 0.15,5.399 0.202,8.103Z" style="fill:#8e43e7;fill-rule:nonzero;"/><path d="M928.829,250.905c-5.003,-11.464 -16.327,-18.875 -28.833,-18.875c-12.509,0 -23.828,7.411 -28.831,18.875l-409.868,939.046c-3.283,7.523 -3.497,16.025 -0.601,23.701l0.487,1.291c3.335,8.838 10.468,15.707 19.421,18.713c98.036,32.9 163.906,124.49 163.906,227.906c0,43.082 -11.574,85.383 -33.466,122.33c-0.68,1.145 -1.259,2.33 -1.782,3.541c-3.559,5.096 -5.662,11.285 -5.662,17.973l0,159.314c0,17.285 13.948,31.338 31.231,31.463l529.877,3.816l0.238,0c17.266,0 31.328,-13.939 31.45,-31.23c0.122,-17.377 -13.859,-31.566 -31.23,-31.689l-498.646,-3.59l0,-79.055l486.778,0c13.14,0 24.902,-8.168 29.484,-20.479l8.585,-23.059c3.318,-8.91 2.432,-18.84 -2.423,-27.02c-21.884,-36.934 -33.452,-79.23 -33.452,-122.316c0,-103.416 65.86,-195.006 163.901,-227.906c8.979,-3.018 16.125,-9.924 19.452,-18.801l0.482,-1.291c2.861,-7.654 2.634,-16.121 -0.632,-23.613l-409.866,-939.045Zm-28.833,875.661c34.811,0 63.138,28.318 63.138,63.123c0,34.809 -28.327,63.125 -63.138,63.125c-34.809,0 -63.126,-28.316 -63.126,-63.125c0,-34.804 28.317,-63.123 63.126,-63.123Zm192.575,334.997c0,45.088 10.052,89.504 29.241,129.953l-443.625,0c19.198,-40.457 29.244,-84.869 29.244,-129.953c0,-119.287 -69.455,-226.105 -175.883,-275.271l336.988,-772.079l0,653.407c-54.331,14.008 -94.586,63.43 -94.586,122.07c0,69.504 56.543,126.045 126.047,126.045c69.51,0 126.058,-56.541 126.058,-126.045c0,-58.646 -40.265,-108.063 -94.601,-122.07l0,-653.406l336.994,772.077c-106.425,49.176 -175.877,155.984 -175.877,275.272Z" style="fill:#8e43e7;fill-rule:nonzero;"/></g></svg>