<?xml version="1.0" encoding="UTF-8" standalone="no"?><!DOCTYPE svg PUBLIC "-//W3C//DTD SVG 1.1//EN" "http://www.w3.org/Graphics/SVG/1.1/DTD/svg11.dtd"><svg width="100%" height="100%" viewBox="0 0 1800 1800" version="1.1" xmlns="http://www.w3.org/2000/svg" xmlns:xlink="http://www.w3.org/1999/xlink" xml:space="preserve" xmlns:serif="http://www.serif.com/" style="fill-rule:evenodd;clip-rule:evenodd;stroke-linejoin:round;stroke-miterlimit:2;"><g><path d="M1346.86,3.943l-893.72,0c-45.89,0 -83.232,37.339 -83.232,83.229l0,1625.65c0,45.891 37.342,83.23 83.232,83.23l893.72,0c45.891,0 83.229,-37.34 83.229,-83.23l0,-1625.65c0.001,-45.89 -37.338,-83.23 -83.229,-83.23Zm-893.72,62.667l893.72,0c11.34,0 20.563,9.223 20.563,20.563l0,172.719l-934.846,0l0,-172.719c0,-11.34 9.223,-20.563 20.563,-20.563Zm914.283,224.624l0,1169.79l-934.846,0l0,-1169.79l934.846,0Zm-20.563,1442.16l-893.72,0c-11.34,0 -20.563,-9.224 -20.563,-20.563l0,-220.47l934.846,0l0,220.47c0,11.339 -9.223,20.563 -20.563,20.563Z" style="fill:#8e43e7;fill-rule:nonzero;"/><path d="M949.946,143.519l-43.739,0l-12.412,0l-43.74,0c-8.655,0 -15.667,7.012 -15.667,15.667c0,8.646 7.012,15.667 15.667,15.667l99.891,0c8.655,0 15.667,-7.021 15.667,-15.667c0,-8.655 -7.011,-15.667 -15.667,-15.667Z" style="fill:#8e43e7;fill-rule:nonzero;"/><path d="M900.002,1538.7c-39.779,0 -72.144,32.355 -72.144,72.135c0,39.778 32.365,72.145 72.144,72.145c39.777,0 72.142,-32.366 72.142,-72.145c0,-39.779 -32.365,-72.135 -72.142,-72.135Zm0,112.945c-22.503,0 -40.81,-18.307 -40.81,-40.811c0,-22.495 18.307,-40.802 40.81,-40.802c22.501,0 40.809,18.307 40.809,40.802c0,22.505 -18.308,40.811 -40.809,40.811Z" style="fill:#8e43e7;fill-rule:nonzero;"/></g></svg>